<svg width="32" height="32" viewBox="0 0 32 32" fill="none" xmlns="http://www.w3.org/2000/svg">
<g id="plus">
<g id="shape">
<path fill-rule="evenodd" clip-rule="evenodd" d="M16.6668 7.99992C16.6668 7.63173 16.3684 7.33325 16.0002 7.33325C15.632 7.33325 15.3335 7.63173 15.3335 7.99992V15.3333H8.00016C7.63197 15.3333 7.3335 15.6317 7.3335 15.9999C7.3335 16.3681 7.63197 16.6666 8.00016 16.6666H15.3335V23.9999C15.3335 24.3681 15.632 24.6666 16.0002 24.6666C16.3684 24.6666 16.6668 24.3681 16.6668 23.9999V16.6666H24.0002C24.3684 16.6666 24.6668 16.3681 24.6668 15.9999C24.6668 15.6317 24.3684 15.3333 24.0002 15.3333H16.6668V7.99992Z" fill="#16C8D3"/>
</g>
</g>
</svg>
