<svg width="24" height="24" viewBox="0 0 24 24" fill="none" xmlns="http://www.w3.org/2000/svg">
<g id="icon left">
<g id="shape">
<path fill-rule="evenodd" clip-rule="evenodd" d="M5.56801 4.00213C5.20809 3.9794 4.85357 4.09881 4.58071 4.33474C4.30709 4.57134 4.13758 4.90611 4.10881 5.26669L4.10811 5.27671C3.99218 7.22204 4.28669 9.17 4.97253 10.9941C5.65837 12.8182 6.72019 14.4777 8.08906 15.8647C9.45792 17.2518 11.1032 18.3354 12.9181 19.0453C14.733 19.7552 16.6769 20.0754 18.6236 19.9851L18.6345 19.9845C18.8163 19.9721 18.9939 19.9237 19.1569 19.842C19.32 19.7604 19.4651 19.6472 19.584 19.509C19.7029 19.3709 19.7932 19.2104 19.8496 19.0371C19.9056 18.8646 19.9271 18.6828 19.9127 18.5021L19.6634 15.0088C19.6373 14.6445 19.4793 14.3022 19.2188 14.0461C18.9584 13.79 18.6134 13.6378 18.2487 13.6179L15.6524 13.4763C15.5105 13.4686 15.372 13.5215 15.2716 13.622L13.5869 15.3066C11.4837 14.2973 9.78706 12.6007 8.77775 10.4974L10.5671 8.708C10.6696 8.60549 10.7226 8.46352 10.7123 8.31891L10.5175 5.58581C10.4915 5.22147 10.3335 4.87912 10.073 4.623C9.81261 4.36689 9.46768 4.2146 9.10296 4.1947L5.56801 4.00213ZM5.23479 5.09117C5.30967 5.02642 5.40703 4.99374 5.50582 5.00019L9.04849 5.19322C9.17007 5.19985 9.28504 5.25061 9.37185 5.33598C9.45866 5.42135 9.51133 5.53547 9.51999 5.65692L9.69856 8.16232L7.82456 10.0364C7.67878 10.1822 7.63743 10.4025 7.72043 10.5912C8.85452 13.17 10.9143 15.2299 13.4931 16.364C13.6819 16.447 13.9022 16.4056 14.048 16.2598L15.8208 14.487L18.1943 14.6164C18.3159 14.623 18.4309 14.6738 18.5177 14.7592C18.6045 14.8445 18.6572 14.9587 18.6659 15.0802L18.9154 18.5755L18.9158 18.5807C18.9199 18.6304 18.914 18.6804 18.8986 18.7278C18.8832 18.7752 18.8585 18.819 18.826 18.8568C18.7935 18.8946 18.7538 18.9256 18.7092 18.9479C18.666 18.9695 18.6189 18.9826 18.5707 18.9865C16.7663 19.0692 14.9646 18.772 13.2824 18.114C11.5981 17.4552 10.0712 16.4495 8.80082 15.1623C7.53046 13.8751 6.54504 12.335 5.90855 10.6422C5.27278 8.9512 4.99935 7.14555 5.10598 5.34221C5.11478 5.24506 5.16092 5.15504 5.23479 5.09117Z" fill="#323A45"/>
</g>
</g>
</svg>
