<svg width="33" height="32" viewBox="0 0 33 32" fill="none" xmlns="http://www.w3.org/2000/svg">
<g id="cart">
<g id="shape">
<path d="M4.5 5.33341C4.5 4.96522 4.79848 4.66675 5.16667 4.66675H6.81494C7.71684 4.66675 8.50716 5.27039 8.74447 6.14051L9.43344 8.66675H27.8333C28.0386 8.66675 28.2325 8.76133 28.3588 8.92314C28.4851 9.08495 28.5299 9.29594 28.4801 9.49511L26.0659 19.1518C25.8433 20.0422 25.0434 20.6667 24.1256 20.6667H12.8517C11.9498 20.6667 11.1595 20.0631 10.9222 19.193L7.45811 6.49134C7.37901 6.2013 7.11557 6.00008 6.81494 6.00008H5.16667C4.79848 6.00008 4.5 5.7016 4.5 5.33341Z" fill="#FAFAFA"/>
<path d="M24.5 26.6667C25.6046 26.6667 26.5 25.7713 26.5 24.6667C26.5 23.5622 25.6046 22.6667 24.5 22.6667C23.3954 22.6667 22.5 23.5622 22.5 24.6667C22.5 25.7713 23.3954 26.6667 24.5 26.6667Z" fill="#FAFAFA"/>
<path d="M12.5 26.6667C13.6046 26.6667 14.5 25.7713 14.5 24.6667C14.5 23.5622 13.6046 22.6667 12.5 22.6667C11.3954 22.6667 10.5 23.5622 10.5 24.6667C10.5 25.7713 11.3954 26.6667 12.5 26.6667Z" fill="#FAFAFA"/>
</g>
</g>
</svg>
