<svg width="24" height="24" viewBox="0 0 24 24" fill="none" xmlns="http://www.w3.org/2000/svg">
<g id="icon left">
<g id="shape">
<path fill-rule="evenodd" clip-rule="evenodd" d="M16 19C16 17.8954 16.8954 17 18 17C19.1046 17 20 17.8954 20 19C20 20.1046 19.1046 21 18 21C16.8954 21 16 20.1046 16 19ZM17 19C17 18.4477 17.4477 18 18 18C18.5523 18 19 18.4477 19 19C19 19.5523 18.5523 20 18 20C17.4477 20 17 19.5523 17 19Z" fill="#323A45"/>
<path fill-rule="evenodd" clip-rule="evenodd" d="M7 19C7 17.8954 7.89543 17 9 17C10.1046 17 11 17.8954 11 19C11 20.1046 10.1046 21 9 21C7.89543 21 7 20.1046 7 19ZM8 19C8 18.4477 8.44772 18 9 18C9.55228 18 10 18.4477 10 19C10 19.5523 9.55228 20 9 20C8.44772 20 8 19.5523 8 19Z" fill="#323A45"/>
<path fill-rule="evenodd" clip-rule="evenodd" d="M3 3.5C3 3.22386 3.22386 3 3.5 3H4.5C4.89782 3 5.27936 3.15804 5.56066 3.43934C5.84196 3.72064 6 4.10217 6 4.5V13.5C6 13.8978 6.15804 14.2794 6.43934 14.5607C6.72064 14.842 7.10218 15 7.5 15H8V7.5C8 7.22386 8.22386 7 8.5 7H10V3.5C10 3.22386 10.2239 3 10.5 3H16.5C16.7761 3 17 3.22386 17 3.5V7H18.5C18.7761 7 19 7.22386 19 7.5V15H20.5C20.7761 15 21 15.2239 21 15.5C21 15.7761 20.7761 16 20.5 16H18.5H8.5H7.5C6.83696 16 6.20107 15.7366 5.73223 15.2678C5.26339 14.7989 5 14.163 5 13.5V4.5C5 4.36739 4.94732 4.24021 4.85355 4.14645C4.75978 4.05268 4.63261 4 4.5 4H3.5C3.22386 4 3 3.77614 3 3.5ZM9 15V8H10.5H12V9.5C12 9.77614 12.2239 10 12.5 10H14.5C14.7761 10 15 9.77614 15 9.5V8H16.5H18V15H9ZM14 9H13V8H14V9ZM11 7V4H16V7H14.5H12.5H11Z" fill="#323A45"/>
</g>
</g>
</svg>
