<svg width="33" height="32" viewBox="0 0 33 32" fill="none" xmlns="http://www.w3.org/2000/svg">
<g id="cart">
<g id="shape">
<path fill-rule="evenodd" clip-rule="evenodd" d="M4.5 5.33335C4.5 4.96516 4.79848 4.66669 5.16667 4.66669H6.81494C7.71684 4.66669 8.50716 5.27033 8.74447 6.14045L9.43344 8.66669H26.1256C27.4268 8.66669 28.3815 9.88946 28.0659 11.1518L26.0659 19.1518C25.8433 20.0421 25.0434 20.6667 24.1256 20.6667H12.8517C11.9498 20.6667 11.1595 20.063 10.9222 19.1929L7.45811 6.49128C7.37901 6.20123 7.11557 6.00002 6.81494 6.00002H5.16667C4.79848 6.00002 4.5 5.70154 4.5 5.33335ZM12.2086 18.8421L9.79708 10H26.1256C26.5593 10 26.8776 10.4076 26.7724 10.8284L24.7724 18.8284C24.6982 19.1252 24.4315 19.3334 24.1256 19.3334H12.8517C12.5511 19.3334 12.2877 19.1321 12.2086 18.8421Z" fill="#FAFAFA"/>
<path fill-rule="evenodd" clip-rule="evenodd" d="M21.8333 24.6667C21.8333 23.1939 23.0272 22 24.5 22C25.9728 22 27.1667 23.1939 27.1667 24.6667C27.1667 26.1394 25.9728 27.3334 24.5 27.3334C23.0272 27.3334 21.8333 26.1394 21.8333 24.6667ZM23.1667 24.6667C23.1667 23.9303 23.7636 23.3334 24.5 23.3334C25.2364 23.3334 25.8333 23.9303 25.8333 24.6667C25.8333 25.4031 25.2364 26 24.5 26C23.7636 26 23.1667 25.4031 23.1667 24.6667Z" fill="#FAFAFA"/>
<path fill-rule="evenodd" clip-rule="evenodd" d="M9.83333 24.6667C9.83333 23.1939 11.0272 22 12.5 22C13.9728 22 15.1667 23.1939 15.1667 24.6667C15.1667 26.1394 13.9728 27.3334 12.5 27.3334C11.0272 27.3334 9.83333 26.1394 9.83333 24.6667ZM11.1667 24.6667C11.1667 23.9303 11.7636 23.3334 12.5 23.3334C13.2364 23.3334 13.8333 23.9303 13.8333 24.6667C13.8333 25.4031 13.2364 26 12.5 26C11.7636 26 11.1667 25.4031 11.1667 24.6667Z" fill="#FAFAFA"/>
</g>
</g>
</svg>
