<svg width="24" height="24" viewBox="0 0 24 24" fill="none" xmlns="http://www.w3.org/2000/svg">
<g id="icon left">
<g id="shape">
<path d="M3 20.5C3 20.2239 3.22386 20 3.5 20H20.5C20.7761 20 21 20.2239 21 20.5C21 20.7761 20.7761 21 20.5 21H3.5C3.22386 21 3 20.7761 3 20.5Z" fill="#323A45"/>
<path d="M14.1464 3.14645C14.3417 2.95119 14.6583 2.95118 14.8535 3.14644C15.0313 3.32419 15.1723 3.53522 15.2685 3.76746C15.3647 3.9997 15.4142 4.24862 15.4142 4.5C15.4142 4.75138 15.3647 5.0003 15.2685 5.23254C15.1723 5.46479 15.0313 5.67581 14.8535 5.85356C14.7687 5.93845 14.7013 6.03923 14.6554 6.15015C14.6094 6.26106 14.5858 6.37994 14.5858 6.5C14.5858 6.62006 14.6094 6.73894 14.6554 6.84985C14.7013 6.96077 14.7687 7.06155 14.8535 7.14644C15.0488 7.3417 15.0488 7.65829 14.8536 7.85355C14.6583 8.04881 14.3417 8.04882 14.1465 7.85356C13.9687 7.67581 13.8277 7.46479 13.7315 7.23254C13.6353 7.0003 13.5858 6.75138 13.5858 6.5C13.5858 6.24862 13.6353 5.9997 13.7315 5.76746C13.8277 5.53521 13.9687 5.32419 14.1465 5.14644C14.2313 5.06155 14.2987 4.96077 14.3446 4.84985C14.3906 4.73894 14.4142 4.62006 14.4142 4.5C14.4142 4.37994 14.3906 4.26106 14.3446 4.15015C14.2987 4.03923 14.2313 3.93845 14.1465 3.85356C13.9512 3.6583 13.9512 3.34171 14.1464 3.14645Z" fill="#323A45"/>
<path d="M10.1464 3.14645C10.3417 2.95119 10.6583 2.95118 10.8535 3.14644C11.0313 3.32419 11.1723 3.53522 11.2685 3.76746C11.3647 3.9997 11.4142 4.24862 11.4142 4.5C11.4142 4.75138 11.3647 5.0003 11.2685 5.23254C11.1723 5.46479 11.0313 5.67581 10.8535 5.85356C10.7687 5.93845 10.7013 6.03923 10.6554 6.15015C10.6094 6.26106 10.5858 6.37994 10.5858 6.5C10.5858 6.62006 10.6094 6.73894 10.6554 6.84985C10.7013 6.96077 10.7687 7.06155 10.8535 7.14644C11.0488 7.3417 11.0488 7.65829 10.8536 7.85355C10.6583 8.04881 10.3417 8.04882 10.1465 7.85356C9.9687 7.67581 9.82769 7.46479 9.73149 7.23254C9.63529 7.0003 9.58578 6.75138 9.58578 6.5C9.58578 6.24862 9.63529 5.9997 9.73149 5.76746C9.82769 5.53521 9.9687 5.32419 10.1465 5.14644C10.2313 5.06155 10.2987 4.96077 10.3446 4.84985C10.3906 4.73894 10.4142 4.62006 10.4142 4.5C10.4142 4.37994 10.3906 4.26106 10.3446 4.15015C10.2987 4.03923 10.2313 3.93845 10.1465 3.85356C9.95119 3.6583 9.95118 3.34171 10.1464 3.14645Z" fill="#323A45"/>
<path d="M6.14644 3.14645C6.3417 2.95119 6.65829 2.95118 6.85355 3.14644C7.0313 3.32419 7.17231 3.53522 7.26851 3.76746C7.36471 3.9997 7.41422 4.24862 7.41422 4.5C7.41422 4.75138 7.36471 5.0003 7.26851 5.23254C7.17231 5.46479 7.0313 5.67581 6.85355 5.85356C6.76866 5.93845 6.70132 6.03923 6.65537 6.15015C6.60943 6.26106 6.58578 6.37994 6.58578 6.5C6.58578 6.62006 6.60943 6.73894 6.65537 6.84985C6.70132 6.96077 6.76866 7.06155 6.85355 7.14644C7.04881 7.3417 7.04882 7.65829 6.85356 7.85355C6.6583 8.04881 6.34171 8.04882 6.14645 7.85356C5.9687 7.67581 5.82769 7.46479 5.73149 7.23254C5.63529 7.0003 5.58578 6.75138 5.58578 6.5C5.58578 6.24862 5.63529 5.9997 5.73149 5.76746C5.82769 5.53521 5.9687 5.32419 6.14645 5.14644C6.23134 5.06155 6.29868 4.96077 6.34463 4.84985C6.39057 4.73894 6.41422 4.62006 6.41422 4.5C6.41422 4.37994 6.39057 4.26106 6.34463 4.15015C6.29868 4.03923 6.23134 3.93845 6.14645 3.85356C5.95119 3.6583 5.95118 3.34171 6.14644 3.14645Z" fill="#323A45"/>
<path fill-rule="evenodd" clip-rule="evenodd" d="M4 9.5C4 9.22386 4.22386 9 4.5 9H17.5H18C18.394 9 18.7841 9.0776 19.1481 9.22836C19.512 9.37913 19.8427 9.6001 20.1213 9.87868C20.3999 10.1573 20.6209 10.488 20.7716 10.8519C20.9224 11.2159 21 11.606 21 12C21 12.394 20.9224 12.7841 20.7716 13.1481C20.6209 13.512 20.3999 13.8427 20.1213 14.1213C19.8427 14.3999 19.512 14.6209 19.1481 14.7716C18.7841 14.9224 18.394 15 18 15H16.7427C16.3237 15.6001 15.8116 16.1324 15.224 16.5759L15.216 16.582C15.1503 16.6294 15.0966 16.6915 15.0591 16.7633C15.0222 16.834 15.002 16.9122 15 16.992V17.5C15 17.8978 14.842 18.2794 14.5607 18.5607C14.2794 18.842 13.8978 19 13.5 19H8.5C8.10218 19 7.72064 18.842 7.43934 18.5607C7.15804 18.2794 7 17.8978 7 17.5V16.9915C6.99802 16.9118 6.97781 16.8335 6.94089 16.7628C6.9034 16.691 6.84972 16.6289 6.78409 16.5814L6.77594 16.5755C5.91323 15.9244 5.21352 15.0818 4.7318 14.1143C4.25011 13.1468 3.9996 12.0808 4 11V9.5ZM5 11V10H17V11.0002C17.0004 11.9263 16.7858 12.8399 16.3731 13.6689C16.2831 13.8497 16.1842 14.0255 16.0769 14.1955C16.0617 14.2196 16.0463 14.2436 16.0308 14.2674C15.6539 14.8461 15.1788 15.3566 14.6251 15.775C14.4359 15.913 14.281 16.0929 14.1726 16.3006C14.0633 16.5099 14.0042 16.7418 14 16.9779V17.5C14 17.6326 13.9473 17.7598 13.8536 17.8536C13.7598 17.9473 13.6326 18 13.5 18H8.5C8.36739 18 8.24021 17.9473 8.14645 17.8536C8.05268 17.7598 8 17.6326 8 17.5L8.00008 16.9863L7.99992 16.9774C7.99573 16.7413 7.93666 16.5094 7.82739 16.3001C7.71898 16.0924 7.56412 15.9125 7.37487 15.7745C6.63734 15.2171 6.03905 14.4963 5.62698 13.6686C5.21426 12.8397 4.99963 11.926 5 11ZM18.7654 13.8478C18.5227 13.9483 18.2626 14 18 14H17.3241C17.7693 13.0631 18.0005 12.0381 18 10.9998V10C18.2626 10 18.5227 10.0517 18.7654 10.1522C19.008 10.2527 19.2285 10.4001 19.4142 10.5858C19.5999 10.7715 19.7472 10.992 19.8478 11.2346C19.9483 11.4773 20 11.7374 20 12C20 12.2626 19.9483 12.5227 19.8478 12.7654C19.7472 13.008 19.5999 13.2285 19.4142 13.4142C19.2285 13.5999 19.008 13.7472 18.7654 13.8478Z" fill="#323A45"/>
</g>
</g>
</svg>
