<svg width="40" height="40" viewBox="0 0 40 40" fill="none" xmlns="http://www.w3.org/2000/svg">
<g id="icon left">
<g id="shape">
<path d="M5 34.1667C5 33.7064 5.3731 33.3333 5.83333 33.3333H34.1667C34.6269 33.3333 35 33.7064 35 34.1667C35 34.6269 34.6269 35 34.1667 35H5.83333C5.3731 35 5 34.6269 5 34.1667Z" fill="#16C8D3"/>
<path d="M23.5774 5.24408C23.9028 4.91864 24.4305 4.91864 24.7559 5.24407C25.0522 5.54032 25.2872 5.89202 25.4475 6.2791C25.6078 6.66617 25.6904 7.08104 25.6904 7.5C25.6904 7.91896 25.6078 8.33383 25.4475 8.7209C25.2872 9.10798 25.0522 9.45968 24.7559 9.75593C24.6144 9.89741 24.5022 10.0654 24.4256 10.2502C24.349 10.4351 24.3096 10.6332 24.3096 10.8333C24.3096 11.0334 24.349 11.2316 24.4256 11.4164C24.5022 11.6013 24.6144 11.7693 24.7559 11.9107C25.0814 12.2362 25.0814 12.7638 24.7559 13.0892C24.4305 13.4147 23.9029 13.4147 23.5774 13.0893C23.2812 12.793 23.0462 12.4413 22.8858 12.0542C22.7255 11.6672 22.643 11.2523 22.643 10.8333C22.643 10.4144 22.7255 9.99951 22.8858 9.61243C23.0462 9.22536 23.2812 8.87366 23.5774 8.57741C23.7189 8.43592 23.8311 8.26795 23.9077 8.08309C23.9843 7.89823 24.0237 7.70009 24.0237 7.5C24.0237 7.29991 23.9843 7.10177 23.9077 6.91691C23.8311 6.73205 23.7189 6.56408 23.5774 6.42259C23.252 6.09716 23.252 5.56952 23.5774 5.24408Z" fill="#16C8D3"/>
<path d="M16.9107 5.24408C17.2362 4.91864 17.7638 4.91864 18.0892 5.24407C18.3855 5.54032 18.6205 5.89202 18.7808 6.2791C18.9412 6.66617 19.0237 7.08104 19.0237 7.5C19.0237 7.91896 18.9412 8.33383 18.7808 8.7209C18.6205 9.10798 18.3855 9.45968 18.0892 9.75593C17.9478 9.89741 17.8355 10.0654 17.759 10.2502C17.6824 10.4351 17.643 10.6332 17.643 10.8333C17.643 11.0334 17.6824 11.2316 17.759 11.4164C17.8355 11.6013 17.9478 11.7693 18.0892 11.9107C18.4147 12.2362 18.4147 12.7638 18.0893 13.0892C17.7638 13.4147 17.2362 13.4147 16.9107 13.0893C16.6145 12.793 16.3795 12.4413 16.2192 12.0542C16.0588 11.6672 15.9763 11.2523 15.9763 10.8333C15.9763 10.4144 16.0588 9.99951 16.2192 9.61243C16.3795 9.22536 16.6145 8.87366 16.9107 8.57741C17.0522 8.43592 17.1645 8.26795 17.241 8.08309C17.3176 7.89823 17.357 7.70009 17.357 7.5C17.357 7.29991 17.3176 7.10177 17.241 6.91691C17.1645 6.73205 17.0522 6.56408 16.9107 6.42259C16.5853 6.09716 16.5853 5.56952 16.9107 5.24408Z" fill="#16C8D3"/>
<path d="M10.2441 5.24408C10.5695 4.91864 11.0971 4.91864 11.4226 5.24407C11.7188 5.54032 11.9538 5.89202 12.1142 6.2791C12.2745 6.66617 12.357 7.08103 12.357 7.5C12.357 7.91897 12.2745 8.33383 12.1142 8.7209C11.9538 9.10798 11.7188 9.45968 11.4226 9.75593C11.2811 9.89741 11.1689 10.0654 11.0923 10.2502C11.0157 10.4351 10.9763 10.6332 10.9763 10.8333C10.9763 11.0334 11.0157 11.2316 11.0923 11.4164C11.1689 11.6013 11.2811 11.7693 11.4226 11.9107C11.748 12.2362 11.748 12.7638 11.4226 13.0892C11.0972 13.4147 10.5695 13.4147 10.2441 13.0893C9.94783 12.793 9.71282 12.4413 9.55249 12.0542C9.39216 11.6672 9.30963 11.2523 9.30963 10.8333C9.30963 10.4144 9.39216 9.9995 9.55249 9.61243C9.71282 9.22536 9.94783 8.87366 10.2441 8.57741C10.3856 8.43592 10.4978 8.26795 10.5744 8.08309C10.651 7.89823 10.6904 7.70009 10.6904 7.5C10.6904 7.29991 10.651 7.10177 10.5744 6.91691C10.4978 6.73205 10.3856 6.56408 10.2441 6.42259C9.91864 6.09716 9.91864 5.56952 10.2441 5.24408Z" fill="#16C8D3"/>
<path fill-rule="evenodd" clip-rule="evenodd" d="M6.66667 15.8333C6.66667 15.3731 7.03976 15 7.5 15H29.1667H30C30.6566 15 31.3068 15.1293 31.9134 15.3806C32.52 15.6319 33.0712 16.0002 33.5355 16.4645C33.9998 16.9288 34.3681 17.48 34.6194 18.0866C34.8707 18.6932 35 19.3434 35 20C35 20.6566 34.8707 21.3068 34.6194 21.9134C34.3681 22.52 33.9998 23.0712 33.5355 23.5355C33.0712 23.9998 32.52 24.3681 31.9134 24.6194C31.3068 24.8707 30.6566 25 30 25H27.9045C27.2061 26.0002 26.3527 26.8874 25.3733 27.6265L25.36 27.6366C25.2506 27.7157 25.161 27.8191 25.0985 27.9388C25.037 28.0567 25.0033 28.1871 25 28.3199V29.1667C25 29.8297 24.7366 30.4656 24.2678 30.9344C23.7989 31.4033 23.163 31.6667 22.5 31.6667H14.1667C13.5036 31.6667 12.8677 31.4033 12.3989 30.9344C11.9301 30.4656 11.6667 29.8297 11.6667 29.1667V28.3191C11.6634 28.1863 11.6297 28.0559 11.5682 27.938C11.5057 27.8183 11.4162 27.7148 11.3068 27.6356L11.2932 27.6258C9.85538 26.5407 8.6892 25.1364 7.88633 23.5239C7.08351 21.9114 6.666 20.1346 6.66667 18.3333V15.8333ZM8.33333 18.3333V16.6667H28.3333V18.3337C28.3341 19.8772 27.9764 21.3998 27.2885 22.7815C27.1385 23.0829 26.9737 23.3758 26.7948 23.6592C26.7695 23.6993 26.7438 23.7393 26.7179 23.7791C26.0899 24.7435 25.2979 25.5943 24.3752 26.2917C24.0598 26.5217 23.8017 26.8215 23.621 27.1676C23.4389 27.5165 23.3403 27.903 23.3333 28.2965V29.1667C23.3333 29.3877 23.2455 29.5996 23.0893 29.7559C22.933 29.9122 22.721 30 22.5 30H14.1667C13.9457 30 13.7337 29.9122 13.5774 29.7559C13.4211 29.5996 13.3333 29.3877 13.3333 29.1667L13.3335 28.3105L13.3332 28.2957C13.3262 27.9022 13.2278 27.5157 13.0456 27.1668C12.865 26.8206 12.6069 26.5209 12.2914 26.2909C11.0622 25.3618 10.0651 24.1604 9.3783 22.781C8.69043 21.3994 8.33272 19.8767 8.33333 18.3333ZM31.2756 23.0796C30.8712 23.2471 30.4377 23.3333 30 23.3333H28.8734C29.6155 21.7719 30.0008 20.0635 30 18.3329V16.6667C30.4377 16.6667 30.8712 16.7529 31.2756 16.9204C31.68 17.0879 32.0475 17.3334 32.357 17.643C32.6665 17.9525 32.9121 18.32 33.0796 18.7244C33.2471 19.1288 33.3333 19.5623 33.3333 20C33.3333 20.4377 33.2471 20.8712 33.0796 21.2756C32.9121 21.68 32.6665 22.0475 32.357 22.357C32.0475 22.6666 31.68 22.9121 31.2756 23.0796Z" fill="#16C8D3"/>
</g>
</g>
</svg>
