<svg width="24" height="24" viewBox="0 0 24 24" fill="none" xmlns="http://www.w3.org/2000/svg">
<g id="icon">
<g id="shape">
<path d="M5 6C5 5.44772 5.44772 5 6 5H10.5C11.0523 5 11.5 5.44772 11.5 6V9C11.5 9.55228 11.0523 10 10.5 10H6C5.44772 10 5 9.55228 5 9V6Z" fill="#16C8D3"/>
<path d="M12.5 15.5C12.5 14.9477 12.9477 14.5 13.5 14.5H18C18.5523 14.5 19 14.9477 19 15.5V18C19 18.5523 18.5523 19 18 19H13.5C12.9477 19 12.5 18.5523 12.5 18V15.5Z" fill="#16C8D3"/>
<path d="M12.5 6C12.5 5.44772 12.9477 5 13.5 5H18C18.5523 5 19 5.44772 19 6V12.5C19 13.0523 18.5523 13.5 18 13.5H13.5C12.9477 13.5 12.5 13.0523 12.5 12.5V6Z" fill="#16C8D3"/>
<path d="M5 12C5 11.4477 5.44772 11 6 11H10.5C11.0523 11 11.5 11.4477 11.5 12V18C11.5 18.5523 11.0523 19 10.5 19H6C5.44772 19 5 18.5523 5 18L5 12Z" fill="#16C8D3"/>
</g>
</g>
</svg>
