<svg width="24" height="24" viewBox="0 0 24 24" fill="none" xmlns="http://www.w3.org/2000/svg">
<g id="icon left">
<g id="shape">
<path d="M13.8798 6.70996L11.6799 17.4877C11.6247 17.7583 11.3606 17.9329 11.09 17.8776C10.8195 17.8224 10.6449 17.5583 10.7001 17.2877L12.9 6.50997C12.9552 6.2394 13.2193 6.06484 13.4899 6.12006C13.7605 6.17529 13.935 6.43939 13.8798 6.70996Z" fill="#323A45"/>
<path d="M16.1596 7.6766C16.0074 7.5264 16.0074 7.28287 16.1596 7.13267C16.3117 6.98247 16.5584 6.98247 16.7106 7.13267L21.3859 11.7481C21.538 11.8983 21.538 12.1418 21.3859 12.292L16.7106 16.9074C16.5584 17.0576 16.3117 17.0576 16.1596 16.9074C16.0074 16.7572 16.0074 16.5136 16.1596 16.3634L20.5594 12.02L16.1596 7.6766Z" fill="#323A45"/>
<path d="M7.84043 7.67665C7.99258 7.52645 7.99258 7.28292 7.84043 7.13272C7.68828 6.98252 7.44159 6.98252 7.28944 7.13272L2.61411 11.7481C2.46196 11.8983 2.46196 12.1418 2.61411 12.292L7.28944 16.9074C7.44159 17.0576 7.68828 17.0576 7.84043 16.9074C7.99258 16.7572 7.99258 16.5137 7.84043 16.3635L3.4406 12.0201L7.84043 7.67665Z" fill="#323A45"/>
</g>
</g>
</svg>
