<svg width="101" height="100" viewBox="0 0 101 100" fill="none" xmlns="http://www.w3.org/2000/svg">
<path d="M59.3162 61.9524C63.5377 56.1819 66.165 50.0197 66.165 43.832C66.165 35.7857 60.0817 29.0974 52.165 28.1223L52.165 20.0818C64.4577 21.0902 74.165 31.3101 74.165 43.832C74.165 52.2963 70.5912 60.0895 65.7729 66.6759C60.943 73.2781 54.6708 78.9374 48.7611 83.2351C46.9745 84.5344 44.4728 84.1393 43.1735 82.3527C41.8742 80.566 42.2693 78.0644 44.0559 76.7651C49.5003 72.8057 55.1064 67.707 59.3162 61.9524Z" fill="#8FFF00"/>
<path d="M31.6613 61.6841C28.6234 56.5272 26.165 50.368 26.165 43.832C26.165 31.3101 35.8724 21.0902 48.165 20.0818V28.1223C40.2484 29.0974 34.165 35.7857 34.165 43.832C34.165 48.405 35.9103 53.1355 38.5542 57.6236C40.7274 61.3127 43.3981 64.6524 45.8576 67.3568C45.9379 67.4451 46.0168 67.5281 46.0937 67.6059C46.5757 68.0935 46.6172 68.9528 46.0835 69.3833C44.585 70.5922 41.9094 72.6938 40.5559 73.4101C37.6877 70.3256 34.3775 66.295 31.6613 61.6841Z" fill="#FAFAFA"/>
<path fill-rule="evenodd" clip-rule="evenodd" d="M42.165 44.0001C42.165 39.5818 45.7468 36.0001 50.165 36.0001C54.5833 36.0001 58.165 39.5818 58.165 44.0001C58.165 48.4184 54.5833 52.0001 50.165 52.0001C45.7468 52.0001 42.165 48.4184 42.165 44.0001Z" fill="#FAFAFA"/>
</svg>
