<svg width="237" height="236" fill="none" xmlns="http://www.w3.org/2000/svg">
    <g opacity=".4" fill="#16C8D3">
        <path d="M137.959 182.616c7.314.877 13.853 2.24 19.224 3.956 4.87 1.556 8.676 3.37 11.226 5.296 2.579 1.948 3.587 3.78 3.587 5.367 0 1.587-1.008 3.419-3.587 5.367-2.55 1.926-6.356 3.74-11.226 5.296-9.718 3.105-23.259 5.055-38.299 5.055s-28.581-1.95-38.3-5.055c-4.869-1.556-8.675-3.37-11.225-5.296-2.58-1.948-3.587-3.78-3.587-5.367 0-1.587 1.008-3.419 3.587-5.367 2.55-1.926 6.356-3.74 11.226-5.296 5.422-1.732 12.033-3.105 19.431-3.98a249.723 249.723 0 0 1-1.596-1.661c-20.22 2.593-34.5 8.916-34.5 16.304 0 9.699 24.608 17.562 54.964 17.562 30.355 0 54.963-7.863 54.963-17.562 0-7.363-14.181-13.668-34.293-16.278-.538.566-1.07 1.119-1.595 1.659Z"/>
        <path d="M134.807 185.803c4.33.62 8.22 1.483 11.496 2.527 3.481 1.11 6.165 2.393 7.938 3.73 1.803 1.36 2.38 2.543 2.38 3.448 0 .904-.577 2.088-2.38 3.447-1.773 1.337-4.457 2.62-7.938 3.73-6.943 2.214-16.649 3.612-27.453 3.612-10.803 0-20.51-1.398-27.452-3.612-3.482-1.11-6.165-2.393-7.938-3.73-1.804-1.359-2.38-2.543-2.38-3.447 0-.905.576-2.088 2.38-3.448 1.773-1.337 4.456-2.62 7.938-3.73 3.341-1.065 7.323-1.942 11.759-2.565a226.41 226.41 0 0 1-1.622-1.624c-13.206 2.049-22.307 6.369-22.307 11.367 0 6.977 17.74 12.633 39.622 12.633 21.883 0 39.622-5.656 39.622-12.633 0-4.965-8.981-9.261-22.047-11.326-.549.556-1.089 1.096-1.618 1.621Z"/>
        <path fill-rule="evenodd" clip-rule="evenodd" d="M131.031 189.463c1.701.321 3.249.705 4.609 1.139 2.093.667 3.585 1.403 4.495 2.089.626.471.797.773.841.879-.044.106-.215.408-.841.879-.91.686-2.402 1.422-4.495 2.089-4.155 1.325-10.068 2.189-16.723 2.189-6.656 0-12.568-.864-16.723-2.189-2.094-.667-3.586-1.403-4.496-2.089-.625-.471-.797-.773-.84-.879.043-.106.215-.408.84-.879.91-.686 2.402-1.422 4.496-2.089 1.396-.446 2.991-.839 4.747-1.165a216.745 216.745 0 0 1-2.418-2.326c-6.327 1.436-10.454 3.794-10.454 6.459 0 4.376 11.125 7.923 24.848 7.923 13.723 0 24.847-3.547 24.847-7.923 0-2.646-4.068-4.989-10.319-6.428a236.838 236.838 0 0 1-2.414 2.321Z"/>
        <path d="M157.183 186.572c-5.371-1.716-11.91-3.079-19.224-3.956l-1.534 1.566c13.066 2.065 22.047 6.361 22.047 11.326 0 6.977-17.739 12.633-39.622 12.633-21.882 0-39.622-5.656-39.622-12.633 0-4.998 9.101-9.318 22.307-11.367l-1.519-1.549c-7.398.875-14.01 2.248-19.431 3.98-4.87 1.556-8.676 3.37-11.226 5.296-2.58 1.948-3.587 3.78-3.587 5.367 0 1.587 1.008 3.419 3.587 5.367 2.55 1.926 6.356 3.74 11.226 5.296 9.718 3.105 23.259 5.055 38.299 5.055s28.581-1.95 38.299-5.055c4.87-1.556 8.676-3.37 11.226-5.296 2.579-1.948 3.587-3.78 3.587-5.367 0-1.587-1.008-3.419-3.587-5.367-2.55-1.926-6.356-3.74-11.226-5.296Z"/>
    </g>
    <g opacity=".6" fill="#16C8D3">
        <path d="M134.807 185.803c4.33.62 8.221 1.483 11.496 2.527 3.481 1.11 6.165 2.393 7.938 3.73 1.803 1.36 2.38 2.543 2.38 3.448 0 .904-.577 2.088-2.38 3.447-1.773 1.337-4.457 2.62-7.938 3.73-6.943 2.213-16.649 3.612-27.453 3.612-10.803 0-20.51-1.399-27.452-3.612-3.482-1.11-6.165-2.393-7.938-3.73-1.804-1.359-2.38-2.543-2.38-3.447 0-.905.576-2.088 2.38-3.448 1.773-1.337 4.456-2.62 7.938-3.73 3.341-1.065 7.323-1.942 11.759-2.565a226.41 226.41 0 0 1-1.622-1.624c-13.206 2.049-22.307 6.369-22.307 11.367 0 6.977 17.74 12.633 39.622 12.633 21.883 0 39.622-5.656 39.622-12.633 0-4.965-8.981-9.261-22.047-11.326-.549.556-1.089 1.096-1.618 1.621Z"/>
        <path fill-rule="evenodd" clip-rule="evenodd" d="M131.031 189.463c1.701.321 3.249.705 4.609 1.139 2.093.667 3.586 1.403 4.496 2.089.625.471.796.773.84.879-.044.106-.215.408-.84.879-.91.686-2.403 1.422-4.496 2.089-4.155 1.325-10.068 2.189-16.723 2.189-6.655 0-12.568-.864-16.723-2.189-2.094-.667-3.586-1.403-4.496-2.089-.625-.471-.797-.773-.84-.879.043-.106.215-.408.84-.879.91-.686 2.402-1.422 4.496-2.089 1.396-.446 2.992-.839 4.747-1.165a216.745 216.745 0 0 1-2.418-2.326c-6.327 1.436-10.454 3.794-10.454 6.459 0 4.376 11.125 7.923 24.848 7.923 13.723 0 24.848-3.547 24.848-7.923 0-2.646-4.069-4.989-10.32-6.428a236.838 236.838 0 0 1-2.414 2.321Z"/>
        <path d="M146.303 188.33c-3.275-1.044-7.166-1.907-11.496-2.527l-1.362 1.339c6.251 1.439 10.32 3.782 10.32 6.428 0 4.376-11.125 7.923-24.848 7.923-13.723 0-24.848-3.547-24.848-7.923 0-2.665 4.127-5.023 10.454-6.459l-1.366-1.346c-4.436.623-8.418 1.5-11.759 2.565-3.482 1.11-6.165 2.393-7.938 3.73-1.804 1.36-2.38 2.543-2.38 3.448 0 .904.576 2.088 2.38 3.447 1.773 1.337 4.456 2.62 7.938 3.73 6.943 2.213 16.649 3.612 27.452 3.612 10.804 0 20.51-1.399 27.453-3.612 3.481-1.11 6.165-2.393 7.938-3.73 1.803-1.359 2.38-2.543 2.38-3.447 0-.905-.577-2.088-2.38-3.448-1.773-1.337-4.457-2.62-7.938-3.73Z"/>
    </g>
    <g opacity=".4" fill="#16C8D3">
        <path fill-rule="evenodd" clip-rule="evenodd" d="M131.031 189.464c1.701.321 3.249.705 4.609 1.138 2.093.668 3.585 1.404 4.495 2.09.625.471.797.773.841.879-.044.106-.216.407-.841.879-.91.686-2.402 1.422-4.495 2.089-4.155 1.325-10.068 1.034-16.724 1.034-6.655 0-12.568.291-16.723-1.034-2.093-.667-3.585-1.403-4.495-2.089-.625-.472-.797-.773-.841-.879.044-.106.216-.408.84-.879.91-.686 2.403-1.422 4.496-2.09 1.397-.445 2.992-.838 4.748-1.164a230.115 230.115 0 0 1-2.418-2.326c-6.328 1.436-10.454 3.794-10.454 6.459 0 4.375 11.124 7.922 24.847 7.922s24.848-3.547 24.848-7.922c0-2.646-4.068-4.99-10.319-6.428a236.838 236.838 0 0 1-2.414 2.321Z"/>
        <path d="M135.64 190.602a39.386 39.386 0 0 0-4.609-1.138l-7.448 6.393a7.117 7.117 0 0 1-4.667 1.716M102.193 196.539c4.155 1.325 10.068 1.034 16.723 1.034"/>
    </g>
    <path fill-rule="evenodd" clip-rule="evenodd" d="M116.104 191.104c1.684 1.475 4.108 1.475 5.792 0 11.653-10.211 54.504-50.658 54.504-93.351 0-31.587-25.699-57.193-57.4-57.193-31.701 0-57.4 25.606-57.4 57.193 0 42.693 42.851 83.14 54.504 93.351Zm2.68-53.737c21.958 0 39.758-17.736 39.758-39.614 0-21.879-17.8-39.614-39.758-39.614-21.957 0-39.757 17.735-39.757 39.614 0 21.878 17.8 39.614 39.757 39.614Z" fill="#16C8D3"/>
    <path d="M135.68 106.793c0 6.958-6.034 11.99-14.228 12.735v3.976h-4.065v-3.914c-5.717-.497-11.688-3.044-15.5-6.647l4.828-6.522c2.731 2.485 6.733 4.472 10.672 4.969v-9.753c-7.941-2.05-13.848-6.212-13.848-13.293 0-6.71 5.463-11.679 13.848-12.362v-3.976h4.065v3.976c5.209.434 9.655 2.547 12.386 5.218l-4.51 6.46c-1.778-1.615-4.764-3.044-7.876-3.478V93.5c4.383 1.118 14.228 4.472 14.228 13.293Zm-22.74-18.636c0 1.988 1.969 3.355 4.447 4.225v-8.138c-2.668.497-4.447 1.988-4.447 3.913Zm8.512 23.171c2.731-.559 4.764-2.05 4.764-4.286 0-2.174-2.033-3.417-4.764-4.286v8.572Z" fill="#34E8B2"/>
</svg>