<svg width="69" height="62" viewBox="0 0 69 62" fill="none" xmlns="http://www.w3.org/2000/svg">
<g id="do prime name">
<g id="primary">
<path d="M14.9023 49.9041C14.9023 53.8303 12.141 56.7367 8.45925 56.7367C6.51612 56.7367 4.8798 55.9209 3.80597 54.5441V61.3258H0.942376V43.3264H3.80597V45.213C4.8798 43.8363 6.51612 43.0205 8.45925 43.0205C12.141 43.0205 14.9023 45.9779 14.9023 49.9041ZM11.9364 49.9041C11.9364 47.6095 10.1979 45.8249 7.89678 45.8249C5.5957 45.8249 3.80597 47.6095 3.80597 49.9041C3.80597 52.1986 5.54456 53.9833 7.89678 53.9833C10.249 53.9833 11.9364 52.1986 11.9364 49.9041Z" fill="#16C8D3"/>
<path d="M24.1067 43.1224V46.0798H23.5953C21.0386 46.0798 19.5045 47.6605 19.5045 50.057V56.4308H16.641V43.3264H19.5045V45.264C20.4761 43.9383 21.8567 43.1224 23.5953 43.1224H24.1067Z" fill="#16C8D3"/>
<path d="M25.2829 43.3264H28.1465V56.4308H25.2829V43.3264Z" fill="#16C8D3"/>
<path d="M51.4127 47.9155V56.4308H48.5491V48.7823C48.5491 46.9977 47.4242 45.8249 45.6344 45.8249C43.7936 45.8249 42.5152 47.0487 42.5152 48.8333V56.4308H39.6516V48.7823C39.6516 46.9977 38.5266 45.8249 36.7369 45.8249C34.896 45.8249 33.6177 47.0487 33.6177 48.8333V56.4308H30.7541V43.3264H33.6177V44.8561C34.5892 43.6323 35.9699 43.0205 37.7085 43.0205C39.6516 43.0205 41.1345 43.8873 41.9527 45.315C42.9754 43.8363 44.5606 43.0205 46.5549 43.0205C49.4696 43.0205 51.4127 45.0091 51.4127 47.9155Z" fill="#16C8D3"/>
<path d="M66.7022 49.9041C66.7022 45.9269 63.7364 43.0205 59.799 43.0205C55.8616 43.0205 52.8446 45.9269 52.8446 49.8021C52.8446 53.7283 55.9638 56.6857 60.1058 56.6857C62.5603 56.6857 64.7591 55.6149 66.0886 53.9833L64.1455 52.3006C63.3784 53.2694 61.9467 54.0852 60.2081 54.0852C58.0604 54.0852 56.4241 52.8615 55.9638 50.9749H66.6C66.7022 50.6689 66.7022 50.261 66.7022 49.9041ZM55.9638 48.6803C56.4241 46.8447 57.907 45.6209 59.7478 45.6209C61.6398 45.6209 63.1739 46.8447 63.583 48.6803H55.9638Z" fill="#16C8D3"/>
<path d="M28.6067 39.2983C28.6067 40.3181 27.7885 41.1339 26.7658 41.1339C25.692 41.1339 24.925 40.3181 24.925 39.2983C24.925 38.2785 25.6713 37.4892 26.7658 37.4892C27.7334 37.4892 28.6067 38.2785 28.6067 39.2983Z" fill="#16C8D3"/>
<path d="M13.9327 0.819283C23.6663 0.819283 30.9787 7.966 30.9787 17.4789C30.9787 26.9917 23.6663 34.1384 13.9327 34.1384H0.857544V0.819283H13.9327ZM13.7874 27.8609C19.6954 27.8609 24.1022 23.4184 24.1022 17.4789C24.1022 11.5394 19.6954 7.09681 13.7874 7.09681H7.54038V27.8609H13.7874Z" fill="#16C8D3"/>
<path d="M50.4249 34.7179C40.4007 34.7179 32.7977 27.2815 32.7977 17.4789C32.7977 7.67627 40.4007 0.239822 50.4249 0.239822C60.4492 0.239822 68.0521 7.67627 68.0521 17.4789C68.0521 27.2815 60.4492 34.7179 50.4249 34.7179ZM50.4249 28.2955C56.5266 28.2955 61.1756 23.6598 61.1756 17.4789C61.1756 11.2979 56.5266 6.66221 50.4249 6.66221C44.3232 6.66221 39.6743 11.2979 39.6743 17.4789C39.6743 23.6598 44.3232 28.2955 50.4249 28.2955Z" fill="#16C8D3"/>
</g>
</g>
</svg>
