<svg width="24" height="24" viewBox="0 0 24 24" fill="none" xmlns="http://www.w3.org/2000/svg">
<g id="document">
<g id="shape">
<path d="M13.5 10C13.2239 10 13 10.2239 13 10.5C13 10.7761 13.2239 11 13.5 11H15.5C15.7761 11 16 10.7761 16 10.5C16 10.2239 15.7761 10 15.5 10H13.5Z" fill="#636A74"/>
<path d="M11.8536 9.85355C12.0488 9.65829 12.0488 9.34171 11.8536 9.14645C11.6583 8.95118 11.3417 8.95118 11.1464 9.14645L9.5 10.7929L8.85355 10.1464C8.65829 9.95118 8.34171 9.95118 8.14645 10.1464C7.95118 10.3417 7.95118 10.6583 8.14645 10.8536L9.14645 11.8536C9.34171 12.0488 9.65829 12.0488 9.85355 11.8536L11.8536 9.85355Z" fill="#636A74"/>
<path d="M11.8536 14.8536C12.0488 14.6583 12.0488 14.3417 11.8536 14.1464C11.6583 13.9512 11.3417 13.9512 11.1464 14.1464L9.5 15.7929L8.85355 15.1464C8.65829 14.9512 8.34171 14.9512 8.14645 15.1464C7.95118 15.3417 7.95118 15.6583 8.14645 15.8536L9.14645 16.8536C9.34171 17.0488 9.65829 17.0488 9.85355 16.8536L11.8536 14.8536Z" fill="#636A74"/>
<path d="M13.5 15C13.2239 15 13 15.2239 13 15.5C13 15.7761 13.2239 16 13.5 16H15.5C15.7761 16 16 15.7761 16 15.5C16 15.2239 15.7761 15 15.5 15H13.5Z" fill="#636A74"/>
<path fill-rule="evenodd" clip-rule="evenodd" d="M6.5 3C6.10218 3 5.72064 3.15804 5.43934 3.43934C5.15804 3.72064 5 4.10217 5 4.5V19.5C5 19.8978 5.15804 20.2794 5.43934 20.5607C5.72065 20.842 6.10218 21 6.5 21H17.5C17.8978 21 18.2794 20.842 18.5607 20.5607C18.842 20.2794 19 19.8978 19 19.5V6.5C19 6.36739 18.9473 6.24021 18.8536 6.14645L15.8536 3.14645C15.7598 3.05268 15.6326 3 15.5 3H6.5ZM6.5 4C6.36739 4 6.24022 4.05268 6.14645 4.14645C6.05268 4.24021 6 4.36739 6 4.5V19.5C6 19.6326 6.05268 19.7598 6.14645 19.8536C6.24021 19.9473 6.36739 20 6.5 20H17.5C17.6326 20 17.7598 19.9473 17.8536 19.8536C17.9473 19.7598 18 19.6326 18 19.5V7H15.5C15.2239 7 15 6.77614 15 6.5V4H6.5ZM16 6H17.2929L16 4.70711V6Z" fill="#636A74"/>
</g>
</g>
</svg>
