<svg width="24" height="24" viewBox="0 0 24 24" fill="none" xmlns="http://www.w3.org/2000/svg">
<g id="icon left">
<g id="shape">
<path fill-rule="evenodd" clip-rule="evenodd" d="M3 5.5C3 4.11929 4.11929 3 5.5 3H14.5C15.8807 3 17 4.11929 17 5.5V7H19C20.1046 7 21 7.89543 21 9V19C21 20.1046 20.1046 21 19 21H9C7.89543 21 7 20.1046 7 19V17H5.5C4.11929 17 3 15.8807 3 14.5V5.5ZM14.5 4C15.3284 4 16 4.67157 16 5.5V7H9C7.89543 7 7 7.89543 7 9V16H5.5C4.67157 16 4 15.3284 4 14.5V5.5C4 4.67157 4.67157 4 5.5 4H14.5ZM9 8H19C19.5523 8 20 8.44772 20 9V19C20 19.5523 19.5523 20 19 20H9C8.44772 20 8 19.5523 8 19V9C8 8.44772 8.44772 8 9 8Z" fill="#323A45"/>
<path d="M14.5 11C14.5 10.7239 14.2761 10.5 14 10.5C13.7239 10.5 13.5 10.7239 13.5 11V13.5H11C10.7239 13.5 10.5 13.7239 10.5 14C10.5 14.2762 10.7239 14.5 11 14.5H13.5V17C13.5 17.2761 13.7239 17.5 14 17.5C14.2761 17.5 14.5 17.2761 14.5 17V14.5H17C17.2761 14.5 17.5 14.2762 17.5 14C17.5 13.7239 17.2761 13.5 17 13.5H14.5V11Z" fill="#323A45"/>
</g>
</g>
</svg>
