<svg width="24" height="24" viewBox="0 0 24 24" fill="none" xmlns="http://www.w3.org/2000/svg">
<g id="company">
<g id="shape">
<path fill-rule="evenodd" clip-rule="evenodd" d="M5.5 5C5.22386 5 5 5.22386 5 5.5V20H3.5C3.22386 20 3 20.2239 3 20.5C3 20.7761 3.22386 21 3.5 21H5.5H8.5H15.5H18.5H20.5C20.7761 21 21 20.7761 21 20.5C21 20.2239 20.7761 20 20.5 20H19V5.5C19 5.22386 18.7761 5 18.5 5H16.5V2.5C16.5 2.22386 16.2761 2 16 2H8C7.72386 2 7.5 2.22386 7.5 2.5V5H5.5ZM9 20V16H11.5H12.5H15V20H9ZM7.5 6H6V20H8V15.5C8 15.2239 8.22386 15 8.5 15H15.5C15.7761 15 16 15.2239 16 15.5V20H18V6H16.5V13.5C16.5 13.7761 16.2761 14 16 14H8C7.72386 14 7.5 13.7761 7.5 13.5V6ZM8.5 13V3H15.5V13H8.5Z" fill="#C6C9CE"/>
<path d="M9.5 4.5C9.5 4.22386 9.72386 4 10 4C10.2761 4 10.5 4.22386 10.5 4.5V7C10.5 7.27614 10.2761 7.5 10 7.5C9.72386 7.5 9.5 7.27614 9.5 7V4.5Z" fill="#C6C9CE"/>
<path d="M11.5 4.5C11.5 4.22386 11.7239 4 12 4C12.2761 4 12.5 4.22386 12.5 4.5V7C12.5 7.27614 12.2761 7.5 12 7.5C11.7239 7.5 11.5 7.27614 11.5 7V4.5Z" fill="#C6C9CE"/>
<path d="M13.5 4.5C13.5 4.22386 13.7239 4 14 4C14.2761 4 14.5 4.22386 14.5 4.5V7C14.5 7.27614 14.2761 7.5 14 7.5C13.7239 7.5 13.5 7.27614 13.5 7V4.5Z" fill="#C6C9CE"/>
<path d="M9.5 9C9.5 8.72386 9.72386 8.5 10 8.5C10.2761 8.5 10.5 8.72386 10.5 9V11.5C10.5 11.7761 10.2761 12 10 12C9.72386 12 9.5 11.7761 9.5 11.5V9Z" fill="#C6C9CE"/>
<path d="M11.5 9C11.5 8.72386 11.7239 8.5 12 8.5C12.2761 8.5 12.5 8.72386 12.5 9V11.5C12.5 11.7761 12.2761 12 12 12C11.7239 12 11.5 11.7761 11.5 11.5V9Z" fill="#C6C9CE"/>
<path d="M13.5 9C13.5 8.72386 13.7239 8.5 14 8.5C14.2761 8.5 14.5 8.72386 14.5 9V11.5C14.5 11.7761 14.2761 12 14 12C13.7239 12 13.5 11.7761 13.5 11.5V9Z" fill="#C6C9CE"/>
</g>
</g>
</svg>
