<svg width="24" height="24" viewBox="0 0 24 24" fill="none" xmlns="http://www.w3.org/2000/svg">
<g id="icon left">
<g id="shape">
<path d="M9.44339 7.50112C9.57102 7.746 9.47597 8.04797 9.23109 8.1756C7.30994 9.1769 6 11.1859 6 13.5C6 16.8137 8.68629 19.5 12 19.5C15.3137 19.5 18 16.8137 18 13.5C18 11.1859 16.6901 9.1769 14.7689 8.1756C14.524 8.04797 14.429 7.746 14.5566 7.50112C14.6842 7.25624 14.9862 7.16119 15.2311 7.28882C17.4697 8.45558 19 10.7987 19 13.5C19 17.366 15.866 20.5 12 20.5C8.13401 20.5 5 17.366 5 13.5C5 10.7987 6.53028 8.45558 8.76891 7.28882C9.01379 7.16119 9.31576 7.25624 9.44339 7.50112Z" fill="#323A45"/>
<path d="M12 3.5C12.2761 3.5 12.5 3.72386 12.5 4L12.5 12C12.5 12.2761 12.2761 12.5 12 12.5C11.7239 12.5 11.5 12.2761 11.5 12L11.5 4C11.5 3.72386 11.7239 3.5 12 3.5Z" fill="#323A45"/>
</g>
</g>
</svg>
