<svg width="24" height="24" viewBox="0 0 24 24" fill="none" xmlns="http://www.w3.org/2000/svg">
<g id="icon left">
<g id="shape">
<path fill-rule="evenodd" clip-rule="evenodd" d="M12 3C7.02944 3 3 7.02944 3 12C3 16.9706 7.02944 21 12 21C16.9706 21 21 16.9706 21 12C21 7.02944 16.9706 3 12 3ZM12 4C7.58172 4 4 7.58172 4 12C4 16.4183 7.58172 20 12 20C16.4183 20 20 16.4183 20 12C20 7.58172 16.4183 4 12 4Z" fill="#323A45"/>
<path d="M11.1185 8.45976C11.4542 8.29484 11.8294 8.22732 12.2016 8.26484C12.5737 8.30237 12.9278 8.44345 13.2238 8.67207C13.5198 8.90069 13.7458 9.20771 13.8762 9.55827C14.0065 9.90883 14.036 10.2889 13.9612 10.6554C13.8865 11.0218 13.7105 11.36 13.4533 11.6315C13.1979 11.9011 12.8726 12.0943 12.5138 12.1895C12.2331 12.2538 11.9815 12.4091 11.7982 12.6314C11.6124 12.8566 11.5073 13.1375 11.5 13.4293V14.5C11.5 14.7761 11.7239 15 12 15C12.2761 15 12.5 14.7761 12.5 14.5V13.4497C12.5027 13.3831 12.5271 13.3191 12.5696 13.2677C12.6131 13.2149 12.673 13.1783 12.7397 13.1636C12.746 13.1622 12.7523 13.1607 12.7586 13.1591C13.3013 13.0174 13.7935 12.7265 14.1793 12.3193C14.5651 11.912 14.829 11.4048 14.9411 10.8552C15.0532 10.3056 15.009 9.73555 14.8135 9.20977C14.618 8.68399 14.279 8.22354 13.8351 7.88065C13.3912 7.53776 12.86 7.32617 12.3019 7.26989C11.7438 7.21361 11.1811 7.31488 10.6776 7.56223C10.1741 7.80958 9.75008 8.19309 9.45355 8.66925C9.15703 9.14541 8.9999 9.69515 9 10.2561C9.00005 10.5322 9.22395 10.756 9.50009 10.756C9.77623 10.7559 10.0001 10.5321 10 10.2559C9.99993 9.8819 10.1047 9.51535 10.3024 9.19787C10.5001 8.88039 10.7829 8.62468 11.1185 8.45976Z" fill="#323A45"/>
<path d="M12.5 16.5C12.5 16.7761 12.2761 17 12 17C11.7239 17 11.5 16.7761 11.5 16.5C11.5 16.2239 11.7239 16 12 16C12.2761 16 12.5 16.2239 12.5 16.5Z" fill="#323A45"/>
</g>
</g>
</svg>
