<svg width="32" height="32" viewBox="0 0 32 32" fill="none" xmlns="http://www.w3.org/2000/svg">
<g id="house">
<g id="shape">
<path fill-rule="evenodd" clip-rule="evenodd" d="M15.9986 4C15.4803 4 14.9828 4.2034 14.613 4.56641L14.6118 4.5676L3.95164 14.9552L3.95053 14.9563C3.66247 15.2352 3.46321 15.5929 3.37778 15.9847C3.29224 16.3769 3.32465 16.7857 3.47092 17.1596C3.6172 17.5335 3.87081 17.8557 4.19983 18.0858C4.52884 18.3159 4.91856 18.4436 5.31994 18.4527H5.9972C6.17695 18.4556 6.34834 18.5293 6.47406 18.6579C6.60052 18.7873 6.67037 18.9616 6.66832 19.1425L6.6668 26.6667H4.66667C4.29848 26.6667 4 26.9651 4 27.3333C4 27.7015 4.29848 28 4.66667 28H6.66653H14.6666H17.3333H25.3334H27.3333C27.7015 28 28 27.7015 28 27.3333C28 26.9651 27.7015 26.6667 27.3333 26.6667H25.3334V19.1338C25.3335 18.9312 25.4021 18.7669 25.5126 18.6551C25.6377 18.5284 25.8075 18.4558 25.9854 18.4527L26.6628 18.4529L26.6782 18.4525C27.0795 18.4433 27.4691 18.3155 27.798 18.0854C28.1268 17.8553 28.3803 17.533 28.5264 17.1592C28.6726 16.7853 28.7049 16.3766 28.6193 15.9844C28.5339 15.5927 28.3346 15.235 28.0465 14.9562L28.0455 14.9552L17.3853 4.5676L17.3842 4.5665C17.0144 4.20344 16.5169 4 15.9986 4ZM15.9986 5.33333C15.8295 5.33333 15.6672 5.39976 15.5467 5.5183L15.5445 5.52042L4.88024 15.912L4.87833 15.9139C4.77882 16.0101 4.70998 16.1335 4.6805 16.2688C4.65101 16.404 4.66218 16.5449 4.71261 16.6738C4.76303 16.8027 4.85046 16.9138 4.96389 16.9931C5.07559 17.0712 5.20759 17.1151 5.34373 17.1193H6.00925C6.54373 17.1254 7.05389 17.3436 7.42753 17.7259C7.80021 18.1071 8.00661 18.6205 8.00165 19.1535L8.00013 26.6667H13.3334L13.3337 21.8811C13.3288 21.3481 13.5352 20.8349 13.9078 20.4537C14.2815 20.0715 14.7916 19.8534 15.3261 19.8473L15.3337 19.8472L16.6746 19.8472C17.209 19.8533 17.7192 20.0715 18.0928 20.4537C18.4655 20.8349 18.6719 21.3482 18.667 21.8812L18.6667 26.6667H24V19.1333C24.0004 18.6269 24.1763 18.1104 24.5642 17.7179C24.9366 17.341 25.4425 17.126 25.9723 17.1194L25.9806 17.1193L26.6539 17.1193C26.79 17.115 26.9219 17.0711 27.0335 16.993C27.1469 16.9136 27.2342 16.8025 27.2846 16.6737C27.335 16.5448 27.3462 16.4039 27.3167 16.2687C27.2872 16.1335 27.2183 16.0101 27.1188 15.9139L27.1169 15.912L16.4527 5.52042L16.4505 5.5183C16.3299 5.39976 16.1676 5.33333 15.9986 5.33333ZM17.1394 21.3857C17.2658 21.5151 17.3357 21.6894 17.3337 21.8703L17.3334 26.6667H14.6667L14.667 21.8778L14.6669 21.8703C14.6649 21.6894 14.7348 21.5151 14.8613 21.3857C14.987 21.2571 15.1584 21.1834 15.3381 21.1805H16.6625C16.8423 21.1834 17.0137 21.2571 17.1394 21.3857Z" fill="#FAFAFA"/>
</g>
</g>
</svg>
