<svg width="32" height="32" viewBox="0 0 32 32" fill="none" xmlns="http://www.w3.org/2000/svg">
<g id="house">
<path id="shape" fill-rule="evenodd" clip-rule="evenodd" d="M14.613 4.56644C14.9828 4.20341 15.4803 4 15.9986 4C16.5169 4 17.0144 4.20345 17.3843 4.56653L17.3853 4.5676L28.0455 14.9552C28.3336 15.234 28.5339 15.5927 28.6193 15.9844C28.7049 16.3766 28.6726 16.7853 28.5264 17.1592C28.3803 17.533 28.1268 17.8553 27.798 18.0854C27.4691 18.3155 27.0795 18.4433 26.6782 18.4525L26.6628 18.4529L25.9854 18.4527C25.8075 18.4558 25.6377 18.5284 25.5126 18.6551C25.4021 18.7669 25.3335 18.9312 25.3334 19.1338V26.6667H27.3333C27.7015 26.6667 28 26.9651 28 27.3333C28 27.7015 27.7015 28 27.3333 28H4.66667C4.29848 28 4 27.7015 4 27.3333C4 26.9651 4.29848 26.6667 4.66667 26.6667H6.6668L6.66832 19.1425C6.67037 18.9616 6.60052 18.7873 6.47406 18.6579C6.34834 18.5293 6.17695 18.4556 5.9972 18.4527H5.31994C4.91856 18.4436 4.52884 18.3159 4.19983 18.0858C3.87081 17.8557 3.6172 17.5335 3.47092 17.1596C3.32465 16.7857 3.29224 16.3769 3.37778 15.9847C3.46321 15.5929 3.66247 15.2352 3.95053 14.9563L3.95164 14.9552L14.6118 4.5676L14.613 4.56644ZM14.6667 26.6667H17.3334L17.3337 21.8703C17.3357 21.6894 17.2658 21.5151 17.1394 21.3857C17.0137 21.2571 16.8423 21.1834 16.6625 21.1805H15.3381C15.1584 21.1834 14.987 21.2571 14.8613 21.3857C14.7348 21.5151 14.6649 21.6894 14.6669 21.8703L14.667 21.8778L14.6667 26.6667Z" fill="#FAFAFA"/>
</g>
</svg>
