<svg width="24" height="24" viewBox="0 0 24 24" fill="none" xmlns="http://www.w3.org/2000/svg">
<g id="field type">
<g id="shape">
<path d="M9 6.5C9 6.22386 9.22386 6 9.5 6L19.5 6C19.7761 6 20 6.22386 20 6.5C20 6.77614 19.7761 7 19.5 7L9.5 7C9.22386 7 9 6.77614 9 6.5Z" fill="#C6C9CE"/>
<path d="M7 12C7 12.8284 6.32843 13.5 5.5 13.5C4.67157 13.5 4 12.8284 4 12C4 11.1716 4.67157 10.5 5.5 10.5C6.32843 10.5 7 11.1716 7 12Z" fill="#C6C9CE"/>
<path d="M7 6.5C7 7.32843 6.32843 8 5.5 8C4.67157 8 4 7.32843 4 6.5C4 5.67157 4.67157 5 5.5 5C6.32843 5 7 5.67157 7 6.5Z" fill="#C6C9CE"/>
<path d="M7 17.5C7 18.3284 6.32843 19 5.5 19C4.67157 19 4 18.3284 4 17.5C4 16.6716 4.67157 16 5.5 16C6.32843 16 7 16.6716 7 17.5Z" fill="#C6C9CE"/>
<path d="M9 17.5C9 17.2239 9.22386 17 9.5 17H19.5C19.7761 17 20 17.2239 20 17.5C20 17.7761 19.7761 18 19.5 18H9.5C9.22386 18 9 17.7761 9 17.5Z" fill="#C6C9CE"/>
<path d="M9 12C9 11.7239 9.22386 11.5 9.5 11.5H19.5C19.7761 11.5 20 11.7239 20 12C20 12.2761 19.7761 12.5 19.5 12.5H9.5C9.22386 12.5 9 12.2761 9 12Z" fill="#C6C9CE"/>
</g>
</g>
</svg>
