<svg width="24" height="24" viewBox="0 0 24 24" fill="none" xmlns="http://www.w3.org/2000/svg">
<g id="list">
<g id="shape">
<path d="M10.5 6.5C10.5 6.22386 10.7239 6 11 6L19.5 6C19.7761 6 20 6.22386 20 6.5C20 6.77614 19.7761 7 19.5 7L11 7C10.7239 7 10.5 6.77614 10.5 6.5Z" fill="#16C8D3"/>
<path d="M10.5 17.5C10.5 17.2239 10.7239 17 11 17H19.5C19.7761 17 20 17.2239 20 17.5C20 17.7761 19.7761 18 19.5 18H11C10.7239 18 10.5 17.7761 10.5 17.5Z" fill="#16C8D3"/>
<path d="M10.5 12C10.5 11.7239 10.7239 11.5 11 11.5H19.5C19.7761 11.5 20 11.7239 20 12C20 12.2761 19.7761 12.5 19.5 12.5H11C10.7239 12.5 10.5 12.2761 10.5 12Z" fill="#16C8D3"/>
<path fill-rule="evenodd" clip-rule="evenodd" d="M8.82009 4.6159C9.03223 4.79268 9.06089 5.10797 8.88411 5.3201L6.38411 8.3201C6.29418 8.42802 6.16299 8.49313 6.02266 8.4995C5.88232 8.50587 5.74578 8.4529 5.64645 8.35357L4.14645 6.85357C3.95118 6.6583 3.95118 6.34172 4.14645 6.14646C4.34171 5.9512 4.65829 5.9512 4.85355 6.14646L5.9664 7.25931L8.11589 4.67992C8.29267 4.46778 8.60795 4.43912 8.82009 4.6159Z" fill="#16C8D3"/>
<path fill-rule="evenodd" clip-rule="evenodd" d="M8.82009 10.1159C9.03223 10.2927 9.06089 10.608 8.88411 10.8201L6.38411 13.8201C6.29418 13.928 6.16299 13.9931 6.02266 13.9995C5.88232 14.0059 5.74578 13.9529 5.64645 13.8536L4.14645 12.3536C3.95118 12.1583 3.95118 11.8417 4.14645 11.6465C4.34171 11.4512 4.65829 11.4512 4.85355 11.6465L5.9664 12.7593L8.11589 10.1799C8.29267 9.96778 8.60795 9.93912 8.82009 10.1159Z" fill="#16C8D3"/>
<path fill-rule="evenodd" clip-rule="evenodd" d="M8.82009 15.6159C9.03223 15.7927 9.06089 16.108 8.88411 16.3201L6.38411 19.3201C6.29418 19.428 6.16299 19.4931 6.02266 19.4995C5.88232 19.5059 5.74578 19.4529 5.64645 19.3536L4.14645 17.8536C3.95118 17.6583 3.95118 17.3417 4.14645 17.1465C4.34171 16.9512 4.65829 16.9512 4.85355 17.1465L5.9664 18.2593L8.11589 15.6799C8.29267 15.4678 8.60795 15.4391 8.82009 15.6159Z" fill="#16C8D3"/>
</g>
</g>
</svg>
