<svg width="33" height="32" viewBox="0 0 33 32" fill="none" xmlns="http://www.w3.org/2000/svg">
<g id="location pin">
<g id="shape">
<path fill-rule="evenodd" clip-rule="evenodd" d="M26.0781 13.8314C26.0443 15.6102 25.599 17.357 24.7769 18.9349C23.5277 21.4835 21.8638 23.807 19.853 25.8102C19.2951 26.379 18.7057 26.9225 18.1311 27.4523C17.9812 27.5906 17.8322 27.7279 17.6851 27.8646C17.571 27.9877 17.4337 28.0873 17.2809 28.1574C17.115 28.2335 16.9349 28.2732 16.7524 28.2737C16.57 28.2743 16.3896 28.2358 16.2233 28.1608C16.0736 28.0932 15.9384 27.9975 15.8252 27.879C14.589 26.8095 13.43 25.6537 12.3571 24.4204C10.5041 22.3267 9.04331 19.9163 8.04455 17.3048L8.04154 17.2968C7.66387 16.2699 7.45702 15.188 7.42918 14.0942C7.37725 13.1888 7.42652 12.2804 7.5761 11.3859L7.57712 11.38C7.80302 10.1004 8.30056 8.88409 9.03622 7.81302C9.76959 6.74527 10.7226 5.84659 11.8314 5.17712C13.1197 4.33886 14.6017 3.84544 16.1354 3.74421C17.6692 3.64299 19.2033 3.93741 20.5906 4.59916C21.7556 5.10834 22.8007 5.85667 23.6581 6.79567C24.5175 7.73687 25.169 8.84851 25.5702 10.0582C25.9837 11.2709 26.1562 12.5526 26.0781 13.8314ZM16.7525 16.801C17.4665 16.8001 18.1642 16.5876 18.7575 16.1904C19.3508 15.793 19.8131 15.2287 20.0858 14.5687C20.3585 13.9087 20.4294 13.1827 20.2896 12.4824C20.1497 11.7821 19.8054 11.139 19.3001 10.6344C18.7948 10.1297 18.1512 9.78624 17.4508 9.64731C16.7503 9.50837 16.0244 9.58023 15.3647 9.8538C14.7051 10.1274 14.1413 10.5904 13.7448 11.1843C13.3483 11.7781 13.1367 12.4762 13.1368 13.1903C13.1378 14.1484 13.5191 15.067 14.1971 15.7441C14.875 16.4211 15.7944 16.8013 16.7525 16.801Z" fill="#FAFAFA"/>
</g>
</g>
</svg>
