<svg width="24" height="24" viewBox="0 0 24 24" fill="none" xmlns="http://www.w3.org/2000/svg">
<g id="location pin">
<g id="shape">
<path fill-rule="evenodd" clip-rule="evenodd" d="M18.9958 10.3735C18.9705 11.7076 18.6365 13.0177 18.0199 14.2011C17.0831 16.1126 15.8351 17.8551 14.327 19.3576C13.9086 19.7842 13.4667 20.1916 13.0358 20.589C12.9233 20.6927 12.8115 20.7958 12.7011 20.8983C12.6155 20.9907 12.5125 21.0654 12.3979 21.118C12.2735 21.175 12.1384 21.2048 12.0016 21.2052C11.8648 21.2056 11.7294 21.1768 11.6047 21.1205C11.4924 21.0698 11.3911 20.998 11.3062 20.9092C10.379 20.107 9.50977 19.2402 8.70507 18.3152C7.31535 16.7449 6.21974 14.9372 5.47067 12.9785L5.46837 12.9725C5.18512 12.2023 5.03002 11.3909 5.00914 10.5706C4.97019 9.89153 5.00715 9.21024 5.11933 8.53937L5.12007 8.5349C5.2895 7.57521 5.66268 6.66298 6.21442 5.85967C6.76445 5.05886 7.47922 4.38485 8.31083 3.88275C9.27701 3.25406 10.3885 2.88398 11.5388 2.80807C12.6892 2.73215 13.8397 2.95297 14.8802 3.44928C15.754 3.83117 16.5378 4.39241 17.1808 5.09666C17.8254 5.80256 18.314 6.63629 18.6149 7.54356C18.925 8.45307 19.0544 9.41439 18.9958 10.3735ZM11.6047 3.8059C12.5867 3.74109 13.5688 3.93024 14.4565 4.35513C14.4619 4.3577 14.4673 4.36017 14.4727 4.36255C15.221 4.68839 15.8921 5.16829 16.4424 5.77095C16.9926 6.37361 17.4097 7.0855 17.6663 7.86018L17.6678 7.86444C17.9373 8.65424 18.0492 9.48928 17.9971 10.3222L17.9962 10.3446C17.9752 11.5296 17.6787 12.6933 17.1303 13.744L17.1246 13.7555C16.2358 15.5705 15.0511 17.225 13.6192 18.6511L13.6151 18.6553C13.2154 19.0629 12.7972 19.4486 12.3684 19.8441C12.2477 19.9553 12.1263 20.0674 12.0041 20.1809L11.9983 20.1863C11.9927 20.181 11.987 20.1759 11.9812 20.1708C11.0814 19.3941 10.2383 18.5541 9.45815 17.6573L9.45527 17.654C8.1452 16.174 7.11226 14.4703 6.40586 12.6244C6.16016 11.9553 6.02597 11.2504 6.00863 10.5378L6.00793 10.5208C5.97259 9.91433 6.00523 9.30578 6.10526 8.70654C6.25002 7.88839 6.56831 7.11072 7.03872 6.42583C7.50955 5.74033 8.12184 5.1637 8.83434 4.73481C8.83954 4.73168 8.84467 4.72846 8.84975 4.72515C9.6739 4.18729 10.6227 3.87071 11.6047 3.8059Z" fill="#636A74"/>
<path fill-rule="evenodd" clip-rule="evenodd" d="M10.5777 6.46655C11.2551 6.18562 12.0006 6.11182 12.7199 6.2545C13.4392 6.39717 14.1001 6.74991 14.619 7.26811C15.1379 7.78632 15.4915 8.44673 15.6351 9.16587C15.7787 9.885 15.7059 10.6306 15.4258 11.3083C15.1458 11.9861 14.6711 12.5656 14.0617 12.9736C13.4524 13.3816 12.7358 13.5998 12.0024 13.6006C11.0186 13.6011 10.0745 13.2108 9.37841 12.5155C8.68228 11.8203 8.29074 10.8771 8.28988 9.89327C8.28972 9.15993 8.50698 8.44269 8.9142 7.83281C9.32142 7.22293 9.90032 6.74748 10.5777 6.46655ZM13.5054 12.1427C13.0604 12.4406 12.5371 12.6 12.0017 12.6006C11.2831 12.6009 10.5935 12.3158 10.0851 11.808C9.5766 11.3002 9.29059 10.6112 9.28988 9.89264C9.28978 9.35708 9.44846 8.83351 9.74585 8.38811C10.0433 7.94268 10.4661 7.59544 10.9608 7.39026C11.4555 7.18508 12 7.13119 12.5253 7.23539C13.0507 7.33959 13.5334 7.59721 13.9123 7.97568C14.2913 8.35416 14.5495 8.83649 14.6544 9.3617C14.7593 9.88692 14.7061 10.4314 14.5016 10.9264C14.2971 11.4214 13.9504 11.8447 13.5054 12.1427Z" fill="#636A74"/>
</g>
</g>
</svg>
