<svg width="301" height="200" viewBox="0 0 301 200" fill="none" xmlns="http://www.w3.org/2000/svg">
<rect width="300" height="200" transform="translate(0.5)" fill="#F1F4F8"/>
<path d="M146.207 185.453C146.207 185.453 155.044 172.896 176.55 168.627C196.496 164.67 244.377 156.682 261.427 145.898C262.189 145.423 263.05 146.297 262.563 147.046C257.296 155.059 242.505 174.082 215.419 184.654C180.494 198.284 146.207 185.453 146.207 185.453Z" fill="#00C14D"/>
<path d="M247.198 157.019C245.8 158.617 244.202 160.027 242.542 161.35C242.33 161.512 242.13 161.687 241.918 161.849L241.281 162.324L240.008 163.272L238.697 164.171C238.261 164.471 237.824 164.783 237.362 165.045C233.767 167.304 229.973 169.276 226.041 170.886C225.08 171.336 224.069 171.673 223.07 172.047C222.071 172.409 221.085 172.821 220.062 173.121L217.016 174.082C216.517 174.257 215.993 174.369 215.481 174.506L213.933 174.906L212.386 175.305L211.612 175.505L210.825 175.667L207.705 176.316C207.181 176.416 206.669 176.541 206.145 176.628L204.584 176.903L201.451 177.452C197.27 178.138 193.076 178.8 188.882 179.349C186.785 179.649 184.676 179.898 182.579 180.173L176.275 180.922C172.069 181.409 167.862 181.895 163.681 182.52C162.633 182.657 161.597 182.857 160.561 183.031C160.036 183.119 159.525 183.231 159.013 183.331C158.501 183.443 157.977 183.531 157.465 183.655C156.442 183.918 155.418 184.142 154.419 184.479C153.396 184.754 152.435 185.166 151.436 185.528H151.424C151.361 185.553 151.286 185.515 151.262 185.453C151.237 185.39 151.262 185.315 151.324 185.291C153.259 184.417 155.293 183.743 157.353 183.219C157.864 183.081 158.389 182.981 158.9 182.857C159.412 182.744 159.936 182.607 160.461 182.52C161.497 182.32 162.545 182.095 163.594 181.933C167.775 181.221 171.982 180.697 176.175 180.136L182.466 179.299C184.563 179.012 186.66 178.738 188.757 178.438C192.951 177.851 197.12 177.19 201.302 176.503L204.422 175.954L205.982 175.679C206.507 175.592 207.018 175.48 207.53 175.367L210.626 174.743L211.399 174.581L212.161 174.394L213.696 174.007C217.79 173.021 221.797 171.685 225.729 170.15C229.66 168.627 233.455 166.767 237.087 164.608C237.549 164.358 237.986 164.046 238.435 163.772L239.771 162.923L241.069 162.024L241.718 161.575C241.93 161.425 242.142 161.263 242.355 161.101C242.779 160.776 243.203 160.476 243.615 160.139L244.839 159.141C245.637 158.442 246.436 157.755 247.16 156.982C247.16 156.969 247.173 156.969 247.185 156.982C247.21 157.006 247.21 157.019 247.198 157.019Z" fill="#49E788"/>
<path d="M274.271 44.0075C269.078 62.9675 234.329 172.097 126.061 157.88C126.061 157.88 130.442 80.1552 272.236 41.9605C273.472 41.6234 274.608 42.7718 274.271 44.0075Z" fill="#02983E"/>
<path d="M258.656 56.1525C254.762 61.0829 250.768 65.9259 246.723 70.7314C242.679 75.5369 238.585 80.305 234.441 85.0107C230.285 89.7289 226.078 94.3847 221.822 99.003C217.553 103.621 213.222 108.165 208.828 112.658C200.029 121.62 190.967 130.345 181.431 138.558C176.675 142.677 171.782 146.622 166.727 150.379C161.672 154.123 156.467 157.681 150.987 160.813C150.75 160.951 150.438 160.863 150.301 160.626C150.163 160.389 150.251 160.077 150.488 159.94C155.93 156.857 161.122 153.337 166.165 149.63C171.208 145.91 176.101 141.991 180.856 137.909C190.393 129.758 199.479 121.083 208.304 112.171C212.71 107.703 217.054 103.172 221.335 98.5786C225.617 93.9852 229.835 89.3419 234.004 84.6487C238.173 79.9555 242.28 75.2124 246.337 70.4193C250.393 65.6263 254.4 60.7958 258.319 55.8904C258.394 55.803 258.531 55.778 258.619 55.8529C258.719 55.9278 258.731 56.0526 258.656 56.1525Z" fill="#49E788"/>
<path d="M259.031 111.422C259.667 110.386 258.494 109.188 257.446 109.8C247.335 115.779 220.324 130.62 199.255 132.055C164.942 134.377 125.287 153.524 121.23 179.224C121.23 179.224 189.694 224.234 259.031 111.422Z" fill="#02983E"/>
<path d="M246.199 121.495C245.937 121.732 245.675 121.907 245.425 122.119L244.652 122.706L243.091 123.867C242.043 124.628 240.982 125.39 239.933 126.139C237.812 127.636 235.677 129.109 233.518 130.557C229.211 133.453 224.83 136.249 220.399 138.957C215.981 141.679 211.475 144.287 206.931 146.809L205.234 147.757L203.524 148.681C202.375 149.292 201.239 149.929 200.091 150.516L196.634 152.313L193.151 154.061C183.84 158.666 174.279 162.798 164.455 166.23C164.143 166.343 163.844 166.455 163.532 166.555L162.608 166.855L160.748 167.454L158.888 168.053C158.264 168.253 157.64 168.427 157.016 168.615L155.144 169.164C154.52 169.338 153.896 169.551 153.271 169.7L149.502 170.687C144.447 171.91 139.342 172.921 134.187 173.557C134.124 173.57 134.049 173.52 134.049 173.445C134.037 173.383 134.087 173.32 134.149 173.308C139.279 172.546 144.359 171.473 149.377 170.175L153.122 169.151C153.746 168.989 154.357 168.777 154.981 168.602L156.841 168.028C157.465 167.841 158.077 167.653 158.701 167.454L160.548 166.83L162.396 166.205L163.319 165.893C163.631 165.794 163.931 165.669 164.231 165.569L167.888 164.246C169.099 163.796 170.309 163.31 171.52 162.848C172.119 162.611 172.731 162.386 173.33 162.136L175.127 161.387L176.925 160.639C177.524 160.389 178.123 160.139 178.71 159.877C183.478 157.843 188.158 155.621 192.827 153.349C202.138 148.768 211.2 143.726 220.1 138.396C224.543 135.725 228.937 132.966 233.281 130.12C235.452 128.697 237.612 127.262 239.746 125.801C240.82 125.065 241.881 124.329 242.942 123.58L244.527 122.444L245.313 121.87C245.563 121.67 245.837 121.483 246.062 121.283L246.087 121.271C246.137 121.221 246.212 121.233 246.262 121.283C246.249 121.37 246.249 121.445 246.199 121.495Z" fill="#49E788"/>
<path d="M225.957 140.078C250.08 115.954 250.08 76.8419 225.957 52.7182C201.833 28.5946 162.721 28.5946 138.597 52.7182C114.474 76.8419 114.474 115.954 138.597 140.078C162.721 164.201 201.833 164.201 225.957 140.078Z" fill="#15C87D"/>
<path d="M182.279 149.118C211.398 149.118 235.003 125.513 235.003 96.3943C235.003 67.2758 211.398 43.6707 182.279 43.6707C153.161 43.6707 129.556 67.2758 129.556 96.3943C129.556 125.513 153.161 149.118 182.279 149.118Z" fill="#43E5A1"/>
<path d="M182.279 150.491C167.825 150.491 154.245 144.862 144.022 134.651C133.799 124.429 128.183 110.848 128.183 96.3943C128.183 81.9402 133.812 68.3599 144.022 58.1372C154.245 47.9145 167.825 42.2976 182.279 42.2976C196.733 42.2976 210.314 47.927 220.536 58.1372C230.759 68.3599 236.376 81.9402 236.376 96.3943C236.376 110.848 230.747 124.429 220.536 134.651C210.314 144.874 196.733 150.491 182.279 150.491ZM182.279 45.0436C153.97 45.0436 130.929 68.0728 130.929 96.3943C130.929 124.716 153.958 147.745 182.279 147.745C210.601 147.745 233.63 124.716 233.63 96.3943C233.63 68.0728 210.601 45.0436 182.279 45.0436Z" fill="#FAFAFA"/>
<path d="M182.279 128.535C200.03 128.535 214.42 114.145 214.42 96.3944C214.42 78.6434 200.03 64.2534 182.279 64.2534C164.528 64.2534 150.138 78.6434 150.138 96.3944C150.138 114.145 164.528 128.535 182.279 128.535Z" fill="#79F4C1"/>
<path d="M182.279 129.921C163.793 129.921 148.765 114.88 148.765 96.4068C148.765 77.9211 163.806 62.8928 182.279 62.8928C200.752 62.8928 215.793 77.9335 215.793 96.4068C215.806 114.88 200.765 129.921 182.279 129.921ZM182.279 65.6264C165.316 65.6264 151.511 79.4314 151.511 96.3943C151.511 113.357 165.316 127.162 182.279 127.162C199.242 127.162 213.047 113.357 213.047 96.3943C213.047 79.4314 199.242 65.6264 182.279 65.6264Z" fill="#FAFAFA"/>
<path d="M182.279 108.851C189.159 108.851 194.736 103.274 194.736 96.394C194.736 89.5142 189.159 83.937 182.279 83.937C175.399 83.937 169.822 89.5142 169.822 96.394C169.822 103.274 175.399 108.851 182.279 108.851Z" fill="#E51818"/>
<path d="M182.279 110.224C174.653 110.224 168.449 104.02 168.449 96.3939C168.449 88.7675 174.653 82.564 182.279 82.564C189.906 82.564 196.109 88.7675 196.109 96.3939C196.109 104.02 189.906 110.224 182.279 110.224ZM182.279 85.3225C176.176 85.3225 171.208 90.2903 171.208 96.3939C171.208 102.498 176.176 107.465 182.279 107.465C188.383 107.465 193.351 102.498 193.351 96.3939C193.351 90.2903 188.395 85.3225 182.279 85.3225Z" fill="#FAFAFA"/>
<path d="M257.171 21.3154L258.843 22.9755L195.797 86.0217L194.125 84.3616L257.171 21.3154Z" fill="#D2D3D6"/>
<path d="M195.311 80.3426C196.272 79.3815 200.765 83.8875 199.817 84.8486L183.116 97.9796C182.504 98.4664 181.705 97.6675 182.18 97.0434L195.311 80.3426Z" fill="#E1E3E6"/>
<path d="M258.806 23.0129L267.294 23.8617L255.648 35.5074C251.829 39.3268 246.511 41.2241 241.144 40.6874L258.806 23.0129Z" fill="#E51818"/>
<path d="M257.134 21.3529L256.285 12.8652L244.639 24.5109C240.82 28.3303 238.922 33.6476 239.459 39.0149L257.134 21.3529Z" fill="#E51818"/>
<path d="M161.037 189.619H109.74V74.8953C109.74 71.801 112 69.2896 114.785 69.2896H155.992C158.777 69.2896 161.037 71.801 161.037 74.8953V189.619Z" fill="#CFFF91"/>
<path d="M128.09 189.59H76.814V86.3891C76.814 83.6057 79.0732 81.3464 81.8567 81.3464H123.047C125.83 81.3464 128.09 83.6057 128.09 86.3891V189.59Z" fill="#15C87D"/>
<path d="M96.4729 189.59H51.7876V119.966C51.7876 117.182 54.0468 114.923 56.8303 114.923H91.4302C94.2137 114.923 96.4729 117.182 96.4729 119.966V189.59Z" fill="#CFFF91"/>
<path d="M103.725 145.828C103.837 145.354 103.238 145.029 102.913 145.404C99.7556 148.949 91.168 157.998 83.217 161.131C70.2857 166.249 57.3545 178.493 58.9522 188.903C58.9646 188.891 90.8809 197.815 103.725 145.828Z" fill="#02983E"/>
<path d="M100.093 151.32C100.018 151.458 99.9428 151.557 99.8679 151.67L99.6432 151.994L99.1939 152.643C98.8943 153.068 98.5822 153.492 98.2702 153.916C97.6461 154.765 97.0095 155.602 96.3605 156.425C95.0748 158.085 93.7268 159.708 92.3663 161.306C91.0057 162.916 89.5953 164.476 88.1598 166.011C86.7119 167.547 85.2516 169.057 83.7412 170.517C80.7206 173.451 77.5252 176.209 74.1426 178.731C72.4326 179.966 70.6976 181.164 68.9002 182.263C67.0904 183.336 65.2306 184.335 63.2959 185.196C63.2334 185.221 63.1586 185.196 63.1336 185.134C63.1086 185.071 63.1336 184.996 63.196 184.971C66.9281 183.062 70.4355 180.753 73.7432 178.206C75.4033 176.933 77.0135 175.598 78.5987 174.237C80.1839 172.864 81.7067 171.429 83.217 169.993C86.2501 167.097 89.1085 164.039 91.9044 160.919C93.3024 159.359 94.6629 157.761 95.9985 156.138C96.6725 155.327 97.334 154.516 97.9831 153.704L98.9567 152.469L99.431 151.844L99.6682 151.532L99.8804 151.233L99.9053 151.208C99.9428 151.158 100.018 151.145 100.08 151.183C100.105 151.195 100.118 151.258 100.093 151.32Z" fill="#49E788"/>
<path d="M83.6417 133.478C83.6292 133.079 83.08 132.954 82.9053 133.316C81.1952 136.823 76.4022 145.885 70.8103 150.141C61.711 157.056 54.1844 169.626 57.7667 177.514C57.7542 177.502 85.0022 177.489 83.6417 133.478Z" fill="#00C14D"/>
<path d="M81.9942 138.633C81.9568 138.77 81.9318 138.858 81.8944 138.958L81.7945 139.27L81.5823 139.881C81.4325 140.293 81.2828 140.693 81.133 141.105C80.8334 141.916 80.5089 142.715 80.1968 143.526C79.5478 145.124 78.8488 146.709 78.1248 148.282C77.4134 149.854 76.6395 151.415 75.8406 152.95C75.0418 154.485 74.218 156.008 73.3443 157.506C71.5968 160.501 69.6746 163.397 67.5526 166.143C66.4792 167.504 65.3558 168.827 64.17 170.1C62.9718 171.348 61.7111 172.547 60.3631 173.645C60.3131 173.682 60.2258 173.682 60.1883 173.632C60.1509 173.583 60.1509 173.508 60.2008 173.458C62.7221 171.111 64.9689 168.502 67.0159 165.744C68.0394 164.371 69.0255 162.96 69.9741 161.525C70.9228 160.09 71.7965 158.617 72.6827 157.144C74.4427 154.186 76.0279 151.128 77.5507 148.044C78.3121 146.497 79.036 144.936 79.735 143.364C80.0845 142.577 80.434 141.791 80.771 140.992L81.2703 139.794L81.5199 139.195L81.6323 138.895L81.7321 138.608L81.7446 138.583C81.7696 138.521 81.8444 138.483 81.9069 138.508C81.9818 138.508 82.0067 138.571 81.9942 138.633Z" fill="#49E788"/>
<path d="M65.056 189.477H26.5493V141.796C26.5493 139.013 28.8085 136.754 31.592 136.754H60.0134C62.7968 136.754 65.056 139.013 65.056 141.796V189.477Z" fill="#15C87D"/>
<path d="M232.444 185.39C230.696 185.465 228.999 185.415 227.875 185.365C228.899 184.629 231.271 183.044 233.255 182.407L234.616 182.32C234.616 182.32 235.078 183.019 235.24 184.629C235.015 184.916 234.354 185.303 232.444 185.39Z" fill="#43E5A1"/>
<path d="M227.863 185.378L227.876 185.365C228.999 185.428 230.697 185.478 232.444 185.39C234.354 185.303 235.015 184.916 235.24 184.629C235.253 184.704 235.253 184.779 235.265 184.854C235.29 185.203 235.028 185.515 234.678 185.54C233.243 185.652 229.698 185.89 227.988 185.802C227.763 185.79 227.676 185.503 227.863 185.378Z" fill="#15C87D"/>
<path d="M244.938 184.929C245.063 184.105 245.275 182.919 245.425 182.619C245.675 182.145 246.524 182.619 246.524 182.619C246.524 182.619 247.123 182.894 247.397 183.368C247.572 183.668 248.059 184.504 248.383 185.078C248.421 185.141 248.433 185.216 248.433 185.278L245.026 185.403C244.951 185.253 244.913 185.091 244.938 184.929Z" fill="#43E5A1"/>
<path d="M248.446 185.278C248.446 185.478 248.283 185.652 248.071 185.652L245.637 185.715C245.375 185.727 245.163 185.59 245.038 185.39L248.446 185.278Z" fill="#15C87D"/>
<path d="M244.676 179.886C244.701 179.985 245.151 182.12 245.338 183.056C245.388 183.318 245.625 183.493 245.887 183.48C246.037 183.468 246.199 183.455 246.374 183.443C246.686 183.405 246.923 183.143 246.936 182.831C246.973 182.007 246.985 180.435 246.686 179.823C246.274 178.974 244.676 179.886 244.676 179.886Z" fill="#FFC5B8"/>
<path d="M234.878 180.497C234.69 180.497 234.953 181.471 234.666 182.432C234.603 182.644 234.441 182.819 234.216 182.819C234.066 182.819 233.892 182.819 233.717 182.806C233.455 182.782 233.243 182.582 233.218 182.307L232.98 179.798L234.878 180.497Z" fill="#FFC5B8"/>
<path d="M229.598 153.898C229.686 154.31 232.656 171.673 232.843 180.659C232.843 180.809 232.956 180.934 233.106 180.959C233.48 181.009 234.216 181.084 234.928 180.947C235.028 180.934 235.103 180.847 235.103 180.747C235.203 179.074 236.039 164.92 235.015 158.254C235.015 158.254 243.478 176.066 244.764 180.984C244.789 181.109 244.901 181.184 245.026 181.171C245.388 181.146 246.137 181.084 246.736 180.872C246.948 180.797 247.073 180.572 247.023 180.347C246.311 177.402 241.281 157.156 237.874 152.688L229.598 153.898Z" fill="#15C87D"/>
<path d="M235.015 158.355C235.04 158.355 235.065 158.342 235.09 158.317C235.14 158.28 235.14 158.205 235.09 158.155L233.954 156.994C233.917 156.944 233.842 156.944 233.792 156.994C233.742 157.031 233.742 157.106 233.792 157.156L234.928 158.317C234.965 158.342 234.99 158.355 235.015 158.355Z" fill="#43E5A1"/>
<path d="M219.113 132.142C220.948 132.654 222.896 132.642 224.743 132.155C227.214 131.506 232.107 130.432 235.427 131.031L235.702 139.731L224.331 141.029L224.231 138.72C224.231 138.72 217.316 137.722 213.584 133.178C214.495 132.192 215.219 131.081 215.668 130.345C216.555 131.106 217.678 131.743 219.113 132.142Z" fill="#79F4C1"/>
<path d="M211.574 123.567L212.448 123.18C212.448 123.18 212.41 127.562 215.668 130.345C215.219 131.081 214.495 132.18 213.584 133.178C211.749 130.944 210.676 127.836 211.574 123.567Z" fill="#FFC5B8"/>
<path d="M229.985 126.201C229.985 126.201 230.647 130.133 230.734 131.381C230.734 131.381 227.551 132.267 226.715 131.793L226.815 127.025L229.985 126.201Z" fill="#FFC5B8"/>
<path d="M217.416 136.748C217.041 136.723 216.742 137.048 216.804 137.422L219.4 153.699C219.45 153.973 219.675 154.186 219.95 154.186L245.875 155.272C246.199 155.284 246.474 155.034 246.486 154.71L247.135 139.257C247.148 138.945 246.911 138.671 246.586 138.646L217.416 136.748Z" fill="#43E5A1"/>
<path d="M219.488 135.637C219.126 135.6 218.814 135.9 218.827 136.262L219.351 153.911C219.363 154.235 219.613 154.485 219.937 154.51L245.775 155.596C246.1 155.609 246.374 155.371 246.412 155.047L248.209 138.833C248.246 138.496 247.997 138.184 247.66 138.159L219.488 135.637Z" fill="#15C87D"/>
<path d="M222.072 134.739C221.635 134.664 221.235 134.976 221.185 135.413L219.438 153.686C219.401 154.123 219.725 154.498 220.162 154.51L245.613 155.571C246.024 155.583 246.374 155.271 246.399 154.872L247.46 139.831C247.485 139.444 247.223 139.095 246.836 139.032L222.072 134.739Z" fill="#09985C"/>
<path d="M232.644 135.725L235.44 131.031C235.44 131.031 241.269 136.024 243.041 142.977L239.945 144.924C238.66 142.652 236.451 139.632 232.644 135.725Z" fill="#79F4C1"/>
<path d="M238.735 155.234C239.022 155.234 239.284 155.059 239.409 154.797C239.721 154.11 240.345 152.8 240.67 152.375C240.67 152.375 240.308 152.201 239.683 152.35C239.047 152.5 238.51 152.238 238.498 151.889L241.468 150.616C241.581 150.316 242.005 148.618 239.946 144.924L243.041 142.977C243.703 145.573 243.79 148.456 242.791 151.439C242.791 151.439 242.205 154.834 241.032 155.521C239.846 156.207 238.048 155.246 238.048 155.246L238.735 155.234Z" fill="#FFC5B8"/>
<path d="M226.403 122.569C226.403 122.569 225.342 125.003 225.267 126.276C225.192 127.549 224.917 128.385 226.403 128.635C227.876 128.897 229.124 128.161 229.798 126.887C229.798 126.887 230.859 124.928 230.622 124.129C230.384 123.318 226.403 122.569 226.403 122.569Z" fill="#FFC5B8"/>
<path d="M229.299 125.976H229.111C229.111 125.976 229.885 124.403 229.199 124.116C228.525 123.842 225.841 123.293 225.267 122.344C224.705 121.433 225.204 120.247 225.953 119.91C226.003 119.885 226.053 119.91 226.078 119.96L226.141 120.072C226.178 120.147 226.303 120.135 226.328 120.047C226.353 119.96 226.465 119.947 226.503 120.022C226.677 120.309 227.164 120.771 228.437 121.008C230.26 121.345 231.47 122.082 231.495 123.342C231.495 123.417 231.583 123.467 231.645 123.43C231.782 123.342 231.995 123.305 232.282 123.555C232.781 123.979 232.581 125.065 231.483 125.964C231.433 126.001 231.433 126.088 231.483 126.126C231.683 126.251 231.982 126.563 231.208 126.975C230.422 127.399 229.96 127.349 229.785 127.299C229.735 127.287 229.71 127.249 229.71 127.199L229.785 126.088C229.785 126.026 229.748 125.976 229.685 125.976H229.299Z" fill="#E51818"/>
<path d="M229.249 126.213C229.249 126.213 229.648 124.653 230.347 125.09C231.046 125.527 229.985 126.837 229.423 126.887L229.249 126.213Z" fill="#FFC5B8"/>
<path d="M212.573 123.967L213.909 121.383L212.198 116.877C212.198 116.877 211.013 117.464 211.512 118.512C212.011 119.561 211.45 120.746 211.387 121.183C211.325 121.633 210.763 123.917 212.573 123.967Z" fill="#FFC5B8"/>
<path d="M105.435 81.4462C105.435 81.4087 105.435 81.3713 105.423 81.3338C104.836 78.9997 101.903 77.5393 101.903 77.5393L101.154 77.6017C100.904 77.6267 100.692 77.8014 100.617 78.0386C100.068 79.9109 100.168 81.0592 100.28 81.5585C101.241 81.6459 103.213 81.7083 105.435 81.4462Z" fill="#15C87D"/>
<path d="M100.28 81.5586C100.33 81.7458 100.467 81.8956 100.642 81.9331C102.002 82.2202 104.162 81.983 105.073 81.8707C105.273 81.8457 105.422 81.6585 105.422 81.4463C103.213 81.7084 101.241 81.646 100.28 81.5586Z" fill="#43E5A1"/>
<path d="M101.378 75.4797L100.779 78.2757C100.817 78.4754 100.979 78.6377 101.166 78.6501C101.403 78.6751 101.728 78.6876 102.065 78.6377C102.365 78.5877 102.577 78.2882 102.514 77.9636L103.288 75.4797H101.378Z" fill="#B07968"/>
<path d="M121.724 69.0766C120.575 69.0392 119.989 68.9144 119.677 68.7896C119.677 68.9019 119.677 69.0142 119.677 69.139C119.677 69.2639 119.777 69.3637 119.889 69.3637L126.18 69.3263C126.38 69.3263 126.492 69.0891 126.417 68.9144C125.593 68.9643 123.496 69.1266 121.724 69.0766Z" fill="#43E5A1"/>
<path d="M126.417 68.9018C125.88 68.128 124.47 66.5428 121.624 65.8687L120.575 65.8313C120.388 65.8313 120.213 65.9436 120.138 66.1184C119.964 66.5553 119.677 67.4539 119.664 68.7895C119.976 68.9143 120.563 69.0516 121.711 69.0766C123.496 69.1265 125.593 68.9643 126.417 68.9018Z" fill="#15C87D"/>
<path d="M120.862 63.9216C120.85 64.0215 120.613 65.5318 120.525 66.1185C120.5 66.2558 120.575 66.3931 120.688 66.443C120.9 66.5304 121.249 66.6552 121.574 66.6801C121.749 66.6926 121.923 66.5678 121.973 66.3806L122.622 64.0839L120.862 63.9216Z" fill="#B07968"/>
<path d="M107.919 48.3191C107.919 48.3191 106.421 50.5658 105.922 53.8236C105.46 56.8193 101.54 73.62 100.916 76.2911C100.866 76.4908 100.991 76.6905 101.203 76.7404C101.59 76.8278 102.202 76.9402 102.714 76.9277C102.988 76.9152 103.225 76.7529 103.325 76.5033L112.687 54.8347C112.687 54.8347 118.915 53.6364 121.199 56.3325C122.572 57.9551 121.674 60.801 120.45 64.8452C120.45 64.8452 121.948 65.5941 122.947 65.0948C122.947 65.0948 127.615 57.8054 125.705 53.3368C124.819 51.2648 121 49.2303 117.193 48.8309L107.919 48.3191Z" fill="#09985C"/>
<path d="M107.919 48.3191L110.166 28.2981C110.166 28.2981 119.927 28.2981 126.18 31.8055L118.079 48.6936C117.642 49.6047 116.731 50.1789 115.72 50.1789C114.023 50.1789 111.164 49.8669 107.919 48.3191Z" fill="#79F4C1"/>
<path d="M134.331 26.4258C134.331 26.4258 133.706 32.804 126.192 31.8055C126.192 31.8055 123.309 34.9884 123.247 37.7719C123.247 37.7719 136.952 41.3167 135.704 27.0499L134.331 26.4258Z" fill="#79F4C1"/>
<path d="M106.92 46.0725C106.92 46.0725 107.919 44.3251 109.417 44.5747C110.915 44.8243 111.664 46.3222 111.664 46.3222C111.664 46.3222 110.166 47.0711 109.167 47.5704C108.169 48.0696 106.421 47.5704 106.92 46.0725Z" fill="#B07968"/>
<path d="M109.928 34.564C109.928 34.564 97.1718 40.3182 106.92 46.0723L107.132 47.3205C107.132 47.3205 99.3686 48.4439 99.0441 39.4444C98.7944 32.6917 110.178 28.3105 110.178 28.3105L109.928 34.564Z" fill="#79F4C1"/>
<path d="M118.129 25.3026L116.294 29.2344C116.294 29.2344 118.341 30.7322 120.425 30.1456L120.962 24.5662L118.129 25.3026Z" fill="#B07968"/>
<path d="M122.66 21.0212C122.697 21.0961 123.471 26.351 123.471 26.351L120.463 26.7255L118.99 21.8575C118.99 21.8575 122.023 19.8355 122.66 21.0212Z" fill="#B07968"/>
<path d="M120.101 22.3443C120.013 22.4442 119.976 22.5815 120.013 22.7188L120.575 25.3025C120.588 25.34 120.6 25.3774 120.613 25.4149C120.712 25.6146 121.099 26.2012 121.699 25.7768C122.21 25.4149 122.685 25.0778 123.084 25.0154C123.321 24.978 123.546 25.1527 123.583 25.3899C123.658 25.8892 123.771 26.8752 123.758 27.7864C123.758 28.0111 123.571 28.1983 123.346 28.2108C122.747 28.2483 121.586 28.2857 120.625 28.0985C120.463 28.0735 120.338 27.9487 120.288 27.7989C120.076 27.1249 119.464 25.2401 119.215 24.7284C118.977 24.254 118.278 24.1667 117.954 24.1542C117.829 24.1542 117.717 24.0918 117.642 24.0044C117.405 23.7298 117.03 23.1057 117.767 22.5066C117.954 22.3568 117.966 22.0822 117.829 21.9074C117.567 21.5704 117.342 21.0462 117.917 20.497C118.491 19.9353 119.14 20.0851 119.539 20.2848C119.714 20.3722 119.939 20.3347 120.076 20.1849C120.138 20.1225 120.226 20.0726 120.35 20.0851C120.588 20.11 120.8 19.9603 120.837 19.7231C120.887 19.3112 121.112 18.8369 121.836 18.7121C123.159 18.4749 123.795 19.8105 123.771 20.7341C123.733 21.6578 122.285 21.845 121.461 21.6703C120.862 21.533 120.338 22.0572 120.101 22.3443Z" fill="#04663D"/>
<path d="M119.452 25.6769C119.452 25.6769 119.439 24.0542 118.79 23.892C118.141 23.7297 117.417 24.1915 117.966 25.1776C118.653 26.4008 119.452 25.6769 119.452 25.6769Z" fill="#B07968"/>
<path d="M124.07 22.4191L144.84 19.1738L144.591 25.6769L124.07 23.9294V22.4191Z" fill="#CFFF91"/>
<path d="M144.116 18.9367C144.004 20.2224 144.116 24.279 144.179 25.6146C144.191 25.8517 144.391 26.0514 144.628 26.0514H144.977C145.252 26.0514 145.489 25.8517 145.527 25.5771C145.914 23.1806 146.113 20.9339 145.976 18.9367C145.964 18.7121 145.776 18.5498 145.552 18.5498H144.541C144.328 18.5498 144.141 18.7121 144.116 18.9367Z" fill="#15C87D"/>
<path d="M124.457 22.0447H123.845C123.746 22.0447 123.658 22.1071 123.646 22.2069C123.508 22.8186 123.608 23.7297 123.658 24.1167C123.671 24.2165 123.758 24.2914 123.858 24.2914H124.245C124.345 24.2914 124.432 24.2165 124.445 24.1042L124.644 22.2694C124.682 22.157 124.582 22.0447 124.457 22.0447Z" fill="#15C87D"/>
<path d="M134.331 26.426C134.331 26.426 134.443 24.9781 134.643 24.8283C134.842 24.6785 136.34 23.1807 136.59 23.1807C136.839 23.1807 137.089 23.6799 136.59 23.9296C136.091 24.1792 135.966 24.9406 135.966 24.9406L137.326 25.053C137.326 25.053 136.34 26.9252 135.841 27.1749C135.329 27.4245 134.331 26.426 134.331 26.426Z" fill="#B07968"/>
</svg>
