<svg width="33" height="32" viewBox="0 0 33 32" fill="none" xmlns="http://www.w3.org/2000/svg">
<g id="location pin">
<g id="shape">
<path fill-rule="evenodd" clip-rule="evenodd" d="M26.0781 13.8313C26.0443 15.6101 25.599 17.357 24.7769 18.9348C23.5277 21.4835 21.8638 23.8069 19.853 25.8102C19.2951 26.379 18.706 26.9222 18.1313 27.452C17.9813 27.5904 17.8323 27.7278 17.6851 27.8645C17.571 27.9877 17.4337 28.0872 17.2809 28.1573C17.115 28.2334 16.9349 28.2731 16.7524 28.2737C16.57 28.2743 16.3896 28.2357 16.2233 28.1607C16.0736 28.0932 15.9384 27.9974 15.8252 27.8789C14.589 26.8094 13.43 25.6537 12.3571 24.4204C10.5041 22.3266 9.04331 19.9163 8.04455 17.3048L8.04149 17.2968C7.66382 16.2698 7.45702 15.188 7.42918 14.0942C7.37725 13.1888 7.42652 12.2804 7.5761 11.3859L7.57709 11.3799C7.80299 10.1003 8.30056 8.88403 9.03622 7.81295C9.76959 6.74521 10.7226 5.84653 11.8314 5.17706C13.1197 4.3388 14.6017 3.84537 16.1354 3.74415C17.6692 3.64293 19.2033 3.93735 20.5906 4.5991C21.7556 5.10828 22.8007 5.85661 23.6581 6.79561C24.5175 7.73681 25.169 8.84845 25.5702 10.0581C25.9837 11.2708 26.1562 12.5526 26.0781 13.8313ZM16.2232 5.07459C17.5326 4.98818 18.8421 5.24038 20.0257 5.8069C20.0328 5.81033 20.04 5.81363 20.0473 5.81679C21.0449 6.25125 21.9398 6.89111 22.6735 7.69466C23.4072 8.4982 23.9632 9.44739 24.3054 10.4803L24.3074 10.486C24.6668 11.539 24.816 12.6524 24.7464 13.763L24.7452 13.7929C24.7173 15.3728 24.3219 16.9245 23.5907 18.3254L23.5832 18.3408C22.3981 20.7608 20.8185 22.9667 18.9093 24.8682L18.9038 24.8739C18.3708 25.4173 17.8133 25.9315 17.2415 26.4588C17.0806 26.6072 16.9187 26.7565 16.7558 26.9079L16.7481 26.9152C16.7406 26.9081 16.733 26.9012 16.7253 26.8945C15.5255 25.8589 14.4013 24.7389 13.3612 23.5431L13.3574 23.5388C11.6106 21.5655 10.2333 19.2938 9.29147 16.8326C8.96387 15.9404 8.78495 15.0005 8.76184 14.0504L8.7609 14.0278C8.71377 13.2192 8.7573 12.4078 8.89067 11.6088C9.08369 10.5179 9.50807 9.48102 10.1353 8.56784C10.7631 7.65383 11.5795 6.88499 12.5295 6.31314C12.5364 6.30897 12.5432 6.30468 12.55 6.30026C13.6489 5.58311 14.9139 5.161 16.2232 5.07459Z" fill="#FAFAFA"/>
<path fill-rule="evenodd" clip-rule="evenodd" d="M14.8539 8.62212C15.7571 8.24755 16.7511 8.14916 17.7102 8.33939C18.6693 8.52963 19.5504 8.99994 20.2423 9.69088C20.9341 10.3818 21.4056 11.2624 21.5971 12.2212C21.7886 13.1801 21.6915 14.1742 21.3181 15.0778C20.9447 15.9815 20.3118 16.7542 19.4993 17.2982C18.6869 17.8422 17.7313 18.1332 16.7536 18.1342C15.4418 18.1348 14.183 17.6144 13.2549 16.6874C12.3267 15.7605 11.8046 14.5029 11.8035 13.1911C11.8033 12.2133 12.093 11.257 12.6359 10.4438C13.1789 9.63064 13.9507 8.9967 14.8539 8.62212ZM18.7575 16.1903C18.1642 16.5876 17.4665 16.8 16.7525 16.8009C15.7944 16.8012 14.875 16.4211 14.1971 15.744C13.5191 15.067 13.1378 14.1483 13.1368 13.1902C13.1367 12.4762 13.3483 11.7781 13.7448 11.1842C14.1413 10.5903 14.7051 10.1273 15.3647 9.85374C16.0244 9.58017 16.7503 9.50831 17.4508 9.64725C18.1512 9.78618 18.7948 10.1297 19.3001 10.6343C19.8054 11.1389 20.1497 11.782 20.2896 12.4823C20.4294 13.1826 20.3585 13.9087 20.0858 14.5687C19.8131 15.2287 19.3508 15.793 18.7575 16.1903Z" fill="#FAFAFA"/>
</g>
</g>
</svg>
