<svg width="24" height="25" viewBox="0 0 24 25" fill="none" xmlns="http://www.w3.org/2000/svg">
<g id="lock">
<g id="shape">
<path fill-rule="evenodd" clip-rule="evenodd" d="M5 12.9208C5 12.0924 5.67157 11.4208 6.5 11.4208H7V8.42081C7 7.09472 7.52678 5.82295 8.46447 4.88527C9.40215 3.94759 10.6739 3.42081 12 3.42081C13.3261 3.42081 14.5979 3.94759 15.5355 4.88527C16.4732 5.82295 17 7.09472 17 8.42081V11.4208H17.5C18.3284 11.4208 19 12.0924 19 12.9208V19.9208C19 20.7492 18.3284 21.4208 17.5 21.4208H6.5C5.67157 21.4208 5 20.7492 5 19.9208V12.9208ZM6 12.9208C6 12.6447 6.22386 12.4208 6.5 12.4208H7.5H16.5H17.5C17.7761 12.4208 18 12.6447 18 12.9208V19.9208C18 20.1969 17.7761 20.4208 17.5 20.4208H6.5C6.22386 20.4208 6 20.1969 6 19.9208V12.9208ZM9.17157 5.59238C9.92172 4.84223 10.9391 4.42081 12 4.42081C13.0609 4.42081 14.0783 4.84223 14.8284 5.59238C15.5786 6.34253 16 7.35994 16 8.42081V11.4208H8V8.42081C8 7.35994 8.42143 6.34253 9.17157 5.59238Z" fill="#C6C9CE"/>
<path d="M12 14.4208C11.4477 14.4208 11 14.8685 11 15.4208C11 15.7909 11.2011 16.1141 11.5 16.287V17.9208C11.5 18.1969 11.7239 18.4208 12 18.4208C12.2761 18.4208 12.5 18.1969 12.5 17.9208V16.287C12.7989 16.1141 13 15.7909 13 15.4208C13 14.8685 12.5523 14.4208 12 14.4208Z" fill="#C6C9CE"/>
</g>
</g>
</svg>
