<svg width="185" height="100" viewBox="0 0 185 100" fill="none" xmlns="http://www.w3.org/2000/svg">
<path d="M157.103 67.9194C156.139 67.9194 155.358 67.138 155.358 66.1741V34.4798C155.358 33.5159 156.139 32.7345 157.103 32.7345H159.965C160.929 32.7345 161.711 33.5159 161.711 34.4798V66.1741C161.711 67.138 160.929 67.9194 159.965 67.9194H157.103Z" fill="#227CF2"/>
<path d="M146.126 39.3316C143.878 39.3316 142.119 37.6213 142.119 35.3733C142.119 33.1254 143.878 31.415 146.126 31.415C148.374 31.415 150.133 33.1254 150.133 35.3733C150.133 37.6213 148.374 39.3316 146.126 39.3316ZM144.695 67.9194C143.731 67.9194 142.95 67.138 142.95 66.1741V44.742C142.95 43.7781 143.731 42.9967 144.695 42.9967H147.557C148.521 42.9967 149.303 43.7781 149.303 44.742V66.1741C149.303 67.138 148.521 67.9194 147.557 67.9194H144.695Z" fill="#227CF2"/>
<path d="M127.527 68.5058C119.904 68.5058 114.138 62.886 114.138 55.4581C114.138 48.0301 119.904 42.4103 127.527 42.4103C131.893 42.4103 135.634 44.2484 138.016 47.1913C138.621 47.9388 138.345 49.0177 137.521 49.5135L135.031 51.0118C134.187 51.5196 133.102 51.206 132.401 50.5139C131.188 49.3151 129.478 48.5677 127.527 48.5677C123.618 48.5677 120.686 51.5486 120.686 55.4581C120.686 59.3675 123.618 62.3484 127.527 62.3484C129.478 62.3484 131.188 61.6011 132.401 60.4022C133.102 59.7101 134.187 59.3966 135.031 59.9043L137.521 61.4026C138.345 61.8984 138.621 62.9773 138.016 63.7248C135.634 66.6677 131.893 68.5058 127.527 68.5058Z" fill="#227CF2"/>
<path d="M102.529 33.272C104.038 33.272 104.836 35.0571 103.83 36.1813L100.699 39.6789C100.368 40.0487 99.8949 40.2601 99.3985 40.2601H96.8531C95.4378 40.2601 94.611 38.664 95.4275 37.508L97.8978 34.0104C98.2249 33.5474 98.7565 33.272 99.3234 33.272H102.529ZM103.257 44.742C103.257 43.7781 104.039 42.9967 105.003 42.9967H107.865C108.829 42.9967 109.61 43.7781 109.61 44.742V66.1741C109.61 67.138 108.829 67.9194 107.865 67.9194H105.003C104.039 67.9194 103.257 67.138 103.257 66.1741V64.9384C101.254 67.1375 98.4682 68.5058 95.1452 68.5058C88.206 68.5058 82.9771 62.886 82.9771 55.4581C82.9771 48.0301 88.206 42.4103 95.1452 42.4103C98.4682 42.4103 101.254 43.7786 103.257 45.9777V44.742ZM96.3669 62.3484C100.325 62.3484 103.257 59.3675 103.257 55.4581C103.257 51.5486 100.325 48.5677 96.3669 48.5677C92.4575 48.5677 89.5254 51.5486 89.5254 55.4581C89.5254 59.3675 92.4575 62.3484 96.3669 62.3484Z" fill="#227CF2"/>
<path d="M81.2908 38.8081C81.2908 39.772 80.5094 40.5533 79.5455 40.5533H66.0928V48.1279H77.5908C78.5547 48.1279 79.3361 48.9093 79.3361 49.8732V52.7354C79.3361 53.6993 78.5547 54.4807 77.5908 54.4807H66.0928V66.1741C66.0928 67.138 65.3114 67.9194 64.3476 67.9194H61.0943C60.1305 67.9194 59.3491 67.138 59.3491 66.1741V35.9458C59.3491 34.9819 60.1305 34.2005 61.0943 34.2005H79.5455C80.5094 34.2005 81.2908 34.9819 81.2908 35.9458V38.8081Z" fill="#227CF2"/>
<path d="M45.7432 35.9458C45.7432 34.9819 46.5246 34.2005 47.4885 34.2005H50.7417C51.7056 34.2005 52.4869 34.9819 52.4869 35.9458V66.1741C52.4869 67.138 51.7056 67.9194 50.7417 67.9194H46.5592C45.9869 67.9194 45.4509 67.6388 45.1249 67.1684L30.3009 45.7822V66.1741C30.3009 67.138 29.5195 67.9194 28.5556 67.9194H25.3024C24.3385 67.9194 23.5571 67.138 23.5571 66.1741V35.9458C23.5571 34.9819 24.3385 34.2005 25.3024 34.2005H29.4848C30.0572 34.2005 30.5932 34.4811 30.9192 34.9515L45.7432 56.3377V35.9458Z" fill="#227CF2"/>
</svg>
