<svg width="101" height="100" viewBox="0 0 101 100" fill="none" xmlns="http://www.w3.org/2000/svg">
<path d="M0.0371094 45C0.0371094 29.2485 0.0371094 21.3728 3.10255 15.3565C5.79899 10.0645 10.1016 5.76188 15.3936 3.06544C21.4099 0 29.2856 0 45.0371 0H55.0371C70.7886 0 78.6643 0 84.6806 3.06544C89.9727 5.76188 94.2752 10.0645 96.9717 15.3565C100.037 21.3728 100.037 29.2485 100.037 45V55C100.037 70.7515 100.037 78.6272 96.9717 84.6435C94.2752 89.9355 89.9727 94.2381 84.6806 96.9346C78.6643 100 70.7886 100 55.0371 100H45.0371C29.2856 100 21.4099 100 15.3936 96.9346C10.1016 94.2381 5.79899 89.9355 3.10255 84.6435C0.0371094 78.6272 0.0371094 70.7515 0.0371094 55V45Z" fill="#227CF2"/>
<path fill-rule="evenodd" clip-rule="evenodd" d="M73.0783 27.004C71.4795 27.066 70.0936 28.1294 69.6199 29.6577L57.9052 67.4532C57.4366 68.9653 56.1202 70.0588 54.5477 70.2421C52.9753 70.4254 51.4427 69.6641 50.6388 68.3004L40.2279 50.6403L32.6751 74.9389C32.0194 77.0485 29.7777 78.2271 27.6681 77.5713C25.5585 76.9156 24.3799 74.6739 25.0357 72.5643L35.2685 39.6434C35.7382 38.1322 37.0547 37.04 38.6266 36.8574C40.1986 36.6748 41.7304 37.436 42.534 38.7993L52.9399 56.4509L61.9786 27.2893C63.4564 22.5212 67.7804 19.2034 72.7685 19.01C74.976 18.9245 76.8349 20.6447 76.9204 22.8522C77.006 25.0596 75.2858 26.9185 73.0783 27.004Z" fill="#34E8B2"/>
<path d="M49.665 20C53.0033 20 56.2141 20.5452 59.2134 21.5515C58.3603 22.8473 57.6781 24.2759 57.2026 25.8098L56.2163 28.9919C54.147 28.3473 51.9466 28 49.665 28C38.8038 28 29.7809 35.8707 27.9886 46.2196L22.7133 63.1912C20.7611 59.2102 19.665 54.7331 19.665 50C19.665 33.4315 33.0965 20 49.665 20Z" fill="#FAFAFA"/>
<path d="M71.665 50C71.665 47.6638 71.3009 45.4127 70.6263 43.3002L73.9921 32.4408C77.5614 37.3772 79.665 43.4429 79.665 50C79.665 66.5685 66.2336 80 49.665 80C45.1945 80 40.9523 79.0221 37.1407 77.2686C37.2564 76.9951 37.3597 76.7134 37.4497 76.4238L39.5834 69.5592C42.3451 70.9856 45.4476 71.8442 48.7367 71.9808C50.2396 73.6685 52.4913 74.5522 54.7915 74.2841C57.551 73.9623 59.8612 72.0434 60.6837 69.3898L60.8138 68.9699C67.3075 65.1453 71.665 58.0815 71.665 50Z" fill="#FAFAFA"/>
</svg>
