<svg width="301" height="200" viewBox="0 0 301 200" fill="none" xmlns="http://www.w3.org/2000/svg">
<path opacity="0.2" d="M252.964 134.642C250.817 126.558 257.88 119.044 261.404 111.295C267.73 97.4136 261.855 80.5461 249.129 70.9109C236.404 61.2757 218.047 58.559 201.666 62.0743C176.273 67.5222 154.526 86.5409 128.517 85.2203C117.106 84.6368 106.555 80.1121 95.8351 76.6698C85.1158 73.237 73.0685 70.8772 62.4071 74.6224C51.8818 78.3148 44.5949 87.6501 42.6145 97.5245C40.6341 107.399 43.4213 117.636 48.5874 126.494C51.3076 131.157 54.6288 137.004 51.0147 141.218C48.4056 144.258 43.487 144.628 39.8254 146.626C33.9692 149.827 32.2122 157.088 34.3285 162.852C36.4448 168.616 41.5917 173.077 47.065 176.676C65.0904 188.511 88.8358 193.273 110.99 189.505L109.665 187.492C132.839 185.003 156.177 188.376 179.461 189.373C202.745 190.37 227.396 188.632 247.02 177.277C252.287 174.232 257.173 170.438 260.293 165.594C263.414 160.749 264.572 154.72 262.342 149.546C260.04 144.195 254.445 140.215 252.964 134.642Z" fill="#91FDB0"/>
<path d="M26.1658 81.5662C30.229 81.5662 33.5228 78.2724 33.5228 74.2093C33.5228 70.1461 30.229 66.8523 26.1658 66.8523C22.1027 66.8523 18.8088 70.1461 18.8088 74.2093C18.8088 78.2724 22.1027 81.5662 26.1658 81.5662Z" fill="#E8CB31"/>
<path d="M26.1659 81.3184C30.0922 81.3184 33.2752 78.1355 33.2752 74.2091C33.2752 70.2828 30.0922 67.0999 26.1659 67.0999C22.2396 67.0999 19.0566 70.2828 19.0566 74.2091C19.0566 78.1355 22.2396 81.3184 26.1659 81.3184Z" fill="#272727" fill-opacity="0.4"/>
<path opacity="0.6" d="M20.2951 71.5338C20.2579 71.5338 20.2084 71.5214 20.1712 71.5091C20.035 71.4348 19.9854 71.2737 20.0474 71.1375C21.224 68.8214 23.5648 67.3723 26.1534 67.3723C26.5745 67.3723 26.9832 67.4095 27.3919 67.4838C27.5406 67.5086 27.6396 67.6572 27.6149 67.8058C27.5901 67.9544 27.4415 68.0535 27.2929 68.0287C26.9213 67.9668 26.5373 67.9297 26.1534 67.9297C23.763 67.9297 21.6079 69.2549 20.5304 71.3852C20.4932 71.4719 20.3941 71.5338 20.2951 71.5338Z" fill="#E8CB31"/>
<path d="M29.8294 79.237C32.5261 77.2932 33.1365 73.5314 31.1928 70.8346C29.249 68.1379 25.4871 67.5274 22.7904 69.4712C20.0936 71.415 19.4832 75.1769 21.427 77.8736C23.3708 80.5704 27.1326 81.1808 29.8294 79.237Z" fill="#E8CB31"/>
<path d="M25.7322 78.8414V78.1849C25.051 78.1602 24.3698 77.9992 23.8992 77.7886C23.7258 77.7143 23.6391 77.5161 23.6886 77.3427L23.8496 76.7358C23.9116 76.5129 24.1593 76.4014 24.3698 76.4881C24.8405 76.6863 25.435 76.8473 26.0666 76.8473C26.7231 76.8473 27.2185 76.6244 27.2185 76.1661C27.2185 75.7574 26.8345 75.5097 25.9304 75.262C24.6299 74.9028 23.6886 74.3331 23.6886 73.1936C23.6886 72.1532 24.4441 71.3606 25.757 71.15V70.4936C25.757 70.283 25.9304 70.1096 26.141 70.1096H26.5249C26.7355 70.1096 26.9089 70.283 26.9089 70.4936V71.0757C27.5405 71.1005 27.9988 71.2119 28.3703 71.3358C28.5561 71.3977 28.6552 71.6083 28.6057 71.794L28.457 72.3638C28.3951 72.5867 28.1598 72.6982 27.9492 72.6239C27.6148 72.5 27.1442 72.3638 26.5249 72.3638C25.7446 72.3638 25.5217 72.6858 25.5217 72.9707C25.5217 73.3298 25.9923 73.5776 27.0079 73.8872C28.457 74.3207 29.0639 74.9276 29.0639 76.0051C29.0639 76.9959 28.3332 77.8877 26.8965 78.1106V78.8414C26.8965 79.0519 26.7231 79.2253 26.5125 79.2253H26.1286C25.8932 79.2129 25.7322 79.0519 25.7322 78.8414Z" fill="#FAFAFA"/>
<path d="M108.495 34.7737L200.915 35.7893C206.03 35.8513 210.031 40.2481 210.031 45.7968L209.944 182.805C209.944 186.632 206.835 189.815 203.095 189.827L104.011 190.261C100.518 190.273 97.645 187.35 97.645 183.759V46.4656C97.645 39.9509 102.5 34.7118 108.495 34.7737Z" fill="#636A74"/>
<path d="M193.211 47.9023H115.517C112.26 47.9023 109.646 50.59 109.646 53.7607V166.828C109.646 169.998 112.26 172.463 115.517 172.463H193.211C196.469 172.463 199.132 169.998 199.132 166.828V53.7607C199.132 50.59 196.469 47.9023 193.211 47.9023Z" fill="#FAFAFA"/>
<path d="M149.614 144.261V139.282C144.425 139.072 139.297 137.846 135.656 136.26C134.355 135.691 133.687 134.229 134.071 132.854L135.334 128.222C135.792 126.525 137.65 125.646 139.273 126.327C142.889 127.838 147.348 129.04 152.166 129.04C157.157 129.04 160.885 127.343 160.885 123.875C160.885 120.741 158.012 118.884 151.063 117.013C141.155 114.301 134.046 109.978 134.046 101.259C134.046 93.3819 139.805 87.375 149.8 85.7649V80.7859C149.8 79.1882 151.101 77.8877 152.698 77.8877H155.621C157.219 77.8877 158.52 79.1882 158.52 80.7859V85.2571C163.325 85.4552 166.818 86.2727 169.592 87.2387C171.016 87.7341 171.784 89.2699 171.4 90.719L170.236 95.0044C169.79 96.6517 168.019 97.5682 166.421 96.9613C163.87 95.9953 160.253 94.992 155.572 94.992C149.639 94.992 147.955 97.4444 147.955 99.649C147.955 102.361 151.509 104.219 159.213 106.597C170.224 109.904 174.794 114.474 174.794 122.686C174.794 130.229 169.208 137.004 158.359 138.688V144.261C158.359 145.859 157.058 147.16 155.46 147.16H152.537C150.915 147.16 149.614 145.859 149.614 144.261Z" fill="#21BD4D"/>
<path d="M127.717 26.9711C127.717 26.9711 127.779 26.872 127.878 26.711C127.94 26.6119 128.064 26.5871 128.163 26.649C128.2 26.6738 128.237 26.711 128.25 26.7605C128.337 26.7357 128.436 26.711 128.547 26.6862C128.659 26.6614 128.77 26.7234 128.795 26.8348C128.82 26.9463 128.758 27.0578 128.646 27.0825C128.337 27.1569 128.114 27.2312 128.002 27.2559C127.977 27.2683 127.953 27.2683 127.94 27.2807L127.445 27.4169L127.717 26.9711ZM128.473 25.844C128.671 25.5591 128.882 25.2866 129.092 25.0018C129.166 24.9151 129.29 24.8903 129.377 24.9646C129.464 25.0389 129.488 25.1628 129.414 25.2495C129.204 25.522 129.005 25.8068 128.807 26.0793C128.745 26.1784 128.609 26.1908 128.522 26.1289C128.51 26.1165 128.498 26.1041 128.485 26.0917C128.423 26.0174 128.423 25.9183 128.473 25.844ZM129.426 26.711C129.414 26.5995 129.488 26.488 129.6 26.4757C129.959 26.4261 130.306 26.389 130.653 26.3766C130.764 26.3766 130.863 26.4633 130.863 26.5747C130.863 26.6862 130.777 26.7853 130.665 26.7853C130.343 26.7977 129.996 26.8348 129.649 26.8844C129.575 26.8968 129.501 26.8596 129.464 26.8101C129.439 26.7853 129.426 26.7481 129.426 26.711ZM131.482 26.5871C131.495 26.4757 131.594 26.389 131.705 26.4013C132.077 26.4261 132.424 26.488 132.758 26.5624C132.87 26.5871 132.932 26.6986 132.907 26.8101C132.882 26.9215 132.771 26.9835 132.659 26.9587C132.349 26.8844 132.015 26.8348 131.668 26.7977C131.606 26.7977 131.557 26.7605 131.52 26.7234C131.495 26.6862 131.482 26.6367 131.482 26.5871ZM129.736 24.1843C129.959 23.9119 130.182 23.6518 130.417 23.3917C130.492 23.305 130.628 23.2926 130.715 23.3793C130.801 23.4536 130.814 23.5898 130.727 23.6765C130.504 23.9242 130.281 24.1967 130.058 24.4568C129.984 24.5435 129.86 24.5559 129.761 24.4816C129.749 24.4692 129.736 24.4568 129.736 24.4568C129.674 24.3701 129.674 24.2587 129.736 24.1843ZM133.501 27.0082C133.551 26.9091 133.675 26.8596 133.774 26.9091C134.009 27.0206 134.232 27.1445 134.443 27.2807C134.529 27.3302 134.604 27.3922 134.69 27.4417C134.789 27.5036 134.814 27.6275 134.765 27.7266C134.703 27.8257 134.579 27.8504 134.48 27.8009C134.393 27.7514 134.306 27.6894 134.22 27.6399C134.022 27.516 133.823 27.4046 133.6 27.3055C133.576 27.2931 133.538 27.2683 133.526 27.2436C133.477 27.1692 133.464 27.0825 133.501 27.0082ZM136.313 29.9436C136.375 29.8817 136.461 29.8693 136.536 29.894C136.722 29.8445 136.92 29.8321 137.155 29.8569C137.267 29.8693 137.353 29.9684 137.341 30.0798C137.328 30.1913 137.229 30.278 137.118 30.2656C136.833 30.2284 136.622 30.278 136.449 30.3895L136.189 30.0674L136.313 29.9436ZM135.31 27.9991C135.347 27.8876 135.471 27.8381 135.582 27.8876C135.916 28.0238 136.226 28.0981 136.523 28.1353C136.635 28.1477 136.722 28.2468 136.709 28.3706C136.697 28.4821 136.598 28.5688 136.474 28.5564C136.139 28.5193 135.793 28.4202 135.421 28.2839C135.384 28.2715 135.359 28.2468 135.334 28.222C135.297 28.1477 135.285 28.0734 135.31 27.9991ZM131.123 22.6238C131.371 22.3761 131.619 22.1284 131.866 21.8806C131.953 21.8063 132.077 21.8063 132.164 21.8806C132.238 21.9673 132.238 22.0912 132.164 22.1779C131.916 22.4132 131.681 22.6609 131.433 22.9086C131.359 22.9953 131.222 22.9953 131.136 22.9086C131.123 22.8963 131.123 22.8963 131.111 22.8839C131.049 22.8219 131.049 22.6981 131.123 22.6238ZM137.044 29.2005C137.316 28.9156 137.564 28.6555 137.75 28.4449C137.824 28.3582 137.96 28.3582 138.047 28.4326C138.133 28.5069 138.133 28.6431 138.059 28.7298C137.861 28.9404 137.626 29.2005 137.341 29.4853C137.267 29.572 137.13 29.572 137.044 29.4853C137.031 29.4729 137.031 29.4729 137.031 29.4606C136.969 29.3862 136.969 29.2748 137.044 29.2005ZM137.948 30.2161C137.972 30.1046 138.084 30.0427 138.195 30.0674C138.493 30.1418 138.815 30.2161 139.186 30.2656C139.298 30.278 139.372 30.3895 139.36 30.5009C139.347 30.6124 139.236 30.6867 139.124 30.6743C138.728 30.6124 138.394 30.5381 138.096 30.4638C138.047 30.4514 138.01 30.4266 137.985 30.3895C137.948 30.3523 137.935 30.2904 137.948 30.2161ZM137.328 28.3211C137.291 28.2096 137.366 28.0982 137.477 28.061C137.799 27.9743 138.022 27.8257 138.183 27.7266C138.245 27.6894 138.294 27.6523 138.344 27.6399C138.369 27.6275 138.381 27.6275 138.406 27.6151C138.517 27.578 138.629 27.6399 138.666 27.7514C138.703 27.8628 138.641 27.9743 138.53 28.0114C138.505 28.0238 138.456 28.0486 138.418 28.0858C138.257 28.1848 137.985 28.3582 137.613 28.4697C137.527 28.4945 137.44 28.4573 137.39 28.3954C137.353 28.3706 137.341 28.3459 137.328 28.3211ZM132.634 21.1747C132.87 20.9641 133.105 20.766 133.34 20.5802L133.427 20.5059C133.514 20.4315 133.65 20.4439 133.712 20.543C133.786 20.6297 133.761 20.766 133.675 20.8279L133.588 20.9022C133.353 21.088 133.117 21.2861 132.894 21.4843C132.808 21.5586 132.684 21.5462 132.597 21.4595C132.597 21.4595 132.597 21.4595 132.597 21.4472C132.535 21.3852 132.548 21.249 132.634 21.1747ZM139.979 30.5752C139.979 30.4638 140.078 30.3771 140.189 30.3771C140.524 30.3895 140.858 30.3895 141.205 30.3647C141.317 30.3523 141.416 30.439 141.428 30.5629C141.44 30.6743 141.354 30.7734 141.23 30.7858C140.871 30.8106 140.511 30.8106 140.177 30.7982C140.115 30.7982 140.066 30.761 140.028 30.7239C140.004 30.6743 139.979 30.6248 139.979 30.5752ZM142.047 30.4885C142.035 30.3771 142.109 30.2656 142.221 30.2532C142.295 30.2408 142.369 30.2284 142.444 30.2161C142.704 30.1789 142.964 30.117 143.212 30.0427C143.323 30.0055 143.434 30.0798 143.472 30.1789C143.509 30.2904 143.434 30.4018 143.335 30.439C143.075 30.5133 142.803 30.5752 142.518 30.6248C142.444 30.6372 142.369 30.6496 142.295 30.6619C142.221 30.6743 142.146 30.6372 142.097 30.5876C142.072 30.5629 142.047 30.5257 142.047 30.4885ZM134.22 20.1714C134.158 20.0724 134.183 19.9485 134.269 19.8866C134.554 19.6884 134.851 19.4902 135.149 19.3045C135.248 19.2425 135.372 19.2797 135.433 19.3664C135.495 19.4655 135.458 19.5893 135.372 19.6513C135.087 19.8247 134.802 20.0104 134.517 20.2086C134.418 20.2829 134.306 20.2705 134.22 20.1714C134.232 20.1838 134.232 20.1838 134.22 20.1714ZM144.041 29.9807C143.992 29.8817 144.041 29.7578 144.14 29.7083C144.438 29.572 144.735 29.411 145.02 29.2252C145.119 29.1633 145.243 29.1881 145.305 29.2872C145.367 29.3862 145.342 29.5101 145.243 29.572C144.945 29.7702 144.636 29.9436 144.314 30.0922C144.227 30.1294 144.128 30.1046 144.066 30.0303C144.066 30.0055 144.054 29.9931 144.041 29.9807ZM135.978 19.0691C135.929 18.9701 135.966 18.8462 136.065 18.7843C136.375 18.6233 136.697 18.4746 137.019 18.3384C137.118 18.2889 137.242 18.3384 137.291 18.4499C137.341 18.549 137.291 18.6728 137.18 18.7223C136.87 18.8586 136.561 18.9948 136.263 19.1558C136.177 19.2054 136.065 19.1806 136.003 19.1063C135.991 19.0939 135.978 19.0815 135.978 19.0691ZM145.825 28.606C146.073 28.383 146.308 28.1477 146.531 27.8876C146.605 27.8009 146.741 27.7885 146.828 27.8628C146.915 27.9371 146.927 28.0734 146.853 28.1601C146.618 28.4326 146.37 28.6927 146.11 28.9156C146.023 28.9899 145.899 28.9899 145.812 28.9032C145.812 28.9032 145.812 28.9032 145.8 28.8908C145.726 28.8041 145.738 28.6803 145.825 28.606ZM137.861 18.2269C137.824 18.1155 137.886 18.004 137.997 17.9668C138.332 17.8554 138.678 17.7563 139.013 17.682C139.124 17.6572 139.236 17.7315 139.261 17.843C139.285 17.9544 139.211 18.0659 139.1 18.0907C138.778 18.165 138.443 18.2517 138.121 18.3632C138.034 18.3879 137.948 18.3632 137.898 18.3012C137.886 18.2765 137.873 18.2517 137.861 18.2269ZM147.125 27.0825C147.398 26.6614 147.534 26.3394 147.559 26.2527L147.621 25.7945C147.633 25.683 147.745 25.6087 147.856 25.6211C147.968 25.6334 148.042 25.7449 148.029 25.8564L147.968 26.3023C147.918 26.5995 147.485 27.2931 147.472 27.3055C147.41 27.4046 147.286 27.4293 147.187 27.3674C147.162 27.355 147.15 27.3426 147.138 27.3179C147.076 27.2559 147.076 27.1569 147.125 27.0825ZM139.867 17.7315C139.855 17.62 139.929 17.521 140.053 17.4962C140.4 17.459 140.759 17.4343 141.106 17.4219C141.217 17.4219 141.317 17.5086 141.317 17.6324C141.317 17.7439 141.23 17.843 141.106 17.843C140.772 17.843 140.437 17.8678 140.103 17.9049C140.028 17.9173 139.954 17.8801 139.917 17.8306C139.892 17.8182 139.867 17.7811 139.867 17.7315ZM141.936 17.6696C141.948 17.5581 142.047 17.4714 142.159 17.4838C142.506 17.521 142.852 17.5705 143.199 17.6448C143.311 17.6696 143.385 17.7811 143.36 17.8925C143.335 18.004 143.224 18.0783 143.112 18.0535C142.778 17.9792 142.444 17.9297 142.109 17.9049C142.047 17.9049 141.998 17.8678 141.973 17.8306C141.948 17.7811 141.923 17.7191 141.936 17.6696ZM147.769 24.7788L147.918 23.7508C147.93 23.6394 148.042 23.5651 148.153 23.5775C148.265 23.5898 148.339 23.7013 148.327 23.8128L148.178 24.8408C148.166 24.9522 148.054 25.0266 147.943 25.0142C147.893 25.0018 147.844 24.977 147.807 24.9399C147.782 24.8903 147.757 24.8408 147.769 24.7788ZM143.955 18.0535C143.992 17.9421 144.103 17.8801 144.215 17.9173C144.537 18.0288 144.871 18.1526 145.206 18.2889C145.317 18.3384 145.354 18.4499 145.317 18.5613C145.268 18.6604 145.156 18.71 145.045 18.6728C144.735 18.5366 144.413 18.4127 144.091 18.3136C144.054 18.3012 144.017 18.2765 143.992 18.2517C143.955 18.1898 143.942 18.1155 143.955 18.0535ZM148.067 22.7229L148.215 21.6949C148.228 21.5834 148.339 21.5091 148.451 21.5215C148.562 21.5338 148.636 21.6453 148.624 21.7568L148.475 22.7848C148.463 22.8963 148.352 22.9706 148.24 22.9582C148.19 22.9458 148.141 22.921 148.104 22.8839C148.079 22.8467 148.054 22.7848 148.067 22.7229ZM145.874 18.8338C145.924 18.7347 146.06 18.6976 146.159 18.7471C146.457 18.9081 146.766 19.0939 147.063 19.2797C147.162 19.3416 147.187 19.4655 147.125 19.5646C147.063 19.6636 146.94 19.6884 146.84 19.6265C146.556 19.4407 146.258 19.2673 145.961 19.1063C145.936 19.0939 145.912 19.0691 145.899 19.0568C145.837 18.9948 145.825 18.9081 145.874 18.8338ZM147.621 19.9237C147.695 19.837 147.819 19.8123 147.906 19.8866C148.166 20.0848 148.438 20.3077 148.698 20.5306L148.785 20.6049L148.76 20.7412C148.748 20.8527 148.636 20.927 148.525 20.9146C148.451 20.9022 148.389 20.8526 148.364 20.7907C148.129 20.5926 147.881 20.3944 147.646 20.221C147.633 20.2086 147.621 20.1962 147.608 20.1838C147.571 20.1095 147.559 20.0104 147.621 19.9237Z" fill="#80F3FA"/>
<path d="M147.843 23.9738C147.843 23.9738 145.726 28.0362 142.58 26.81C139.421 25.5839 136.548 23.5527 135.086 24.1843C135.086 24.1843 140.66 17.1617 147.905 22.3513L147.843 23.9738Z" fill="#DD3914"/>
<path d="M156.154 28.8909C156.154 28.8909 155.609 33.362 154.185 33.9194C152.835 34.4519 142.679 33.5354 141.7 33.4487C141.651 33.4487 141.626 33.4115 141.626 33.362C141.626 32.9904 141.812 32.6437 142.109 32.4331C143.558 31.4051 147.918 28.3583 149.54 27.8629C151.472 27.256 156.154 28.8909 156.154 28.8909Z" fill="#47E9F3"/>
<path d="M145.342 33.1513C145.354 33.176 145.379 33.1884 145.416 33.1884C145.478 33.1884 151.039 33.5971 153.442 33.6714C153.875 33.6838 154.272 33.4485 154.457 33.0646C154.755 32.4577 155.287 31.2563 155.585 29.993C155.597 29.9434 155.56 29.8815 155.51 29.8691C155.461 29.8567 155.399 29.8939 155.386 29.9434C155.089 31.182 154.557 32.371 154.272 32.9655C154.123 33.2751 153.801 33.4733 153.454 33.4609C151.051 33.3866 145.49 32.9779 145.441 32.9779C145.379 32.9779 145.329 33.015 145.329 33.0769C145.317 33.1141 145.329 33.1389 145.342 33.1513Z" fill="#FAFAFA"/>
<path d="M156.291 18.4375C156.291 18.4375 155.857 13.9539 154.457 13.3594C153.12 12.8021 142.951 13.4461 141.961 13.5081C141.911 13.5081 141.886 13.5452 141.886 13.5948C141.886 13.9663 142.047 14.3131 142.344 14.5361C143.769 15.6012 148.054 18.7595 149.652 19.3045C151.572 19.9485 156.291 18.4375 156.291 18.4375Z" fill="#47E9F3"/>
<path d="M145.59 14.0283C145.614 14.053 145.639 14.0654 145.676 14.0654C145.738 14.0654 151.299 13.8053 153.702 13.7806C154.049 13.7806 154.359 13.9787 154.507 14.2884C154.78 14.8952 155.275 16.0966 155.548 17.3476C155.56 17.4095 155.61 17.4343 155.672 17.4219C155.733 17.4095 155.758 17.36 155.746 17.298C155.498 16.0966 155.04 14.9572 154.693 14.2017C154.52 13.8177 154.123 13.5576 153.702 13.57C151.299 13.5824 145.726 13.8425 145.664 13.8549C145.602 13.8549 145.565 13.9044 145.565 13.9663C145.565 13.9911 145.577 14.0035 145.59 14.0283Z" fill="#FAFAFA"/>
<path d="M171.265 29.027C169.172 29.6834 166.769 30.1169 164.081 30.0922C155.758 30.0055 149.652 28.5068 147.931 28.0362C147.621 27.9495 147.386 27.7018 147.311 27.3797C146.729 24.9026 146.742 22.4256 147.348 19.9485C147.46 19.4778 147.831 19.1186 148.302 19.0072C150.321 18.5241 156.291 17.298 164.255 17.4218C166.917 17.459 169.295 17.9544 171.364 18.648C172.454 22.8095 171.785 26.7976 171.265 29.027Z" fill="#C6C9CE"/>
<path d="M171.351 18.6729C175.909 20.2087 178.894 22.7477 179.848 23.6518C180.034 23.8252 180.034 24.1225 179.835 24.2959C178.857 25.1628 175.823 27.6152 171.265 29.0395C171.785 26.7977 172.454 22.8096 171.351 18.6729Z" fill="#47E9F3"/>
<path d="M164.775 19.5894C162.62 19.5646 160.848 21.41 160.811 23.7261C160.787 26.0422 162.508 27.9372 164.663 27.9619C166.818 27.9867 168.589 26.1413 168.627 23.8252C168.664 21.5091 166.93 19.6141 164.775 19.5894Z" fill="#FAFAFA"/>
<path d="M164.873 20.3201C163.152 20.2954 161.74 21.7692 161.715 23.6147C161.69 25.4601 163.065 26.9711 164.787 26.9959C166.508 27.0207 167.92 25.5468 167.945 23.7014C167.957 21.8559 166.595 20.3449 164.873 20.3201Z" fill="#272727"/>
<path d="M165.381 26.005C165.406 26.0421 165.456 26.0545 165.493 26.0421C166.558 25.7325 167.301 24.7169 167.326 23.565C167.326 23.2802 167.289 22.9953 167.202 22.7104C167.19 22.6609 167.128 22.6237 167.078 22.6485C167.029 22.6609 166.991 22.7228 167.016 22.7724C167.09 23.0201 167.128 23.2926 167.128 23.5526C167.115 24.6178 166.422 25.5591 165.443 25.844C165.394 25.8563 165.357 25.9183 165.369 25.9678C165.357 25.9926 165.369 26.005 165.381 26.005Z" fill="#FAFAFA"/>
<path d="M156.91 20.9146C155.485 20.9023 154.309 22.116 154.296 23.6518C154.272 25.1752 155.411 26.4386 156.835 26.451C158.26 26.4633 159.436 25.2496 159.449 23.7138C159.473 22.178 158.334 20.927 156.91 20.9146Z" fill="#FAFAFA"/>
<path d="M156.972 21.3976C155.832 21.3852 154.903 22.3636 154.891 23.5774C154.878 24.7912 155.783 25.7944 156.922 25.8068C158.061 25.8192 158.99 24.8407 159.003 23.627C159.015 22.4132 158.111 21.41 156.972 21.3976Z" fill="#272727"/>
<path d="M157.281 25.1753C157.306 25.2125 157.356 25.2248 157.393 25.2125C158.111 25.0019 158.619 24.3207 158.631 23.5404C158.631 23.3423 158.606 23.1565 158.545 22.9707C158.532 22.9211 158.47 22.884 158.421 22.9088C158.371 22.9211 158.334 22.9831 158.359 23.0326C158.408 23.1936 158.433 23.367 158.433 23.5404C158.421 24.2216 157.975 24.8285 157.356 25.0143C157.306 25.0267 157.269 25.0886 157.281 25.1381C157.269 25.1505 157.269 25.1629 157.281 25.1753Z" fill="#FAFAFA"/>
<path d="M124.943 26.81L123.58 27.1444C123.456 27.1815 123.32 27.0948 123.295 26.971C123.258 26.8471 123.345 26.7109 123.469 26.6861H123.481L124.806 26.3517H124.819C124.943 26.3145 125.079 26.4012 125.104 26.5251C125.153 26.6489 125.066 26.7852 124.943 26.81Z" fill="#80F3FA"/>
<path d="M122.206 27.3798L120.818 27.5284C120.695 27.5408 120.583 27.4541 120.558 27.3179C120.546 27.194 120.633 27.0825 120.769 27.0578H120.781L122.144 26.9091H122.156C122.28 26.8967 122.404 26.9834 122.416 27.1197C122.429 27.2559 122.342 27.3674 122.206 27.3798Z" fill="#80F3FA"/>
<path d="M119.431 27.6028L118.044 27.5904C117.92 27.5904 117.821 27.4913 117.821 27.3675C117.821 27.2436 117.92 27.1445 118.044 27.1445H118.057H119.419H119.431C119.555 27.1445 119.654 27.2436 119.654 27.3799C119.654 27.5037 119.555 27.6028 119.431 27.6028Z" fill="#80F3FA"/>
<path d="M116.645 27.5036L115.257 27.355C115.134 27.3426 115.047 27.2312 115.059 27.1073C115.072 26.9834 115.183 26.8968 115.307 26.9091H115.319L116.682 27.0454H116.694C116.818 27.0578 116.905 27.1692 116.892 27.2931C116.88 27.4293 116.768 27.5284 116.645 27.5036Z" fill="#80F3FA"/>
<path d="M113.895 27.1569L112.533 26.8968C112.421 26.872 112.334 26.7606 112.359 26.6491C112.384 26.5376 112.495 26.4509 112.607 26.4757H112.619L113.969 26.7234H113.982C114.106 26.7482 114.18 26.8596 114.155 26.9835C114.118 27.1074 114.007 27.1817 113.895 27.1569Z" fill="#80F3FA"/>
<path d="M111.17 26.587L109.833 26.2402C109.721 26.2154 109.647 26.0915 109.684 25.9801C109.709 25.8686 109.833 25.7943 109.944 25.8314L111.269 26.1782H111.282C111.393 26.203 111.467 26.3269 111.43 26.4383C111.406 26.5498 111.282 26.6241 111.17 26.587Z" fill="#80F3FA"/>
<path d="M108.495 25.844L107.182 25.4106C107.071 25.3734 107.009 25.2619 107.046 25.1505C107.083 25.039 107.195 24.9771 107.306 25.0142L108.619 25.4353C108.73 25.4725 108.792 25.584 108.755 25.6954C108.73 25.8193 108.607 25.8812 108.495 25.844Z" fill="#80F3FA"/>
<path d="M105.881 24.9523L104.593 24.4569C104.494 24.4197 104.432 24.2959 104.482 24.1968C104.519 24.0977 104.643 24.0358 104.742 24.0853L106.03 24.5807C106.129 24.6179 106.191 24.7417 106.154 24.8408C106.104 24.9399 105.98 24.9894 105.881 24.9523Z" fill="#80F3FA"/>
<path d="M103.305 23.9242L102.042 23.3669C101.943 23.3174 101.893 23.2059 101.943 23.1068C101.992 23.0077 102.104 22.9582 102.203 23.0077L103.466 23.5527C103.565 23.6022 103.615 23.7137 103.565 23.8128C103.516 23.9242 103.404 23.9614 103.305 23.9242Z" fill="#80F3FA"/>
<path d="M100.779 22.7846L99.528 22.1777C99.4289 22.1282 99.3917 22.0167 99.4413 21.9176C99.4908 21.8185 99.6023 21.7814 99.7014 21.8309L100.94 22.4254C101.039 22.475 101.076 22.5864 101.027 22.6855C100.989 22.797 100.866 22.8342 100.779 22.7846Z" fill="#80F3FA"/>
<path d="M98.2895 21.5586L97.0633 20.9145C96.9766 20.865 96.9394 20.7535 96.989 20.6668C97.0385 20.5801 97.15 20.543 97.2367 20.5925L98.4629 21.2365C98.5496 21.2861 98.5867 21.3976 98.5372 21.4966C98.5 21.571 98.3885 21.6081 98.2895 21.5586Z" fill="#80F3FA"/>
<path d="M95.8491 20.2458L94.6477 19.5646C94.561 19.515 94.5362 19.4036 94.5734 19.3169C94.6229 19.2302 94.7344 19.2054 94.8211 19.2426L96.0225 19.9238C96.1092 19.9733 96.1463 20.0848 96.0968 20.1715C96.0472 20.2705 95.9358 20.3077 95.8491 20.2458Z" fill="#80F3FA"/>
<path d="M93.4588 18.8709L92.2698 18.1525C92.1831 18.103 92.1583 17.9915 92.2079 17.9048C92.2574 17.8181 92.3689 17.7933 92.4556 17.8429L93.6322 18.5488C93.7189 18.5984 93.7437 18.7099 93.6941 18.7966C93.6446 18.8956 93.5331 18.9204 93.4588 18.8709Z" fill="#80F3FA"/>
<path d="M91.0934 17.4217L89.9292 16.6786C89.8425 16.629 89.8177 16.5176 89.8796 16.4309C89.9292 16.3442 90.0406 16.3194 90.1273 16.3813L91.2916 17.1245C91.3783 17.174 91.403 17.2855 91.3411 17.3722C91.2916 17.4465 91.1801 17.4712 91.0934 17.4217Z" fill="#80F3FA"/>
<path d="M88.765 15.9107L87.6132 15.1304C87.5265 15.0809 87.5141 14.9694 87.5636 14.8827C87.6132 14.796 87.7247 14.7836 87.8114 14.8332L88.9508 15.6011C89.0375 15.6506 89.0499 15.7621 89.0004 15.8488C88.9632 15.9479 88.8517 15.9726 88.765 15.9107Z" fill="#80F3FA"/>
<path d="M86.486 14.3501L85.3589 13.5451C85.2846 13.4831 85.2598 13.3841 85.3217 13.2974C85.3836 13.223 85.4827 13.1983 85.5694 13.2602L86.6965 14.0529C86.7708 14.1148 86.7956 14.2139 86.7337 14.3006C86.6717 14.3873 86.5603 14.412 86.486 14.3501Z" fill="#80F3FA"/>
<path d="M84.2195 12.7773L83.0429 12.0837H83.0305C82.9438 12.0342 82.9191 11.9227 82.9686 11.8484C83.0182 11.7617 83.1172 11.7369 83.2039 11.7865L84.4053 12.4925C84.492 12.542 84.5168 12.6535 84.4673 12.7278C84.4177 12.8145 84.3186 12.8392 84.2195 12.7773Z" fill="#80F3FA"/>
<path d="M81.8289 11.4644L80.5656 10.9194H80.5532C80.4665 10.8823 80.4293 10.7832 80.4665 10.6965C80.5037 10.6098 80.6027 10.5726 80.6894 10.6098L81.9651 11.1672C82.0518 11.2043 82.089 11.3034 82.0518 11.3901C82.0271 11.4644 81.928 11.5016 81.8289 11.4644Z" fill="#80F3FA"/>
<path d="M79.2776 10.4487L77.9647 10.0647H77.9523C77.8656 10.0399 77.8161 9.94086 77.8408 9.85416C77.8656 9.76746 77.9647 9.70553 78.0514 9.74269L79.389 10.1266C79.4757 10.1514 79.5377 10.2505 79.5005 10.3372C79.4757 10.4239 79.3766 10.4858 79.2776 10.4487Z" fill="#80F3FA"/>
<path d="M76.627 9.78002L75.277 9.56946H75.2646C75.1779 9.55708 75.1036 9.47038 75.1284 9.3713C75.1408 9.2846 75.2274 9.21028 75.3265 9.23505L76.7013 9.44561C76.788 9.45799 76.8623 9.54469 76.8376 9.64378C76.8128 9.73047 76.7261 9.7924 76.627 9.78002Z" fill="#80F3FA"/>
<path d="M73.9022 9.44554L72.5274 9.40838H72.515C72.4283 9.40838 72.354 9.33407 72.354 9.23499C72.354 9.14829 72.4283 9.07397 72.5274 9.07397L73.9146 9.11113C74.0013 9.11113 74.0756 9.18544 74.0756 9.28453C74.088 9.37123 74.0137 9.44554 73.9022 9.44554Z" fill="#80F3FA"/>
<path d="M71.1649 9.45783L69.8025 9.59407H69.7902C69.7035 9.60646 69.6168 9.53215 69.6044 9.44545C69.592 9.35875 69.6663 9.27205 69.753 9.25967L71.1402 9.12343C71.2269 9.11104 71.3136 9.18535 71.326 9.27205C71.3383 9.35875 71.264 9.44545 71.1649 9.45783Z" fill="#80F3FA"/>
<path d="M68.4526 9.81703L67.115 10.1267H67.1026C67.0159 10.1514 66.9292 10.0895 66.9044 10.0028C66.8797 9.91611 66.9416 9.82941 67.0283 9.80464L68.3783 9.49501C68.465 9.47024 68.5517 9.53216 68.5765 9.61886C68.6012 9.70556 68.5517 9.79226 68.4526 9.81703Z" fill="#80F3FA"/>
<path d="M65.8023 10.5105L64.5142 10.9812H64.5018C64.4151 11.0183 64.3284 10.9688 64.2913 10.8821C64.2541 10.7954 64.3037 10.7087 64.3904 10.6715L65.6908 10.1885C65.7775 10.1514 65.8642 10.2009 65.9014 10.2876C65.9386 10.3867 65.9014 10.4734 65.8023 10.5105Z" fill="#80F3FA"/>
<path d="M63.2634 11.5511L62.062 12.1952H62.0496C61.9753 12.2323 61.8762 12.2076 61.8266 12.1333C61.7895 12.0589 61.8143 11.9599 61.8886 11.9103L63.1147 11.2539C63.189 11.2167 63.2881 11.2415 63.3377 11.3158C63.3872 11.4025 63.3624 11.5016 63.2634 11.5511Z" fill="#80F3FA"/>
<path d="M60.8973 12.9257L59.7826 13.7308H59.7702C59.6959 13.7803 59.5968 13.768 59.5473 13.6936C59.4978 13.6193 59.5101 13.5202 59.5845 13.4707L60.7115 12.6533C60.7858 12.6037 60.8849 12.6161 60.9345 12.6904C60.9964 12.7647 60.984 12.8638 60.8973 12.9257Z" fill="#80F3FA"/>
<path d="M58.7298 14.5979L57.7266 15.5268L57.7142 15.5392C57.6523 15.6011 57.5532 15.6011 57.4913 15.5268C57.4294 15.4649 57.4294 15.3658 57.5037 15.3039L58.5193 14.3502C58.5812 14.2883 58.6803 14.2883 58.7422 14.3626C58.8165 14.4369 58.8042 14.536 58.7298 14.5979Z" fill="#80F3FA"/>
<path d="M56.7855 16.53L55.8937 17.5704V17.5828C55.8318 17.6447 55.7327 17.6571 55.6708 17.5952C55.6088 17.5332 55.5965 17.4341 55.6584 17.3722L56.5625 16.3195C56.6245 16.2575 56.7235 16.2451 56.7855 16.3071C56.835 16.3566 56.8474 16.4557 56.7855 16.53Z" fill="#80F3FA"/>
<path d="M55.0641 18.6604L54.2962 19.7998V19.8122C54.2466 19.8865 54.1475 19.8989 54.0732 19.8494C53.9989 19.7998 53.9865 19.7008 54.0361 19.6264L54.804 18.4746C54.8535 18.4003 54.9526 18.3879 55.0269 18.4374C55.1012 18.487 55.1136 18.5861 55.0641 18.6604Z" fill="#80F3FA"/>
<path d="M53.6023 20.9764L52.983 22.2025V22.2149C52.9459 22.2892 52.8468 22.3264 52.7725 22.2892C52.6982 22.2521 52.661 22.153 52.6982 22.0787L53.3298 20.8401C53.367 20.7658 53.4661 20.7286 53.5404 20.7658C53.6147 20.803 53.6519 20.902 53.6023 20.9764Z" fill="#80F3FA"/>
<path d="M52.4507 23.4659L52.0049 24.754V24.7664C51.9801 24.8407 51.8934 24.8902 51.8067 24.8654C51.7324 24.8407 51.6828 24.754 51.7076 24.6673L52.1659 23.3544C52.1907 23.2677 52.2774 23.2306 52.3641 23.2553C52.4384 23.2925 52.4755 23.3792 52.4507 23.4659Z" fill="#80F3FA"/>
<path d="M51.6455 26.0793L51.3978 27.4293V27.4417C51.3854 27.5284 51.2987 27.5779 51.2244 27.5655C51.1377 27.5531 51.0881 27.4664 51.1005 27.3921L51.3482 26.0173C51.3606 25.9306 51.4473 25.8811 51.5216 25.8935C51.6083 25.9059 51.6579 25.9926 51.6455 26.0793Z" fill="#80F3FA"/>
<path d="M51.2618 28.7916L51.2494 30.154V30.1663C51.2494 30.253 51.1751 30.315 51.1008 30.315C51.0141 30.315 50.9521 30.2407 50.9521 30.1663L50.9645 28.7668C50.9645 28.6801 51.0388 28.6182 51.1132 28.6182C51.1999 28.6182 51.2618 28.6925 51.2618 28.7668V28.7916Z" fill="#80F3FA"/>
<path d="M51.3729 31.5165L51.633 32.8541V32.8665C51.6453 32.9532 51.5958 33.0275 51.5091 33.0399C51.4224 33.0523 51.3481 33.0027 51.3357 32.916L51.0756 31.5412C51.0632 31.4545 51.1128 31.3802 51.1995 31.3679C51.2862 31.3555 51.3605 31.405 51.3729 31.4917V31.5165Z" fill="#80F3FA"/>
<path d="M52.0294 34.167L52.5496 35.4303V35.4427C52.5868 35.517 52.5496 35.6037 52.4753 35.6408C52.401 35.678 52.3143 35.6408 52.2771 35.5665L51.7446 34.2784C51.7074 34.2041 51.7446 34.1174 51.8189 34.0803C51.8932 34.0431 51.9799 34.0803 52.017 34.1546L52.0294 34.167Z" fill="#80F3FA"/>
<path d="M53.2062 36.6069C53.4539 36.9785 53.7512 37.3377 54.0608 37.6473C54.1227 37.7092 54.1227 37.7959 54.0608 37.8578C53.9989 37.9198 53.9122 37.9198 53.8502 37.8578C53.5158 37.5234 53.2186 37.1643 52.9585 36.7679C52.9089 36.706 52.9337 36.6069 52.9956 36.5574C53.07 36.5326 53.169 36.545 53.2062 36.6069Z" fill="#80F3FA"/>
<path d="M55.1259 38.4895C55.5098 38.7249 55.9185 38.923 56.3396 39.0716C56.4139 39.0964 56.4511 39.1831 56.4263 39.2574C56.4016 39.3317 56.3149 39.3689 56.2406 39.3441C55.7947 39.1955 55.3612 38.9849 54.9649 38.7372C54.8905 38.7001 54.8782 38.601 54.9153 38.5391C54.9648 38.4648 55.0515 38.4524 55.1259 38.4895Z" fill="#80F3FA"/>
<path d="M57.6527 39.3565C58.0985 39.406 58.5568 39.3937 59.0027 39.3441C59.077 39.3317 59.1513 39.3937 59.1637 39.468C59.1761 39.5423 59.1141 39.6166 59.0398 39.629C58.5692 39.6785 58.0985 39.6909 57.6279 39.6414C57.5536 39.629 57.4916 39.5671 57.504 39.4804C57.504 39.406 57.5783 39.3441 57.6527 39.3565Z" fill="#80F3FA"/>
<path d="M60.3277 39.0717C60.7612 38.9354 61.1823 38.762 61.5786 38.5515C61.6529 38.5143 61.7396 38.5391 61.7768 38.6134C61.814 38.6877 61.7892 38.7744 61.7149 38.8116C61.3061 39.0345 60.8603 39.2079 60.4144 39.3565C60.3401 39.3813 60.2534 39.3442 60.2286 39.2575C60.2038 39.1832 60.2534 39.0965 60.3277 39.0717Z" fill="#80F3FA"/>
<path d="M62.7179 37.8206C63.0771 37.5481 63.4115 37.2385 63.7212 36.9041C63.7707 36.8422 63.8698 36.8422 63.9193 36.8917C63.9813 36.9412 63.9813 37.0403 63.9317 37.0899C63.6097 37.4367 63.2629 37.7463 62.8913 38.0312C62.8294 38.0807 62.7427 38.0683 62.6932 38.0064C62.6436 37.9568 62.656 37.8701 62.7179 37.8206Z" fill="#80F3FA"/>
<path d="M64.551 35.839L64.8978 35.2569C65.0217 35.0711 65.1084 34.8605 65.2074 34.65V34.6376C65.2446 34.5633 65.3313 34.5385 65.3932 34.5757C65.4675 34.6128 65.4923 34.6995 65.4552 34.7614C65.3561 34.972 65.257 35.1826 65.1331 35.3807L64.774 35.9876C64.7368 36.0495 64.6501 36.0743 64.5758 36.0372C64.5139 36 64.4891 35.9133 64.5262 35.839H64.551Z" fill="#80F3FA"/>
<path d="M65.6906 33.3742C65.8145 32.9407 65.9012 32.4948 65.9507 32.0366C65.9631 31.9623 66.025 31.9003 66.0994 31.9127C66.1737 31.9251 66.2356 31.987 66.2232 32.0613C66.1737 32.532 66.087 32.9903 65.9631 33.4361C65.9384 33.5104 65.864 33.5476 65.7897 33.5352C65.703 33.5352 65.6659 33.4485 65.6906 33.3742Z" fill="#80F3FA"/>
<path d="M65.9509 30.6989C65.9138 30.2531 65.8271 29.8072 65.7032 29.3737C65.6785 29.2994 65.728 29.2251 65.8023 29.2003C65.8766 29.1755 65.9509 29.2251 65.9757 29.2994C66.1119 29.7453 66.1986 30.2159 66.2358 30.6865C66.2482 30.7609 66.1863 30.8352 66.1119 30.8352C66.0252 30.8228 65.9633 30.7732 65.9509 30.6989Z" fill="#80F3FA"/>
<path d="M65.2074 28.1104C64.9969 27.7017 64.7615 27.3177 64.4891 26.9585C64.4395 26.8966 64.4519 26.8099 64.5138 26.7728C64.5758 26.7232 64.6625 26.7356 64.6996 26.7975C64.9845 27.1691 65.2322 27.5654 65.4427 27.9865C65.4799 28.0485 65.4551 28.1352 65.3808 28.1723C65.3189 28.1971 65.2322 28.1723 65.2074 28.1104Z" fill="#80F3FA"/>
<path d="M63.585 25.9305C63.263 25.6085 62.9162 25.3237 62.5446 25.0512C62.4827 25.0016 62.4703 24.9273 62.5198 24.8654C62.5694 24.8035 62.6437 24.7911 62.7056 24.8406C63.0772 25.1131 63.4364 25.4227 63.7708 25.7448C63.8203 25.7943 63.8203 25.881 63.7708 25.9305C63.7336 25.9925 63.6469 25.9925 63.585 25.9305Z" fill="#80F3FA"/>
<path d="M61.4054 24.3204C61.0091 24.0975 60.6003 23.8993 60.1792 23.7259C60.1173 23.7012 60.0802 23.6145 60.1049 23.5525C60.1297 23.4906 60.2164 23.4534 60.2783 23.4782C60.7118 23.6516 61.1329 23.8622 61.5416 24.0851C61.6036 24.1223 61.6283 24.1966 61.5912 24.2709C61.554 24.3328 61.4673 24.3576 61.4054 24.3204Z" fill="#80F3FA"/>
<path d="M58.8909 23.28C58.4574 23.1562 57.9991 23.0695 57.5533 22.958H57.5409C57.4666 22.9456 57.4294 22.8713 57.4418 22.797C57.4542 22.7227 57.5285 22.6855 57.6028 22.6979C58.0487 22.8094 58.5069 22.8961 58.9528 23.0199C59.0271 23.0447 59.0643 23.119 59.0395 23.1809C59.0271 23.2552 58.9528 23.2924 58.8909 23.28Z" fill="#80F3FA"/>
<path d="M56.2034 22.7352L54.841 22.599H54.8286C54.7543 22.5866 54.6923 22.5246 54.7047 22.4379C54.7171 22.3636 54.779 22.3017 54.8657 22.3141L56.2529 22.4503C56.3272 22.4627 56.3891 22.5246 56.3768 22.599C56.352 22.698 56.2901 22.7476 56.2034 22.7352Z" fill="#80F3FA"/>
<path d="M53.4665 22.5617L52.0917 22.5989H52.0793C51.9926 22.5989 51.9307 22.5369 51.9307 22.4503C51.9307 22.3636 51.9926 22.3016 52.0793 22.3016L53.4665 22.2769C53.5532 22.2769 53.6151 22.3388 53.6151 22.4255C53.6151 22.4874 53.5532 22.5617 53.4665 22.5617Z" fill="#80F3FA"/>
<path d="M50.729 22.7104L49.3666 22.8962H49.3542C49.2675 22.9086 49.1932 22.8466 49.1808 22.7599C49.1684 22.6732 49.2303 22.5989 49.317 22.5865L50.6918 22.4007C50.7785 22.3884 50.8528 22.4503 50.8652 22.537C50.8776 22.6113 50.8157 22.698 50.729 22.7104Z" fill="#80F3FA"/>
<path d="M48.0166 23.1438L46.6789 23.4782H46.6666C46.5799 23.5029 46.4932 23.441 46.4684 23.3543C46.4436 23.2676 46.5056 23.1809 46.5922 23.1561L47.9423 22.8341C48.029 22.8093 48.1157 22.8713 48.1404 22.958C48.1652 23.0447 48.1157 23.1314 48.0166 23.1438Z" fill="#80F3FA"/>
<path d="M45.366 23.8745L44.0779 24.3452H44.0655C43.9788 24.3823 43.8797 24.3328 43.8426 24.2461C43.8054 24.1594 43.8549 24.0603 43.9416 24.0232L45.2545 23.5525C45.3412 23.5154 45.4403 23.5649 45.4774 23.6516C45.5146 23.7507 45.4651 23.8374 45.366 23.8745Z" fill="#80F3FA"/>
<path d="M42.8147 24.8903L41.5886 25.4972H41.5762C41.4895 25.5467 41.378 25.5096 41.3285 25.4105C41.2789 25.3238 41.3161 25.2123 41.4152 25.1628L42.6661 24.5435C42.7528 24.5063 42.8643 24.5311 42.9014 24.6302C42.951 24.7293 42.9138 24.8408 42.8147 24.8903Z" fill="#80F3FA"/>
<path d="M40.4122 26.1783L39.2727 26.9338H39.2603C39.1736 26.9957 39.0621 26.9709 39.0002 26.8842C38.9383 26.7975 38.9631 26.6861 39.0498 26.6241L40.214 25.8686C40.3007 25.8067 40.4122 25.8315 40.4741 25.9182C40.5236 26.0049 40.4989 26.1163 40.4122 26.1783Z" fill="#80F3FA"/>
<path d="M38.1701 27.7512L37.1174 28.6306H37.105C37.0183 28.7049 36.8944 28.6925 36.8325 28.6058C36.7582 28.5191 36.7706 28.3953 36.8573 28.3333L37.9348 27.454C38.0215 27.392 38.133 27.4044 38.2073 27.4787C38.2692 27.5654 38.2568 27.6769 38.1701 27.7512Z" fill="#80F3FA"/>
<path d="M36.0896 29.5471L35.1111 30.5132C35.0244 30.5875 34.9006 30.5875 34.8262 30.5132C34.7519 30.4265 34.7519 30.3027 34.8262 30.2283L35.8171 29.2623C35.8914 29.188 36.0276 29.188 36.1019 29.2623C36.1763 29.3366 36.1763 29.4604 36.0896 29.5471Z" fill="#80F3FA"/>
<path d="M34.1696 31.5041L33.2531 32.532C33.1788 32.6187 33.0425 32.6311 32.9558 32.5444C32.8691 32.4701 32.8567 32.3339 32.9434 32.2472L33.8723 31.2068C33.9467 31.1201 34.0829 31.1077 34.1696 31.1944C34.2439 31.2811 34.2439 31.4174 34.1696 31.5041Z" fill="#80F3FA"/>
<path d="M32.3737 33.5972L31.5315 34.6871C31.4572 34.7862 31.321 34.7985 31.2219 34.7242C31.1228 34.6499 31.1104 34.5137 31.1847 34.4146L32.0393 33.3247C32.1136 33.2256 32.2499 33.2132 32.3366 33.2875C32.4357 33.3618 32.4604 33.4981 32.3737 33.5972Z" fill="#80F3FA"/>
<path d="M30.7142 35.7894L29.9339 36.9164C29.8596 37.0155 29.7233 37.0403 29.6243 36.9784C29.5252 36.9041 29.5004 36.7678 29.5623 36.6687L30.355 35.5293C30.4293 35.4302 30.5655 35.4054 30.6646 35.4797C30.7637 35.5417 30.7885 35.6779 30.7142 35.7894Z" fill="#80F3FA"/>
<path d="M29.1782 38.0683L28.4474 39.2325C28.3855 39.344 28.2369 39.3811 28.1254 39.3068C28.014 39.2449 27.9768 39.0963 28.0511 38.9848L28.7942 37.8082C28.8562 37.6967 29.0048 37.6719 29.1163 37.7339C29.2153 37.8082 29.2525 37.9444 29.1782 38.0683Z" fill="#80F3FA"/>
<path d="M27.7541 40.4217L27.0853 41.6231C27.0234 41.7345 26.8747 41.7841 26.7633 41.7222C26.6518 41.6602 26.6023 41.5116 26.6642 41.4001L27.3454 40.1864C27.4073 40.0749 27.5559 40.0377 27.6674 40.0997C27.7789 40.1492 27.8284 40.2978 27.7541 40.4217Z" fill="#80F3FA"/>
<path d="M26.4534 42.8367L25.8466 44.0752C25.7846 44.1991 25.636 44.2486 25.5122 44.1867C25.3883 44.1247 25.3388 43.9761 25.4007 43.8523L26.02 42.6137C26.0819 42.4899 26.2305 42.4403 26.342 42.5022C26.4658 42.5642 26.5154 42.7128 26.4534 42.8367Z" fill="#80F3FA"/>
<path d="M25.2769 45.3264L24.7319 46.5897V46.6021C24.6823 46.7259 24.5213 46.7879 24.3975 46.7383C24.2736 46.6888 24.2117 46.5278 24.2612 46.4039L24.8186 45.1282C24.8681 45.0043 25.0168 44.9424 25.153 44.992C25.2769 45.0415 25.3388 45.1901 25.2769 45.3264Z" fill="#80F3FA"/>
<path d="M24.2366 47.8653L23.7659 49.1534V49.1658C23.7164 49.3021 23.5678 49.3764 23.4315 49.3268C23.2953 49.2773 23.221 49.1287 23.2705 48.9924L23.7536 47.6919C23.8031 47.5557 23.9517 47.4938 24.088 47.5433C24.2118 47.5805 24.2861 47.7291 24.2366 47.8653Z" fill="#80F3FA"/>
<path d="M23.3323 50.4662L22.9484 51.779V51.7914C22.9112 51.94 22.7626 52.0144 22.614 51.9772C22.4653 51.94 22.391 51.7914 22.4282 51.6428L22.8245 50.3052C22.8617 50.1689 23.0103 50.0822 23.1589 50.1318C23.2952 50.1689 23.3819 50.3175 23.3323 50.4662Z" fill="#80F3FA"/>
<path d="M22.6141 53.1042L22.3292 54.4419V54.4542C22.2921 54.6029 22.1558 54.702 22.0072 54.6648C21.8586 54.6276 21.7595 54.4914 21.7967 54.3428C21.8834 53.8845 21.9948 53.4386 22.0939 52.9804C22.1311 52.8317 22.2673 52.7451 22.4159 52.7698C22.5646 52.7946 22.6513 52.9556 22.6141 53.1042Z" fill="#80F3FA"/>
<path d="M22.1062 55.8043L21.9451 57.1667V57.1791C21.9328 57.3277 21.7965 57.4392 21.6355 57.4144C21.4869 57.402 21.3754 57.2658 21.4002 57.1172L21.5612 55.73C21.5736 55.5814 21.7098 55.4699 21.8708 55.4947C22.0195 55.5071 22.1309 55.6433 22.1062 55.8043Z" fill="#80F3FA"/>
<path d="M21.8585 58.5167L21.8337 59.8791V59.8915C21.8337 60.0401 21.7099 60.1639 21.5612 60.1515C21.4126 60.1515 21.2888 60.0277 21.3011 59.8791L21.3259 58.4795C21.3259 58.3309 21.4498 58.207 21.5984 58.207C21.747 58.207 21.8709 58.3309 21.8709 58.4795L21.8585 58.5167Z" fill="#80F3FA"/>
<path d="M21.8832 61.254L22.0071 62.6164V62.6288C22.0195 62.7774 21.908 62.9013 21.7594 62.9261C21.6108 62.9384 21.4869 62.827 21.4621 62.6907L21.3259 61.3036C21.3135 61.1549 21.425 61.0187 21.5736 61.0063C21.7222 60.9939 21.8585 61.1054 21.8709 61.254H21.8832Z" fill="#80F3FA"/>
<path d="M22.2177 63.9664L22.5026 65.304V65.3164C22.5274 65.465 22.4407 65.6013 22.2921 65.6261C22.1434 65.6508 22.0072 65.5641 21.9824 65.4155L21.6976 64.0531C21.6728 63.9045 21.7595 63.7682 21.9081 63.7435C22.0567 63.7187 22.193 63.8054 22.2177 63.954V63.9664Z" fill="#80F3FA"/>
<path d="M22.8494 66.6168L23.2829 67.9173V67.9296C23.3324 68.0659 23.2581 68.2145 23.1219 68.264C22.9856 68.3136 22.837 68.2393 22.7874 68.103L22.3416 66.7778C22.292 66.6415 22.3663 66.4929 22.5026 66.4434C22.6388 66.3938 22.7874 66.4682 22.837 66.6044L22.8494 66.6168Z" fill="#80F3FA"/>
<path d="M23.7783 69.1808L24.3481 70.4193V70.4317C24.41 70.568 24.3481 70.7166 24.2242 70.7785C24.088 70.8405 23.9393 70.7785 23.8774 70.6547L23.2953 69.3914C23.2334 69.2551 23.2953 69.1065 23.4191 69.0446C23.5554 68.9826 23.704 69.0446 23.7659 69.1684L23.7783 69.1808Z" fill="#80F3FA"/>
<path d="M24.9921 71.633L25.6856 72.8096L25.698 72.822C25.7723 72.9459 25.7352 73.1069 25.6113 73.1688C25.4875 73.2431 25.3265 73.206 25.2645 73.0821L24.5462 71.8807C24.4719 71.7569 24.509 71.5958 24.6329 71.5215C24.7567 71.4596 24.9177 71.5092 24.9921 71.633Z" fill="#80F3FA"/>
<path d="M26.4411 73.9614L27.2461 75.0637L27.2585 75.0761C27.3452 75.1876 27.3204 75.3486 27.209 75.4353C27.0975 75.522 26.9365 75.4972 26.8498 75.3857L26.0324 74.2587C25.9457 74.1472 25.9704 73.9862 26.0819 73.8995C26.1934 73.8128 26.3544 73.8375 26.4411 73.9614Z" fill="#80F3FA"/>
<path d="M28.1132 76.1288L29.0173 77.1692L29.0297 77.1816C29.1164 77.2807 29.104 77.4417 29.0049 77.5408C28.9058 77.6275 28.7448 77.6151 28.6457 77.516L27.7292 76.4632C27.6425 76.3518 27.6425 76.2031 27.754 76.1041C27.8531 76.005 28.0141 76.0174 28.1132 76.1288Z" fill="#80F3FA"/>
<path d="M29.9462 78.1724L30.9246 79.1385C31.0237 79.2376 31.0237 79.3986 30.9246 79.4853C30.8256 79.5844 30.6645 79.5844 30.5778 79.4853L29.587 78.5068C29.4879 78.4078 29.4879 78.2468 29.587 78.1477C29.6861 78.061 29.8347 78.061 29.9462 78.1724Z" fill="#80F3FA"/>
<path d="M31.9279 80.0675L32.9683 80.9716C33.0674 81.0583 33.0797 81.2193 32.993 81.3184C32.9063 81.4175 32.7453 81.4299 32.6463 81.3432L31.5935 80.439C31.4944 80.3523 31.482 80.1913 31.5687 80.0922C31.6554 79.9932 31.8164 79.9684 31.9279 80.0675Z" fill="#80F3FA"/>
<path d="M34.0209 81.8386L35.1109 82.6808C35.2223 82.7675 35.2347 82.9162 35.148 83.0276C35.0613 83.1391 34.9127 83.1515 34.8012 83.0648L33.6989 82.2102C33.5875 82.1235 33.5751 81.9749 33.6494 81.8634C33.7485 81.7767 33.9095 81.7519 34.0209 81.8386Z" fill="#80F3FA"/>
<path d="M36.2135 83.4983L37.3406 84.291C37.452 84.3653 37.4768 84.5139 37.4025 84.6254C37.3282 84.7368 37.1796 84.7616 37.0681 84.6873L35.9286 83.8946C35.8172 83.8203 35.7924 83.6717 35.8667 83.5602C35.9534 83.4487 36.102 83.424 36.2135 83.4983Z" fill="#80F3FA"/>
<path d="M38.4799 85.0589L39.6317 85.8144C39.7432 85.8887 39.768 86.0373 39.706 86.1488C39.6317 86.2603 39.4831 86.285 39.3716 86.2231L38.2198 85.4676C38.1083 85.3933 38.0836 85.2447 38.1455 85.1332C38.2198 85.0093 38.3684 84.9846 38.4799 85.0589Z" fill="#80F3FA"/>
<path d="M40.7958 86.5698L41.9477 87.3253C42.0591 87.3996 42.0839 87.5359 42.022 87.6473C41.9477 87.7588 41.8114 87.7836 41.6999 87.7216L40.5357 86.9661C40.4242 86.8918 40.3995 86.7432 40.4614 86.6441C40.5357 86.5326 40.6843 86.5079 40.7958 86.5698Z" fill="#80F3FA"/>
<path d="M43.0995 88.0809L44.2514 88.8364C44.3628 88.9107 44.3876 89.047 44.3133 89.1584C44.239 89.2699 44.1027 89.2947 43.9913 89.2203L42.8394 88.4648C42.728 88.3905 42.7032 88.2543 42.7651 88.1428C42.8518 88.0437 43.0004 88.019 43.0995 88.0809Z" fill="#80F3FA"/>
<path d="M45.4158 89.6043L46.5676 90.3722C46.6791 90.4465 46.7039 90.5828 46.6295 90.6942C46.5552 90.8057 46.419 90.8305 46.3075 90.7562L45.1557 90.0006C45.0442 89.9263 45.0194 89.7901 45.0937 89.6786C45.1681 89.5548 45.3043 89.53 45.4158 89.6043Z" fill="#80F3FA"/>
<path d="M47.7195 91.1278L48.8589 91.908C48.958 91.9824 48.9952 92.1186 48.9209 92.2177C48.8465 92.3168 48.7103 92.3539 48.6112 92.2796L47.4718 91.5117C47.3727 91.4374 47.3355 91.3012 47.4098 91.1897C47.4718 91.0906 47.608 91.0658 47.7195 91.1278Z" fill="#80F3FA"/>
<path d="M49.9984 92.6883L51.1254 93.481C51.2245 93.5553 51.2493 93.6915 51.175 93.7906C51.1007 93.8897 50.9644 93.9145 50.8653 93.8402L49.7383 93.0599C49.6392 92.9856 49.6144 92.8493 49.6887 92.7502C49.7506 92.6511 49.8869 92.6264 49.9984 92.6883Z" fill="#80F3FA"/>
<path d="M52.2523 94.2983L53.367 95.1158C53.466 95.1901 53.4908 95.3263 53.4165 95.4254C53.3422 95.5245 53.2059 95.5493 53.1069 95.475L51.9922 94.6575C51.8931 94.5832 51.8683 94.447 51.9426 94.3479C52.0045 94.2488 52.1532 94.224 52.2523 94.2983Z" fill="#80F3FA"/>
<path d="M54.457 95.958L55.5469 96.8126C55.646 96.8869 55.6584 97.0231 55.5841 97.1222C55.5098 97.2213 55.3735 97.2337 55.2745 97.1594L54.1845 96.3171C54.0855 96.2428 54.0731 96.1066 54.1474 96.0075C54.2217 95.896 54.3703 95.8837 54.457 95.958Z" fill="#80F3FA"/>
<path d="M56.6243 97.6796L57.6895 98.559C57.7762 98.6333 57.8009 98.7695 57.7142 98.8686C57.6399 98.9553 57.5037 98.9801 57.4046 98.8934L56.3395 98.0264C56.2528 97.9521 56.228 97.8158 56.3147 97.7168C56.4014 97.6177 56.5376 97.6053 56.6243 97.6796Z" fill="#80F3FA"/>
<path d="M58.7547 99.4508L59.7951 100.355C59.8818 100.429 59.8942 100.565 59.8199 100.652C59.7456 100.739 59.6093 100.751 59.5226 100.677L58.4823 99.7728C58.3956 99.6985 58.3832 99.5623 58.4575 99.4756C58.5318 99.3765 58.668 99.3641 58.7547 99.4508Z" fill="#80F3FA"/>
<path d="M60.8232 101.284L61.8264 102.237C61.9131 102.312 61.9131 102.448 61.8388 102.535C61.7645 102.621 61.6283 102.621 61.5416 102.547L60.5383 101.606C60.4516 101.531 60.4516 101.395 60.526 101.308C60.6003 101.209 60.7365 101.209 60.8232 101.284Z" fill="#80F3FA"/>
<path d="M62.8172 103.216L63.7832 104.219C63.8575 104.306 63.8575 104.43 63.7832 104.516C63.6965 104.591 63.5727 104.591 63.486 104.516L62.5323 103.526C62.458 103.439 62.458 103.315 62.5323 103.228C62.6066 103.129 62.7429 103.129 62.8172 103.216Z" fill="#80F3FA"/>
<path d="M64.7123 105.235L65.6164 106.288C65.6907 106.374 65.6783 106.498 65.5916 106.573C65.5049 106.647 65.3811 106.634 65.3068 106.548L64.415 105.507C64.3407 105.421 64.3531 105.284 64.4398 105.222C64.5017 105.136 64.6379 105.148 64.7123 105.235Z" fill="#80F3FA"/>
<path d="M66.4712 107.39L67.2886 108.517C67.3506 108.604 67.3382 108.74 67.2391 108.802C67.1524 108.864 67.0162 108.851 66.9542 108.752V108.74L66.1492 107.625V107.613C66.0873 107.526 66.0996 107.39 66.1987 107.328C66.273 107.278 66.4093 107.291 66.4712 107.39Z" fill="#80F3FA"/>
<path d="M68.0561 109.669L68.7744 110.858C68.8364 110.957 68.7992 111.081 68.7001 111.13C68.601 111.192 68.4772 111.155 68.4277 111.056V111.044L67.7217 109.867V109.855C67.6598 109.755 67.6969 109.632 67.796 109.582C67.8703 109.545 67.9942 109.57 68.0561 109.669Z" fill="#80F3FA"/>
<path d="M69.4187 112.096L70.0008 113.36C70.0503 113.459 70.0008 113.57 69.9017 113.62C69.8026 113.669 69.6911 113.62 69.6416 113.521V113.508L69.0595 112.27V112.257C69.0099 112.158 69.0595 112.034 69.1586 111.997C69.2576 111.948 69.3691 111.985 69.4187 112.096Z" fill="#80F3FA"/>
<path d="M70.521 114.648L70.9544 115.973C70.9916 116.072 70.9297 116.171 70.8306 116.208C70.7315 116.245 70.6324 116.183 70.5953 116.084V116.072L70.1618 114.772V114.759C70.1246 114.66 70.1865 114.549 70.2856 114.524C70.3723 114.487 70.4838 114.549 70.521 114.648Z" fill="#80F3FA"/>
<path d="M71.3013 117.323L71.5614 118.685C71.5862 118.784 71.5119 118.871 71.4252 118.896C71.3261 118.921 71.2394 118.846 71.2146 118.76V118.747L70.9545 117.41V117.397C70.9297 117.298 71.0041 117.199 71.1031 117.187C71.1774 117.149 71.2765 117.211 71.3013 117.323Z" fill="#80F3FA"/>
<path d="M71.7349 120.06L71.8216 121.447C71.8216 121.546 71.7596 121.621 71.6605 121.633C71.5615 121.633 71.4872 121.571 71.4748 121.472V121.46L71.3881 120.097V120.085C71.3757 119.986 71.45 119.899 71.5491 119.899C71.6482 119.899 71.7225 119.973 71.7349 120.06Z" fill="#80F3FA"/>
<path d="M71.8092 122.847L71.7101 124.234C71.6977 124.321 71.6234 124.395 71.5367 124.383C71.45 124.37 71.3757 124.296 71.3881 124.209V124.197L71.4748 122.835V122.822C71.4872 122.735 71.5615 122.661 71.6482 122.661C71.7473 122.674 71.8092 122.76 71.8092 122.847Z" fill="#80F3FA"/>
<path d="M71.5366 125.609L71.3137 126.984C71.3013 127.07 71.2146 127.132 71.1279 127.108C71.0412 127.095 70.9793 127.008 71.004 126.934V126.922L71.2146 125.559V125.547C71.227 125.46 71.3137 125.398 71.4004 125.411C71.4995 125.436 71.549 125.522 71.5366 125.609Z" fill="#80F3FA"/>
<path d="M71.0288 128.334L70.682 129.671C70.6572 129.746 70.5829 129.795 70.4962 129.783C70.4219 129.758 70.3723 129.684 70.3847 129.597V129.585L70.7315 128.259V128.247C70.7563 128.16 70.8306 128.111 70.9173 128.136C71.004 128.173 71.0535 128.259 71.0288 128.334Z" fill="#80F3FA"/>
<path d="M70.2485 131.009L69.7283 132.297C69.7035 132.371 69.6168 132.409 69.5425 132.371C69.4682 132.347 69.431 132.26 69.4682 132.186V132.173L69.976 130.898V130.885C70.0008 130.811 70.0875 130.774 70.1618 130.798C70.2361 130.848 70.2732 130.935 70.2485 131.009Z" fill="#80F3FA"/>
<path d="M69.0843 133.536C68.8489 133.932 68.5888 134.328 68.2916 134.687C68.242 134.749 68.1553 134.749 68.1058 134.712C68.0439 134.663 68.0439 134.576 68.081 134.526C68.3659 134.18 68.6136 133.796 68.8489 133.399C68.8861 133.337 68.9728 133.313 69.0347 133.35C69.0966 133.387 69.1214 133.474 69.0843 133.536Z" fill="#80F3FA"/>
<path d="M67.2885 135.678C66.9169 135.975 66.5082 136.211 66.0623 136.384C66.0004 136.409 65.9261 136.372 65.9013 136.31C65.8765 136.248 65.9137 136.174 65.9756 136.149C66.3967 135.988 66.7807 135.765 67.1399 135.48C67.2018 135.43 67.2761 135.443 67.3256 135.505C67.3504 135.554 67.338 135.629 67.2885 135.678Z" fill="#80F3FA"/>
<path d="M147.633 148.748C147.633 148.748 145.912 144.215 143.893 144.623C141.886 145.045 139.682 146.58 139.682 146.58L136.449 150.952C136.449 150.952 145.528 154.532 148.711 152.476C148.711 152.476 157.975 154.074 169.679 152.154C167.983 148.574 166.979 144.995 166.385 142.221C160.465 145.59 154.086 148.091 147.633 148.748Z" fill="#B07968"/>
<path d="M196.729 115.852C196.729 115.852 183.465 132.572 166.397 142.221C166.992 144.995 167.995 148.587 169.692 152.154C178.548 150.705 188.79 147.237 197.473 139.533L196.729 115.852Z" fill="#16C8D3"/>
<path d="M97.2739 118.069L98.1038 140.202C100.445 141.007 102.674 141.639 104.792 142.097C106.117 137.824 109.04 132.585 111.431 128.683C102.637 125.575 97.2739 118.069 97.2739 118.069Z" fill="#47E9F3"/>
<path d="M141.155 117.685C129.092 130.702 119.332 131.47 111.418 128.671C109.028 132.572 106.105 137.811 104.779 142.084C136.982 149.181 144.561 119.58 144.561 119.58L141.155 117.685Z" fill="#FFC5B8"/>
<path d="M143.608 116.31C143.608 116.31 144.995 114.824 147.571 115.282C150.147 115.753 152.426 116.645 154.036 115.282C155.634 113.92 156.204 115.753 156.204 115.753L151.411 119.394L143.608 116.31Z" fill="#FFC5B8"/>
<path d="M140.734 118.862C140.734 118.862 141.688 114.886 144.549 115.431C147.423 115.976 153.925 119.518 155.609 118.862C157.281 118.205 159.436 116.645 160.539 117.202L158.594 119.617C158.594 119.617 163.586 116.744 164.44 118.503L156.142 123.172C156.154 123.159 144.017 121.946 140.734 118.862Z" fill="#FFC5B8"/>
<path d="M81.408 113.982C81.408 113.982 89.793 108.446 100.246 119.171C110.7 129.897 107.331 141.032 98.5619 151.473C90.012 161.653 81.3091 179.628 82.8428 190.197H55.4767C55.1187 183.125 53.4684 130.997 81.408 113.982Z" fill="#47E9F3"/>
<path d="M96.5185 97.9797C96.5061 98.6857 86.5234 112.867 86.5234 112.867C86.5234 112.867 88.3193 116.397 96.8777 119.27L104.272 104.086L96.5185 97.9797Z" fill="#FFC5B8"/>
<path d="M92.5923 146.692C92.5923 146.692 111.542 162.558 132.003 155.634C133.266 155.201 134.666 155.3 135.842 155.919L141.725 159.028C144.19 160.328 147.249 159.474 148.686 157.083C149.504 155.721 150.197 154.16 150.346 152.662L138.84 148.005L139.694 146.593C139.694 146.593 134.071 146.122 132.597 150.148C132.597 150.148 121.896 154.606 103.838 134.74C103.838 134.74 95.6391 141.701 92.5923 146.692Z" fill="#FFC5B8"/>
<path d="M91.5764 146.617C91.4897 146.617 91.4154 146.593 91.3411 146.543C83.3401 141.131 79.5749 132.411 79.5377 132.325C79.451 132.114 79.5501 131.866 79.7607 131.78C79.9712 131.693 80.2189 131.792 80.3056 132.003C80.3428 132.089 84.0213 140.598 91.8117 145.862C91.9975 145.986 92.0594 146.258 91.9232 146.444C91.8365 146.556 91.7126 146.617 91.5764 146.617Z" fill="#80F3FA"/>
<path d="M103.454 134.566C103.318 134.566 103.182 134.505 103.108 134.368C103.083 134.331 100.643 130.529 95.9984 122.218C94.5864 119.692 92.7286 118.081 90.4745 117.45C86.7464 116.409 83.1546 118.403 83.1175 118.428C82.9193 118.54 82.6592 118.478 82.5478 118.267C82.4363 118.069 82.4982 117.809 82.7088 117.697C82.8698 117.611 86.635 115.505 90.6974 116.645C93.1745 117.338 95.2057 119.072 96.7291 121.809C101.361 130.095 103.789 133.873 103.814 133.91C103.937 134.108 103.888 134.368 103.69 134.492C103.615 134.542 103.541 134.566 103.454 134.566Z" fill="#80F3FA"/>
<path d="M104.383 89.855C104.383 89.855 107.938 98.017 108.173 102.302C108.409 106.588 109.338 109.362 104.383 110.229C99.4292 111.096 95.2553 108.619 92.9887 104.358C92.9887 104.358 89.4465 97.7817 90.2392 95.0817C91.0442 92.394 104.383 89.855 104.383 89.855Z" fill="#FFC5B8"/>
<path d="M94.6854 101.287L94.9702 101.163C95.3294 101.002 95.478 100.581 95.3046 100.234C94.611 98.884 93.2486 95.7876 95.0074 95.0693C97.2739 94.1404 106.253 92.3073 108.198 89.1243C110.056 86.065 108.408 82.1017 105.931 80.987C105.77 80.9127 105.572 80.9746 105.485 81.1356L105.275 81.532C105.139 81.8044 104.742 81.7549 104.656 81.47C104.569 81.1852 104.197 81.1356 104.049 81.3833C103.454 82.337 101.844 83.8852 97.5464 84.6779C91.428 85.805 87.3903 88.2821 87.2912 92.5055C87.2788 92.778 86.994 92.9266 86.771 92.778C86.3252 92.5055 85.5944 92.3693 84.6284 93.1867C82.9439 94.5986 83.6375 98.2647 87.316 101.274C87.4894 101.423 87.4894 101.696 87.3036 101.819C86.6348 102.253 85.644 103.293 88.2201 104.668C90.883 106.092 92.8771 105.981 93.645 105.845C93.8308 105.807 93.9546 105.634 93.9175 105.436L93.1 101.72C93.0505 101.51 93.2115 101.312 93.4344 101.312H94.6854V101.287Z" fill="#DD3914"/>
<path d="M94.8465 102.067C94.8465 102.067 93.4964 96.8526 91.1556 98.3141C88.8147 99.7756 92.3694 104.16 94.252 104.358L94.8465 102.067Z" fill="#FFC5B8"/>
<path d="M135.854 155.931C135.854 155.931 140.672 160.638 141.601 159.957C141.936 159.709 142.766 158.83 143.571 157.839C144.14 157.145 144.202 156.154 143.707 155.399L142.567 153.64C141.49 151.968 139.174 151.621 137.663 152.922C136.92 153.59 136.226 154.544 135.854 155.931Z" fill="#B07968"/>
<path d="M211.802 190.277C211.802 190.277 211.703 168.961 199.404 147.113C195.552 140.276 194.19 132.325 195.391 124.571L196.741 115.864C196.741 115.864 213.635 110.155 232.35 115.629C232.35 115.629 257.813 136.646 241.446 190.277H211.802Z" fill="#16C8D3"/>
<path d="M199.603 104.742L203.987 115.258C204.259 115.926 204.866 116.397 205.572 116.521C208.099 116.954 214.205 117.636 218.218 114.997C218.701 114.688 218.812 114.031 218.49 113.561L210.403 101.943L199.603 104.742Z" fill="#B07968"/>
<path d="M210.403 154.185C209.796 154.346 209.498 155.027 209.783 155.572L222.454 179.86C222.664 180.269 223.135 180.467 223.581 180.343L265.022 168.379C265.543 168.23 265.84 167.685 265.691 167.177L258.557 142.468C258.409 141.961 257.888 141.663 257.381 141.8L210.403 154.185Z" fill="#47E9F3"/>
<path d="M213.078 151.324C212.483 151.46 212.149 152.092 212.36 152.662L222.503 180.207C222.689 180.703 223.234 180.987 223.742 180.839L265.06 168.912C265.58 168.763 265.89 168.243 265.778 167.723L260.056 141.205C259.932 140.648 259.375 140.301 258.83 140.425L213.078 151.324Z" fill="#80F3FA"/>
<path d="M216.682 148.55C215.963 148.661 215.48 149.367 215.641 150.073L222.528 179.811C222.689 180.517 223.407 180.938 224.101 180.74L264.787 168.986C265.443 168.8 265.827 168.119 265.654 167.462L259.399 143.187C259.238 142.568 258.631 142.159 257.987 142.258L216.682 148.55Z" fill="#04919A"/>
<path d="M249.615 159.882C252.773 136.028 234.393 117.685 234.393 117.685L223.457 130.442C231.755 140.796 235.706 150.284 237.515 157.727C239.893 157.034 245.652 155.931 249.615 159.882Z" fill="#16C8D3"/>
<path d="M237.502 158C237.378 158 237.267 157.913 237.23 157.789C234.988 148.55 230.281 139.409 223.234 130.616C223.135 130.492 223.16 130.318 223.271 130.219C223.395 130.12 223.568 130.145 223.667 130.256C230.777 139.112 235.52 148.327 237.774 157.653C237.812 157.802 237.725 157.95 237.564 157.988C237.552 158 237.527 158 237.502 158Z" fill="#47E9F3"/>
<path d="M237.502 157.727C239.174 164.651 239.001 169.816 238.753 172.28C238.654 173.209 237.911 173.94 236.982 174.002C235.917 174.076 234.48 174.175 233.192 174.25C231.78 174.336 230.207 173.432 229.154 172.689C228.622 172.305 227.928 172.9 228.225 173.494C229.005 175.03 231 176.392 232.374 177.197C232.87 177.495 232.783 178.238 232.226 178.399L226.355 180.058C236.003 189.137 242.369 178.981 242.369 178.981C246.63 172.404 248.822 165.976 249.627 159.895C245.652 155.931 239.892 157.034 237.502 157.727Z" fill="#B07968"/>
<path d="M204.136 88.6412C203.95 88.8146 196.37 103.69 196.37 103.69L204.953 107.839L214.23 94.7968C214.242 94.8092 207.22 85.743 204.136 88.6412Z" fill="#B07968"/>
<path d="M210.341 96.3697L206.056 103.516C205.994 103.628 205.919 103.727 205.82 103.813C205.313 104.284 203.566 105.671 202.216 103.789C201.064 102.191 199.987 100.729 198.835 100.135C198.166 99.7881 197.324 100.061 196.989 100.742C196.284 102.141 194.921 104.99 194.054 107.69C193.844 108.371 194.19 109.09 194.847 109.362C196.581 110.068 200.024 111.344 203.071 111.765C203.566 111.839 204.074 111.629 204.371 111.22C205.684 109.424 209.387 104.395 210.638 103.145C211.815 101.98 213.97 102.414 214.948 102.699C215.32 102.81 215.716 102.748 216.038 102.55C217.029 101.956 218.751 100.469 217.178 97.955C216.781 97.3358 216.98 96.4936 217.599 96.0972C218.701 95.3665 219.903 94.0041 218.763 91.7995C217.611 89.5577 215.543 89.3595 214.131 89.5329C213.512 89.6072 212.88 89.2852 212.632 88.7031C212.521 88.443 212.31 88.2201 211.926 88.1457C211.183 87.9971 210.7 87.3283 210.849 86.5852C211.097 85.3219 210.911 83.6746 208.892 82.5599C205.189 80.5163 201.944 83.848 201.114 86.6471C200.284 89.4462 204.433 91.4279 207.034 91.7623C208.954 92.01 209.994 94.0908 210.415 95.1807C210.589 95.5646 210.552 96.0105 210.341 96.3697Z" fill="#015C62"/>
<path d="M209.028 105.746C209.028 105.746 210.676 100.928 212.781 101.101C214.887 101.274 216.546 103.38 213.933 105.746C210.688 108.681 209.028 105.746 209.028 105.746Z" fill="#B07968"/>
<path d="M47.0971 78.2962C54.17 78.2962 59.9037 72.5625 59.9037 65.4897C59.9037 58.4168 54.17 52.6831 47.0971 52.6831C40.0242 52.6831 34.2905 58.4168 34.2905 65.4897C34.2905 72.5625 40.0242 78.2962 47.0971 78.2962Z" fill="#E8CB31"/>
<path d="M47.0972 77.8629C53.9307 77.8629 59.4703 72.3232 59.4703 65.4898C59.4703 58.6563 53.9307 53.1167 47.0972 53.1167C40.2637 53.1167 34.7241 58.6563 34.7241 65.4898C34.7241 72.3232 40.2637 77.8629 47.0972 77.8629Z" fill="#272727" fill-opacity="0.4"/>
<path opacity="0.6" d="M36.8913 60.6222C36.8541 60.6222 36.8046 60.6098 36.7674 60.5974C36.6312 60.5231 36.5816 60.3621 36.6435 60.2258C38.65 56.2501 42.6505 53.7854 47.0969 53.7854C47.8029 53.7854 48.5212 53.8473 49.2024 53.9712C49.351 53.996 49.4501 54.1446 49.4254 54.2932C49.4006 54.4418 49.252 54.5409 49.1033 54.5161C48.4469 54.3923 47.7657 54.3304 47.0969 54.3304C42.8611 54.3304 39.0463 56.6836 37.139 60.4612C37.0894 60.5603 36.9903 60.6222 36.8913 60.6222Z" fill="#E8CB31"/>
<path d="M47.3697 76.228C53.1566 76.228 57.8478 71.5367 57.8478 65.7498C57.8478 59.9629 53.1566 55.2717 47.3697 55.2717C41.5828 55.2717 36.8916 59.9629 36.8916 65.7498C36.8916 71.5367 41.5828 76.228 47.3697 76.228Z" fill="#E8CB31"/>
<path d="M46.3416 73.5403V72.4009C45.1526 72.3513 43.976 72.0789 43.1462 71.7073C42.8489 71.5711 42.7003 71.2366 42.787 70.927L43.0718 69.8619C43.1833 69.4779 43.6044 69.2674 43.976 69.4284C44.8058 69.7752 45.8214 70.0476 46.9237 70.0476C48.0632 70.0476 48.9178 69.6637 48.9178 68.8586C48.9178 68.1403 48.2614 67.7192 46.6636 67.2857C44.3971 66.6664 42.7622 65.6756 42.7622 63.6815C42.7622 61.8732 44.0874 60.4984 46.3664 60.1269V58.9874C46.3664 58.6158 46.6636 58.3186 47.0352 58.3186H47.704C48.0756 58.3186 48.3728 58.6158 48.3728 58.9874V60.0154C49.4751 60.0649 50.2678 60.2507 50.9118 60.4737C51.2339 60.5851 51.4196 60.9443 51.3206 61.2663L51.0481 62.2448C50.949 62.6287 50.5403 62.8269 50.1687 62.6907C49.5866 62.4677 48.7568 62.2448 47.6792 62.2448C46.3168 62.2448 45.9329 62.8021 45.9329 63.3099C45.9329 63.9292 46.7503 64.3627 48.5091 64.8953C51.0357 65.6508 52.0761 66.7036 52.0761 68.5861C52.0761 70.3077 50.8004 71.8683 48.3109 72.2523V73.528C48.3109 73.8995 48.0136 74.1968 47.6421 74.1968H46.9733C46.6389 74.2092 46.3416 73.9119 46.3416 73.5403Z" fill="#FAFAFA"/>
<path d="M55.9281 107.266C63.2062 107.266 69.1063 101.366 69.1063 94.0878C69.1063 86.8097 63.2062 80.9097 55.9281 80.9097C48.6501 80.9097 42.75 86.8097 42.75 94.0878C42.75 101.366 48.6501 107.266 55.9281 107.266Z" fill="#E8CB31"/>
<path d="M55.9281 106.82C62.9599 106.82 68.6603 101.12 68.6603 94.0877C68.6603 87.0559 62.9599 81.3555 55.9281 81.3555C48.8962 81.3555 43.1958 87.0559 43.1958 94.0877C43.1958 101.12 48.8962 106.82 55.9281 106.82Z" fill="#272727" fill-opacity="0.4"/>
<path opacity="0.6" d="M45.4254 89.0717C45.3883 89.0717 45.3387 89.0593 45.3016 89.0469C45.1653 88.9726 45.1158 88.8116 45.1777 88.6754C47.2337 84.5882 51.3581 82.0615 55.9283 82.0615C56.6591 82.0615 57.3898 82.1234 58.0958 82.2597C58.2444 82.2845 58.3435 82.4331 58.3187 82.5817C58.2939 82.7303 58.1453 82.8294 57.9967 82.8047C57.3155 82.6808 56.6219 82.6189 55.9283 82.6189C51.5686 82.6189 47.6424 85.034 45.6731 88.9355C45.6236 89.0098 45.5245 89.0717 45.4254 89.0717Z" fill="#E8CB31"/>
<path d="M66.6896 96.8442C68.0571 91.0526 64.4707 85.249 58.6792 83.8814C52.8876 82.5139 47.084 86.1003 45.7164 91.8918C44.3489 97.6834 47.9352 103.487 53.7268 104.855C59.5184 106.222 65.322 102.636 66.6896 96.8442Z" fill="#E8CB31"/>
<path d="M55.1481 102.374V101.197C53.9219 101.148 52.7205 100.863 51.8535 100.479C51.5439 100.343 51.3953 99.9957 51.482 99.6737L51.7792 98.5838C51.8907 98.1875 52.3242 97.9769 52.7081 98.1379C53.5627 98.4971 54.6155 98.782 55.7426 98.782C56.9192 98.782 57.7985 98.3856 57.7985 97.5682C57.7985 96.825 57.1173 96.3916 55.4825 95.9457C53.1416 95.3016 51.4696 94.286 51.4696 92.23C51.4696 90.3722 52.832 88.9603 55.1852 88.5763V87.3997C55.1852 87.0281 55.4949 86.7185 55.8664 86.7185H56.56C56.9316 86.7185 57.2412 87.0281 57.2412 87.3997V88.4525C58.3683 88.502 59.1981 88.6878 59.8545 88.9231C60.1889 89.0346 60.3747 89.4062 60.2756 89.7406L60.0032 90.7562C59.8917 91.1401 59.483 91.3631 59.099 91.2144C58.4921 90.9915 57.6499 90.7438 56.5352 90.7438C55.1357 90.7438 54.7393 91.3259 54.7393 91.8461C54.7393 92.4901 55.5815 92.9236 57.3898 93.481C59.9908 94.2613 61.0683 95.3388 61.0683 97.2709C61.0683 99.0421 59.7555 100.64 57.1917 101.049V102.361C57.1917 102.733 56.882 103.043 56.5105 103.043H55.8169C55.4577 103.055 55.1481 102.758 55.1481 102.374Z" fill="#FAFAFA"/>
<path d="M72.8343 85.7895C78.1629 85.7895 82.4826 81.4698 82.4826 76.1412C82.4826 70.8126 78.1629 66.4929 72.8343 66.4929C67.5057 66.4929 63.186 70.8126 63.186 76.1412C63.186 81.4698 67.5057 85.7895 72.8343 85.7895Z" fill="#E8CB31"/>
<path d="M72.8343 85.48C77.9918 85.48 82.1729 81.299 82.1729 76.1414C82.1729 70.9838 77.9918 66.8027 72.8343 66.8027C67.6767 66.8027 63.4956 70.9838 63.4956 76.1414C63.4956 81.299 67.6767 85.48 72.8343 85.48Z" fill="#272727" fill-opacity="0.4"/>
<path opacity="0.6" d="M65.1427 72.5371C65.1056 72.5371 65.056 72.5247 65.0189 72.5124C64.8826 72.438 64.8331 72.277 64.895 72.1408C66.4184 69.1187 69.4652 67.2485 72.8341 67.2485C73.3791 67.2485 73.9116 67.2981 74.4318 67.3972C74.5804 67.4219 74.6795 67.5705 74.6548 67.7192C74.63 67.8678 74.4814 67.9669 74.3327 67.9421C73.8373 67.8554 73.3295 67.8059 72.8341 67.8059C69.6634 67.8059 66.8148 69.5646 65.3904 72.3885C65.3409 72.4752 65.2418 72.5371 65.1427 72.5371Z" fill="#E8CB31"/>
<path d="M75.6449 83.7936C79.7628 82.349 81.9301 77.8397 80.4856 73.7218C79.0411 69.6038 74.5318 67.4365 70.4138 68.881C66.2958 70.3256 64.1285 74.8349 65.5731 78.9528C67.0176 83.0708 71.5269 85.2381 75.6449 83.7936Z" fill="#E8CB31"/>
<path d="M72.2642 82.21V81.3554C71.3724 81.3183 70.4807 81.1077 69.849 80.8352C69.6261 80.7362 69.5146 80.4885 69.5765 80.2531L69.7995 79.4481C69.8738 79.1508 70.1958 79.0022 70.4807 79.1261C71.0999 79.3862 71.8802 79.5967 72.7101 79.5967C73.577 79.5967 74.2211 79.2995 74.2211 78.705C74.2211 78.16 73.7257 77.838 72.5243 77.516C70.8151 77.0453 69.5889 76.3022 69.5889 74.7911C69.5889 73.4287 70.5797 72.3884 72.3137 72.1159V71.2613C72.3137 70.9888 72.5367 70.7659 72.8091 70.7659H73.3169C73.5894 70.7659 73.8124 70.9888 73.8124 71.2613V72.0292C74.6422 72.0663 75.2491 72.2026 75.7197 72.376C75.9674 72.4627 76.1037 72.7228 76.0294 72.9829L75.8312 73.726C75.7569 74.0109 75.4472 74.1719 75.1748 74.0604C74.7289 73.8994 74.1096 73.726 73.3046 73.726C72.2766 73.726 71.9917 74.1471 71.9917 74.531C71.9917 75.0017 72.611 75.3237 73.9362 75.7324C75.8436 76.3022 76.6239 77.0948 76.6239 78.5068C76.6239 79.8073 75.6578 80.9839 73.7876 81.2687V82.2348C73.7876 82.5073 73.5646 82.7302 73.2922 82.7302H72.7844C72.4871 82.7178 72.2642 82.4825 72.2642 82.21Z" fill="#FAFAFA"/>
<path d="M223.564 106.096C222.932 105.873 223.019 104.944 223.688 104.857C226.734 104.461 231.193 103.272 232.655 99.6926C234.946 94.082 230.202 72.4817 252.013 68.6174C272.139 65.0504 283.348 71.4166 283.088 90.0195C282.853 108.04 253.883 116.487 223.564 106.096Z" fill="#16C8D3"/>
<path d="M241.052 86.1304H239.095V101.402H241.052V86.1304Z" fill="#FAFAFA"/>
<path d="M244.322 91.3818H242.365V101.402H244.322V91.3818Z" fill="#FAFAFA"/>
<path d="M247.579 78.4019H245.623V101.402H247.579V78.4019Z" fill="#FAFAFA"/>
<path d="M250.837 95.8777H248.88V101.402H250.837V95.8777Z" fill="#FAFAFA"/>
<path d="M254.106 81.4734H252.149V101.402H254.106V81.4734Z" fill="#FAFAFA"/>
<path d="M257.364 84.929H255.407V101.402H257.364V84.929Z" fill="#FAFAFA"/>
<path d="M260.621 88.6816H258.664V101.402H260.621V88.6816Z" fill="#FAFAFA"/>
<path d="M263.891 73.7449H261.934V101.402H263.891V73.7449Z" fill="#FAFAFA"/>
<path d="M267.148 76.6802H265.191V101.402H267.148V76.6802Z" fill="#FAFAFA"/>
<path d="M270.418 81.1018H268.461V101.402H270.418V81.1018Z" fill="#FAFAFA"/>
<path d="M273.676 96.3855H271.719V101.402H273.676V96.3855Z" fill="#FAFAFA"/>
</svg>
