<svg width="301" height="200" viewBox="0 0 301 200" fill="none" xmlns="http://www.w3.org/2000/svg">
<rect width="300" height="200" transform="translate(0.5)" fill="#F1F4F8"/>
<path opacity="0.2" d="M252.964 134.642C250.817 126.558 257.88 119.044 261.403 111.296C267.729 97.4139 261.855 80.5464 249.129 70.9111C236.403 61.2759 218.047 58.5593 201.666 62.0746C176.273 67.5224 154.526 86.5411 128.517 85.2205C117.105 84.637 106.554 80.1123 95.8348 76.6701C85.1156 73.2373 73.0683 70.8775 62.4069 74.6226C51.8815 78.3151 44.5947 87.6503 42.6142 97.5247C40.6338 107.399 43.421 117.636 48.5871 126.494C51.3073 131.158 54.6285 137.005 51.0145 141.218C48.4054 144.259 43.4868 144.628 39.8252 146.626C33.969 149.827 32.212 157.088 34.3283 162.852C36.4445 168.616 41.5914 173.077 47.0648 176.676C65.0901 188.512 88.8355 193.274 110.99 189.505L109.664 187.492C132.839 185.003 156.177 188.376 179.461 189.373C202.745 190.37 227.395 188.633 247.019 177.277C252.287 174.232 257.172 170.439 260.293 165.594C263.413 160.75 264.572 154.72 262.341 149.546C260.04 144.196 254.445 140.215 252.964 134.642Z" fill="#9EF6C1"/>
<path d="M26.1656 81.5665C30.2287 81.5665 33.5225 78.2727 33.5225 74.2095C33.5225 70.1464 30.2287 66.8525 26.1656 66.8525C22.1024 66.8525 18.8086 70.1464 18.8086 74.2095C18.8086 78.2727 22.1024 81.5665 26.1656 81.5665Z" fill="#EAB700"/>
<path d="M26.1654 81.3191C30.0918 81.3191 33.2747 78.1362 33.2747 74.2099C33.2747 70.2835 30.0918 67.1006 26.1654 67.1006C22.2391 67.1006 19.0562 70.2835 19.0562 74.2099C19.0562 78.1362 22.2391 81.3191 26.1654 81.3191Z" fill="#272727" fill-opacity="0.1"/>
<path opacity="0.6" d="M20.2951 71.5346C20.2579 71.5346 20.2084 71.5222 20.1712 71.5098C20.035 71.4355 19.9854 71.2745 20.0474 71.1382C21.224 68.8221 23.5648 67.373 26.1534 67.373C26.5745 67.373 26.9832 67.4102 27.3919 67.4845C27.5406 67.5093 27.6396 67.6579 27.6149 67.8065C27.5901 67.9552 27.4415 68.0542 27.2929 68.0295C26.9213 67.9675 26.5373 67.9304 26.1534 67.9304C23.763 67.9304 21.6079 69.2556 20.5304 71.3859C20.4932 71.4726 20.3941 71.5346 20.2951 71.5346Z" fill="#EAB700"/>
<path d="M29.8291 79.2375C32.5259 77.2937 33.1363 73.5318 31.1925 70.8351C29.2487 68.1384 25.4869 67.5279 22.7901 69.4717C20.0934 71.4155 19.483 75.1774 21.4267 77.8741C23.3705 80.5709 27.1324 81.1813 29.8291 79.2375Z" fill="#EAB700"/>
<path d="M25.7322 78.8416V78.1852C25.051 78.1604 24.3698 77.9994 23.8992 77.7889C23.7258 77.7145 23.6391 77.5164 23.6886 77.343L23.8496 76.7361C23.9116 76.5132 24.1593 76.4017 24.3698 76.4884C24.8405 76.6866 25.435 76.8476 26.0666 76.8476C26.7231 76.8476 27.2185 76.6246 27.2185 76.1664C27.2185 75.7576 26.8345 75.5099 25.9304 75.2622C24.6299 74.903 23.6886 74.3333 23.6886 73.1939C23.6886 72.1535 24.4441 71.3608 25.757 71.1502V70.4938C25.757 70.2833 25.9304 70.1099 26.141 70.1099H26.5249C26.7355 70.1099 26.9089 70.2833 26.9089 70.4938V71.0759C27.5405 71.1007 27.9988 71.2122 28.3703 71.336C28.5561 71.398 28.6552 71.6085 28.6057 71.7943L28.457 72.364C28.3951 72.587 28.1598 72.6984 27.9492 72.6241C27.6148 72.5003 27.1442 72.364 26.5249 72.364C25.7446 72.364 25.5217 72.686 25.5217 72.9709C25.5217 73.3301 25.9923 73.5778 27.0079 73.8874C28.457 74.3209 29.0639 74.9278 29.0639 76.0053C29.0639 76.9962 28.3332 77.8879 26.8965 78.1109V78.8416C26.8965 79.0522 26.7231 79.2256 26.5125 79.2256H26.1286C25.8932 79.2132 25.7322 79.0522 25.7322 78.8416Z" fill="#FAFAFA"/>
<path d="M108.495 34.774L200.915 35.7896C206.03 35.8515 210.031 40.2484 210.031 45.797L209.944 182.805C209.944 186.632 206.835 189.815 203.095 189.828L104.011 190.261C100.518 190.274 97.645 187.351 97.645 183.759V46.4659C97.645 39.9511 102.5 34.7121 108.495 34.774Z" fill="#9FA1A4"/>
<path d="M193.211 47.9023H115.517C112.26 47.9023 109.646 50.59 109.646 53.7607V166.828C109.646 169.998 112.26 172.463 115.517 172.463H193.211C196.469 172.463 199.132 169.998 199.132 166.828V53.7607C199.132 50.59 196.469 47.9023 193.211 47.9023Z" fill="#2F3032"/>
<path d="M149.614 144.261V139.282C144.425 139.072 139.297 137.846 135.656 136.26C134.355 135.691 133.687 134.229 134.071 132.854L135.334 128.222C135.792 126.525 137.65 125.646 139.273 126.327C142.889 127.838 147.348 129.04 152.166 129.04C157.157 129.04 160.885 127.343 160.885 123.875C160.885 120.741 158.012 118.884 151.063 117.013C141.155 114.301 134.046 109.978 134.046 101.259C134.046 93.3819 139.805 87.375 149.8 85.7649V80.7859C149.8 79.1882 151.101 77.8877 152.698 77.8877H155.621C157.219 77.8877 158.52 79.1882 158.52 80.7859V85.2571C163.325 85.4552 166.818 86.2727 169.592 87.2387C171.016 87.7341 171.784 89.2699 171.4 90.719L170.236 95.0044C169.79 96.6517 168.019 97.5682 166.421 96.9613C163.87 95.9953 160.253 94.992 155.572 94.992C149.639 94.992 147.955 97.4444 147.955 99.649C147.955 102.361 151.509 104.219 159.213 106.597C170.224 109.904 174.794 114.474 174.794 122.686C174.794 130.229 169.208 137.004 158.359 138.688V144.261C158.359 145.859 157.058 147.16 155.46 147.16H152.537C150.915 147.16 149.614 145.859 149.614 144.261Z" fill="#00C14D"/>
<path d="M127.717 26.9711C127.717 26.9711 127.779 26.872 127.878 26.711C127.94 26.6119 128.064 26.5871 128.163 26.649C128.2 26.6738 128.237 26.711 128.249 26.7605C128.336 26.7357 128.435 26.711 128.547 26.6862C128.658 26.6614 128.77 26.7234 128.794 26.8348C128.819 26.9463 128.757 27.0578 128.646 27.0825C128.336 27.1569 128.113 27.2312 128.002 27.2559C127.977 27.2683 127.952 27.2683 127.94 27.2807L127.444 27.4169L127.717 26.9711ZM128.472 25.844C128.67 25.5591 128.881 25.2866 129.092 25.0018C129.166 24.9151 129.29 24.8903 129.376 24.9646C129.463 25.0389 129.488 25.1628 129.414 25.2495C129.203 25.522 129.005 25.8068 128.807 26.0793C128.745 26.1784 128.609 26.1908 128.522 26.1289C128.509 26.1165 128.497 26.1041 128.485 26.0917C128.423 26.0174 128.423 25.9183 128.472 25.844ZM129.426 26.711C129.414 26.5995 129.488 26.488 129.599 26.4757C129.959 26.4261 130.305 26.389 130.652 26.3766C130.764 26.3766 130.863 26.4633 130.863 26.5747C130.863 26.6862 130.776 26.7853 130.665 26.7853C130.343 26.7977 129.996 26.8348 129.649 26.8844C129.575 26.8968 129.5 26.8596 129.463 26.8101C129.438 26.7853 129.426 26.7481 129.426 26.711ZM131.482 26.5871C131.494 26.4757 131.593 26.389 131.705 26.4013C132.077 26.4261 132.423 26.488 132.758 26.5624C132.869 26.5871 132.931 26.6986 132.906 26.8101C132.882 26.9215 132.77 26.9835 132.659 26.9587C132.349 26.8844 132.015 26.8348 131.668 26.7977C131.606 26.7977 131.556 26.7605 131.519 26.7234C131.494 26.6862 131.482 26.6367 131.482 26.5871ZM129.736 24.1843C129.959 23.9119 130.182 23.6518 130.417 23.3917C130.491 23.305 130.627 23.2926 130.714 23.3793C130.801 23.4536 130.813 23.5898 130.726 23.6765C130.504 23.9242 130.281 24.1967 130.058 24.4568C129.983 24.5435 129.859 24.5559 129.76 24.4816C129.748 24.4692 129.736 24.4568 129.736 24.4568C129.674 24.3701 129.674 24.2587 129.736 24.1843ZM133.501 27.0082C133.55 26.9091 133.674 26.8596 133.773 26.9091C134.009 27.0206 134.232 27.1445 134.442 27.2807C134.529 27.3302 134.603 27.3922 134.69 27.4417C134.789 27.5036 134.814 27.6275 134.764 27.7266C134.702 27.8257 134.578 27.8504 134.479 27.8009C134.393 27.7514 134.306 27.6894 134.219 27.6399C134.021 27.516 133.823 27.4046 133.6 27.3055C133.575 27.2931 133.538 27.2683 133.526 27.2436C133.476 27.1692 133.464 27.0825 133.501 27.0082ZM136.312 29.9436C136.374 29.8817 136.461 29.8693 136.535 29.894C136.721 29.8445 136.919 29.8321 137.155 29.8569C137.266 29.8693 137.353 29.9684 137.34 30.0798C137.328 30.1913 137.229 30.278 137.117 30.2656C136.833 30.2284 136.622 30.278 136.449 30.3895L136.188 30.0674L136.312 29.9436ZM135.309 27.9991C135.346 27.8876 135.47 27.8381 135.582 27.8876C135.916 28.0238 136.226 28.0981 136.523 28.1353C136.634 28.1477 136.721 28.2468 136.709 28.3706C136.696 28.4821 136.597 28.5688 136.473 28.5564C136.139 28.5193 135.792 28.4202 135.421 28.2839C135.383 28.2715 135.359 28.2468 135.334 28.222C135.297 28.1477 135.284 28.0734 135.309 27.9991ZM131.123 22.6238C131.371 22.3761 131.618 22.1284 131.866 21.8806C131.953 21.8063 132.076 21.8063 132.163 21.8806C132.238 21.9673 132.238 22.0912 132.163 22.1779C131.915 22.4132 131.68 22.6609 131.432 22.9086C131.358 22.9953 131.222 22.9953 131.135 22.9086C131.123 22.8963 131.123 22.8963 131.11 22.8839C131.049 22.8219 131.049 22.6981 131.123 22.6238ZM137.043 29.2005C137.316 28.9156 137.563 28.6555 137.749 28.4449C137.823 28.3582 137.96 28.3582 138.046 28.4326C138.133 28.5069 138.133 28.6431 138.059 28.7298C137.861 28.9404 137.625 29.2005 137.34 29.4853C137.266 29.572 137.13 29.572 137.043 29.4853C137.031 29.4729 137.031 29.4729 137.031 29.4606C136.969 29.3862 136.969 29.2748 137.043 29.2005ZM137.947 30.2161C137.972 30.1046 138.083 30.0427 138.195 30.0674C138.492 30.1418 138.814 30.2161 139.186 30.2656C139.297 30.278 139.372 30.3895 139.359 30.5009C139.347 30.6124 139.235 30.6867 139.124 30.6743C138.727 30.6124 138.393 30.5381 138.096 30.4638C138.046 30.4514 138.009 30.4266 137.984 30.3895C137.947 30.3523 137.935 30.2904 137.947 30.2161ZM137.328 28.3211C137.291 28.2096 137.365 28.0982 137.477 28.061C137.799 27.9743 138.022 27.8257 138.183 27.7266C138.244 27.6894 138.294 27.6523 138.344 27.6399C138.368 27.6275 138.381 27.6275 138.405 27.6151C138.517 27.578 138.628 27.6399 138.666 27.7514C138.703 27.8628 138.641 27.9743 138.529 28.0114C138.505 28.0238 138.455 28.0486 138.418 28.0858C138.257 28.1848 137.984 28.3582 137.613 28.4697C137.526 28.4945 137.439 28.4573 137.39 28.3954C137.353 28.3706 137.34 28.3459 137.328 28.3211ZM132.634 21.1747C132.869 20.9641 133.104 20.766 133.34 20.5802L133.427 20.5059C133.513 20.4315 133.649 20.4439 133.711 20.543C133.786 20.6297 133.761 20.766 133.674 20.8279L133.588 20.9022C133.352 21.088 133.117 21.2861 132.894 21.4843C132.807 21.5586 132.683 21.5462 132.597 21.4595C132.597 21.4595 132.597 21.4595 132.597 21.4472C132.535 21.3852 132.547 21.249 132.634 21.1747ZM139.978 30.5752C139.978 30.4638 140.078 30.3771 140.189 30.3771C140.523 30.3895 140.858 30.3895 141.205 30.3647C141.316 30.3523 141.415 30.439 141.428 30.5629C141.44 30.6743 141.353 30.7734 141.229 30.7858C140.87 30.8106 140.511 30.8106 140.177 30.7982C140.115 30.7982 140.065 30.761 140.028 30.7239C140.003 30.6743 139.978 30.6248 139.978 30.5752ZM142.047 30.4885C142.034 30.3771 142.109 30.2656 142.22 30.2532C142.295 30.2408 142.369 30.2284 142.443 30.2161C142.703 30.1789 142.963 30.117 143.211 30.0427C143.323 30.0055 143.434 30.0798 143.471 30.1789C143.508 30.2904 143.434 30.4018 143.335 30.439C143.075 30.5133 142.802 30.5752 142.517 30.6248C142.443 30.6372 142.369 30.6496 142.295 30.6619C142.22 30.6743 142.146 30.6372 142.096 30.5876C142.072 30.5629 142.047 30.5257 142.047 30.4885ZM134.219 20.1714C134.157 20.0724 134.182 19.9485 134.269 19.8866C134.554 19.6884 134.851 19.4902 135.148 19.3045C135.247 19.2425 135.371 19.2797 135.433 19.3664C135.495 19.4655 135.458 19.5893 135.371 19.6513C135.086 19.8247 134.801 20.0104 134.516 20.2086C134.417 20.2829 134.306 20.2705 134.219 20.1714C134.232 20.1838 134.232 20.1838 134.219 20.1714ZM144.041 29.9807C143.991 29.8817 144.041 29.7578 144.14 29.7083C144.437 29.572 144.734 29.411 145.019 29.2252C145.118 29.1633 145.242 29.1881 145.304 29.2872C145.366 29.3862 145.341 29.5101 145.242 29.572C144.945 29.7702 144.635 29.9436 144.313 30.0922C144.227 30.1294 144.128 30.1046 144.066 30.0303C144.066 30.0055 144.053 29.9931 144.041 29.9807ZM135.978 19.0691C135.928 18.9701 135.966 18.8462 136.065 18.7843C136.374 18.6233 136.696 18.4746 137.018 18.3384C137.117 18.2889 137.241 18.3384 137.291 18.4499C137.34 18.549 137.291 18.6728 137.179 18.7223C136.87 18.8586 136.56 18.9948 136.263 19.1558C136.176 19.2054 136.065 19.1806 136.003 19.1063C135.99 19.0939 135.978 19.0815 135.978 19.0691ZM145.824 28.606C146.072 28.383 146.307 28.1477 146.53 27.8876C146.605 27.8009 146.741 27.7885 146.828 27.8628C146.914 27.9371 146.927 28.0734 146.852 28.1601C146.617 28.4326 146.369 28.6927 146.109 28.9156C146.023 28.9899 145.899 28.9899 145.812 28.9032C145.812 28.9032 145.812 28.9032 145.8 28.8908C145.725 28.8041 145.738 28.6803 145.824 28.606ZM137.861 18.2269C137.823 18.1155 137.885 18.004 137.997 17.9668C138.331 17.8554 138.678 17.7563 139.012 17.682C139.124 17.6572 139.235 17.7315 139.26 17.843C139.285 17.9544 139.211 18.0659 139.099 18.0907C138.777 18.165 138.443 18.2517 138.121 18.3632C138.034 18.3879 137.947 18.3632 137.898 18.3012C137.885 18.2765 137.873 18.2517 137.861 18.2269ZM147.125 27.0825C147.397 26.6614 147.534 26.3394 147.558 26.2527L147.62 25.7945C147.633 25.683 147.744 25.6087 147.856 25.6211C147.967 25.6334 148.041 25.7449 148.029 25.8564L147.967 26.3023C147.918 26.5995 147.484 27.2931 147.472 27.3055C147.41 27.4046 147.286 27.4293 147.187 27.3674C147.162 27.355 147.15 27.3426 147.137 27.3179C147.075 27.2559 147.075 27.1569 147.125 27.0825ZM139.867 17.7315C139.855 17.62 139.929 17.521 140.053 17.4962C140.4 17.459 140.759 17.4343 141.106 17.4219C141.217 17.4219 141.316 17.5086 141.316 17.6324C141.316 17.7439 141.229 17.843 141.106 17.843C140.771 17.843 140.437 17.8678 140.102 17.9049C140.028 17.9173 139.954 17.8801 139.916 17.8306C139.892 17.8182 139.867 17.7811 139.867 17.7315ZM141.935 17.6696C141.948 17.5581 142.047 17.4714 142.158 17.4838C142.505 17.521 142.852 17.5705 143.199 17.6448C143.31 17.6696 143.384 17.7811 143.36 17.8925C143.335 18.004 143.223 18.0783 143.112 18.0535C142.778 17.9792 142.443 17.9297 142.109 17.9049C142.047 17.9049 141.997 17.8678 141.972 17.8306C141.948 17.7811 141.923 17.7191 141.935 17.6696ZM147.769 24.7788L147.918 23.7508C147.93 23.6394 148.041 23.5651 148.153 23.5775C148.264 23.5898 148.339 23.7013 148.326 23.8128L148.178 24.8408C148.165 24.9522 148.054 25.0266 147.942 25.0142C147.893 25.0018 147.843 24.977 147.806 24.9399C147.781 24.8903 147.757 24.8408 147.769 24.7788ZM143.954 18.0535C143.991 17.9421 144.103 17.8801 144.214 17.9173C144.536 18.0288 144.871 18.1526 145.205 18.2889C145.317 18.3384 145.354 18.4499 145.317 18.5613C145.267 18.6604 145.156 18.71 145.044 18.6728C144.734 18.5366 144.412 18.4127 144.09 18.3136C144.053 18.3012 144.016 18.2765 143.991 18.2517C143.954 18.1898 143.942 18.1155 143.954 18.0535ZM148.066 22.7229L148.215 21.6949C148.227 21.5834 148.339 21.5091 148.45 21.5215C148.562 21.5338 148.636 21.6453 148.623 21.7568L148.475 22.7848C148.462 22.8963 148.351 22.9706 148.24 22.9582C148.19 22.9458 148.14 22.921 148.103 22.8839C148.079 22.8467 148.054 22.7848 148.066 22.7229ZM145.874 18.8338C145.923 18.7347 146.06 18.6976 146.159 18.7471C146.456 18.9081 146.766 19.0939 147.063 19.2797C147.162 19.3416 147.187 19.4655 147.125 19.5646C147.063 19.6636 146.939 19.6884 146.84 19.6265C146.555 19.4407 146.258 19.2673 145.961 19.1063C145.936 19.0939 145.911 19.0691 145.899 19.0568C145.837 18.9948 145.824 18.9081 145.874 18.8338ZM147.62 19.9237C147.695 19.837 147.818 19.8123 147.905 19.8866C148.165 20.0848 148.438 20.3077 148.698 20.5306L148.784 20.6049L148.76 20.7412C148.747 20.8527 148.636 20.927 148.524 20.9146C148.45 20.9022 148.388 20.8526 148.363 20.7907C148.128 20.5926 147.88 20.3944 147.645 20.221C147.633 20.2086 147.62 20.1962 147.608 20.1838C147.571 20.1095 147.558 20.0104 147.62 19.9237Z" fill="#79F4C1"/>
<path d="M147.843 23.9738C147.843 23.9738 145.725 28.0362 142.579 26.81C139.421 25.5839 136.547 23.5527 135.086 24.1843C135.086 24.1843 140.659 17.1617 147.905 22.3513L147.843 23.9738Z" fill="#E51818"/>
<path d="M156.154 28.8911C156.154 28.8911 155.609 33.3623 154.184 33.9196C152.834 34.4522 142.678 33.5356 141.7 33.449C141.65 33.449 141.625 33.4118 141.625 33.3623C141.625 32.9907 141.811 32.6439 142.109 32.4333C143.558 31.4053 147.917 28.3585 149.54 27.8631C151.472 27.2562 156.154 28.8911 156.154 28.8911Z" fill="#43E5A1"/>
<path d="M145.341 33.1517C145.354 33.1765 145.378 33.1889 145.416 33.1889C145.477 33.1889 151.039 33.5976 153.441 33.6719C153.875 33.6843 154.271 33.449 154.457 33.065C154.754 32.4582 155.287 31.2568 155.584 29.9934C155.596 29.9439 155.559 29.882 155.51 29.8696C155.46 29.8572 155.398 29.8944 155.386 29.9439C155.089 31.1824 154.556 32.3715 154.271 32.966C154.123 33.2756 153.801 33.4738 153.454 33.4614C151.051 33.3871 145.49 32.9783 145.44 32.9783C145.378 32.9783 145.329 33.0155 145.329 33.0774C145.316 33.1146 145.329 33.1394 145.341 33.1517Z" fill="#FAFAFA"/>
<path d="M156.29 18.4377C156.29 18.4377 155.857 13.9542 154.457 13.3597C153.119 12.8023 142.951 13.4464 141.96 13.5083C141.911 13.5083 141.886 13.5455 141.886 13.595C141.886 13.9666 142.047 14.3134 142.344 14.5363C143.768 15.6014 148.054 18.7597 149.651 19.3047C151.571 19.9487 156.29 18.4377 156.29 18.4377Z" fill="#43E5A1"/>
<path d="M145.589 14.0285C145.614 14.0533 145.639 14.0657 145.676 14.0657C145.738 14.0657 151.299 13.8056 153.702 13.7808C154.049 13.7808 154.358 13.979 154.507 14.2886C154.779 14.8955 155.275 16.0969 155.547 17.3478C155.56 17.4097 155.609 17.4345 155.671 17.4221C155.733 17.4097 155.758 17.3602 155.745 17.2983C155.498 16.0969 155.039 14.9574 154.693 14.2019C154.519 13.818 154.123 13.5579 153.702 13.5702C151.299 13.5826 145.725 13.8427 145.664 13.8551C145.602 13.8551 145.564 13.9047 145.564 13.9666C145.564 13.9914 145.577 14.0037 145.589 14.0285Z" fill="#FAFAFA"/>
<path d="M171.264 29.0275C169.171 29.6839 166.768 30.1174 164.081 30.0926C155.758 30.0059 149.652 28.5073 147.93 28.0367C147.62 27.95 147.385 27.7023 147.311 27.3802C146.729 24.9031 146.741 22.426 147.348 19.9489C147.459 19.4783 147.831 19.1191 148.302 19.0077C150.32 18.5246 156.29 17.2985 164.254 17.4223C166.917 17.4595 169.295 17.9549 171.363 18.6485C172.453 22.81 171.784 26.7981 171.264 29.0275Z" fill="#4B4C4F"/>
<path d="M171.351 18.6729C175.909 20.2087 178.894 22.7477 179.847 23.6518C180.033 23.8252 180.033 24.1225 179.835 24.2959C178.856 25.1628 175.822 27.6152 171.264 29.0395C171.784 26.7977 172.453 22.8096 171.351 18.6729Z" fill="#43E5A1"/>
<path d="M164.774 19.5896C162.619 19.5648 160.848 21.4103 160.811 23.7263C160.786 26.0424 162.508 27.9374 164.663 27.9622C166.818 27.987 168.589 26.1415 168.626 23.8254C168.663 21.5093 166.929 19.6144 164.774 19.5896Z" fill="#FAFAFA"/>
<path d="M164.873 20.3201C163.151 20.2954 161.739 21.7692 161.715 23.6147C161.69 25.4601 163.065 26.9711 164.786 26.9959C166.508 27.0207 167.92 25.5468 167.945 23.7014C167.957 21.8559 166.595 20.3449 164.873 20.3201Z" fill="#272727"/>
<path d="M165.381 26.0055C165.406 26.0426 165.455 26.055 165.492 26.0426C166.557 25.733 167.301 24.7174 167.325 23.5655C167.325 23.2807 167.288 22.9958 167.201 22.7109C167.189 22.6614 167.127 22.6242 167.078 22.649C167.028 22.6614 166.991 22.7233 167.016 22.7729C167.09 23.0206 167.127 23.293 167.127 23.5531C167.115 24.6183 166.421 25.5596 165.443 25.8444C165.393 25.8568 165.356 25.9188 165.368 25.9683C165.356 25.9931 165.368 26.0055 165.381 26.0055Z" fill="#FAFAFA"/>
<path d="M156.909 20.9146C155.485 20.9023 154.308 22.116 154.296 23.6518C154.271 25.1752 155.411 26.4386 156.835 26.451C158.259 26.4633 159.436 25.2496 159.448 23.7138C159.473 22.178 158.333 20.927 156.909 20.9146Z" fill="#FAFAFA"/>
<path d="M156.971 21.3976C155.832 21.3852 154.903 22.3636 154.89 23.5774C154.878 24.7912 155.782 25.7944 156.921 25.8068C158.061 25.8192 158.99 24.8407 159.002 23.627C159.015 22.4132 158.11 21.41 156.971 21.3976Z" fill="#272727"/>
<path d="M157.281 25.1753C157.306 25.2125 157.355 25.2248 157.392 25.2125C158.111 25.0019 158.618 24.3207 158.631 23.5404C158.631 23.3423 158.606 23.1565 158.544 22.9707C158.532 22.9211 158.47 22.884 158.42 22.9088C158.371 22.9211 158.334 22.9831 158.358 23.0326C158.408 23.1936 158.433 23.367 158.433 23.5404C158.42 24.2216 157.974 24.8285 157.355 25.0143C157.306 25.0267 157.268 25.0886 157.281 25.1381C157.268 25.1505 157.268 25.1629 157.281 25.1753Z" fill="#FAFAFA"/>
<path d="M124.942 26.8102L123.58 27.1446C123.456 27.1818 123.32 27.0951 123.295 26.9712C123.258 26.8474 123.344 26.7111 123.468 26.6864H123.481L124.806 26.3519H124.818C124.942 26.3148 125.078 26.4015 125.103 26.5253C125.153 26.6492 125.066 26.7854 124.942 26.8102Z" fill="#79F4C1"/>
<path d="M122.205 27.38L120.818 27.5286C120.694 27.541 120.583 27.4543 120.558 27.3181C120.545 27.1942 120.632 27.0828 120.768 27.058H120.781L122.143 26.9094H122.156C122.279 26.897 122.403 26.9837 122.416 27.1199C122.428 27.2562 122.341 27.3676 122.205 27.38Z" fill="#79F4C1"/>
<path d="M119.431 27.6028L118.044 27.5904C117.92 27.5904 117.821 27.4913 117.821 27.3675C117.821 27.2436 117.92 27.1445 118.044 27.1445H118.056H119.419H119.431C119.555 27.1445 119.654 27.2436 119.654 27.3799C119.654 27.5037 119.555 27.6028 119.431 27.6028Z" fill="#79F4C1"/>
<path d="M116.644 27.5039L115.257 27.3553C115.133 27.3429 115.046 27.2314 115.059 27.1075C115.071 26.9837 115.183 26.897 115.307 26.9094H115.319L116.681 27.0456H116.694C116.818 27.058 116.904 27.1695 116.892 27.2933C116.879 27.4296 116.768 27.5287 116.644 27.5039Z" fill="#79F4C1"/>
<path d="M113.895 27.1571L112.532 26.897C112.421 26.8723 112.334 26.7608 112.359 26.6493C112.384 26.5379 112.495 26.4512 112.606 26.4759H112.619L113.969 26.7236H113.981C114.105 26.7484 114.179 26.8599 114.155 26.9837C114.117 27.1076 114.006 27.1819 113.895 27.1571Z" fill="#79F4C1"/>
<path d="M111.17 26.5874L109.832 26.2407C109.721 26.2159 109.646 26.092 109.683 25.9806C109.708 25.8691 109.832 25.7948 109.944 25.8319L111.269 26.1787H111.281C111.393 26.2035 111.467 26.3274 111.43 26.4388C111.405 26.5503 111.281 26.6246 111.17 26.5874Z" fill="#79F4C1"/>
<path d="M108.495 25.844L107.182 25.4106C107.07 25.3734 107.008 25.2619 107.045 25.1505C107.083 25.039 107.194 24.9771 107.306 25.0142L108.618 25.4353C108.73 25.4725 108.792 25.584 108.755 25.6954C108.73 25.8193 108.606 25.8812 108.495 25.844Z" fill="#79F4C1"/>
<path d="M105.881 24.9523L104.593 24.4569C104.494 24.4197 104.432 24.2959 104.481 24.1968C104.518 24.0977 104.642 24.0358 104.741 24.0853L106.029 24.5807C106.129 24.6179 106.19 24.7417 106.153 24.8408C106.104 24.9399 105.98 24.9894 105.881 24.9523Z" fill="#79F4C1"/>
<path d="M103.305 23.9242L102.041 23.3669C101.942 23.3174 101.893 23.2059 101.942 23.1068C101.992 23.0077 102.103 22.9582 102.202 23.0077L103.466 23.5527C103.565 23.6022 103.614 23.7137 103.565 23.8128C103.515 23.9242 103.404 23.9614 103.305 23.9242Z" fill="#79F4C1"/>
<path d="M100.778 22.7851L99.5275 22.1782C99.4284 22.1287 99.3913 22.0172 99.4408 21.9181C99.4903 21.819 99.6018 21.7819 99.7009 21.8314L100.939 22.4259C101.039 22.4755 101.076 22.5869 101.026 22.686C100.989 22.7975 100.865 22.8346 100.778 22.7851Z" fill="#79F4C1"/>
<path d="M98.289 21.5586L97.0628 20.9145C96.9761 20.865 96.939 20.7535 96.9885 20.6668C97.038 20.5801 97.1495 20.543 97.2362 20.5925L98.4624 21.2365C98.5491 21.2861 98.5862 21.3976 98.5367 21.4966C98.4995 21.571 98.3881 21.6081 98.289 21.5586Z" fill="#79F4C1"/>
<path d="M95.8491 20.246L94.6477 19.5648C94.561 19.5153 94.5362 19.4038 94.5734 19.3171C94.6229 19.2304 94.7344 19.2056 94.8211 19.2428L96.0225 19.924C96.1092 19.9735 96.1463 20.085 96.0968 20.1717C96.0472 20.2708 95.9358 20.3079 95.8491 20.246Z" fill="#79F4C1"/>
<path d="M93.4583 18.8711L92.2693 18.1528C92.1826 18.1032 92.1578 17.9917 92.2074 17.905C92.2569 17.8184 92.3684 17.7936 92.4551 17.8431L93.6317 18.5491C93.7184 18.5986 93.7432 18.7101 93.6936 18.7968C93.6441 18.8959 93.5326 18.9207 93.4583 18.8711Z" fill="#79F4C1"/>
<path d="M91.0929 17.4219L89.9287 16.6788C89.842 16.6293 89.8172 16.5178 89.8791 16.4311C89.9287 16.3444 90.0401 16.3196 90.1268 16.3816L91.2911 17.1247C91.3778 17.1742 91.4025 17.2857 91.3406 17.3724C91.2911 17.4467 91.1796 17.4715 91.0929 17.4219Z" fill="#79F4C1"/>
<path d="M88.7645 15.9112L87.6127 15.1309C87.526 15.0814 87.5136 14.9699 87.5632 14.8832C87.6127 14.7965 87.7242 14.7841 87.8109 14.8337L88.9503 15.6016C89.037 15.6511 89.0494 15.7626 88.9999 15.8493C88.9627 15.9484 88.8512 15.9731 88.7645 15.9112Z" fill="#79F4C1"/>
<path d="M86.4855 14.3506L85.3584 13.5456C85.2841 13.4836 85.2593 13.3845 85.3212 13.2978C85.3832 13.2235 85.4822 13.1988 85.5689 13.2607L86.696 14.0534C86.7703 14.1153 86.7951 14.2144 86.7332 14.3011C86.6713 14.3878 86.5598 14.4125 86.4855 14.3506Z" fill="#79F4C1"/>
<path d="M84.2191 12.7773L83.0424 12.0837H83.03C82.9434 12.0342 82.9186 11.9227 82.9681 11.8484C83.0177 11.7617 83.1167 11.7369 83.2034 11.7865L84.4048 12.4925C84.4915 12.542 84.5163 12.6535 84.4668 12.7278C84.4172 12.8145 84.3181 12.8392 84.2191 12.7773Z" fill="#79F4C1"/>
<path d="M81.8284 11.4646L80.5651 10.9197H80.5527C80.466 10.8825 80.4289 10.7834 80.466 10.6967C80.5032 10.61 80.6023 10.5729 80.689 10.6101L81.9647 11.1674C82.0513 11.2046 82.0885 11.3036 82.0513 11.3903C82.0266 11.4646 81.9275 11.5018 81.8284 11.4646Z" fill="#79F4C1"/>
<path d="M79.2771 10.4489L77.9642 10.065H77.9518C77.8651 10.0402 77.8156 9.9411 77.8404 9.8544C77.8651 9.7677 77.9642 9.70578 78.0509 9.74293L79.3885 10.1269C79.4752 10.1517 79.5372 10.2507 79.5 10.3374C79.4752 10.4241 79.3762 10.4861 79.2771 10.4489Z" fill="#79F4C1"/>
<path d="M76.6265 9.78026L75.2765 9.56971H75.2641C75.1774 9.55732 75.1031 9.47062 75.1279 9.37154C75.1403 9.28484 75.227 9.21053 75.326 9.2353L76.7008 9.44585C76.7875 9.45824 76.8618 9.54494 76.8371 9.64402C76.8123 9.73072 76.7256 9.79264 76.6265 9.78026Z" fill="#79F4C1"/>
<path d="M73.9017 9.44578L72.5269 9.40863H72.5145C72.4278 9.40863 72.3535 9.33431 72.3535 9.23523C72.3535 9.14853 72.4278 9.07422 72.5269 9.07422L73.9141 9.11137C74.0008 9.11137 74.0751 9.18569 74.0751 9.28477C74.0875 9.37147 74.0132 9.44578 73.9017 9.44578Z" fill="#79F4C1"/>
<path d="M71.1645 9.45832L69.8021 9.59456H69.7897C69.703 9.60695 69.6163 9.53263 69.6039 9.44594C69.5915 9.35924 69.6658 9.27254 69.7525 9.26015L71.1397 9.12391C71.2264 9.11153 71.3131 9.18584 71.3255 9.27254C71.3379 9.35924 71.2635 9.44594 71.1645 9.45832Z" fill="#79F4C1"/>
<path d="M68.4521 9.81727L67.1145 10.1269H67.1021C67.0154 10.1517 66.9287 10.0898 66.9039 10.0031C66.8792 9.91636 66.9411 9.82966 67.0278 9.80489L68.3778 9.49525C68.4645 9.47048 68.5512 9.53241 68.576 9.6191C68.6008 9.7058 68.5512 9.7925 68.4521 9.81727Z" fill="#79F4C1"/>
<path d="M65.8018 10.5108L64.5137 10.9814H64.5014C64.4147 11.0186 64.328 10.969 64.2908 10.8823C64.2536 10.7956 64.3032 10.7089 64.3899 10.6718L65.6904 10.1888C65.7771 10.1516 65.8638 10.2011 65.9009 10.2878C65.9381 10.3869 65.9009 10.4736 65.8018 10.5108Z" fill="#79F4C1"/>
<path d="M63.2629 11.5511L62.0615 12.1952H62.0491C61.9748 12.2323 61.8757 12.2076 61.8262 12.1333C61.789 12.0589 61.8138 11.9599 61.8881 11.9103L63.1142 11.2539C63.1886 11.2167 63.2876 11.2415 63.3372 11.3158C63.3867 11.4025 63.362 11.5016 63.2629 11.5511Z" fill="#79F4C1"/>
<path d="M60.8968 12.9262L59.7821 13.7313H59.7698C59.6954 13.7808 59.5964 13.7684 59.5468 13.6941C59.4973 13.6198 59.5097 13.5207 59.584 13.4712L60.711 12.6537C60.7854 12.6042 60.8844 12.6166 60.934 12.6909C60.9959 12.7652 60.9835 12.8643 60.8968 12.9262Z" fill="#79F4C1"/>
<path d="M58.7294 14.5979L57.7261 15.5268L57.7137 15.5392C57.6518 15.6011 57.5527 15.6011 57.4908 15.5268C57.4289 15.4649 57.4289 15.3658 57.5032 15.3039L58.5188 14.3502C58.5807 14.2883 58.6798 14.2883 58.7417 14.3626C58.8161 14.4369 58.8037 14.536 58.7294 14.5979Z" fill="#79F4C1"/>
<path d="M56.785 16.5303L55.8932 17.5706V17.583C55.8313 17.6449 55.7322 17.6573 55.6703 17.5954C55.6084 17.5335 55.596 17.4344 55.6579 17.3725L56.562 16.3197C56.624 16.2578 56.7231 16.2454 56.785 16.3073C56.8345 16.3569 56.8469 16.4559 56.785 16.5303Z" fill="#79F4C1"/>
<path d="M55.0636 18.6604L54.2957 19.7998V19.8122C54.2461 19.8865 54.1471 19.8989 54.0727 19.8494C53.9984 19.7998 53.986 19.7008 54.0356 19.6264L54.8035 18.4746C54.853 18.4003 54.9521 18.3879 55.0264 18.4374C55.1007 18.487 55.1131 18.5861 55.0636 18.6604Z" fill="#79F4C1"/>
<path d="M53.6018 20.9766L52.9826 22.2028V22.2151C52.9454 22.2895 52.8463 22.3266 52.772 22.2895C52.6977 22.2523 52.6605 22.1532 52.6977 22.0789L53.3293 20.8404C53.3665 20.766 53.4656 20.7289 53.5399 20.766C53.6142 20.8032 53.6514 20.9023 53.6018 20.9766Z" fill="#79F4C1"/>
<path d="M52.4503 23.4661L52.0044 24.7542V24.7666C51.9796 24.8409 51.8929 24.8905 51.8062 24.8657C51.7319 24.8409 51.6824 24.7542 51.7071 24.6675L52.1654 23.3547C52.1902 23.268 52.2769 23.2308 52.3636 23.2556C52.4379 23.2927 52.475 23.3794 52.4503 23.4661Z" fill="#79F4C1"/>
<path d="M51.645 26.0793L51.3973 27.4293V27.4417C51.3849 27.5284 51.2982 27.5779 51.2239 27.5655C51.1372 27.5531 51.0876 27.4664 51.1 27.3921L51.3477 26.0173C51.3601 25.9306 51.4468 25.8811 51.5211 25.8935C51.6078 25.9059 51.6574 25.9926 51.645 26.0793Z" fill="#79F4C1"/>
<path d="M51.2613 28.792L51.2489 30.1545V30.1668C51.2489 30.2535 51.1746 30.3155 51.1003 30.3155C51.0136 30.3155 50.9517 30.2411 50.9517 30.1668L50.964 28.7673C50.964 28.6806 51.0384 28.6187 51.1127 28.6187C51.1994 28.6187 51.2613 28.693 51.2613 28.7673V28.792Z" fill="#79F4C1"/>
<path d="M51.3724 31.5167L51.6325 32.8544V32.8667C51.6449 32.9534 51.5953 33.0277 51.5086 33.0401C51.4219 33.0525 51.3476 33.003 51.3352 32.9163L51.0751 31.5415C51.0627 31.4548 51.1123 31.3805 51.199 31.3681C51.2857 31.3557 51.36 31.4053 51.3724 31.4919V31.5167Z" fill="#79F4C1"/>
<path d="M52.0289 34.1672L52.5491 35.4305V35.4429C52.5863 35.5172 52.5491 35.6039 52.4748 35.6411C52.4005 35.6782 52.3138 35.6411 52.2766 35.5668L51.7441 34.2787C51.7069 34.2044 51.7441 34.1177 51.8184 34.0805C51.8927 34.0433 51.9794 34.0805 52.0165 34.1548L52.0289 34.1672Z" fill="#79F4C1"/>
<path d="M53.2057 36.6069C53.4534 36.9785 53.7507 37.3377 54.0603 37.6473C54.1222 37.7092 54.1222 37.7959 54.0603 37.8578C53.9984 37.9198 53.9117 37.9198 53.8498 37.8578C53.5153 37.5234 53.2181 37.1643 52.958 36.7679C52.9085 36.706 52.9332 36.6069 52.9952 36.5574C53.0695 36.5326 53.1685 36.545 53.2057 36.6069Z" fill="#79F4C1"/>
<path d="M55.1254 38.4895C55.5093 38.7249 55.918 38.923 56.3391 39.0716C56.4135 39.0964 56.4506 39.1831 56.4258 39.2574C56.4011 39.3317 56.3144 39.3689 56.2401 39.3441C55.7942 39.1955 55.3607 38.9849 54.9644 38.7372C54.8901 38.7001 54.8777 38.601 54.9148 38.5391C54.9644 38.4648 55.0511 38.4524 55.1254 38.4895Z" fill="#79F4C1"/>
<path d="M57.6522 39.3567C58.098 39.4063 58.5563 39.3939 59.0022 39.3444C59.0765 39.332 59.1508 39.3939 59.1632 39.4682C59.1756 39.5425 59.1136 39.6168 59.0393 39.6292C58.5687 39.6788 58.098 39.6912 57.6274 39.6416C57.5531 39.6292 57.4912 39.5673 57.5035 39.4806C57.5035 39.4063 57.5778 39.3444 57.6522 39.3567Z" fill="#79F4C1"/>
<path d="M60.3272 39.0719C60.7607 38.9357 61.1818 38.7623 61.5781 38.5517C61.6525 38.5146 61.7392 38.5394 61.7763 38.6137C61.8135 38.688 61.7887 38.7747 61.7144 38.8118C61.3057 39.0348 60.8598 39.2082 60.4139 39.3568C60.3396 39.3816 60.2529 39.3444 60.2281 39.2577C60.2034 39.1834 60.2529 39.0967 60.3272 39.0719Z" fill="#79F4C1"/>
<path d="M62.7174 37.8211C63.0766 37.5486 63.411 37.239 63.7207 36.9046C63.7702 36.8426 63.8693 36.8426 63.9188 36.8922C63.9808 36.9417 63.9808 37.0408 63.9312 37.0904C63.6092 37.4371 63.2624 37.7468 62.8908 38.0316C62.8289 38.0812 62.7422 38.0688 62.6927 38.0069C62.6431 37.9573 62.6555 37.8706 62.7174 37.8211Z" fill="#79F4C1"/>
<path d="M64.5505 35.839L64.8973 35.2569C65.0212 35.0711 65.1079 34.8605 65.207 34.65V34.6376C65.2441 34.5633 65.3308 34.5385 65.3927 34.5757C65.4671 34.6128 65.4918 34.6995 65.4547 34.7614C65.3556 34.972 65.2565 35.1826 65.1326 35.3807L64.7735 35.9876C64.7363 36.0495 64.6496 36.0743 64.5753 36.0372C64.5134 36 64.4886 35.9133 64.5258 35.839H64.5505Z" fill="#79F4C1"/>
<path d="M65.6902 33.3747C65.814 32.9412 65.9007 32.4953 65.9503 32.0371C65.9626 31.9627 66.0246 31.9008 66.0989 31.9132C66.1732 31.9256 66.2351 31.9875 66.2227 32.0618C66.1732 32.5325 66.0865 32.9907 65.9626 33.4366C65.9379 33.5109 65.8635 33.5481 65.7892 33.5357C65.7025 33.5357 65.6654 33.449 65.6902 33.3747Z" fill="#79F4C1"/>
<path d="M65.9504 30.6994C65.9133 30.2535 65.8266 29.8077 65.7027 29.3742C65.678 29.2999 65.7275 29.2256 65.8018 29.2008C65.8761 29.176 65.9504 29.2256 65.9752 29.2999C66.1114 29.7457 66.1982 30.2164 66.2353 30.687C66.2477 30.7613 66.1858 30.8357 66.1115 30.8357C66.0248 30.8233 65.9628 30.7737 65.9504 30.6994Z" fill="#79F4C1"/>
<path d="M65.2069 28.1109C64.9964 27.7022 64.7611 27.3182 64.4886 26.959C64.439 26.8971 64.4514 26.8104 64.5133 26.7732C64.5753 26.7237 64.662 26.7361 64.6991 26.798C64.984 27.1696 65.2317 27.5659 65.4423 27.987C65.4794 28.0489 65.4546 28.1356 65.3803 28.1728C65.3184 28.1976 65.2317 28.1728 65.2069 28.1109Z" fill="#79F4C1"/>
<path d="M63.5845 25.931C63.2625 25.609 62.9157 25.3241 62.5441 25.0517C62.4822 25.0021 62.4698 24.9278 62.5193 24.8659C62.5689 24.804 62.6432 24.7916 62.7051 24.8411C63.0767 25.1136 63.4359 25.4232 63.7703 25.7453C63.8198 25.7948 63.8198 25.8815 63.7703 25.931C63.7331 25.993 63.6464 25.993 63.5845 25.931Z" fill="#79F4C1"/>
<path d="M61.4049 24.3207C61.0086 24.0977 60.5999 23.8996 60.1787 23.7262C60.1168 23.7014 60.0797 23.6147 60.1044 23.5528C60.1292 23.4908 60.2159 23.4537 60.2778 23.4785C60.7113 23.6519 61.1324 23.8624 61.5411 24.0854C61.6031 24.1225 61.6278 24.1968 61.5907 24.2711C61.5535 24.3331 61.4668 24.3578 61.4049 24.3207Z" fill="#79F4C1"/>
<path d="M58.8904 23.2803C58.4569 23.1564 57.9987 23.0697 57.5528 22.9582H57.5404C57.4661 22.9459 57.4289 22.8715 57.4413 22.7972C57.4537 22.7229 57.528 22.6858 57.6023 22.6981C58.0482 22.8096 58.5065 22.8963 58.9523 23.0202C59.0266 23.0449 59.0638 23.1193 59.039 23.1812C59.0266 23.2555 58.9523 23.2927 58.8904 23.2803Z" fill="#79F4C1"/>
<path d="M56.2029 22.7352L54.8405 22.599H54.8281C54.7538 22.5866 54.6918 22.5246 54.7042 22.4379C54.7166 22.3636 54.7785 22.3017 54.8652 22.3141L56.2524 22.4503C56.3267 22.4627 56.3886 22.5246 56.3763 22.599C56.3515 22.698 56.2896 22.7476 56.2029 22.7352Z" fill="#79F4C1"/>
<path d="M53.466 22.5622L52.0912 22.5994H52.0788C51.9921 22.5994 51.9302 22.5374 51.9302 22.4507C51.9302 22.364 51.9921 22.3021 52.0788 22.3021L53.466 22.2773C53.5527 22.2773 53.6146 22.3393 53.6146 22.426C53.6146 22.4879 53.5527 22.5622 53.466 22.5622Z" fill="#79F4C1"/>
<path d="M50.7285 22.7106L49.3661 22.8964H49.3537C49.267 22.9088 49.1927 22.8469 49.1803 22.7602C49.1679 22.6735 49.2298 22.5992 49.3165 22.5868L50.6913 22.401C50.778 22.3886 50.8523 22.4505 50.8647 22.5372C50.8771 22.6115 50.8152 22.6982 50.7285 22.7106Z" fill="#79F4C1"/>
<path d="M48.0161 23.1442L46.6785 23.4786H46.6661C46.5794 23.5034 46.4927 23.4415 46.4679 23.3548C46.4431 23.2681 46.5051 23.1814 46.5918 23.1566L47.9418 22.8346C48.0285 22.8098 48.1152 22.8718 48.1399 22.9585C48.1647 23.0452 48.1152 23.1319 48.0161 23.1442Z" fill="#79F4C1"/>
<path d="M45.3655 23.875L44.0774 24.3457H44.065C43.9783 24.3828 43.8792 24.3333 43.8421 24.2466C43.8049 24.1599 43.8545 24.0608 43.9412 24.0237L45.254 23.553C45.3407 23.5159 45.4398 23.5654 45.477 23.6521C45.5141 23.7512 45.4646 23.8379 45.3655 23.875Z" fill="#79F4C1"/>
<path d="M42.8143 24.8905L41.5881 25.4974H41.5757C41.489 25.547 41.3775 25.5098 41.328 25.4107C41.2785 25.324 41.3156 25.2126 41.4147 25.163L42.6656 24.5437C42.7523 24.5066 42.8638 24.5314 42.901 24.6304C42.9505 24.7295 42.9133 24.841 42.8143 24.8905Z" fill="#79F4C1"/>
<path d="M40.4117 26.1785L39.2722 26.934H39.2598C39.1731 26.996 39.0617 26.9712 38.9997 26.8845C38.9378 26.7978 38.9626 26.6863 39.0493 26.6244L40.2135 25.8689C40.3002 25.8069 40.4117 25.8317 40.4736 25.9184C40.5231 26.0051 40.4984 26.1166 40.4117 26.1785Z" fill="#79F4C1"/>
<path d="M38.1696 27.7515L37.1169 28.6308H37.1045C37.0178 28.7051 36.8939 28.6928 36.832 28.6061C36.7577 28.5194 36.7701 28.3955 36.8568 28.3336L37.9343 27.4542C38.021 27.3923 38.1325 27.4047 38.2068 27.479C38.2687 27.5657 38.2563 27.6771 38.1696 27.7515Z" fill="#79F4C1"/>
<path d="M36.0891 29.5476L35.1106 30.5137C35.0239 30.588 34.9001 30.588 34.8258 30.5137C34.7514 30.427 34.7514 30.3031 34.8258 30.2288L35.8166 29.2628C35.8909 29.1885 36.0271 29.1885 36.1015 29.2628C36.1758 29.3371 36.1758 29.4609 36.0891 29.5476Z" fill="#79F4C1"/>
<path d="M34.1691 31.5041L33.2526 32.532C33.1783 32.6187 33.042 32.6311 32.9553 32.5444C32.8686 32.4701 32.8563 32.3339 32.943 32.2472L33.8719 31.2068C33.9462 31.1201 34.0824 31.1077 34.1691 31.1944C34.2434 31.2811 34.2434 31.4174 34.1691 31.5041Z" fill="#79F4C1"/>
<path d="M32.3735 33.5976L31.5313 34.6876C31.457 34.7867 31.3207 34.799 31.2216 34.7247C31.1226 34.6504 31.1102 34.5142 31.1845 34.4151L32.0391 33.3252C32.1134 33.2261 32.2496 33.2137 32.3363 33.288C32.4354 33.3623 32.4602 33.4986 32.3735 33.5976Z" fill="#79F4C1"/>
<path d="M30.7134 35.7899L29.9332 36.9169C29.8588 37.016 29.7226 37.0408 29.6235 36.9789C29.5244 36.9045 29.4997 36.7683 29.5616 36.6692L30.3543 35.5298C30.4286 35.4307 30.5648 35.4059 30.6639 35.4802C30.763 35.5421 30.7878 35.6784 30.7134 35.7899Z" fill="#79F4C1"/>
<path d="M29.1779 38.0688L28.4472 39.233C28.3853 39.3445 28.2367 39.3816 28.1252 39.3073C28.0137 39.2454 27.9766 39.0967 28.0509 38.9853L28.794 37.8087C28.8559 37.6972 29.0046 37.6724 29.116 37.7343C29.2151 37.8087 29.2523 37.9449 29.1779 38.0688Z" fill="#79F4C1"/>
<path d="M27.7536 40.4217L27.0848 41.6231C27.0229 41.7345 26.8742 41.7841 26.7628 41.7222C26.6513 41.6602 26.6018 41.5116 26.6637 41.4001L27.3449 40.1864C27.4068 40.0749 27.5555 40.0377 27.6669 40.0997C27.7784 40.1492 27.8279 40.2978 27.7536 40.4217Z" fill="#79F4C1"/>
<path d="M26.453 42.8371L25.8461 44.0757C25.7841 44.1995 25.6355 44.2491 25.5117 44.1872C25.3878 44.1252 25.3383 43.9766 25.4002 43.8528L26.0195 42.6142C26.0814 42.4904 26.23 42.4408 26.3415 42.5027C26.4653 42.5647 26.5149 42.7133 26.453 42.8371Z" fill="#79F4C1"/>
<path d="M25.2764 45.3266L24.7314 46.5899V46.6023C24.6819 46.7262 24.5208 46.7881 24.397 46.7386C24.2731 46.689 24.2112 46.528 24.2608 46.4041L24.8181 45.1284C24.8676 45.0046 25.0163 44.9427 25.1525 44.9922C25.2764 45.0417 25.3383 45.1904 25.2764 45.3266Z" fill="#79F4C1"/>
<path d="M24.2359 47.8653L23.7652 49.1534V49.1658C23.7157 49.3021 23.567 49.3764 23.4308 49.3268C23.2946 49.2773 23.2203 49.1287 23.2698 48.9924L23.7528 47.6919C23.8024 47.5557 23.951 47.4938 24.0872 47.5433C24.2111 47.5805 24.2854 47.7291 24.2359 47.8653Z" fill="#79F4C1"/>
<path d="M23.3321 50.4667L22.9481 51.7795V51.7919C22.911 51.9405 22.7623 52.0148 22.6137 51.9777C22.4651 51.9405 22.3908 51.7919 22.4279 51.6433L22.8243 50.3056C22.8614 50.1694 23.01 50.0827 23.1587 50.1322C23.2949 50.1694 23.3816 50.318 23.3321 50.4667Z" fill="#79F4C1"/>
<path d="M22.6134 53.1047L22.3285 54.4423V54.4547C22.2913 54.6034 22.1551 54.7024 22.0065 54.6653C21.8579 54.6281 21.7588 54.4919 21.7959 54.3433C21.8826 53.885 21.9941 53.4391 22.0932 52.9809C22.1303 52.8322 22.2666 52.7455 22.4152 52.7703C22.5638 52.7951 22.6505 52.9561 22.6134 53.1047Z" fill="#79F4C1"/>
<path d="M22.1059 55.8048L21.9449 57.1672V57.1796C21.9325 57.3282 21.7963 57.4397 21.6353 57.4149C21.4866 57.4025 21.3752 57.2663 21.3999 57.1176L21.561 55.7305C21.5733 55.5819 21.7096 55.4704 21.8706 55.4952C22.0192 55.5075 22.1307 55.6438 22.1059 55.8048Z" fill="#79F4C1"/>
<path d="M21.858 58.5172L21.8332 59.8796V59.8919C21.8332 60.0406 21.7094 60.1644 21.5608 60.152C21.4121 60.152 21.2883 60.0282 21.3007 59.8796L21.3254 58.48C21.3254 58.3314 21.4493 58.2075 21.5979 58.2075C21.7465 58.2075 21.8704 58.3314 21.8704 58.48L21.858 58.5172Z" fill="#79F4C1"/>
<path d="M21.883 61.254L22.0068 62.6164V62.6288C22.0192 62.7774 21.9078 62.9013 21.7591 62.9261C21.6105 62.9384 21.4867 62.827 21.4619 62.6907L21.3256 61.3036C21.3133 61.1549 21.4247 61.0187 21.5734 61.0063C21.722 60.9939 21.8582 61.1054 21.8706 61.254H21.883Z" fill="#79F4C1"/>
<path d="M22.2173 63.9669L22.5021 65.3045V65.3169C22.5269 65.4655 22.4402 65.6018 22.2916 65.6265C22.1429 65.6513 22.0067 65.5646 21.9819 65.416L21.6971 64.0536C21.6723 63.905 21.759 63.7687 21.9076 63.7439C22.0562 63.7192 22.1925 63.8059 22.2173 63.9545V63.9669Z" fill="#79F4C1"/>
<path d="M22.8489 66.617L23.2824 67.9175V67.9299C23.3319 68.0661 23.2576 68.2147 23.1214 68.2643C22.9851 68.3138 22.8365 68.2395 22.787 68.1033L22.3411 66.778C22.2915 66.6418 22.3659 66.4932 22.5021 66.4436C22.6383 66.3941 22.787 66.4684 22.8365 66.6046L22.8489 66.617Z" fill="#79F4C1"/>
<path d="M23.7778 69.181L24.3476 70.4196V70.432C24.4095 70.5682 24.3476 70.7168 24.2237 70.7788C24.0875 70.8407 23.9388 70.7788 23.8769 70.6549L23.2948 69.3916C23.2329 69.2554 23.2948 69.1067 23.4187 69.0448C23.5549 68.9829 23.7035 69.0448 23.7655 69.1687L23.7778 69.181Z" fill="#79F4C1"/>
<path d="M24.9913 71.6332L25.6849 72.8099L25.6973 72.8223C25.7716 72.9461 25.7345 73.1071 25.6106 73.1691C25.4867 73.2434 25.3257 73.2062 25.2638 73.0824L24.5455 71.881C24.4711 71.7571 24.5083 71.5961 24.6322 71.5218C24.756 71.4598 24.917 71.5094 24.9913 71.6332Z" fill="#79F4C1"/>
<path d="M26.4408 73.9619L27.2459 75.0642L27.2583 75.0766C27.345 75.1881 27.3202 75.3491 27.2087 75.4358C27.0973 75.5225 26.9363 75.4977 26.8496 75.3862L26.0321 74.2591C25.9454 74.1477 25.9702 73.9867 26.0817 73.9C26.1931 73.8133 26.3541 73.838 26.4408 73.9619Z" fill="#79F4C1"/>
<path d="M28.1127 76.1291L29.0168 77.1694L29.0292 77.1818C29.1159 77.2809 29.1035 77.4419 29.0044 77.541C28.9053 77.6277 28.7443 77.6153 28.6452 77.5162L27.7287 76.4635C27.642 76.352 27.642 76.2034 27.7535 76.1043C27.8526 76.0052 28.0136 76.0176 28.1127 76.1291Z" fill="#79F4C1"/>
<path d="M29.9457 78.1729L30.9241 79.139C31.0232 79.2381 31.0232 79.3991 30.9241 79.4858C30.8251 79.5849 30.6641 79.5849 30.5774 79.4858L29.5865 78.5073C29.4874 78.4083 29.4874 78.2472 29.5865 78.1482C29.6856 78.0615 29.8342 78.0615 29.9457 78.1729Z" fill="#79F4C1"/>
<path d="M31.9274 80.0675L32.9678 80.9716C33.0669 81.0583 33.0793 81.2193 32.9926 81.3184C32.9059 81.4175 32.7449 81.4299 32.6458 81.3432L31.593 80.439C31.4939 80.3523 31.4815 80.1913 31.5682 80.0922C31.6549 79.9932 31.8159 79.9684 31.9274 80.0675Z" fill="#79F4C1"/>
<path d="M34.0205 81.8386L35.1104 82.6808C35.2218 82.7675 35.2342 82.9162 35.1475 83.0276C35.0608 83.1391 34.9122 83.1515 34.8007 83.0648L33.6984 82.2102C33.587 82.1235 33.5746 81.9749 33.6489 81.8634C33.748 81.7767 33.909 81.7519 34.0205 81.8386Z" fill="#79F4C1"/>
<path d="M36.213 83.4985L37.3401 84.2912C37.4515 84.3655 37.4763 84.5141 37.402 84.6256C37.3277 84.7371 37.1791 84.7619 37.0676 84.6875L35.9281 83.8949C35.8167 83.8206 35.7919 83.6719 35.8662 83.5605C35.9529 83.449 36.1015 83.4242 36.213 83.4985Z" fill="#79F4C1"/>
<path d="M38.4794 85.0589L39.6312 85.8144C39.7427 85.8887 39.7675 86.0373 39.7056 86.1488C39.6312 86.2603 39.4826 86.285 39.3712 86.2231L38.2193 85.4676C38.1078 85.3933 38.0831 85.2447 38.145 85.1332C38.2193 85.0093 38.3679 84.9846 38.4794 85.0589Z" fill="#79F4C1"/>
<path d="M40.7953 86.5703L41.9472 87.3258C42.0586 87.4001 42.0834 87.5363 42.0215 87.6478C41.9472 87.7593 41.8109 87.7841 41.6995 87.7221L40.5352 86.9666C40.4238 86.8923 40.399 86.7437 40.4609 86.6446C40.5352 86.5331 40.6838 86.5084 40.7953 86.5703Z" fill="#79F4C1"/>
<path d="M43.099 88.0811L44.2509 88.8366C44.3623 88.911 44.3871 89.0472 44.3128 89.1587C44.2385 89.2701 44.1023 89.2949 43.9908 89.2206L42.8389 88.4651C42.7275 88.3908 42.7027 88.2545 42.7646 88.1431C42.8513 88.044 42.9999 88.0192 43.099 88.0811Z" fill="#79F4C1"/>
<path d="M45.4153 89.6048L46.5671 90.3727C46.6786 90.447 46.7034 90.5832 46.6291 90.6947C46.5547 90.8062 46.4185 90.831 46.307 90.7566L45.1552 90.0011C45.0437 89.9268 45.0189 89.7906 45.0933 89.6791C45.1676 89.5553 45.3038 89.5305 45.4153 89.6048Z" fill="#79F4C1"/>
<path d="M47.719 91.128L48.8584 91.9083C48.9575 91.9826 48.9947 92.1188 48.9204 92.2179C48.8461 92.317 48.7098 92.3542 48.6107 92.2799L47.4713 91.5119C47.3722 91.4376 47.335 91.3014 47.4093 91.1899C47.4713 91.0908 47.6075 91.0661 47.719 91.128Z" fill="#79F4C1"/>
<path d="M49.9979 92.6885L51.1249 93.4812C51.224 93.5555 51.2488 93.6918 51.1745 93.7909C51.1002 93.8899 50.9639 93.9147 50.8649 93.8404L49.7378 93.0601C49.6387 92.9858 49.6139 92.8496 49.6882 92.7505C49.7502 92.6514 49.8864 92.6266 49.9979 92.6885Z" fill="#79F4C1"/>
<path d="M52.2518 94.2986L53.3665 95.116C53.4655 95.1903 53.4903 95.3266 53.416 95.4257C53.3417 95.5247 53.2055 95.5495 53.1064 95.4752L51.9917 94.6578C51.8926 94.5834 51.8678 94.4472 51.9421 94.3481C52.0041 94.249 52.1527 94.2243 52.2518 94.2986Z" fill="#79F4C1"/>
<path d="M54.4565 95.9585L55.5465 96.8131C55.6455 96.8874 55.6579 97.0236 55.5836 97.1227C55.5093 97.2218 55.3731 97.2342 55.274 97.1598L54.184 96.3176C54.085 96.2433 54.0726 96.1071 54.1469 96.008C54.2212 95.8965 54.3698 95.8841 54.4565 95.9585Z" fill="#79F4C1"/>
<path d="M56.6238 97.6801L57.689 98.5595C57.7757 98.6338 57.8005 98.77 57.7138 98.8691C57.6394 98.9558 57.5032 98.9806 57.4041 98.8939L56.339 98.0269C56.2523 97.9526 56.2275 97.8163 56.3142 97.7173C56.4009 97.6182 56.5371 97.6058 56.6238 97.6801Z" fill="#79F4C1"/>
<path d="M58.7542 99.451L59.7946 100.355C59.8813 100.43 59.8937 100.566 59.8194 100.652C59.7451 100.739 59.6088 100.752 59.5221 100.677L58.4818 99.7731C58.3951 99.6988 58.3827 99.5625 58.457 99.4758C58.5313 99.3767 58.6675 99.3643 58.7542 99.451Z" fill="#79F4C1"/>
<path d="M60.8227 101.284L61.8259 102.238C61.9126 102.312 61.9126 102.448 61.8383 102.535C61.764 102.622 61.6278 102.622 61.5411 102.547L60.5379 101.606C60.4512 101.532 60.4512 101.395 60.5255 101.309C60.5998 101.21 60.736 101.21 60.8227 101.284Z" fill="#79F4C1"/>
<path d="M62.8167 103.216L63.7827 104.22C63.8571 104.306 63.8571 104.43 63.7827 104.517C63.696 104.591 63.5722 104.591 63.4855 104.517L62.5318 103.526C62.4575 103.439 62.4575 103.315 62.5318 103.229C62.6061 103.13 62.7424 103.13 62.8167 103.216Z" fill="#79F4C1"/>
<path d="M64.7118 105.235L65.6159 106.288C65.6902 106.375 65.6778 106.498 65.5911 106.573C65.5044 106.647 65.3806 106.635 65.3063 106.548L64.4145 105.508C64.3402 105.421 64.3526 105.285 64.4393 105.223C64.5012 105.136 64.6375 105.148 64.7118 105.235Z" fill="#79F4C1"/>
<path d="M66.4707 107.39L67.2882 108.517C67.3501 108.604 67.3377 108.74 67.2386 108.802C67.1519 108.864 67.0157 108.852 66.9537 108.752V108.74L66.1487 107.625V107.613C66.0868 107.526 66.0992 107.39 66.1982 107.328C66.2725 107.279 66.4088 107.291 66.4707 107.39Z" fill="#79F4C1"/>
<path d="M68.0556 109.669L68.774 110.858C68.8359 110.957 68.7987 111.081 68.6996 111.131C68.6006 111.192 68.4767 111.155 68.4272 111.056V111.044L67.7212 109.867V109.855C67.6593 109.756 67.6964 109.632 67.7955 109.582C67.8698 109.545 67.9937 109.57 68.0556 109.669Z" fill="#79F4C1"/>
<path d="M69.4182 112.097L70.0003 113.36C70.0498 113.459 70.0003 113.571 69.9012 113.62C69.8021 113.67 69.6906 113.62 69.6411 113.521V113.509L69.059 112.27V112.258C69.0094 112.159 69.059 112.035 69.1581 111.998C69.2572 111.948 69.3686 111.985 69.4182 112.097Z" fill="#79F4C1"/>
<path d="M70.5205 114.648L70.954 115.973C70.9911 116.072 70.9292 116.171 70.8301 116.209C70.731 116.246 70.6319 116.184 70.5948 116.085V116.072L70.1613 114.772V114.759C70.1241 114.66 70.1861 114.549 70.2851 114.524C70.3718 114.487 70.4833 114.549 70.5205 114.648Z" fill="#79F4C1"/>
<path d="M71.3008 117.323L71.5609 118.686C71.5857 118.785 71.5114 118.871 71.4247 118.896C71.3256 118.921 71.2389 118.847 71.2141 118.76V118.748L70.954 117.41V117.398C70.9292 117.299 71.0036 117.199 71.1026 117.187C71.177 117.15 71.276 117.212 71.3008 117.323Z" fill="#79F4C1"/>
<path d="M71.7344 120.06L71.8211 121.448C71.8211 121.547 71.7591 121.621 71.6601 121.633C71.561 121.633 71.4867 121.571 71.4743 121.472V121.46L71.3876 120.098V120.085C71.3752 119.986 71.4495 119.899 71.5486 119.899C71.6477 119.899 71.722 119.974 71.7344 120.06Z" fill="#79F4C1"/>
<path d="M71.8087 122.847L71.7096 124.235C71.6972 124.321 71.6229 124.396 71.5362 124.383C71.4495 124.371 71.3752 124.297 71.3876 124.21V124.197L71.4743 122.835V122.823C71.4867 122.736 71.561 122.662 71.6477 122.662C71.7468 122.674 71.8087 122.761 71.8087 122.847Z" fill="#79F4C1"/>
<path d="M71.5361 125.609L71.3132 126.984C71.3008 127.07 71.2141 127.132 71.1274 127.108C71.0407 127.095 70.9788 127.008 71.0036 126.934V126.922L71.2141 125.559V125.547C71.2265 125.46 71.3132 125.398 71.3999 125.411C71.499 125.436 71.5485 125.522 71.5361 125.609Z" fill="#79F4C1"/>
<path d="M71.0283 128.334L70.6815 129.672C70.6567 129.746 70.5824 129.795 70.4957 129.783C70.4214 129.758 70.3718 129.684 70.3842 129.597V129.585L70.731 128.26V128.247C70.7558 128.161 70.8301 128.111 70.9168 128.136C71.0035 128.173 71.053 128.26 71.0283 128.334Z" fill="#79F4C1"/>
<path d="M70.248 131.009L69.7278 132.297C69.703 132.372 69.6163 132.409 69.542 132.372C69.4677 132.347 69.4305 132.26 69.4677 132.186V132.173L69.9755 130.898V130.885C70.0003 130.811 70.087 130.774 70.1613 130.799C70.2356 130.848 70.2728 130.935 70.248 131.009Z" fill="#79F4C1"/>
<path d="M69.0838 133.536C68.8484 133.932 68.5883 134.328 68.2911 134.688C68.2415 134.75 68.1548 134.75 68.1053 134.712C68.0434 134.663 68.0434 134.576 68.0805 134.527C68.3654 134.18 68.6131 133.796 68.8484 133.4C68.8856 133.338 68.9723 133.313 69.0342 133.35C69.0961 133.387 69.1209 133.474 69.0838 133.536Z" fill="#79F4C1"/>
<path d="M67.288 135.678C66.9164 135.976 66.5077 136.211 66.0618 136.384C65.9999 136.409 65.9256 136.372 65.9008 136.31C65.8761 136.248 65.9132 136.174 65.9751 136.149C66.3962 135.988 66.7802 135.765 67.1394 135.48C67.2013 135.431 67.2756 135.443 67.3252 135.505C67.3499 135.555 67.3375 135.629 67.288 135.678Z" fill="#79F4C1"/>
<path d="M147.633 148.748C147.633 148.748 145.911 144.215 143.892 144.624C141.886 145.045 139.681 146.581 139.681 146.581L136.449 150.953C136.449 150.953 145.527 154.532 148.71 152.476C148.71 152.476 157.975 154.074 169.679 152.154C167.982 148.575 166.979 144.996 166.384 142.221C160.464 145.59 154.086 148.092 147.633 148.748Z" fill="#B07968"/>
<path d="M196.729 115.853C196.729 115.853 183.464 132.573 166.397 142.221C166.991 144.996 167.995 148.587 169.692 152.154C178.547 150.705 188.79 147.237 197.472 139.534L196.729 115.853Z" fill="#15C87D"/>
<path d="M97.2734 118.069L98.1033 140.202C100.444 141.007 102.674 141.639 104.791 142.097C106.117 137.824 109.04 132.585 111.43 128.684C102.636 125.575 97.2734 118.069 97.2734 118.069Z" fill="#43E5A1"/>
<path d="M141.155 117.686C129.091 130.703 119.332 131.471 111.417 128.671C109.027 132.573 106.104 137.812 104.779 142.085C136.981 149.182 144.561 119.581 144.561 119.581L141.155 117.686Z" fill="#FFC5B8"/>
<path d="M143.607 116.31C143.607 116.31 144.995 114.824 147.571 115.282C150.147 115.753 152.426 116.645 154.036 115.282C155.634 113.92 156.203 115.753 156.203 115.753L151.41 119.394L143.607 116.31Z" fill="#FFC5B8"/>
<path d="M140.734 118.862C140.734 118.862 141.688 114.886 144.549 115.431C147.422 115.976 153.924 119.518 155.609 118.862C157.281 118.206 159.436 116.645 160.538 117.202L158.594 119.617C158.594 119.617 163.585 116.744 164.44 118.503L156.141 123.172C156.154 123.16 144.016 121.946 140.734 118.862Z" fill="#FFC5B8"/>
<path d="M81.4075 113.982C81.4075 113.982 89.7925 108.446 100.246 119.172C110.699 129.898 107.33 141.032 98.5614 151.473C90.0115 161.653 81.3086 179.628 82.8423 190.198H55.4762C55.1182 183.125 53.468 130.997 81.4075 113.982Z" fill="#43E5A1"/>
<path d="M96.518 97.98C96.5056 98.686 86.5229 112.867 86.5229 112.867C86.5229 112.867 88.3188 116.397 96.8772 119.271L104.271 104.086L96.518 97.98Z" fill="#FFC5B8"/>
<path d="M92.5918 146.692C92.5918 146.692 111.542 162.558 132.002 155.635C133.266 155.201 134.665 155.3 135.842 155.919L141.725 159.028C144.19 160.329 147.249 159.474 148.686 157.084C149.503 155.721 150.197 154.161 150.345 152.662L138.839 148.005L139.694 146.593C139.694 146.593 134.071 146.122 132.597 150.148C132.597 150.148 121.896 154.607 103.838 134.74C103.838 134.74 95.6386 141.701 92.5918 146.692Z" fill="#FFC5B8"/>
<path d="M91.5759 146.618C91.4892 146.618 91.4149 146.593 91.3406 146.543C83.3396 141.131 79.5744 132.412 79.5372 132.325C79.4505 132.114 79.5496 131.867 79.7602 131.78C79.9707 131.693 80.2184 131.792 80.3051 132.003C80.3423 132.09 84.0208 140.598 91.8112 145.862C91.997 145.986 92.0589 146.259 91.9227 146.444C91.836 146.556 91.7121 146.618 91.5759 146.618Z" fill="#79F4C1"/>
<path d="M103.454 134.567C103.318 134.567 103.181 134.505 103.107 134.369C103.082 134.331 100.642 130.529 95.9979 122.218C94.5859 119.692 92.7281 118.082 90.474 117.45C86.7459 116.41 83.1542 118.404 83.117 118.428C82.9188 118.54 82.6587 118.478 82.5473 118.267C82.4358 118.069 82.4977 117.809 82.7083 117.698C82.8693 117.611 86.6345 115.505 90.6969 116.645C93.174 117.339 95.2052 119.072 96.7286 121.81C101.361 130.096 103.788 133.873 103.813 133.91C103.937 134.108 103.887 134.369 103.689 134.492C103.615 134.542 103.541 134.567 103.454 134.567Z" fill="#79F4C1"/>
<path d="M104.383 89.8555C104.383 89.8555 107.938 98.0175 108.173 102.303C108.408 106.588 109.337 109.363 104.383 110.23C99.4287 111.097 95.2548 108.619 92.9883 104.359C92.9883 104.359 89.446 97.7822 90.2387 95.0821C91.0437 92.3945 104.383 89.8555 104.383 89.8555Z" fill="#FFC5B8"/>
<path d="M94.6849 101.287L94.9697 101.163C95.3289 101.002 95.4775 100.581 95.3041 100.234C94.6106 98.8843 93.2482 95.7879 95.0069 95.0695C97.2734 94.1406 106.253 92.3076 108.197 89.1245C110.055 86.0653 108.408 82.1019 105.931 80.9873C105.77 80.9129 105.572 80.9749 105.485 81.1359L105.274 81.5322C105.138 81.8047 104.742 81.7552 104.655 81.4703C104.568 81.1854 104.197 81.1359 104.048 81.3836C103.454 82.3373 101.844 83.8855 97.5459 84.6781C91.4275 85.8052 87.3898 88.2823 87.2907 92.5057C87.2784 92.7782 86.9935 92.9268 86.7706 92.7782C86.3247 92.5057 85.5939 92.3695 84.6279 93.1869C82.9434 94.5989 83.637 98.265 87.3155 101.275C87.4889 101.423 87.4889 101.696 87.3031 101.82C86.6343 102.253 85.6435 103.293 88.2197 104.668C90.8825 106.093 92.8766 105.981 93.6445 105.845C93.8303 105.808 93.9541 105.634 93.917 105.436L93.0995 101.721C93.05 101.51 93.211 101.312 93.4339 101.312H94.6849V101.287Z" fill="#E51818"/>
<path d="M94.846 102.067C94.846 102.067 93.496 96.8531 91.1551 98.3146C88.8143 99.7761 92.3689 104.161 94.2515 104.359L94.846 102.067Z" fill="#FFC5B8"/>
<path d="M135.854 155.932C135.854 155.932 140.672 160.638 141.601 159.957C141.935 159.709 142.765 158.83 143.57 157.839C144.14 157.145 144.202 156.155 143.706 155.399L142.567 153.64C141.489 151.968 139.173 151.621 137.662 152.922C136.919 153.591 136.226 154.544 135.854 155.932Z" fill="#B07968"/>
<path d="M211.802 190.277C211.802 190.277 211.703 168.961 199.404 147.113C195.552 140.276 194.19 132.325 195.391 124.572L196.741 115.865C196.741 115.865 213.635 110.155 232.349 115.629C232.349 115.629 257.812 136.646 241.446 190.277H211.802Z" fill="#15C87D"/>
<path d="M199.602 104.742L203.987 115.258C204.259 115.927 204.866 116.397 205.572 116.521C208.098 116.955 214.205 117.636 218.217 114.998C218.7 114.688 218.812 114.032 218.49 113.561L210.402 101.943L199.602 104.742Z" fill="#B07968"/>
<path d="M210.402 154.185C209.795 154.346 209.498 155.027 209.783 155.572L222.453 179.86C222.664 180.269 223.134 180.467 223.58 180.343L265.022 168.379C265.542 168.23 265.839 167.685 265.691 167.177L258.557 142.468C258.408 141.961 257.888 141.663 257.38 141.8L210.402 154.185Z" fill="#43E5A1"/>
<path d="M213.078 151.324C212.483 151.46 212.149 152.092 212.359 152.662L222.503 180.207C222.689 180.703 223.234 180.987 223.741 180.839L265.059 168.912C265.58 168.763 265.889 168.243 265.778 167.723L260.056 141.205C259.932 140.648 259.374 140.301 258.829 140.425L213.078 151.324Z" fill="#79F4C1"/>
<path d="M216.681 148.55C215.963 148.661 215.48 149.367 215.641 150.073L222.527 179.811C222.688 180.517 223.407 180.938 224.1 180.74L264.786 168.986C265.443 168.8 265.827 168.119 265.653 167.462L259.399 143.187C259.238 142.568 258.631 142.159 257.987 142.258L216.681 148.55Z" fill="#09985C"/>
<path d="M249.615 159.883C252.773 136.028 234.393 117.686 234.393 117.686L223.457 130.443C231.755 140.797 235.706 150.284 237.514 157.728C239.892 157.034 245.651 155.932 249.615 159.883Z" fill="#15C87D"/>
<path d="M237.502 158C237.378 158 237.266 157.913 237.229 157.789C234.987 148.55 230.281 139.409 223.233 130.616C223.134 130.492 223.159 130.318 223.271 130.219C223.394 130.12 223.568 130.145 223.667 130.256C230.776 139.112 235.52 148.327 237.774 157.653C237.811 157.802 237.724 157.95 237.563 157.988C237.551 158 237.526 158 237.502 158Z" fill="#43E5A1"/>
<path d="M237.501 157.728C239.173 164.651 239 169.816 238.752 172.281C238.653 173.209 237.91 173.94 236.981 174.002C235.916 174.076 234.479 174.176 233.191 174.25C231.779 174.337 230.206 173.432 229.154 172.689C228.621 172.305 227.927 172.9 228.225 173.494C229.005 175.03 230.999 176.393 232.374 177.198C232.869 177.495 232.783 178.238 232.225 178.399L226.354 180.059C236.003 189.137 242.369 178.981 242.369 178.981C246.63 172.404 248.822 165.976 249.627 159.895C245.651 155.932 239.892 157.034 237.501 157.728Z" fill="#B07968"/>
<path d="M204.135 88.6414C203.95 88.8148 196.37 103.69 196.37 103.69L204.953 107.839L214.229 94.797C214.242 94.8094 207.219 85.7432 204.135 88.6414Z" fill="#B07968"/>
<path d="M210.341 96.3699L206.055 103.516C205.993 103.628 205.919 103.727 205.82 103.814C205.312 104.284 203.566 105.671 202.216 103.789C201.064 102.191 199.986 100.73 198.834 100.135C198.166 99.7883 197.323 100.061 196.989 100.742C196.283 102.142 194.921 104.99 194.054 107.69C193.843 108.371 194.19 109.09 194.846 109.362C196.58 110.068 200.023 111.344 203.07 111.765C203.566 111.839 204.073 111.629 204.371 111.22C205.684 109.424 209.387 104.396 210.638 103.145C211.814 101.981 213.969 102.414 214.948 102.699C215.319 102.81 215.716 102.748 216.038 102.55C217.029 101.956 218.75 100.47 217.177 97.9553C216.781 97.336 216.979 96.4938 217.598 96.0975C218.701 95.3667 219.902 94.0043 218.763 91.7997C217.611 89.5579 215.542 89.3598 214.13 89.5332C213.511 89.6075 212.88 89.2855 212.632 88.7033C212.52 88.4432 212.31 88.2203 211.926 88.146C211.183 87.9974 210.7 87.3285 210.848 86.5854C211.096 85.3221 210.91 83.6748 208.891 82.5601C205.188 80.5165 201.943 83.8482 201.113 86.6473C200.284 89.4465 204.433 91.4281 207.034 91.7625C208.953 92.0103 209.994 94.091 210.415 95.1809C210.588 95.5649 210.551 96.0108 210.341 96.3699Z" fill="#04663D"/>
<path d="M209.028 105.746C209.028 105.746 210.675 100.928 212.781 101.101C214.886 101.275 216.546 103.38 213.932 105.746C210.687 108.681 209.028 105.746 209.028 105.746Z" fill="#B07968"/>
<path d="M47.0971 78.2967C54.17 78.2967 59.9037 72.563 59.9037 65.4902C59.9037 58.4173 54.17 52.6836 47.0971 52.6836C40.0242 52.6836 34.2905 58.4173 34.2905 65.4902C34.2905 72.563 40.0242 78.2967 47.0971 78.2967Z" fill="#EAB700"/>
<path d="M47.0972 77.8633C53.9307 77.8633 59.4703 72.3237 59.4703 65.4903C59.4703 58.6568 53.9307 53.1172 47.0972 53.1172C40.2637 53.1172 34.7241 58.6568 34.7241 65.4903C34.7241 72.3237 40.2637 77.8633 47.0972 77.8633Z" fill="#272727" fill-opacity="0.1"/>
<path opacity="0.6" d="M36.8913 60.6224C36.8541 60.6224 36.8046 60.61 36.7674 60.5977C36.6312 60.5233 36.5816 60.3623 36.6435 60.2261C38.65 56.2504 42.6505 53.7856 47.0969 53.7856C47.8029 53.7856 48.5212 53.8476 49.2024 53.9714C49.351 53.9962 49.4501 54.1448 49.4254 54.2935C49.4006 54.4421 49.252 54.5412 49.1033 54.5164C48.4469 54.3925 47.7657 54.3306 47.0969 54.3306C42.8611 54.3306 39.0463 56.6838 37.139 60.4614C37.0894 60.5605 36.9903 60.6224 36.8913 60.6224Z" fill="#EAB700"/>
<path d="M47.3697 76.2282C53.1566 76.2282 57.8478 71.537 57.8478 65.7501C57.8478 59.9632 53.1566 55.272 47.3697 55.272C41.5828 55.272 36.8916 59.9632 36.8916 65.7501C36.8916 71.537 41.5828 76.2282 47.3697 76.2282Z" fill="#EAB700"/>
<path d="M46.3416 73.5406V72.4011C45.1526 72.3516 43.976 72.0791 43.1462 71.7075C42.8489 71.5713 42.7003 71.2369 42.787 70.9272L43.0718 69.8621C43.1833 69.4782 43.6044 69.2676 43.976 69.4286C44.8058 69.7754 45.8214 70.0479 46.9237 70.0479C48.0632 70.0479 48.9178 69.6639 48.9178 68.8589C48.9178 68.1405 48.2614 67.7194 46.6636 67.2859C44.3971 66.6666 42.7622 65.6758 42.7622 63.6817C42.7622 61.8735 44.0874 60.4987 46.3664 60.1271V58.9877C46.3664 58.6161 46.6636 58.3188 47.0352 58.3188H47.704C48.0756 58.3188 48.3728 58.6161 48.3728 58.9877V60.0157C49.4751 60.0652 50.2678 60.251 50.9118 60.4739C51.2339 60.5854 51.4196 60.9446 51.3206 61.2666L51.0481 62.245C50.949 62.629 50.5403 62.8272 50.1687 62.6909C49.5866 62.468 48.7568 62.245 47.6792 62.245C46.3168 62.245 45.9329 62.8024 45.9329 63.3102C45.9329 63.9295 46.7503 64.363 48.5091 64.8955C51.0357 65.651 52.0761 66.7038 52.0761 68.5864C52.0761 70.308 50.8004 71.8686 48.3109 72.2525V73.5282C48.3109 73.8998 48.0136 74.197 47.6421 74.197H46.9733C46.6389 74.2094 46.3416 73.9121 46.3416 73.5406Z" fill="#FAFAFA"/>
<path d="M55.9277 107.266C63.2057 107.266 69.1058 101.366 69.1058 94.0883C69.1058 86.8102 63.2057 80.9102 55.9277 80.9102C48.6496 80.9102 42.7495 86.8102 42.7495 94.0883C42.7495 101.366 48.6496 107.266 55.9277 107.266Z" fill="#EAB700"/>
<path d="M55.9276 106.82C62.9594 106.82 68.6598 101.12 68.6598 94.0882C68.6598 87.0564 62.9594 81.356 55.9276 81.356C48.8957 81.356 43.1953 87.0564 43.1953 94.0882C43.1953 101.12 48.8957 106.82 55.9276 106.82Z" fill="#272727" fill-opacity="0.1"/>
<path opacity="0.6" d="M45.4249 89.0722C45.3878 89.0722 45.3383 89.0598 45.3011 89.0474C45.1649 88.9731 45.1153 88.8121 45.1772 88.6759C47.2332 84.5887 51.3576 82.062 55.9278 82.062C56.6586 82.062 57.3893 82.1239 58.0953 82.2602C58.2439 82.2849 58.343 82.4336 58.3182 82.5822C58.2934 82.7308 58.1448 82.8299 57.9962 82.8051C57.315 82.6813 56.6214 82.6194 55.9278 82.6194C51.5681 82.6194 47.6419 85.0345 45.6727 88.936C45.6231 89.0103 45.524 89.0722 45.4249 89.0722Z" fill="#EAB700"/>
<path d="M66.6891 96.8447C68.0566 91.0531 64.4703 85.2495 58.6787 83.8819C52.8871 82.5144 47.0835 86.1007 45.7159 91.8923C44.3484 97.6839 47.9347 103.488 53.7263 104.855C59.5179 106.223 65.3215 102.636 66.6891 96.8447Z" fill="#EAB700"/>
<path d="M55.1476 102.374V101.197C53.9214 101.148 52.72 100.863 51.853 100.479C51.5434 100.343 51.3948 99.996 51.4815 99.674L51.7787 98.584C51.8902 98.1877 52.3237 97.9772 52.7076 98.1382C53.5622 98.4973 54.615 98.7822 55.7421 98.7822C56.9187 98.7822 57.7981 98.3859 57.7981 97.5684C57.7981 96.8253 57.1169 96.3918 55.482 95.9459C53.1411 95.3019 51.4691 94.2863 51.4691 92.2303C51.4691 90.3725 52.8315 88.9605 55.1847 88.5766V87.4C55.1847 87.0284 55.4944 86.7188 55.8659 86.7188H56.5595C56.9311 86.7188 57.2407 87.0284 57.2407 87.4V88.4527C58.3678 88.5023 59.1976 88.688 59.8541 88.9234C60.1885 89.0348 60.3742 89.4064 60.2752 89.7408L60.0027 90.7564C59.8912 91.1404 59.4825 91.3633 59.0985 91.2147C58.4916 90.9917 57.6494 90.744 56.5347 90.744C55.1352 90.744 54.7389 91.3261 54.7389 91.8463C54.7389 92.4904 55.5811 92.9239 57.3893 93.4812C59.9903 94.2615 61.0678 95.339 61.0678 97.2712C61.0678 99.0423 59.755 100.64 57.1912 101.049V102.362C57.1912 102.733 56.8815 103.043 56.51 103.043H55.8164C55.4572 103.055 55.1476 102.758 55.1476 102.374Z" fill="#FAFAFA"/>
<path d="M72.8343 85.7897C78.1629 85.7897 82.4826 81.47 82.4826 76.1414C82.4826 70.8128 78.1629 66.4932 72.8343 66.4932C67.5057 66.4932 63.186 70.8128 63.186 76.1414C63.186 81.47 67.5057 85.7897 72.8343 85.7897Z" fill="#EAB700"/>
<path d="M72.8343 85.48C77.9918 85.48 82.1729 81.299 82.1729 76.1414C82.1729 70.9838 77.9918 66.8027 72.8343 66.8027C67.6767 66.8027 63.4956 70.9838 63.4956 76.1414C63.4956 81.299 67.6767 85.48 72.8343 85.48Z" fill="#272727" fill-opacity="0.1"/>
<path opacity="0.6" d="M65.1427 72.5371C65.1056 72.5371 65.056 72.5247 65.0189 72.5124C64.8826 72.438 64.8331 72.277 64.895 72.1408C66.4184 69.1187 69.4652 67.2485 72.8341 67.2485C73.3791 67.2485 73.9116 67.2981 74.4318 67.3972C74.5804 67.4219 74.6795 67.5705 74.6548 67.7192C74.63 67.8678 74.4814 67.9669 74.3327 67.9421C73.8373 67.8554 73.3295 67.8059 72.8341 67.8059C69.6634 67.8059 66.8148 69.5646 65.3904 72.3885C65.3409 72.4752 65.2418 72.5371 65.1427 72.5371Z" fill="#EAB700"/>
<path d="M75.6449 83.7936C79.7628 82.349 81.9301 77.8397 80.4856 73.7218C79.0411 69.6038 74.5318 67.4365 70.4138 68.881C66.2958 70.3256 64.1285 74.8349 65.5731 78.9528C67.0176 83.0708 71.5269 85.2381 75.6449 83.7936Z" fill="#EAB700"/>
<path d="M72.2642 82.2103V81.3557C71.3724 81.3185 70.4807 81.108 69.849 80.8355C69.6261 80.7364 69.5146 80.4887 69.5765 80.2534L69.7995 79.4483C69.8738 79.1511 70.1958 79.0025 70.4807 79.1263C71.0999 79.3864 71.8802 79.5969 72.7101 79.5969C73.577 79.5969 74.2211 79.2997 74.2211 78.7052C74.2211 78.1602 73.7257 77.8382 72.5243 77.5162C70.8151 77.0455 69.5889 76.3024 69.5889 74.7914C69.5889 73.429 70.5797 72.3886 72.3137 72.1161V71.2615C72.3137 70.9891 72.5367 70.7661 72.8091 70.7661H73.3169C73.5894 70.7661 73.8124 70.9891 73.8124 71.2615V72.0294C74.6422 72.0666 75.2491 72.2028 75.7197 72.3762C75.9674 72.4629 76.1037 72.723 76.0294 72.9831L75.8312 73.7262C75.7569 74.0111 75.4472 74.1721 75.1748 74.0606C74.7289 73.8996 74.1096 73.7262 73.3046 73.7262C72.2766 73.7262 71.9917 74.1473 71.9917 74.5313C71.9917 75.0019 72.611 75.324 73.9362 75.7327C75.8436 76.3024 76.6239 77.0951 76.6239 78.507C76.6239 79.8075 75.6578 80.9841 73.7876 81.269V82.2351C73.7876 82.5075 73.5646 82.7305 73.2922 82.7305H72.7844C72.4871 82.7181 72.2642 82.4828 72.2642 82.2103Z" fill="#FAFAFA"/>
<path d="M223.563 106.096C222.932 105.873 223.018 104.944 223.687 104.858C226.734 104.461 231.193 103.272 232.654 99.6928C234.945 94.0822 230.202 72.4819 252.013 68.6177C272.139 65.0507 283.348 71.4168 283.088 90.0198C282.852 108.041 253.883 116.488 223.563 106.096Z" fill="#15C87D"/>
<path d="M241.052 86.1304H239.095V101.402H241.052V86.1304Z" fill="#FAFAFA"/>
<path d="M244.321 91.3818H242.364V101.402H244.321V91.3818Z" fill="#FAFAFA"/>
<path d="M247.579 78.4019H245.622V101.402H247.579V78.4019Z" fill="#FAFAFA"/>
<path d="M250.836 95.8779H248.879V101.402H250.836V95.8779Z" fill="#FAFAFA"/>
<path d="M254.106 81.4736H252.149V101.402H254.106V81.4736Z" fill="#FAFAFA"/>
<path d="M257.363 84.9292H255.406V101.402H257.363V84.9292Z" fill="#FAFAFA"/>
<path d="M260.62 88.6821H258.664V101.402H260.62V88.6821Z" fill="#FAFAFA"/>
<path d="M263.89 73.7451H261.934V101.402H263.89V73.7451Z" fill="#FAFAFA"/>
<path d="M267.148 76.6807H265.191V101.402H267.148V76.6807Z" fill="#FAFAFA"/>
<path d="M270.418 81.1021H268.461V101.402H270.418V81.1021Z" fill="#FAFAFA"/>
<path d="M273.675 96.3857H271.718V101.402H273.675V96.3857Z" fill="#FAFAFA"/>
</svg>
