<svg width="24" height="24" viewBox="0 0 24 24" fill="none" xmlns="http://www.w3.org/2000/svg">
<g id="bill">
<g id="shape">
<path fill-rule="evenodd" clip-rule="evenodd" d="M8.5 12C8.5 10.067 10.067 8.5 12 8.5C13.933 8.5 15.5 10.067 15.5 12C15.5 13.933 13.933 15.5 12 15.5C10.067 15.5 8.5 13.933 8.5 12ZM9.5 12C9.5 10.6193 10.6193 9.5 12 9.5C13.3807 9.5 14.5 10.6193 14.5 12C14.5 13.3807 13.3807 14.5 12 14.5C10.6193 14.5 9.5 13.3807 9.5 12Z" fill="#636A74"/>
<path fill-rule="evenodd" clip-rule="evenodd" d="M3 6.5C3 6.22386 3.22386 6 3.5 6L20.5 6C20.7761 6 21 6.22386 21 6.5L21 17.5C21 17.7761 20.7761 18 20.5 18L3.5 18C3.22386 18 3 17.7761 3 17.5L3 6.5ZM18.5 17C18.5 16.1716 19.1716 15.5 20 15.5V17L18.5 17ZM20 14.5C18.6193 14.5 17.5 15.6193 17.5 17H6.5C6.5 15.6193 5.38071 14.5 4 14.5L4 12.3533L4 9.5C5.38071 9.5 6.5 8.38071 6.5 7L17.5 7C17.5 8.38071 18.6193 9.5 20 9.5V14.5ZM18.5 7C18.5 7.82843 19.1716 8.5 20 8.5V7L18.5 7ZM5.5 7C5.5 7.82843 4.82842 8.5 4 8.5L4 7L5.5 7ZM5.5 17C5.5 16.1716 4.82842 15.5 4 15.5L4 17H5.5Z" fill="#636A74"/>
</g>
</g>
</svg>
