<svg width="32" height="32" viewBox="0 0 32 32" fill="none" xmlns="http://www.w3.org/2000/svg">
<g id="hamburger">
<g id="shape">
<path d="M5.3335 22.6667C5.3335 22.2985 5.63197 22 6.00016 22H26.0002C26.3684 22 26.6668 22.2985 26.6668 22.6667C26.6668 23.0349 26.3684 23.3334 26.0002 23.3334H6.00016C5.63197 23.3334 5.3335 23.0349 5.3335 22.6667Z" fill="#FAFAFA"/>
<path d="M5.3335 16C5.3335 15.6318 5.63197 15.3334 6.00016 15.3334H26.0002C26.3684 15.3334 26.6668 15.6318 26.6668 16C26.6668 16.3682 26.3684 16.6667 26.0002 16.6667H6.00016C5.63197 16.6667 5.3335 16.3682 5.3335 16Z" fill="#FAFAFA"/>
<path d="M5.3335 9.33335C5.3335 8.96516 5.63197 8.66669 6.00016 8.66669H26.0002C26.3684 8.66669 26.6668 8.96516 26.6668 9.33335C26.6668 9.70154 26.3684 10 26.0002 10H6.00016C5.63197 10 5.3335 9.70154 5.3335 9.33335Z" fill="#FAFAFA"/>
</g>
</g>
</svg>
