<svg width="32" height="32" viewBox="0 0 32 32" fill="none" xmlns="http://www.w3.org/2000/svg">
<g id="hamburger">
<path id="shape" fill-rule="evenodd" clip-rule="evenodd" d="M4.6665 9.33333C4.6665 8.59695 5.26346 8 5.99984 8H25.9998C26.7362 8 27.3332 8.59695 27.3332 9.33333C27.3332 10.0697 26.7362 10.6667 25.9998 10.6667H5.99984C5.26346 10.6667 4.6665 10.0697 4.6665 9.33333ZM4.6665 16C4.6665 15.2636 5.26346 14.6667 5.99984 14.6667H25.9998C26.7362 14.6667 27.3332 15.2636 27.3332 16C27.3332 16.7364 26.7362 17.3333 25.9998 17.3333H5.99984C5.26346 17.3333 4.6665 16.7364 4.6665 16ZM4.6665 22.6667C4.6665 21.9303 5.26346 21.3333 5.99984 21.3333H25.9998C26.7362 21.3333 27.3332 21.9303 27.3332 22.6667C27.3332 23.403 26.7362 24 25.9998 24H5.99984C5.26346 24 4.6665 23.403 4.6665 22.6667Z" fill="#FAFAFA"/>
</g>
</svg>
