<svg width="24" height="48" viewBox="0 0 24 48" fill="none" xmlns="http://www.w3.org/2000/svg">
<path d="M12 19C12.5523 19 13 18.5523 13 18C13 17.4477 12.5523 17 12 17C11.4477 17 11 17.4477 11 18C11 18.5523 11.4477 19 12 19Z" fill="#15C87D"/>
<path d="M13 24C13 24.5523 12.5523 25 12 25C11.4477 25 11 24.5523 11 24C11 23.4477 11.4477 23 12 23C12.5523 23 13 23.4477 13 24Z" fill="#15C87D"/>
<path d="M13 30C13 30.5523 12.5523 31 12 31C11.4477 31 11 30.5523 11 30C11 29.4477 11.4477 29 12 29C12.5523 29 13 29.4477 13 30Z" fill="#15C87D"/>
</svg>
