<svg width="40" height="40" viewBox="0 0 40 40" fill="none" xmlns="http://www.w3.org/2000/svg">
<path fill-rule="evenodd" clip-rule="evenodd" d="M10.8333 5C10.1702 5 9.53433 5.26339 9.06549 5.73223C8.59664 6.20107 8.33325 6.83696 8.33325 7.5V32.5C8.33325 33.163 8.59664 33.7989 9.06549 34.2678C9.53433 34.7366 10.1702 35 10.8333 35H29.1666C29.8296 35 30.4655 34.7366 30.9344 34.2678C31.4032 33.7989 31.6666 33.163 31.6666 32.5V10.8333C31.6666 10.6123 31.5788 10.4004 31.4225 10.2441L26.4225 5.24408C26.2662 5.0878 26.0543 5 25.8333 5H10.8333ZM10.8333 6.66667C10.6122 6.66667 10.4003 6.75446 10.244 6.91074C10.0877 7.06702 9.99992 7.27899 9.99992 7.5V32.5C9.99992 32.721 10.0877 32.933 10.244 33.0893C10.4003 33.2455 10.6122 33.3333 10.8333 33.3333H29.1666C29.3876 33.3333 29.5996 33.2455 29.7558 33.0893C29.9121 32.933 29.9999 32.721 29.9999 32.5V11.6667H25.8333C25.373 11.6667 24.9999 11.2936 24.9999 10.8333V6.66667H10.8333ZM26.6666 7.84518V10H28.8214L26.6666 7.84518Z" fill="#16C8D3"/>
<path d="M20.8333 15.8333C20.8333 15.3731 20.4602 15 19.9999 15C19.5397 15 19.1666 15.3731 19.1666 15.8333V19.1667H15.8333C15.373 19.1667 14.9999 19.5398 14.9999 20C14.9999 20.4602 15.373 20.8333 15.8333 20.8333H19.1666V24.1667C19.1666 24.6269 19.5397 25 19.9999 25C20.4602 25 20.8333 24.6269 20.8333 24.1667V20.8333H24.1666C24.6268 20.8333 24.9999 20.4602 24.9999 20C24.9999 19.5398 24.6268 19.1667 24.1666 19.1667H20.8333V15.8333Z" fill="#16C8D3"/>
</svg>
