<svg width="40" height="40" viewBox="0 0 40 40" fill="none" xmlns="http://www.w3.org/2000/svg">
<g id="icon left">
<g id="shape">
<path d="M14.1668 18.3333C13.7066 18.3333 13.3335 18.7064 13.3335 19.1667C13.3335 19.6269 13.7066 20 14.1668 20H25.8335C26.2937 20 26.6668 19.6269 26.6668 19.1667C26.6668 18.7064 26.2937 18.3333 25.8335 18.3333H14.1668Z" fill="#16C8D3"/>
<path d="M14.1668 23.3333C13.7066 23.3333 13.3335 23.7064 13.3335 24.1667C13.3335 24.6269 13.7066 25 14.1668 25H25.8335C26.2937 25 26.6668 24.6269 26.6668 24.1667C26.6668 23.7064 26.2937 23.3333 25.8335 23.3333H14.1668Z" fill="#16C8D3"/>
<path d="M14.1668 28.3333C13.7066 28.3333 13.3335 28.7064 13.3335 29.1667C13.3335 29.6269 13.7066 30 14.1668 30H25.8335C26.2937 30 26.6668 29.6269 26.6668 29.1667C26.6668 28.7064 26.2937 28.3333 25.8335 28.3333H14.1668Z" fill="#16C8D3"/>
<path fill-rule="evenodd" clip-rule="evenodd" d="M10.8335 5C10.1705 5 9.53457 5.26339 9.06573 5.73223C8.59689 6.20107 8.3335 6.83696 8.3335 7.5V32.5C8.3335 33.163 8.59689 33.7989 9.06573 34.2678C9.53457 34.7366 10.1705 35 10.8335 35H29.1668C29.8299 35 30.4658 34.7366 30.9346 34.2678C31.4034 33.7989 31.6668 33.163 31.6668 32.5V10.8333C31.6668 10.6123 31.579 10.4004 31.4228 10.2441L26.4228 5.24408C26.2665 5.0878 26.0545 5 25.8335 5H10.8335ZM10.8335 6.66667C10.6125 6.66667 10.4005 6.75446 10.2442 6.91074C10.088 7.06702 10.0002 7.27899 10.0002 7.5V32.5C10.0002 32.721 10.088 32.933 10.2442 33.0893C10.4005 33.2455 10.6125 33.3333 10.8335 33.3333H29.1668C29.3878 33.3333 29.5998 33.2455 29.7561 33.0893C29.9124 32.933 30.0002 32.721 30.0002 32.5V11.6667H25.8335C25.3733 11.6667 25.0002 11.2936 25.0002 10.8333V6.66667H10.8335ZM26.6668 10H28.8216L26.6668 7.84518V10Z" fill="#16C8D3"/>
</g>
</g>
</svg>
