<svg width="40" height="40" viewBox="0 0 40 40" fill="none" xmlns="http://www.w3.org/2000/svg">
<g id="icon left">
<g id="shape">
<path d="M22.5002 16.6667C22.0399 16.6667 21.6668 17.0398 21.6668 17.5C21.6668 17.9602 22.0399 18.3333 22.5002 18.3333H25.8335C26.2937 18.3333 26.6668 17.9602 26.6668 17.5C26.6668 17.0398 26.2937 16.6667 25.8335 16.6667H22.5002Z" fill="#16C8D3"/>
<path d="M19.7561 16.4226C20.0815 16.0972 20.0815 15.5695 19.7561 15.2441C19.4306 14.9186 18.903 14.9186 18.5776 15.2441L15.8335 17.9882L14.7561 16.9107C14.4306 16.5853 13.903 16.5853 13.5776 16.9107C13.2521 17.2362 13.2521 17.7638 13.5776 18.0893L15.2442 19.7559C15.5697 20.0814 16.0973 20.0814 16.4228 19.7559L19.7561 16.4226Z" fill="#16C8D3"/>
<path d="M19.7561 24.7559C20.0815 24.4305 20.0815 23.9028 19.7561 23.5774C19.4306 23.252 18.903 23.252 18.5776 23.5774L15.8335 26.3215L14.7561 25.2441C14.4306 24.9186 13.903 24.9186 13.5776 25.2441C13.2521 25.5695 13.2521 26.0972 13.5776 26.4226L15.2442 28.0893C15.5697 28.4147 16.0973 28.4147 16.4228 28.0893L19.7561 24.7559Z" fill="#16C8D3"/>
<path d="M22.5002 25C22.0399 25 21.6668 25.3731 21.6668 25.8333C21.6668 26.2936 22.0399 26.6667 22.5002 26.6667H25.8335C26.2937 26.6667 26.6668 26.2936 26.6668 25.8333C26.6668 25.3731 26.2937 25 25.8335 25H22.5002Z" fill="#16C8D3"/>
<path fill-rule="evenodd" clip-rule="evenodd" d="M10.8335 5C10.1705 5 9.53457 5.26339 9.06573 5.73223C8.59689 6.20107 8.3335 6.83696 8.3335 7.5V32.5C8.3335 33.163 8.59689 33.7989 9.06573 34.2678C9.53457 34.7366 10.1705 35 10.8335 35H29.1668C29.8299 35 30.4658 34.7366 30.9346 34.2678C31.4034 33.7989 31.6668 33.163 31.6668 32.5V10.8333C31.6668 10.6123 31.579 10.4004 31.4228 10.2441L26.4228 5.24408C26.2665 5.0878 26.0545 5 25.8335 5H10.8335ZM10.8335 6.66667C10.6125 6.66667 10.4005 6.75446 10.2442 6.91074C10.088 7.06702 10.0002 7.27899 10.0002 7.5V32.5C10.0002 32.721 10.088 32.933 10.2442 33.0893C10.4005 33.2455 10.6125 33.3333 10.8335 33.3333H29.1668C29.3878 33.3333 29.5998 33.2455 29.7561 33.0893C29.9124 32.933 30.0002 32.721 30.0002 32.5V11.6667H25.8335C25.3733 11.6667 25.0002 11.2936 25.0002 10.8333V6.66667H10.8335ZM26.6668 10H28.8216L26.6668 7.84518V10Z" fill="#16C8D3"/>
</g>
</g>
</svg>
