<svg width="40" height="40" viewBox="0 0 40 40" fill="none" xmlns="http://www.w3.org/2000/svg">
<g id="icon left">
<g id="shape">
<path d="M12.2235 25.842C19.0986 22.7633 25.1299 24.6321 27.9188 25.8876C29.294 26.5066 30 27.8903 30 29.281V32.5001C30 32.9603 29.6269 33.3334 29.1667 33.3334C28.7064 33.3334 28.3333 32.9603 28.3333 32.5001V29.281C28.3333 28.4247 27.9085 27.7107 27.2347 27.4074C24.6688 26.2523 19.1714 24.5569 12.9046 27.3631C12.1508 27.7007 11.6667 28.5028 11.6667 29.4204V32.5001C11.6667 32.9603 11.2936 33.3334 10.8333 33.3334C10.3731 33.3334 10 32.9603 10 32.5001V29.4204C10 27.94 10.7887 26.4845 12.2235 25.842Z" fill="#16C8D3"/>
<path fill-rule="evenodd" clip-rule="evenodd" d="M26.25 14.5834C26.25 18.2653 23.2652 21.2501 19.5833 21.2501C15.9014 21.2501 12.9167 18.2653 12.9167 14.5834C12.9167 10.9015 15.9014 7.91675 19.5833 7.91675C23.2652 7.91675 26.25 10.9015 26.25 14.5834ZM24.5833 14.5834C24.5833 17.3448 22.3448 19.5834 19.5833 19.5834C16.8219 19.5834 14.5833 17.3448 14.5833 14.5834C14.5833 11.822 16.8219 9.58341 19.5833 9.58341C22.3448 9.58341 24.5833 11.822 24.5833 14.5834Z" fill="#16C8D3"/>
<path d="M27.9167 8.75008C27.9167 8.28984 28.2898 7.91675 28.75 7.91675C32.4319 7.91675 35.4167 10.9015 35.4167 14.5834C35.4167 18.2653 32.4319 21.2501 28.75 21.2501C28.2898 21.2501 27.9167 20.877 27.9167 20.4167C27.9167 19.9565 28.2898 19.5834 28.75 19.5834C31.5114 19.5834 33.75 17.3448 33.75 14.5834C33.75 11.822 31.5114 9.58341 28.75 9.58341C28.2898 9.58341 27.9167 9.21032 27.9167 8.75008Z" fill="#16C8D3"/>
<path d="M32.5347 26.4289C32.6661 25.9878 33.1301 25.7367 33.5712 25.8681C34.2722 26.0769 34.8852 26.3086 35.3951 26.5272C36.7913 27.126 37.5 28.5221 37.5 29.9105V32.5001C37.5 32.9603 37.1269 33.3334 36.6667 33.3334C36.2064 33.3334 35.8333 32.9603 35.8333 32.5001V29.9105C35.8333 29.053 35.4061 28.3454 34.7382 28.059C34.2808 27.8628 33.7283 27.6539 33.0954 27.4654C32.6544 27.334 32.4033 26.8699 32.5347 26.4289Z" fill="#16C8D3"/>
<path d="M7.46532 26.4289C7.33394 25.9878 6.86986 25.7367 6.42878 25.8681C5.72777 26.0769 5.11477 26.3086 4.60486 26.5272C3.20867 27.126 2.5 28.5221 2.5 29.9105V32.5001C2.5 32.9603 2.8731 33.3334 3.33333 33.3334C3.79357 33.3334 4.16667 32.9603 4.16667 32.5001V29.9105C4.16667 29.053 4.5939 28.3454 5.26178 28.059C5.71923 27.8628 6.27167 27.6539 6.90456 27.4654C7.34564 27.334 7.59671 26.8699 7.46532 26.4289Z" fill="#16C8D3"/>
<path d="M12.0833 8.75008C12.0833 8.28984 11.7102 7.91675 11.25 7.91675C7.5681 7.91675 4.58333 10.9015 4.58333 14.5834C4.58333 18.2653 7.5681 21.2501 11.25 21.2501C11.7102 21.2501 12.0833 20.877 12.0833 20.4167C12.0833 19.9565 11.7102 19.5834 11.25 19.5834C8.48858 19.5834 6.25 17.3448 6.25 14.5834C6.25 11.822 8.48858 9.58341 11.25 9.58341C11.7102 9.58341 12.0833 9.21032 12.0833 8.75008Z" fill="#16C8D3"/>
</g>
</g>
</svg>
