<svg width="301" height="200" viewBox="0 0 301 200" fill="none" xmlns="http://www.w3.org/2000/svg">
<g clip-path="url(#clip0_1834_14916)">
<rect width="300" height="200" transform="translate(0.5)" fill="#F1F4F8"/>
<g style="mix-blend-mode:multiply" opacity="0.1">
<ellipse cx="150.5" cy="188.268" rx="697" ry="4.62963" fill="#272727"/>
</g>
<path d="M59.43 101.469C59.43 101.469 78.7976 72.5233 73.7884 67.6447C68.7793 62.7661 67.7351 75.8192 65.7118 73.8123C63.6886 71.8053 67.9961 61.1507 67.5719 53.5147C67.164 45.8623 65.8097 35.5829 62.3833 45.5686C58.9568 55.5542 58.5652 65.6214 57.782 60.3512C56.9825 55.081 54.9104 27.7347 49.167 35.4361C43.4236 43.1374 41.5799 53.5636 46.3443 60.0575C51.1086 66.5515 57.6189 73.8938 49.3465 68.7705C41.0741 63.6308 35.0696 65.2298 43.6684 74.0733C43.6684 74.0733 56.6725 86.5227 50.717 85.5438C44.7452 84.5811 34.727 90.2266 44.2558 95.5131C44.2558 95.5131 58.1084 98.5642 59.43 101.469Z" fill="#00C14D"/>
<path d="M54.4375 164.303C54.4211 164.319 54.4048 164.336 54.3885 164.368C54.3885 164.368 54.3885 164.417 54.3885 164.385L54.4048 164.287L54.4538 163.911L54.5354 163.128L54.6985 161.562L55.0085 158.413L55.5796 152.098C55.9386 147.872 56.2649 143.663 56.5586 139.437C57.146 130.985 57.6028 122.533 57.8802 114.065C58.0107 109.839 58.1086 105.597 58.1413 101.371C58.1576 97.1447 58.125 92.9187 57.9944 88.6928C57.8639 84.4668 57.6192 80.2572 57.1949 76.0639C56.7544 71.8869 56.1507 67.6936 54.9433 63.7287V63.7124C54.8291 63.3208 55.0412 62.9129 55.4328 62.7986C55.8244 62.6844 56.2323 62.8965 56.3465 63.2881C57.6681 67.4325 58.3208 71.6748 58.8266 75.9007C59.3161 80.143 59.6261 84.3852 59.8219 88.6438C60.0013 92.9024 60.0992 97.1447 60.1319 101.403C60.1482 105.662 60.1156 109.904 60.034 114.146C59.8708 122.647 59.5282 131.132 59.055 139.616C58.8266 143.859 58.5492 148.101 58.2555 152.327L57.7823 158.69L57.5213 161.872L57.3744 163.471L57.2928 164.27L57.2439 164.678L57.2276 164.776C57.2276 164.809 57.2112 164.923 57.1949 164.988C57.1623 165.135 57.1297 165.298 57.0807 165.445C56.7707 166.179 55.9386 166.522 55.2043 166.212C54.4701 165.886 54.1274 165.037 54.4375 164.303Z" fill="#49E788"/>
<path d="M67.4577 128.733C67.4577 128.733 101.07 127.134 99.5847 119.351C98.0999 111.568 87.119 116.773 82.2404 117.279C77.3618 117.769 80.2172 114.44 90.1702 107.44C100.107 100.441 105.589 90.194 95.0488 94.9747C84.5247 99.7554 80.3151 108.729 81.0167 102.399C81.7346 96.0679 95.2609 78.2341 83.8231 85.5438C72.369 92.8372 73.1522 99.5922 72.8095 104.928C72.4669 110.263 70.9331 94.6157 67.3598 96.949C63.7865 99.2822 65.8098 101.681 67.0988 107.865C68.3878 114.065 64.7982 109.072 63.6071 107.032C62.416 104.993 59.5116 109.872 62.367 116.61C65.2061 123.316 67.4577 128.733 67.4577 128.733Z" fill="#02983E"/>
<path d="M60.9475 165.804C60.9638 165.837 60.9638 165.886 60.9638 165.918C60.9638 165.934 60.9638 165.983 60.9638 165.951L60.9802 165.886L61.0128 165.641L61.0944 165.151L61.2575 164.156L61.5839 162.149L62.2855 158.135C62.7587 155.459 63.2481 152.783 63.7703 150.108C64.7982 144.756 65.8914 139.437 67.0825 134.117C68.2736 128.815 69.5626 123.528 71.0637 118.307C71.8143 115.696 72.6138 113.118 73.5275 110.573C74.4412 108.044 75.4365 105.515 76.7418 103.214L76.7581 103.198C76.9539 102.839 76.8397 102.398 76.4807 102.186C76.1381 101.991 75.6812 102.105 75.4854 102.447C74.0496 104.862 72.9727 107.424 71.9937 109.986C71.0147 112.564 70.15 115.158 69.3342 117.785C67.7188 123.022 66.3156 128.309 64.994 133.612C63.6887 138.915 62.465 144.25 61.3228 149.585C60.7517 152.261 60.197 154.937 59.6585 157.613L58.8754 161.643L58.5001 163.666L58.3206 164.678L58.239 165.2L58.1901 165.461L58.1737 165.527L58.1574 165.69C58.1411 165.82 58.1411 165.934 58.1411 166.065C58.2227 166.848 58.9243 167.436 59.7075 167.354C60.4417 167.289 61.0128 166.587 60.9475 165.804Z" fill="#00C14D"/>
<path d="M47.4375 114.864C47.4375 114.864 12.9773 113.07 15.441 105.548C17.9048 98.0095 28.1189 104.585 32.8996 105.695C37.6803 106.804 38.2514 105.939 29.2773 97.7321C20.3033 89.525 18.5575 80.192 28.3962 86.278C38.235 92.364 35.7876 99.2332 35.8855 92.8698C35.9834 86.5064 21.2823 63.7777 31.7085 72.4743C42.1347 81.171 44.1579 89.3129 43.8316 94.632C43.4889 99.9675 46.9969 84.6464 50.2602 87.4038C53.5072 90.1776 51.1903 92.2825 49.1344 98.2706C47.0785 104.259 51.2718 99.7554 52.7077 97.8953C54.1435 96.0352 56.4115 101.24 52.724 107.555C49.0365 113.836 47.4375 114.864 47.4375 114.864Z" fill="#02712E"/>
<path d="M56.1342 172.086C56.1505 171.955 56.1668 171.808 56.1668 171.662C56.1668 171.596 56.1668 171.498 56.1668 171.482V171.401L56.1505 171.091L56.1015 170.487L55.9873 169.296L55.7589 166.914L55.2531 162.165C54.9104 159 54.5352 155.851 54.1436 152.702C53.3441 146.404 52.463 140.106 51.4514 133.824C50.4234 127.542 49.2813 121.293 47.8617 115.076C47.1438 111.976 46.3606 108.876 45.4143 105.825C44.4679 102.774 43.4074 99.7226 41.8736 96.8346C41.6778 96.4757 41.2373 96.3451 40.8783 96.5246C40.5194 96.7204 40.3888 97.1446 40.5683 97.5036L40.5846 97.5199C41.9715 100.261 42.9668 103.263 43.8316 106.266C44.6964 109.284 45.4306 112.352 46.0669 115.452C47.3559 121.636 48.3839 127.868 49.2976 134.134C50.195 140.399 50.9619 146.681 51.6308 152.979C51.9735 156.128 52.2835 159.277 52.5772 162.427L52.9851 167.158L53.1646 169.524L53.2462 170.699L53.2788 171.286L53.2951 171.564V171.629C53.2951 171.662 53.2951 171.596 53.2951 171.596C53.2951 171.547 53.3114 171.515 53.3277 171.482C53.1646 172.249 53.6541 173.016 54.4209 173.195C55.1878 173.359 55.9547 172.869 56.1342 172.086Z" fill="#00C14D"/>
<path d="M44.2396 158.511H72.4506C74.2944 158.511 75.665 160.224 75.2571 162.035C73.4459 169.851 71.2922 177.797 66.8541 185.857C66.0383 187.342 64.4719 188.272 62.775 188.272H53.5726C51.9083 188.272 50.3582 187.358 49.575 185.873C46.0344 179.282 42.6079 171.417 40.9274 162.508C40.5521 160.436 42.1348 158.511 44.2396 158.511Z" fill="#E0EFE9"/>
<path opacity="0.4" d="M253.946 70.1117C253.888 69.8577 253.83 69.5965 253.765 69.3425C244.36 30.6285 205.008 6.95012 165.873 16.4563L183.085 87.3244L253.946 70.1117Z" fill="#15C87D"/>
<path opacity="0.55" d="M182.875 87.0559L251.856 110.741C256.145 98.2964 257.11 84.5378 253.954 70.7648C253.852 70.3294 253.75 69.9012 253.642 69.4658L182.875 87.0559Z" fill="#15C87D"/>
<path opacity="0.7" d="M183.078 87.3245L197.098 158.889C197.548 158.802 197.998 158.708 198.448 158.613C224.339 153.033 244.026 134.347 252.067 111.01L183.078 87.3245Z" fill="#15C87D"/>
<path d="M174.116 81.4175L159.559 10.8687C126.643 17.6608 103.524 45.6496 101.506 77.6586L173.717 81.8819C173.971 81.8965 174.167 81.6715 174.116 81.4175Z" fill="#CFFF91"/>
<path d="M183.129 87.0197L110.359 84.6033C110.047 90.9746 110.621 96.3227 112.072 102.854C118.842 133.324 143.769 155.065 172.94 159.238L183.129 87.0197Z" fill="#15C87D"/>
<path opacity="0.85" d="M172.331 159.455C180.379 160.674 188.767 160.558 197.199 158.911L183.252 87.3315L172.331 159.455Z" fill="#15C87D"/>
<path d="M119.133 188.14C116.782 188.344 112.703 188.67 109.489 188.815C107.558 188.902 106.441 188.714 105.802 188.452C105.802 188.525 105.802 188.59 105.81 188.656C105.824 188.997 106.1 189.265 106.441 189.287C112.515 189.628 117.348 189.403 119.067 189.301C119.423 189.28 119.633 188.895 119.452 188.59C119.358 188.431 119.249 188.286 119.133 188.14Z" fill="#09985C"/>
<path d="M109.489 188.815C112.703 188.677 116.782 188.344 119.133 188.14C116.825 185.303 109.489 183.395 109.489 183.395H107.413C105.991 185.448 105.781 187.4 105.795 188.452C106.441 188.706 107.558 188.895 109.489 188.815Z" fill="#43E5A1"/>
<path d="M107.065 180.013L107.261 183.844C107.283 184.258 107.595 184.606 108.008 184.672C108.422 184.73 108.973 184.737 109.561 184.541C109.924 184.418 110.193 184.113 110.258 183.743L110.925 180.013H107.065Z" fill="#B07968"/>
<path d="M80.172 188.786C79.1561 188.641 78.6917 188.111 78.4957 187.545C78.4957 187.553 78.4957 187.553 78.4885 187.56C78.3361 188.155 78.6844 188.779 79.381 189.069C80.2228 189.425 81.1371 189.483 81.8483 189.454C82.6102 189.425 83.3141 189.106 83.6987 188.598L83.706 188.59C82.9513 188.975 81.87 189.018 80.172 188.786Z" fill="#09985C"/>
<path d="M84.9758 179.991H83.2705C80.6727 179.941 79.0327 185.427 78.5029 187.553C78.6989 188.119 79.156 188.648 80.1792 188.794C81.8773 189.033 82.9585 188.982 83.7204 188.605C85.1282 186.754 85.8249 184.048 86.1587 182.466C86.536 180.659 84.9758 179.991 84.9758 179.991Z" fill="#43E5A1"/>
<path d="M83.4884 176.428L82.5378 180.202C82.4217 180.666 82.6394 181.145 83.0675 181.363C83.5973 181.638 84.3447 181.921 85.0341 181.842C85.3534 181.805 85.6219 181.573 85.7307 181.268L87.124 177.299L83.4884 176.428Z" fill="#B07968"/>
<path d="M82.356 177.517C83.5388 178.562 87.3703 178.7 87.3703 178.7C101.194 145.522 106.847 140.813 106.847 140.813C104.851 153.338 106.528 181.058 106.528 181.058C108.806 182.067 111.753 181.058 111.753 181.058C111.941 160.558 115.091 142.678 118.813 128.585C109.474 128.375 104.503 125.175 102.878 123.898C95.0913 136.452 82.356 177.517 82.356 177.517Z" fill="#09985C"/>
<path d="M105.251 85.7423C103.48 94.5663 104.119 110.35 104.532 117.555C104.648 119.58 103.233 122.388 102.094 124.297C101.913 124.594 102.029 124.979 102.334 125.138C104.242 126.118 110.722 129.166 118.233 129.543C118.734 129.565 119.183 129.224 119.307 128.745C124.873 107.955 131.346 94.6679 131.346 94.6679C124.205 83.2605 105.251 85.7423 105.251 85.7423Z" fill="#79F4C1"/>
<path d="M107.791 140.029C107.711 140.029 107.631 140.007 107.559 139.964C107.348 139.833 107.283 139.565 107.414 139.354C107.486 139.231 109.278 136.343 112.892 134.594C113.11 134.485 113.378 134.579 113.48 134.797C113.589 135.015 113.495 135.283 113.277 135.385C109.903 137.01 108.183 139.775 108.168 139.804C108.088 139.949 107.943 140.029 107.791 140.029Z" fill="#15C87D"/>
<path d="M94.1558 111.053C94.7218 115.161 96.4053 119.645 99.7579 124.405L101.035 123.368C101.035 123.368 99.5619 117.388 100.396 110.603C98.3283 110.204 95.8828 110.618 94.1558 111.053Z" fill="#B07968"/>
<path d="M107.225 96.6198L105.251 85.7349C105.251 85.7349 92.0511 95.8216 94.1555 111.053C95.8826 110.618 98.3281 110.197 100.396 110.603C101.006 105.72 102.805 100.415 107.225 96.6198Z" fill="#79F4C1"/>
<path d="M131.346 94.668L126.251 105.64C127.079 112.265 130.634 115.124 134.473 116.227C134.713 113.209 135.475 110.77 136.186 109.08C131.28 104.015 131.346 94.668 131.346 94.668Z" fill="#79F4C1"/>
<path d="M136.178 109.08C135.467 110.763 134.705 113.209 134.466 116.227C144.705 120.197 147.412 112.497 147.412 112.497L145.518 112.164C141.251 112.606 138.268 111.228 136.178 109.08Z" fill="#B07968"/>
<path d="M126.651 81.1199L124.191 90.1616C123.915 91.1775 122.819 91.7218 121.84 91.3299C120.787 90.909 119.445 90.3358 118.298 89.7117C117.072 89.0513 116.687 87.4694 117.464 86.3083L122.58 78.6816L126.651 81.1199Z" fill="#B07968"/>
<path d="M152.107 106.445L89.0903 129.383C86.4489 130.349 85.1862 133.353 86.3473 135.914L86.536 136.335C87.5664 138.599 90.2441 139.594 92.5009 138.549L153.689 110.241L152.107 106.445Z" fill="#9FA1A4"/>
<path opacity="0.23" d="M181.068 123.194C198.249 123.194 212.177 109.516 212.177 92.6434C212.177 75.7709 198.249 62.093 181.068 62.093C163.887 62.093 149.959 75.7709 149.959 92.6434C149.959 109.516 163.887 123.194 181.068 123.194Z" fill="#FAFAFA"/>
<path d="M181.068 58.6533C161.954 58.6533 146.454 73.8704 146.454 92.6433C146.454 111.416 161.954 126.633 181.068 126.633C200.182 126.633 215.682 111.416 215.682 92.6433C215.682 73.8704 200.189 58.6533 181.068 58.6533ZM181.068 121.641C164.763 121.641 151.541 108.659 151.541 92.6433C151.541 76.628 164.763 63.6459 181.068 63.6459C197.374 63.6459 210.595 76.628 210.595 92.6433C210.603 108.659 197.381 121.641 181.068 121.641Z" fill="#D2D3D6"/>
<path d="M149.088 96.8595C148.972 96.8595 148.87 96.7724 148.856 96.6563C148.754 95.8436 148.682 95.0236 148.638 94.2181C148.631 94.0875 148.732 93.9786 148.856 93.9714C149.008 93.9641 149.095 94.0657 149.102 94.189C149.139 94.9873 149.211 95.7928 149.313 96.591C149.327 96.7216 149.24 96.8377 149.11 96.8522C149.11 96.8522 149.095 96.8595 149.088 96.8595ZM149.327 87.3533C149.313 87.3533 149.298 87.3533 149.284 87.3461C149.161 87.3243 149.073 87.2009 149.095 87.0776C149.487 84.8933 150.118 82.7381 150.96 80.6845C155.953 68.5804 167.767 60.7578 181.068 60.7578C187.272 60.7578 193.295 62.4776 198.498 65.7431C198.607 65.8084 198.636 65.9535 198.571 66.0624C198.506 66.1712 198.36 66.2075 198.252 66.135C193.121 62.9203 187.178 61.2222 181.068 61.2222C167.955 61.2222 156.308 68.9288 151.388 80.8586C150.554 82.8832 149.937 85.0022 149.545 87.1501C149.531 87.2735 149.436 87.3533 149.327 87.3533Z" fill="#9FA1A4"/>
<path d="M132.035 74.2549C132.057 74.4073 129.982 84.5739 129.982 84.5739L124.206 83.2677L124.743 73.3479C124.743 73.3406 131.658 71.6498 132.035 74.2549Z" fill="#B07968"/>
<path d="M126.042 75.5467L125.352 80.7497C125.345 80.8151 125.345 80.8804 125.352 80.9457C125.41 81.352 125.715 82.7381 127.116 82.3462C128.386 81.9834 129.554 81.6786 130.359 81.9253C130.722 82.0342 130.94 82.4043 130.86 82.7743C130.671 83.6959 130.207 85.7713 129.532 87.5057C129.394 87.8612 129.01 88.0426 128.647 87.941C127.551 87.6218 125.258 86.8816 123.553 85.8584C123.32 85.7205 123.183 85.4665 123.197 85.198C123.255 83.8846 123.407 79.8935 123.277 78.7759C123.153 77.7237 121.869 77.0997 121.303 76.8675C121.122 76.7949 120.977 76.6498 120.904 76.4683C120.643 75.8152 120.287 74.3131 122.181 73.6963C122.58 73.5657 122.783 73.1375 122.646 72.7457C122.363 71.962 122.246 70.7719 123.712 70.1115C125.2 69.4439 126.317 70.2349 126.92 70.8807C127.159 71.142 127.551 71.1783 127.856 70.9896C128.03 70.8807 128.248 70.8445 128.516 71.0114C128.879 71.2363 129.351 71.0839 129.539 70.6993C129.895 69.9664 130.621 69.1827 132.079 69.4294C134.67 69.8721 134.96 72.7384 134.278 74.422C133.596 76.1055 130.816 75.4597 129.423 74.6179C128.364 73.9721 126.985 74.6469 126.39 75.0098C126.194 75.1331 126.071 75.329 126.042 75.5467Z" fill="#04663D"/>
<path d="M123.037 80.67C123.037 80.67 124.104 77.6875 123.008 76.9619C121.912 76.2289 120.294 76.6135 120.65 78.7688C121.1 81.4537 123.037 80.67 123.037 80.67Z" fill="#B07968"/>
<path d="M100.512 123.186L106.47 122.7L109.053 125.08C109.053 125.08 108.444 125.922 106.535 125.436C104.627 124.95 102.014 124.834 102.014 124.834C102.014 124.834 99.3801 126.024 99.3511 123.796L100.512 123.186Z" fill="#B07968"/>
<path d="M146.657 113.898C147.172 114.297 148.936 113.462 150.017 112.882C150.547 112.599 150.8 111.982 150.619 111.416C150.358 110.596 149.922 109.537 149.393 109.406C148.507 109.181 144.531 112.243 146.657 113.898Z" fill="#B07968"/>
<path d="M90.331 137.663C90.3093 137.663 90.2802 137.656 90.2512 137.649C87.7912 136.8 87.2179 135.341 87.1671 134.275C87.1018 132.707 88.0815 131.256 89.6126 130.661L97.1813 127.707C97.2974 127.664 97.4353 127.722 97.4788 127.838C97.5223 127.954 97.4643 128.092 97.3482 128.143L89.7795 131.096C88.437 131.619 87.5735 132.889 87.6316 134.253C87.6896 135.603 88.6185 136.597 90.3963 137.206C90.5197 137.25 90.585 137.38 90.5415 137.504C90.5197 137.598 90.4254 137.663 90.331 137.663Z" fill="#4B4C4F"/>
<path d="M99.6052 127.25C99.5109 127.25 99.4238 127.192 99.3875 127.105C99.344 126.982 99.402 126.851 99.5181 126.8L100.498 126.416C100.614 126.372 100.752 126.43 100.795 126.546C100.839 126.67 100.781 126.8 100.665 126.851L99.685 127.236C99.656 127.243 99.627 127.25 99.6052 127.25Z" fill="#4B4C4F"/>
<path d="M253.772 181.762C253.772 181.762 254.208 184.215 254.418 186.639C254.498 187.589 253.772 188.409 252.822 188.446C249.592 188.583 242.684 188.845 240.21 188.729C239.839 188.714 239.593 188.329 239.731 187.981C239.847 187.691 240.072 187.459 240.355 187.328L251.762 182.082L253.772 181.762Z" fill="#04663D"/>
<path d="M254.128 180.325L253.779 183.257C253.779 183.257 251.784 184.186 250.419 183.141L251.247 179.875L254.128 180.325Z" fill="#FFC5B8"/>
<path d="M253.866 125.247C254.019 126.009 254.672 163.425 250.673 180.187C250.608 180.463 250.746 180.746 251.007 180.848C251.624 181.102 252.821 181.465 254.265 181.508C254.708 181.523 255.114 181.232 255.238 180.804C256.384 176.915 261.856 157.423 262.574 138.81C263.372 118.005 262.574 138.099 262.574 138.099L262.103 125.24L253.866 125.247Z" fill="#09985C"/>
<path d="M266.892 183.039C266.892 183.039 267.581 184.273 268.249 187.56C268.372 188.155 267.952 188.721 267.349 188.779C266.282 188.881 264.643 189.019 263.329 189.012C262.719 189.004 262.248 188.482 262.32 187.879C262.466 186.682 262.923 184.716 264.323 183.177L266.892 183.039Z" fill="#04663D"/>
<path d="M267.501 179.273L266.689 183.707C266.689 183.707 265.883 184.302 264.294 183.874L264.679 179.106L267.501 179.273Z" fill="#FFC5B8"/>
<path d="M269.693 126.394C272.966 146.132 268.982 175.18 267.64 180.862C267.56 181.21 267.277 181.479 266.921 181.537C266.319 181.639 265.332 181.718 264.36 181.435C264.026 181.341 263.786 181.036 263.772 180.688C263.59 176.095 263.917 147.874 260.869 136.72C260.717 136.154 260.368 135.661 259.889 135.32L253.975 131.118L253.525 124.319L269.693 126.394Z" fill="#09985C"/>
<path d="M248.853 88.9934C258.656 88.8338 269.469 91.5695 269.469 91.5695C272.393 108.615 269.977 128.281 269.977 128.281C262.386 130.269 253.831 127.062 253.831 127.062C252.568 119.936 246.683 99.8856 246.683 99.8856C241.893 99.2906 237.946 97.9118 234.702 96.0831C237.184 93.2095 238.345 89.5522 238.853 87.397C242.322 88.471 245.827 89.0442 248.853 88.9934Z" fill="#79F4C1"/>
<path d="M219.898 74.56C220.864 73.399 222.083 73.9505 222.083 73.9505C223.527 80.046 231.088 84.9805 238.86 87.397C238.352 89.5595 237.184 93.2095 234.709 96.0832C221.807 88.8338 219.898 74.56 219.898 74.56Z" fill="#FFC5B8"/>
<path d="M220.13 74.8575C220.029 75.1768 221.197 75.663 221.887 74.3568C221.908 73.7255 222.293 71.0405 221.916 70.5253C219.92 67.8041 216.045 64.3862 216.045 64.3862C215.392 65.0321 215.929 65.6634 215.929 65.6634L217.808 67.6227C217.416 68.3338 216.938 68.9361 216.713 69.7924C216.546 70.4455 216.647 71.1349 216.974 71.7299C217.3 72.325 217.75 73.0942 218.178 73.7037C218.984 74.843 220.13 74.8575 220.13 74.8575Z" fill="#FFC5B8"/>
<path d="M265.709 101.061L269.468 91.5696C269.468 91.5696 278.626 97.7885 280.128 105.676C278.401 105.807 275.252 106.257 272.168 107.81C271.493 104.087 265.709 101.061 265.709 101.061Z" fill="#79F4C1"/>
<path d="M257.705 109.994C257.705 109.994 267.981 115.807 271.449 110.843C272.168 109.813 272.342 108.789 272.168 107.817C275.252 106.264 278.394 105.814 280.128 105.684C280.585 108.064 280.339 110.589 278.945 113.143C272.871 124.253 256.348 112.527 256.348 112.527L257.705 109.994Z" fill="#FFC5B8"/>
<path d="M258.946 117.338L253.337 97.745C253.272 97.52 253.083 97.3604 252.851 97.3313C251.835 97.2152 248.889 96.8814 245.485 96.5912C241.392 96.2428 236.632 95.9671 233.788 96.1993C233.381 96.2356 233.142 96.6637 233.316 97.0265C234.934 100.299 241.581 113.601 244.912 117.955C245.021 118.1 245.195 118.187 245.376 118.18L258.395 118.056C258.779 118.071 259.048 117.708 258.946 117.338Z" fill="#272727"/>
<path d="M244.905 94.9004L240.841 94.2255C240.623 94.1893 240.449 94.3997 240.514 94.6029L240.914 95.822C240.95 95.9308 241.044 96.0034 241.153 96.0179L245.064 96.5404C245.267 96.5694 245.434 96.3808 245.384 96.1848L245.137 95.1181C245.115 95.0093 245.021 94.9222 244.905 94.9004Z" fill="#FAFAFA"/>
<path d="M247.952 98.3475L247.618 96.5986C247.582 96.4245 247.437 96.2939 247.263 96.2721L239.048 95.4376C238.773 95.4085 238.548 95.6625 238.613 95.931L239.135 98.108C239.179 98.2822 239.331 98.4055 239.506 98.42L247.531 98.8264C247.8 98.8337 248.003 98.6015 247.952 98.3475Z" fill="#FAFAFA"/>
<path d="M257.589 112.607C257.589 112.607 258.373 109.392 258.054 108.253C257.742 107.113 257.125 105.648 255.093 105.974C253.054 106.301 250.659 107.157 250.659 107.157C250.659 107.157 250.783 108.645 252.328 108.166L251.37 108.906C251.37 108.906 251.508 110.096 252.814 109.457L251.922 110.444C251.922 110.444 252.481 111.424 253.446 110.792C254.404 110.168 254.861 112.991 257.589 112.607Z" fill="#FFC5B8"/>
<path d="M258.779 81.0403L261.9 90.0603C261.95 90.2126 261.892 90.3723 261.755 90.4521C260.905 90.9238 257.843 92.2808 254.15 89.9442C253.765 89.6974 253.504 89.3056 253.446 88.8484L252.437 81.0403H258.779Z" fill="#FFC5B8"/>
<path d="M251.994 72.688C251.994 72.688 248.569 79.1319 249.012 81.737C249.447 84.3421 253.692 84.1534 257.4 82.0418L259.991 75.0827L251.994 72.688Z" fill="#FFC5B8"/>
<path d="M257.234 78.6239C257.081 78.5586 257.03 78.3699 257.118 78.232C257.393 77.8112 257.909 76.9549 258.068 76.2074C258.068 76.2074 258.685 75.8156 256.501 75.2931C254.316 74.7706 251.066 73.9579 250.376 72.1002C249.709 70.286 251.465 65.7361 254.258 69.3645C254.367 69.5023 254.57 69.5023 254.679 69.3645C255.136 68.7694 256.341 67.5285 258.017 68.2832C259.585 68.9871 259.759 70.1337 259.737 70.7142C259.73 70.8811 259.882 71.019 260.049 70.9827C260.84 70.8303 262.741 70.6997 263.627 72.6517C264.36 74.2554 263.881 75.1625 263.453 75.6124C263.315 75.7575 263.373 75.997 263.569 76.0551C264.091 76.2147 264.759 76.6574 264.693 77.8765C264.599 79.56 262.72 79.4149 262.183 79.335C262.096 79.3205 262.009 79.3496 261.943 79.4149C261.486 79.9228 259.411 82.0853 257.168 82.3465C256.972 82.3683 256.82 82.1796 256.885 81.991L257.858 79.1681C257.901 79.0375 257.843 78.8924 257.713 78.8343L257.234 78.6239Z" fill="#E51818"/>
<path d="M256.842 79.023C256.842 79.023 259.28 77.3467 259.461 78.7617C259.643 80.1695 257.262 80.8009 256.087 80.2784L256.842 79.023Z" fill="#FFC5B8"/>
<path d="M139.255 37.348L148.624 37.9866C149.066 38.0229 149.313 37.4786 148.986 37.1739L140.003 30.5195L139.255 37.348Z" fill="#00C14D"/>
<path d="M85.7235 7.35645L138.501 7.03715C139.713 7.0299 140.692 7.92246 140.678 9.02547L140.453 35.5992C140.446 36.7095 139.437 37.5875 138.225 37.5585L86.021 36.1289C84.86 36.0999 83.9384 35.2364 83.9239 34.1842L83.5756 9.36653C83.5538 8.26352 84.5189 7.3637 85.7235 7.35645Z" fill="#00C14D"/>
<path opacity="0.77" d="M88.7642 14.9905C88.7642 15.9338 89.3084 16.6958 89.9905 16.6958H134.88C135.555 16.6958 136.106 15.9338 136.106 14.9905C136.106 14.0471 135.562 13.2852 134.88 13.2852H89.9905C89.3157 13.2852 88.7642 14.0471 88.7642 14.9905Z" fill="#FAFAFA"/>
<path opacity="0.77" d="M91.2238 19.5984H133.305C134.219 19.5984 134.959 20.0556 134.959 20.6216C134.959 21.1876 134.219 21.6448 133.305 21.6448H91.2238C90.3095 21.6448 89.5693 21.1876 89.5693 20.6216C89.5693 20.0556 90.3095 19.5984 91.2238 19.5984Z" fill="#FAFAFA"/>
<path opacity="0.77" d="M89.5693 25.2658C89.5693 25.8318 90.3095 26.2817 91.2238 26.2817H133.312C134.227 26.2817 134.967 25.8245 134.967 25.2658V24.6344C134.967 24.0612 134.198 23.604 133.269 23.6185L91.1803 24.2498C90.2877 24.2571 89.5693 24.7143 89.5693 25.2658Z" fill="#FAFAFA"/>
<path opacity="0.77" d="M91.3908 28.4805H133.472C134.386 28.4805 135.126 28.9376 135.126 29.5037C135.126 30.0697 134.386 30.5268 133.472 30.5268H91.3908C90.4765 30.5268 89.7363 30.0697 89.7363 29.5037C89.7363 28.9376 90.4765 28.4805 91.3908 28.4805Z" fill="#FAFAFA"/>
<path d="M183.564 71.8679L183.216 71.2293L206.764 58.3633L228.642 67.9856L247.43 49.5538L247.466 49.532L269.526 36.5137L269.896 37.1377L247.872 50.1343L228.802 68.8492L206.793 59.1761L183.564 71.8679Z" fill="#E1E3E6"/>
<path d="M183.39 74.081C184.789 74.081 185.923 72.9471 185.923 71.5484C185.923 70.1497 184.789 69.0159 183.39 69.0159C181.991 69.0159 180.857 70.1497 180.857 71.5484C180.857 72.9471 181.991 74.081 183.39 74.081Z" fill="#D2D3D6"/>
<path d="M206.778 61.3022C208.177 61.3022 209.311 60.1683 209.311 58.7696C209.311 57.3709 208.177 56.2371 206.778 56.2371C205.379 56.2371 204.246 57.3709 204.246 58.7696C204.246 60.1683 205.379 61.3022 206.778 61.3022Z" fill="#D2D3D6"/>
<path d="M228.722 70.4672C230.121 70.4672 231.255 69.3334 231.255 67.9347C231.255 66.536 230.121 65.4021 228.722 65.4021C227.323 65.4021 226.189 66.536 226.189 67.9347C226.189 69.3334 227.323 70.4672 228.722 70.4672Z" fill="#D2D3D6"/>
<path d="M247.045 52.3764C248.444 52.3764 249.578 51.2425 249.578 49.8438C249.578 48.4451 248.444 47.3113 247.045 47.3113C245.647 47.3113 244.513 48.4451 244.513 49.8438C244.513 51.2425 245.647 52.3764 247.045 52.3764Z" fill="#D2D3D6"/>
<path d="M269.715 39.3581C271.113 39.3581 272.247 38.2242 272.247 36.8255C272.247 35.4268 271.113 34.293 269.715 34.293C268.316 34.293 267.182 35.4268 267.182 36.8255C267.182 38.2242 268.316 39.3581 269.715 39.3581Z" fill="#D2D3D6"/>
</g>
<defs>
<clipPath id="clip0_1834_14916">
<rect width="300" height="200" fill="white" transform="translate(0.5)"/>
</clipPath>
</defs>
</svg>
