<svg width="301" height="200" viewBox="0 0 301 200" fill="none" xmlns="http://www.w3.org/2000/svg">
<path d="M259.333 152.785C259.333 154.539 257.9 155.978 256.154 155.978H84.1182C82.3717 155.978 80.9391 154.539 80.9391 152.785L79.5064 53.5087C79.5064 51.7554 81.5667 48.3238 85.3394 48.583L253.466 44.2168C255.662 44.1622 257.784 45.0082 259.34 46.5637C260.895 48.1191 261.748 50.2477 261.693 52.4512L259.333 152.785Z" fill="#4B4C4F"/>
<path d="M256.188 149.722C256.188 151.387 254.83 152.744 253.179 152.744H88.2661C86.6083 152.744 85.2575 151.387 85.2575 149.722L83.9067 59.5941C84.0636 54.1704 88.7983 52.2193 91.6704 52.3352C91.6704 52.3352 223.08 48.7945 252.804 47.9963C254.346 47.9554 255.84 48.5489 256.931 49.6473C258.023 50.7389 258.623 52.2397 258.589 53.7884L256.188 149.722Z" fill="#E7ECF3"/>
<path d="M267.328 164.213H73.2846C73.0049 164.213 72.7729 163.981 72.7729 163.701V155.999C72.7729 155.719 73.0049 155.487 73.2846 155.487H267.328C267.608 155.487 267.84 155.719 267.84 155.999V163.701C267.84 163.987 267.608 164.213 267.328 164.213Z" fill="#9FA1A4"/>
<path d="M267.328 164.213H73.2846C73.0049 164.213 72.7729 163.981 72.7729 163.701V155.999C72.7729 155.719 73.0049 155.487 73.2846 155.487H267.328C267.608 155.487 267.84 155.719 267.84 155.999V163.701C267.84 163.987 267.608 164.213 267.328 164.213Z" fill="#2F3032"/>
<path d="M100.812 109.205V165.577C100.812 170.216 104.51 174.009 109.142 174.125C129.732 174.657 201.74 175.947 221.34 175.653C224.71 175.606 227.439 172.911 227.535 169.541C227.91 156.442 228.524 124.958 226.252 110.338C225.774 107.261 223.175 104.955 220.057 104.859C202.804 104.307 126.471 102.553 106.884 102.997C103.507 103.065 100.812 105.828 100.812 109.205Z" fill="#4B4C4F"/>
<path d="M104.346 108.932V162.487C104.346 165.195 106.522 167.398 109.224 167.439L218.516 168.79C221.197 168.831 223.4 166.669 223.407 163.987L223.591 110.911C223.598 108.994 222.07 107.418 220.153 107.37L108.255 105.112C106.113 105.064 104.346 106.783 104.346 108.932Z" fill="#E7ECF3"/>
<path d="M201.801 122.017C201.733 132.892 201.549 170.394 202.108 183.676C202.17 185.082 203.152 186.201 204.353 186.228C210.309 186.364 232.133 186.617 241.861 185.996C243.887 185.866 245.47 183.922 245.477 181.548C245.511 170.134 245.47 138.036 244.194 123.354C244.038 121.594 242.837 120.209 241.329 120.059C234.834 119.398 212.901 117.876 204.496 118.64C202.975 118.77 201.808 120.244 201.801 122.017Z" fill="#4B4C4F"/>
<path d="M204.503 125.312C204.312 134.093 203.739 163.292 204.223 174.084C204.291 175.66 205.376 176.922 206.727 176.991C212.28 177.284 231.212 177.843 239.337 176.957C240.797 176.8 241.929 175.394 241.984 173.675C242.264 164.717 243.035 137.524 242.571 126.854C242.496 125.156 241.35 123.777 239.896 123.648C233.886 123.109 213.761 121.908 206.85 122.454C205.554 122.563 204.537 123.791 204.503 125.312Z" fill="#E7ECF3"/>
<path d="M227.508 79.1335C227.289 75.8111 225.284 72.8707 222.282 71.438L183.32 52.9362C180.823 51.7492 177.931 51.7492 175.434 52.9362L136.472 71.438C133.464 72.8639 131.458 75.8111 131.246 79.1335C127.59 135.621 163.815 156.204 175.686 161.409C178.04 162.439 180.714 162.439 183.068 161.409C194.938 156.211 231.157 135.628 227.508 79.1335Z" fill="#227CF2"/>
<path d="M167.588 60.7681C167.37 60.7681 167.158 60.6453 167.056 60.4338C166.92 60.1405 167.042 59.7925 167.336 59.6493L176.539 55.2762C176.832 55.133 177.18 55.2626 177.323 55.5559C177.46 55.8493 177.337 56.1972 177.044 56.3405L167.841 60.7135C167.759 60.7476 167.67 60.7681 167.588 60.7681Z" fill="#6CA7F3"/>
<path d="M134.221 91.2565C133.907 91.2565 133.641 91.0041 133.634 90.6903C133.511 87.0131 133.573 83.1858 133.825 79.304C133.982 76.9231 135.415 74.8082 137.577 73.7849L163.788 61.3343C164.082 61.1911 164.429 61.3207 164.573 61.614C164.709 61.9074 164.586 62.2553 164.293 62.3986L138.082 74.8491C136.308 75.6951 135.121 77.4279 134.999 79.3859C134.753 83.2268 134.685 87.0199 134.808 90.6561C134.821 90.9836 134.562 91.2497 134.241 91.2633C134.234 91.2565 134.228 91.2565 134.221 91.2565Z" fill="#6CA7F3"/>
<path d="M218.086 81.3371C218.045 80.498 217.54 79.7407 216.783 79.3791L180.359 62.078C179.739 61.7847 179.015 61.7847 178.395 62.078L141.971 79.3791C141.207 79.7407 140.709 80.4911 140.668 81.3371C139.59 102.411 144.461 119.992 155.144 133.622C163.29 144.013 172.821 149.58 178.408 152.179C179.022 152.465 179.732 152.465 180.346 152.179C185.933 149.58 195.464 144.013 203.609 133.622C214.293 119.992 219.164 102.411 218.086 81.3371Z" fill="#FAFAFA"/>
<path d="M168.605 103.98H164.975V89.5168C164.975 83.8339 169.225 79.0311 174.867 78.3489L182.29 77.4484C185.483 77.0595 188.696 78.0624 191.104 80.1977C193.512 82.3331 194.897 85.403 194.897 88.6163V101.244H191.268V88.6163C191.268 86.4332 190.333 84.3592 188.703 82.9129C187.072 81.4666 184.896 80.7912 182.733 81.0505L175.311 81.951C171.49 82.4149 168.611 85.6691 168.611 89.5168V103.98H168.605Z" fill="#00C14D"/>
<path d="M163.904 100.733L195.723 98.9724C197.012 98.9042 198.104 99.9275 198.104 101.224V126.432C198.104 127.68 197.094 128.69 195.846 128.69H164.791C163.577 128.69 162.574 127.728 162.54 126.507L161.776 103.059C161.735 101.831 162.676 100.801 163.904 100.733Z" fill="#00C14D"/>
<path d="M185.121 121.465L183.197 115.926C182.965 115.257 183.122 114.513 183.62 114.015C184.61 113.012 185.196 111.621 185.128 110.093C185.005 107.391 182.802 105.201 180.1 105.099C177.112 104.983 174.649 107.371 174.649 110.338C174.649 111.982 175.406 113.449 176.593 114.411C177.207 114.909 177.46 115.728 177.201 116.478L175.461 121.472C175.038 122.686 175.939 123.955 177.228 123.955H183.368C184.644 123.942 185.544 122.68 185.121 121.465Z" fill="#02712E"/>
<g opacity="0.64">
<path d="M33.9328 44.7014C33.7008 44.6604 33.5166 44.4762 33.4893 44.2375C33.4552 43.9509 33.4279 43.6576 33.4006 43.3642C33.3733 43.0709 33.5916 42.8048 33.885 42.7843C34.1784 42.757 34.4444 42.9753 34.4649 43.2687C34.4922 43.5484 34.5195 43.8281 34.5536 44.1078C34.5877 44.4012 34.3762 44.6673 34.0828 44.7082C34.0351 44.7082 33.9805 44.7082 33.9328 44.7014Z" fill="#272727" fill-opacity="0.1"/>
<path d="M33.7281 40.9969C33.4757 40.956 33.2778 40.7308 33.2778 40.4648C33.2847 39.8712 33.3051 39.2709 33.3392 38.6773C33.3597 38.384 33.6121 38.1588 33.9123 38.1793C34.2125 38.1998 34.4308 38.4522 34.4103 38.7524C34.3694 39.3254 34.3489 39.8985 34.3489 40.4716C34.3489 40.7649 34.1033 41.0105 33.81 41.0037C33.7827 41.0037 33.7554 41.0037 33.7281 40.9969ZM34.1101 36.4124C33.8168 36.3646 33.6189 36.0917 33.6667 35.7984L33.7008 35.6074C33.7895 35.0889 33.8918 34.5636 34.0078 34.0451C34.0692 33.7585 34.3557 33.5675 34.6491 33.6357C34.9356 33.6971 35.1198 33.9837 35.0584 34.277C34.9493 34.775 34.8469 35.2867 34.7651 35.7847L34.7378 35.9689C34.6832 36.2623 34.4103 36.4601 34.1101 36.4124ZM35.1949 31.9438C35.1676 31.937 35.1471 31.9302 35.1198 31.9234C34.8401 31.8347 34.6832 31.5277 34.7719 31.248C34.9561 30.6817 35.1539 30.1155 35.3722 29.5629C35.4814 29.2832 35.7884 29.1535 36.0681 29.2559C36.3478 29.365 36.4843 29.672 36.3751 29.9517C36.1704 30.4839 35.9726 31.0297 35.7952 31.5754C35.7065 31.8347 35.4541 31.9848 35.1949 31.9438ZM36.9414 27.6868C36.8868 27.68 36.839 27.6595 36.7913 27.639C36.5252 27.5026 36.4229 27.1819 36.5525 26.9159C36.8186 26.3906 37.1051 25.8584 37.4053 25.3468C37.5554 25.0875 37.8828 25.0057 38.1421 25.1489C38.4013 25.299 38.4832 25.6265 38.3399 25.8857C38.0534 26.3837 37.7737 26.8886 37.5212 27.4002C37.3984 27.6117 37.1665 27.7277 36.9414 27.6868ZM39.3223 23.7504C39.2473 23.7367 39.1654 23.7094 39.0972 23.6549C38.8584 23.4843 38.8038 23.1432 38.9744 22.9044C39.3223 22.42 39.6839 21.9425 40.0591 21.4854C40.2433 21.2534 40.5844 21.2193 40.8164 21.4035C41.0483 21.5877 41.0824 21.9288 40.8982 22.1608C40.5367 22.6042 40.1887 23.0681 39.8544 23.5321C39.7248 23.7094 39.5201 23.7845 39.3223 23.7504ZM42.2831 20.2301C42.1808 20.2096 42.0785 20.1619 41.9966 20.0868C41.7851 19.8822 41.7851 19.5411 41.9898 19.3296C42.4059 18.9066 42.8426 18.4905 43.2792 18.0948C43.4975 17.8969 43.8386 17.9106 44.0364 18.1357C44.2343 18.354 44.2206 18.6951 43.9955 18.893C43.5725 19.275 43.1564 19.6775 42.7539 20.0868C42.6311 20.2028 42.4537 20.2574 42.2831 20.2301ZM45.7556 17.2011C45.626 17.1806 45.5032 17.1055 45.4145 16.9896C45.2371 16.7508 45.2849 16.4165 45.5237 16.2391C46.0012 15.8844 46.4924 15.5364 46.9836 15.2158C47.2292 15.0521 47.5635 15.1203 47.7272 15.3659C47.891 15.6115 47.8228 15.9458 47.5703 16.1095C47.0928 16.4233 46.6152 16.7576 46.1581 17.0987C46.0422 17.1942 45.8921 17.2283 45.7556 17.2011ZM49.6443 14.7451C49.4874 14.7178 49.3373 14.6223 49.2554 14.4654C49.119 14.2061 49.2145 13.8786 49.4806 13.7422C50.0059 13.4625 50.5448 13.1964 51.0838 12.9508C51.3498 12.828 51.6705 12.944 51.7933 13.2169C51.9161 13.4898 51.8001 13.8036 51.5272 13.9264C51.0087 14.1652 50.4902 14.4176 49.9854 14.6905C49.8762 14.7451 49.7534 14.7655 49.6443 14.7451ZM53.8604 12.9099C53.6762 12.8758 53.5057 12.7462 53.4443 12.5551C53.3487 12.2754 53.492 11.9684 53.7785 11.8729C54.338 11.6819 54.911 11.4977 55.4773 11.3408C55.7638 11.2589 56.0572 11.4295 56.139 11.7092C56.2209 11.9957 56.0503 12.2891 55.7706 12.3709C55.218 12.5278 54.6654 12.6984 54.1265 12.8894C54.0378 12.9167 53.9491 12.9235 53.8604 12.9099ZM81.7223 17.3443C81.6404 17.3307 81.5585 17.2966 81.4903 17.242C81.0332 16.8941 80.5625 16.5598 80.0918 16.2391C79.8462 16.0754 79.7779 15.7411 79.9417 15.4955C80.1054 15.2499 80.4397 15.1817 80.6853 15.3454C81.1765 15.6729 81.6677 16.0276 82.1384 16.3824C82.3772 16.5598 82.4181 16.9009 82.2408 17.1328C82.118 17.3034 81.9133 17.3784 81.7223 17.3443ZM58.3085 11.7365C58.0902 11.7024 57.9128 11.5318 57.8719 11.2999C57.8173 11.0065 58.0151 10.7268 58.3017 10.6722C58.8815 10.5631 59.4751 10.4744 60.0618 10.4061C60.3551 10.372 60.6212 10.5767 60.6621 10.8769C60.6962 11.1702 60.4848 11.4363 60.1914 11.4772C59.6252 11.5455 59.0521 11.6341 58.4927 11.7365C58.4313 11.7501 58.3699 11.7501 58.3085 11.7365ZM77.8541 14.8542C77.7995 14.8474 77.7449 14.8269 77.6903 14.7996C77.1855 14.5268 76.667 14.2675 76.1485 14.0287C75.8825 13.9059 75.7665 13.5853 75.8893 13.3124C76.0121 13.0463 76.3327 12.9235 76.6056 13.0532C77.1446 13.3056 77.6767 13.5716 78.202 13.8514C78.4613 13.9946 78.5636 14.3153 78.4203 14.5813C78.3043 14.786 78.0792 14.8883 77.8541 14.8542ZM62.8794 11.2657C62.6338 11.2248 62.4359 11.0133 62.4291 10.7473C62.4223 10.4539 62.6542 10.2015 62.9544 10.1947C63.5479 10.181 64.1483 10.181 64.7418 10.2015C65.0352 10.2083 65.2671 10.4607 65.2603 10.7541C65.2535 11.0474 65.0011 11.2794 64.7077 11.2726C64.1346 11.2521 63.5547 11.2521 62.9885 11.2657C62.9476 11.2794 62.9135 11.2726 62.8794 11.2657ZM73.6516 12.9918C73.6243 12.9849 73.5902 12.9781 73.5629 12.9713C73.024 12.7803 72.4714 12.6029 71.9256 12.446C71.6391 12.3641 71.4753 12.0639 71.5572 11.7774C71.6391 11.4909 71.9392 11.3271 72.2258 11.409C72.792 11.5727 73.3651 11.7569 73.9245 11.9548C74.2042 12.0571 74.3475 12.3641 74.252 12.637C74.1564 12.8894 73.904 13.0327 73.6516 12.9918ZM67.4707 11.5113C67.1842 11.4636 66.9931 11.1975 67.0272 10.911C67.0682 10.6176 67.3342 10.4061 67.6276 10.4471C68.2143 10.5221 68.801 10.6176 69.3877 10.7268C69.6811 10.7814 69.8721 11.0611 69.8175 11.3544C69.7629 11.6478 69.4696 11.8388 69.1899 11.7842C68.6236 11.6751 68.0506 11.5864 67.4912 11.5113C67.4843 11.5113 67.4775 11.5113 67.4707 11.5113Z" fill="#272727" fill-opacity="0.1"/>
<path d="M84.5467 19.7798C84.4444 19.7594 84.3421 19.7116 84.2602 19.6366C84.0624 19.4387 83.8577 19.2477 83.6462 19.0567C83.4279 18.852 83.4142 18.5177 83.6189 18.2994C83.8236 18.0811 84.1579 18.0675 84.3762 18.2721C84.5877 18.47 84.7992 18.6678 85.0106 18.8725C85.2221 19.0771 85.229 19.4183 85.0175 19.6297C84.8947 19.7594 84.7173 19.8139 84.5467 19.7798Z" fill="#272727" fill-opacity="0.1"/>
</g>
<g opacity="0.64">
<path d="M93.5519 41.031C93.2995 40.99 93.1084 40.7717 93.1016 40.5056C93.1016 40.2259 93.0948 39.9394 93.088 39.6597C93.0812 39.3663 93.3131 39.1139 93.6065 39.1071C93.8998 39.1003 94.1522 39.3322 94.1591 39.6256C94.1659 39.9189 94.1727 40.2055 94.1727 40.4988C94.1727 40.7922 93.9339 41.0378 93.6406 41.0378C93.6133 41.0378 93.586 41.031 93.5519 41.031Z" fill="#272727" fill-opacity="0.1"/>
<path d="M58.1446 70.5711H58.1378C57.6261 70.4755 57.1145 70.3664 56.6028 70.2436L56.4186 70.1958C56.1321 70.1276 55.9547 69.8343 56.0229 69.5477C56.0911 69.2612 56.3913 69.0838 56.671 69.1589L56.8484 69.1998C57.3396 69.3158 57.8308 69.4249 58.3288 69.5136C58.6222 69.5682 58.8132 69.8479 58.7586 70.1412C58.704 70.4278 58.4311 70.6188 58.1446 70.5711ZM60.9213 70.9599C60.6484 70.9122 60.4505 70.6597 60.4778 70.38C60.5051 70.0867 60.7643 69.8684 61.0645 69.8957C61.6239 69.9502 62.197 69.9843 62.7564 70.0048C63.0498 70.0116 63.2886 70.264 63.2749 70.5574C63.2681 70.8508 63.0157 71.0827 62.7223 71.0759C62.1424 71.0554 61.5489 71.0213 60.969 70.9667C60.9485 70.9667 60.9349 70.9599 60.9213 70.9599ZM53.7648 69.4045C53.7375 69.3976 53.7034 69.3908 53.6761 69.384C53.1235 69.193 52.5709 68.9815 52.0319 68.7563C51.759 68.6404 51.6294 68.3265 51.7386 68.0537C51.8546 67.7808 52.1684 67.6511 52.4413 67.7603C52.9597 67.9786 53.4919 68.1765 54.024 68.3675C54.3037 68.463 54.4538 68.77 54.3515 69.0497C54.2764 69.3021 54.024 69.4522 53.7648 69.4045ZM65.4444 71.035C65.2056 70.994 65.0146 70.7894 65.0009 70.5369C64.9805 70.2436 65.2056 69.9843 65.5058 69.9707C66.0652 69.9366 66.6383 69.8888 67.1909 69.8206C67.4842 69.7865 67.7503 69.998 67.7844 70.2913C67.8185 70.5847 67.607 70.8508 67.3137 70.8849C66.7338 70.9531 66.1471 71.0077 65.5603 71.0418C65.5262 71.0418 65.4853 71.0418 65.4444 71.035ZM49.6169 67.5966C49.5623 67.5898 49.5077 67.5693 49.4531 67.542C48.9347 67.2691 48.423 66.9758 47.925 66.6756C47.6725 66.5187 47.5907 66.1912 47.7476 65.9388C47.9045 65.6864 48.232 65.6045 48.4844 65.7614C48.9619 66.0548 49.46 66.3345 49.958 66.6005C50.2172 66.737 50.3196 67.0644 50.1831 67.3237C50.0671 67.5284 49.8352 67.6307 49.6169 67.5966ZM69.9334 70.421C69.7219 70.3868 69.5445 70.2231 69.4968 70.0048C69.4354 69.7115 69.6196 69.4317 69.9061 69.3635C70.4519 69.2475 71.0113 69.1111 71.5502 68.961C71.8368 68.8791 72.1301 69.0497 72.212 69.3362C72.2939 69.6228 72.1233 69.9161 71.8368 69.998C71.2773 70.1549 70.7043 70.2982 70.1312 70.421C70.0698 70.4278 70.0016 70.4278 69.9334 70.421ZM45.7896 65.1747C45.7078 65.161 45.6327 65.1269 45.5577 65.0792C45.0869 64.7312 44.623 64.3628 44.1796 63.9876C43.9544 63.7966 43.9203 63.4555 44.1114 63.2304C44.3024 63.0052 44.6435 62.9711 44.8686 63.1621C45.2984 63.5237 45.7487 63.8785 46.1989 64.2128C46.4377 64.3901 46.4855 64.7244 46.3081 64.9632C46.1853 65.1338 45.9806 65.2088 45.7896 65.1747ZM74.2723 69.1316C74.0881 69.1043 73.9312 68.9747 73.8561 68.7905C73.7538 68.5107 73.8903 68.2037 74.17 68.0946C74.6953 67.8967 75.2206 67.6784 75.7322 67.4465C76.0051 67.3237 76.319 67.4465 76.4418 67.7194C76.5646 67.9923 76.4418 68.3061 76.1689 68.4289C75.6367 68.6677 75.091 68.8928 74.5452 69.1043C74.4565 69.1384 74.361 69.1452 74.2723 69.1316ZM78.3656 67.2009C78.2087 67.1736 78.0723 67.0849 77.9904 66.9348C77.8471 66.6756 77.9358 66.3481 78.1951 66.2048C78.6863 65.9251 79.1706 65.6318 79.6482 65.3248C79.9006 65.161 80.2281 65.2361 80.3918 65.4885C80.5555 65.7409 80.4805 66.0684 80.2281 66.2321C79.7369 66.546 79.232 66.8529 78.7272 67.1395C78.6112 67.2009 78.4816 67.2213 78.3656 67.2009ZM82.1315 64.6835C82.0018 64.663 81.8859 64.5948 81.7972 64.4856C81.613 64.2537 81.6539 63.9126 81.8859 63.7284C82.3293 63.3804 82.7659 63.0189 83.1889 62.6437C83.414 62.4458 83.7483 62.4663 83.9462 62.6914C84.144 62.9165 84.1235 63.2508 83.8984 63.4487C83.4618 63.8375 83.0047 64.2128 82.5476 64.5743C82.4248 64.6698 82.2747 64.704 82.1315 64.6835ZM85.4675 61.6271C85.3652 61.6135 85.2697 61.5657 85.1878 61.4907C84.9695 61.286 84.9627 60.9449 85.1605 60.7334C85.5426 60.3241 85.9246 59.8943 86.2862 59.4645C86.4772 59.2394 86.8183 59.2053 87.0434 59.3963C87.2686 59.5873 87.3027 59.9284 87.1117 60.1535C86.7364 60.6038 86.3476 61.0473 85.9451 61.4702C85.8223 61.5999 85.6381 61.6544 85.4675 61.6271ZM88.3056 58.0932C88.2305 58.0796 88.1555 58.0523 88.0941 58.0046C87.8485 57.834 87.7871 57.4997 87.9576 57.2609C88.2783 56.797 88.5853 56.3195 88.8786 55.8351C89.0355 55.5827 89.363 55.5008 89.6154 55.6509C89.8678 55.801 89.9497 56.1353 89.7996 56.3877C89.4994 56.8857 89.1788 57.3837 88.8445 57.8681C88.7217 58.0455 88.5102 58.1274 88.3056 58.0932ZM90.5773 54.1773C90.5296 54.1705 90.4818 54.1568 90.4341 54.1295C90.168 53.9999 90.052 53.6793 90.1817 53.4132C90.4273 52.9084 90.6592 52.3831 90.8707 51.8646C90.9867 51.5917 91.3005 51.4621 91.5734 51.5712C91.8463 51.6872 91.9759 52.001 91.8667 52.2739C91.6416 52.8129 91.4028 53.3518 91.1504 53.8771C91.0481 54.1023 90.8093 54.2182 90.5773 54.1773ZM92.2283 49.9612C92.2078 49.9544 92.1806 49.9544 92.1601 49.9475C91.8736 49.8588 91.7167 49.5587 91.8053 49.279C91.9691 48.74 92.1192 48.1942 92.2556 47.6416C92.3238 47.3551 92.6172 47.1777 92.9037 47.2459C93.1902 47.3142 93.3676 47.6075 93.2994 47.8941C93.163 48.4603 93.006 49.0334 92.8355 49.586C92.7536 49.8452 92.4876 50.0021 92.2283 49.9612ZM93.2244 45.5472C92.9378 45.4995 92.74 45.2266 92.7809 44.94C92.8628 44.3806 92.931 43.8144 92.9856 43.255C93.0129 42.9616 93.2721 42.7433 93.5723 42.7706C93.8656 42.7979 94.084 43.0571 94.0567 43.3573C94.0021 43.9372 93.9339 44.5239 93.8452 45.1038C93.8042 45.3971 93.5314 45.6018 93.2312 45.554C93.2312 45.5472 93.2312 45.5472 93.2244 45.5472Z" fill="#272727" fill-opacity="0.1"/>
<path d="M42.3581 62.1933C42.249 62.1728 42.1466 62.1251 42.0648 62.0432C41.8601 61.8386 41.6554 61.6271 41.4576 61.4088C41.2529 61.1905 41.2666 60.8493 41.4849 60.6515C41.7032 60.4468 42.0443 60.4605 42.2422 60.6788C42.4332 60.8835 42.631 61.0881 42.8289 61.286C43.0403 61.4975 43.0335 61.8386 42.822 62.0432C42.6992 62.1729 42.5219 62.2206 42.3581 62.1933Z" fill="#272727" fill-opacity="0.1"/>
</g>
<path d="M45.087 54.0683C45.162 54.2047 45.3121 54.2729 45.4622 54.2456L49.7534 53.4406C51.1383 54.9347 52.7756 56.2241 54.6176 57.2269L54.8973 61.5863C54.9041 61.7364 55.0133 61.866 55.1634 61.907L60.2186 63.2987C60.3687 63.3396 60.5256 63.2782 60.6075 63.1554L63.0703 59.5533C65.1715 59.6352 67.2318 59.3623 69.1898 58.7824L72.4713 61.6682C72.5873 61.7705 72.751 61.7842 72.8874 61.7091L77.4447 59.1167C77.5811 59.0416 77.6493 58.8915 77.622 58.7415L76.817 54.4503C78.3111 53.0654 79.6005 51.4281 80.6033 49.5861L84.9627 49.3064C85.1128 49.2995 85.2424 49.1904 85.2834 49.0403L86.6751 43.985C86.716 43.835 86.6615 43.678 86.5318 43.5962L82.9297 41.1334C83.0116 39.0321 82.7387 36.9718 82.1588 35.0139L85.0446 31.7324C85.1469 31.6164 85.1606 31.4527 85.0855 31.3162L82.4931 26.759C82.418 26.6225 82.268 26.5543 82.1179 26.5816L77.8267 27.3866C76.4418 25.8926 74.8045 24.6032 72.9625 23.6003L72.6828 19.2409C72.6759 19.0908 72.5668 18.9612 72.4167 18.9203L67.3615 17.5354C67.2114 17.4944 67.0545 17.549 66.9726 17.6786L64.5098 21.2808C62.4085 21.1989 60.3482 21.4718 58.3903 22.0517L55.102 19.1591C54.986 19.0567 54.8223 19.0431 54.6858 19.1181L50.1286 21.7106C49.9921 21.7856 49.9239 21.9357 49.9512 22.0858L50.7562 26.3769C49.269 27.7687 47.9796 29.406 46.9767 31.248L42.6173 31.5277C42.4672 31.5345 42.3376 31.6437 42.2967 31.7938L40.905 36.849C40.864 36.9991 40.9186 37.156 41.0482 37.2379L44.6504 39.7007C44.5685 41.8019 44.8414 43.8622 45.4213 45.8202L42.5355 49.1017C42.4331 49.2177 42.4195 49.3814 42.4945 49.5179L45.087 54.0683Z" fill="#9FA1A4"/>
<path d="M62.9338 45.4244C61.8627 45.2471 60.8871 44.7286 60.123 43.9304C59.1816 42.948 58.6836 41.6654 58.7108 40.3078C58.7381 38.9502 59.2975 37.6881 60.2731 36.7466C61.2555 35.8051 62.5381 35.3071 63.8957 35.3344C66.6996 35.3958 68.9305 37.7222 68.8691 40.5193C68.8077 43.3232 66.4813 45.5541 63.6842 45.4927C63.425 45.4927 63.1794 45.4654 62.9338 45.4244ZM64.4961 36.2486C64.2914 36.2145 64.0867 36.194 63.8821 36.1872C62.7564 36.1667 61.6853 36.5829 60.8735 37.3606C60.0616 38.1383 59.5977 39.1958 59.5773 40.3214C59.5568 41.4471 59.9729 42.5182 60.7507 43.33C61.5284 44.1419 62.579 44.6058 63.7115 44.6262C66.0379 44.674 67.9754 42.8183 68.0231 40.492C68.0573 38.3839 66.5223 36.5897 64.4961 36.2486Z" fill="#4B4C4F"/>
<path d="M61.7467 53.0312C61.3237 52.9561 60.8939 52.8674 60.471 52.7515C59.8433 52.5809 59.2225 52.3558 58.629 52.0897C58.6222 52.0897 58.6221 52.0829 58.6153 52.0829C58.588 52.0693 58.5608 52.0624 58.5403 52.0488C58.5335 52.0488 58.5335 52.0488 58.5266 52.042C58.5266 52.042 58.5198 52.042 58.5198 52.0351C58.5062 52.0283 58.4925 52.0215 58.4789 52.0147H58.4721C58.4652 52.0147 58.4652 52.0079 58.4584 52.0079C58.4584 52.0079 58.4584 52.0079 58.4516 52.0079C58.4107 51.9874 58.3766 51.9737 58.3356 51.9533C58.322 51.9465 58.3083 51.9396 58.2947 51.9328C58.2128 51.8919 58.131 51.8509 58.0559 51.8168C58.0082 51.7964 57.9672 51.7691 57.9195 51.7486C57.8376 51.7077 57.7898 51.6122 57.8103 51.5235C57.8171 51.503 57.824 51.4825 57.8308 51.4621C57.8854 51.3597 58.015 51.3188 58.1173 51.3734C58.895 51.7827 59.7273 52.1034 60.5801 52.3421C63.7797 53.2222 67.1363 52.7992 70.022 51.1619C72.9078 49.5178 74.9818 46.8503 75.8618 43.6507C75.9778 43.2413 76.0665 42.8252 76.1347 42.4158C77.1785 36.2076 73.3649 30.0745 67.1704 28.3758C63.9708 27.4957 60.6142 27.9187 57.7284 29.556C54.8427 31.2001 52.7687 33.8676 51.8886 37.0672C51.7795 37.4766 51.684 37.8859 51.6158 38.3021C51.3156 40.0963 51.4043 41.9383 51.8955 43.6916C51.9023 43.7257 51.9023 43.753 51.9023 43.7871C51.8886 43.869 51.8341 43.9372 51.7454 43.9577C51.6294 43.9918 51.5134 43.9235 51.4793 43.8076C50.9745 41.9929 50.879 40.0895 51.1928 38.2338C51.2678 37.804 51.3565 37.3811 51.4725 36.9581C52.3798 33.6425 54.5288 30.8863 57.517 29.1876C60.5051 27.4889 63.9708 27.0523 67.2863 27.9664C73.6992 29.7266 77.6424 36.0712 76.5645 42.4977C76.4895 42.9207 76.4008 43.3505 76.2848 43.7735C74.5179 50.1727 68.1732 54.1159 61.7467 53.0312Z" fill="#4B4C4F"/>
<g opacity="0.64">
<path d="M89.7658 31.8414C89.6293 31.821 89.5202 31.705 89.4997 31.5617C89.4792 31.3912 89.4588 31.2138 89.4451 31.0432C89.4315 30.8658 89.5611 30.7089 89.7385 30.6953C89.9159 30.6816 90.0728 30.8113 90.0864 30.9886C90.1001 31.1592 90.1205 31.3229 90.141 31.4935C90.1615 31.6709 90.0387 31.8278 89.8613 31.8482C89.8272 31.8414 89.7931 31.8414 89.7658 31.8414Z" fill="#272727" fill-opacity="0.1"/>
<path d="M89.6429 29.6173C89.4928 29.5901 89.3768 29.4604 89.3768 29.2967C89.3768 28.9419 89.3905 28.5804 89.4178 28.2256C89.4314 28.0482 89.5815 27.9118 89.7589 27.9254C89.9362 27.9391 90.0727 28.0892 90.0591 28.2665C90.0386 28.6077 90.0249 28.9556 90.0249 29.2967C90.0249 29.4741 89.8817 29.6173 89.6975 29.6173C89.677 29.6242 89.6565 29.6242 89.6429 29.6173ZM89.8748 26.868C89.6975 26.8407 89.5815 26.677 89.6088 26.4996L89.6292 26.3836C89.6838 26.0698 89.7452 25.756 89.8135 25.449C89.8544 25.2784 90.0181 25.1624 90.1955 25.2034C90.366 25.2443 90.482 25.4149 90.4411 25.5854C90.3729 25.8856 90.3183 26.1926 90.2637 26.486L90.2432 26.5951C90.216 26.7793 90.0522 26.9021 89.8748 26.868ZM90.523 24.1869C90.5093 24.1869 90.4957 24.18 90.4752 24.1732C90.3046 24.1186 90.216 23.9345 90.2705 23.7707C90.3797 23.4296 90.5025 23.0953 90.6321 22.761C90.6935 22.5973 90.8845 22.5154 91.0483 22.5768C91.212 22.6382 91.2939 22.8293 91.2325 22.993C91.1097 23.3136 90.9937 23.6411 90.8845 23.9686C90.83 24.1255 90.673 24.2142 90.523 24.1869ZM91.5668 21.6354C91.5326 21.6285 91.5054 21.6217 91.4781 21.6081C91.3212 21.5262 91.2529 21.3352 91.3348 21.1783C91.4917 20.8645 91.6691 20.5438 91.8465 20.2368C91.9352 20.0799 92.133 20.0322 92.2899 20.1208C92.4468 20.2095 92.4946 20.4074 92.4059 20.5643C92.2353 20.8645 92.0648 21.1646 91.9147 21.4716C91.8465 21.5944 91.7032 21.6627 91.5668 21.6354ZM92.9926 19.2817C92.9448 19.2749 92.8971 19.2544 92.8562 19.2271C92.7129 19.1248 92.6788 18.9201 92.7811 18.7769C92.9858 18.4903 93.2041 18.2038 93.4292 17.9241C93.5384 17.7877 93.743 17.7672 93.8795 17.8763C94.0159 17.9855 94.0364 18.1902 93.9272 18.3266C93.7089 18.5927 93.4974 18.8724 93.2996 19.1521C93.2382 19.2544 93.1154 19.2954 92.9926 19.2817ZM94.7732 17.1668C94.7118 17.1532 94.6504 17.1259 94.6026 17.0781C94.473 16.9553 94.473 16.7507 94.5958 16.6211C94.8482 16.3686 95.1075 16.1162 95.3667 15.8774C95.4963 15.7615 95.701 15.7683 95.8238 15.8979C95.9398 16.0275 95.933 16.2322 95.8033 16.355C95.5509 16.5869 95.2985 16.8257 95.0597 17.0713C94.9779 17.1532 94.8755 17.1805 94.7732 17.1668ZM96.854 15.3521C96.7721 15.3385 96.7039 15.2975 96.6493 15.2293C96.5401 15.0861 96.5742 14.8882 96.7175 14.7791C97.004 14.5676 97.2974 14.3629 97.5976 14.1651C97.7477 14.0696 97.9455 14.1105 98.041 14.2538C98.1365 14.4038 98.0956 14.6017 97.9455 14.6972C97.659 14.8882 97.3724 15.0861 97.0996 15.2907C97.0245 15.3453 96.9358 15.3658 96.854 15.3521ZM99.1803 13.8785C99.0848 13.8649 98.9961 13.8035 98.9484 13.7148C98.8665 13.5579 98.9279 13.36 99.0848 13.2782C99.3986 13.1144 99.7193 12.9507 100.047 12.8074C100.21 12.7324 100.402 12.8074 100.477 12.9644C100.552 13.1281 100.477 13.3191 100.32 13.3942C100.006 13.5374 99.6988 13.6875 99.3918 13.8512C99.3236 13.8785 99.2485 13.8922 99.1803 13.8785ZM101.711 12.7802C101.602 12.7597 101.5 12.6846 101.459 12.5687C101.398 12.3981 101.486 12.2139 101.657 12.1593C101.991 12.0434 102.332 11.9342 102.68 11.8387C102.851 11.7909 103.028 11.8864 103.076 12.0638C103.124 12.2344 103.028 12.4118 102.851 12.4595C102.523 12.555 102.189 12.6574 101.868 12.7665C101.821 12.7802 101.766 12.787 101.711 12.7802ZM118.419 15.4408C118.371 15.434 118.323 15.4135 118.276 15.3794C118.003 15.1747 117.723 14.9701 117.437 14.7791C117.286 14.6767 117.252 14.4789 117.348 14.3288C117.45 14.1787 117.648 14.1446 117.798 14.2401C118.091 14.438 118.385 14.6494 118.671 14.8609C118.815 14.9701 118.842 15.1679 118.733 15.3112C118.651 15.4135 118.535 15.4545 118.419 15.4408ZM104.379 12.0775C104.249 12.057 104.14 11.9547 104.113 11.8182C104.079 11.6409 104.195 11.4771 104.372 11.443C104.72 11.3816 105.075 11.327 105.429 11.2861C105.607 11.2656 105.764 11.3884 105.791 11.5658C105.812 11.7432 105.689 11.9001 105.511 11.9274C105.17 11.9683 104.829 12.0229 104.495 12.0843C104.454 12.0843 104.413 12.0843 104.379 12.0775ZM116.099 13.9468C116.065 13.9399 116.031 13.9331 115.997 13.9126C115.697 13.7489 115.383 13.592 115.076 13.4487C114.912 13.3737 114.844 13.1827 114.919 13.0189C114.994 12.8552 115.185 12.787 115.349 12.862C115.67 13.0121 115.99 13.1758 116.304 13.3396C116.461 13.4214 116.522 13.6193 116.434 13.7762C116.365 13.9058 116.229 13.9672 116.099 13.9468ZM107.121 11.7978C106.971 11.7705 106.855 11.6477 106.855 11.4908C106.848 11.3134 106.992 11.1633 107.169 11.1633C107.524 11.1565 107.885 11.1565 108.24 11.1701C108.418 11.1769 108.554 11.327 108.554 11.5044C108.547 11.6818 108.397 11.8182 108.22 11.8182C107.879 11.8046 107.531 11.8046 107.19 11.8114C107.162 11.7978 107.142 11.7978 107.121 11.7978ZM113.575 12.8279C113.555 12.8279 113.541 12.8211 113.521 12.8143C113.2 12.6983 112.866 12.596 112.538 12.5004C112.368 12.4527 112.272 12.2753 112.32 12.1048C112.368 11.9342 112.545 11.8387 112.716 11.8864C113.057 11.982 113.398 12.0979 113.732 12.2139C113.903 12.2753 113.985 12.4595 113.93 12.6232C113.882 12.7665 113.725 12.8552 113.575 12.8279ZM109.871 11.941C109.7 11.9137 109.584 11.7568 109.605 11.5795C109.625 11.4021 109.789 11.2793 109.966 11.2997C110.314 11.3475 110.669 11.4021 111.024 11.4703C111.201 11.5044 111.31 11.675 111.283 11.8455C111.249 12.0229 111.078 12.1389 110.908 12.1048C110.567 12.0434 110.225 11.9888 109.884 11.941C109.884 11.941 109.878 11.941 109.871 11.941Z" fill="#272727" fill-opacity="0.1"/>
<path d="M120.111 16.9009C120.049 16.8872 119.988 16.8599 119.94 16.8122C119.818 16.6962 119.695 16.5802 119.572 16.4642C119.442 16.3414 119.435 16.1368 119.551 16.0071C119.674 15.8775 119.879 15.8707 120.009 15.9867C120.138 16.1027 120.261 16.2255 120.391 16.3483C120.52 16.4711 120.52 16.6757 120.397 16.8053C120.316 16.8872 120.213 16.9145 120.111 16.9009Z" fill="#272727" fill-opacity="0.1"/>
</g>
<g opacity="0.64">
<path d="M125.507 29.6378C125.357 29.6105 125.241 29.4809 125.241 29.324C125.241 29.1534 125.234 28.9897 125.234 28.8191C125.228 28.6418 125.371 28.4917 125.548 28.4848C125.726 28.478 125.876 28.6213 125.882 28.7987C125.889 28.976 125.889 29.1466 125.889 29.324C125.889 29.5014 125.746 29.6446 125.569 29.6446C125.548 29.6378 125.528 29.6378 125.507 29.6378Z" fill="#272727" fill-opacity="0.1"/>
<path d="M104.283 47.3482C104.276 47.3482 104.276 47.3482 104.283 47.3482C103.97 47.2868 103.663 47.2254 103.362 47.1504L103.253 47.1231C103.083 47.0822 102.973 46.9048 103.021 46.7342C103.062 46.5637 103.24 46.4545 103.41 46.5023L103.519 46.5296C103.813 46.5978 104.113 46.666 104.406 46.7206C104.583 46.7547 104.699 46.9184 104.665 47.0958C104.618 47.2664 104.454 47.3755 104.283 47.3482ZM105.948 47.5802C105.784 47.5529 105.668 47.4028 105.682 47.2323C105.696 47.0549 105.852 46.9253 106.03 46.9389C106.364 46.973 106.705 46.9935 107.046 47.0003C107.224 47.0071 107.36 47.1572 107.36 47.3346C107.353 47.512 107.203 47.6484 107.026 47.6484C106.678 47.6348 106.323 47.6143 105.975 47.5802C105.962 47.587 105.955 47.5802 105.948 47.5802ZM101.657 46.6524C101.636 46.6524 101.623 46.6456 101.602 46.6387C101.268 46.5228 100.94 46.4 100.62 46.2635C100.456 46.1953 100.374 46.0043 100.442 45.8405C100.511 45.6768 100.702 45.5949 100.865 45.6632C101.179 45.7928 101.493 45.9156 101.814 46.0247C101.984 46.0861 102.073 46.2635 102.012 46.4341C101.964 46.591 101.807 46.6728 101.657 46.6524ZM108.656 47.6279C108.513 47.6007 108.397 47.4847 108.39 47.3278C108.377 47.1504 108.513 47.0003 108.69 46.9867C109.025 46.9662 109.366 46.9389 109.7 46.898C109.878 46.8775 110.034 47.0003 110.055 47.1777C110.075 47.3551 109.953 47.512 109.775 47.5324C109.427 47.5734 109.073 47.6075 108.725 47.6279C108.704 47.6348 108.684 47.6279 108.656 47.6279ZM99.1667 45.5676C99.1326 45.5608 99.0984 45.554 99.0712 45.5335C98.7642 45.3698 98.4503 45.1924 98.157 45.0151C98.0069 44.9195 97.9591 44.7217 98.0478 44.5716C98.1433 44.4215 98.3344 44.3738 98.4913 44.4624C98.7778 44.6398 99.078 44.8036 99.3782 44.9673C99.5351 45.0492 99.5965 45.247 99.5146 45.4039C99.4396 45.5267 99.3031 45.5881 99.1667 45.5676ZM111.351 47.2595C111.228 47.2391 111.119 47.1436 111.092 47.0071C111.051 46.8366 111.167 46.6592 111.337 46.6251C111.665 46.5569 111.999 46.475 112.32 46.3795C112.49 46.3317 112.668 46.4341 112.716 46.6046C112.763 46.7752 112.661 46.9526 112.49 47.0003C112.156 47.0958 111.808 47.1777 111.467 47.2527C111.426 47.2595 111.385 47.2664 111.351 47.2595ZM96.8744 44.1145C96.8267 44.1077 96.7789 44.0872 96.738 44.0531C96.4583 43.8416 96.1785 43.6233 95.9125 43.3982C95.776 43.2822 95.7556 43.0775 95.8715 42.9411C95.9875 42.8047 96.1922 42.7842 96.3286 42.9002C96.5879 43.1185 96.8539 43.33 97.1268 43.5278C97.2701 43.637 97.2974 43.8348 97.1951 43.9781C97.1064 44.0872 96.9904 44.135 96.8744 44.1145ZM113.95 46.4818C113.841 46.4614 113.746 46.3863 113.705 46.2772C113.643 46.1134 113.725 45.9224 113.889 45.861C114.203 45.7382 114.523 45.6086 114.83 45.4721C114.994 45.3971 115.185 45.4721 115.253 45.6359C115.328 45.7996 115.253 45.9906 115.09 46.0588C114.769 46.2021 114.442 46.3386 114.114 46.4614C114.06 46.4886 114.005 46.4955 113.95 46.4818ZM116.406 45.3289C116.311 45.3152 116.229 45.2606 116.181 45.172C116.093 45.015 116.147 44.824 116.304 44.7353C116.597 44.5716 116.891 44.3942 117.177 44.21C117.327 44.1145 117.525 44.1555 117.621 44.3055C117.716 44.4556 117.675 44.6535 117.525 44.749C117.232 44.94 116.932 45.1242 116.625 45.2948C116.55 45.3289 116.475 45.3425 116.406 45.3289ZM118.658 43.8212C118.583 43.8075 118.508 43.7666 118.46 43.7052C118.351 43.5619 118.371 43.3641 118.514 43.2549C118.78 43.0434 119.04 42.8251 119.299 42.6068C119.435 42.4908 119.633 42.5045 119.756 42.6341C119.872 42.7705 119.858 42.9684 119.729 43.0912C119.47 43.3231 119.197 43.5483 118.917 43.7666C118.835 43.8143 118.746 43.8348 118.658 43.8212ZM120.663 41.986C120.602 41.9792 120.547 41.9451 120.5 41.9041C120.37 41.7813 120.363 41.5767 120.486 41.447C120.718 41.2014 120.943 40.9422 121.161 40.683C121.277 40.5465 121.482 40.526 121.612 40.642C121.748 40.758 121.769 40.9558 121.653 41.0923C121.428 41.3584 121.196 41.6244 120.957 41.8837C120.875 41.9723 120.766 41.9996 120.663 41.986ZM122.362 39.8711C122.314 39.8643 122.273 39.8438 122.233 39.8165C122.089 39.7142 122.048 39.5164 122.151 39.3663C122.342 39.0866 122.526 38.8 122.703 38.5135C122.792 38.3634 122.997 38.3156 123.147 38.4043C123.297 38.493 123.345 38.6909 123.256 38.8478C123.072 39.148 122.881 39.4481 122.683 39.7347C122.608 39.8438 122.485 39.8916 122.362 39.8711ZM123.727 37.5175C123.699 37.5106 123.665 37.5038 123.638 37.4902C123.481 37.4151 123.413 37.2173 123.488 37.0604C123.631 36.7534 123.774 36.4464 123.904 36.1325C123.972 35.9688 124.163 35.8869 124.327 35.9552C124.491 36.0234 124.573 36.2144 124.504 36.3781C124.368 36.6988 124.225 37.0263 124.075 37.3401C124.006 37.4765 123.863 37.5447 123.727 37.5175ZM124.716 34.9932C124.702 34.9932 124.689 34.9864 124.675 34.9864C124.504 34.9318 124.409 34.7545 124.463 34.5839C124.559 34.2633 124.654 33.929 124.736 33.6015C124.777 33.431 124.955 33.3218 125.125 33.3627C125.296 33.4037 125.405 33.581 125.364 33.7516C125.282 34.0927 125.187 34.4338 125.084 34.7681C125.03 34.925 124.873 35.0205 124.716 34.9932ZM125.316 32.3462C125.146 32.3189 125.023 32.1552 125.05 31.9778C125.098 31.6435 125.139 31.3024 125.173 30.9681C125.187 30.7908 125.343 30.6611 125.521 30.6748C125.698 30.6884 125.828 30.8453 125.814 31.0227C125.78 31.3706 125.739 31.7254 125.691 32.0665C125.657 32.2507 125.494 32.3735 125.316 32.3462Z" fill="#272727" fill-opacity="0.1"/>
<path d="M94.8141 42.3272C94.7527 42.3135 94.6913 42.2862 94.6368 42.2385C94.514 42.1157 94.3912 41.9861 94.2752 41.8633C94.1524 41.7336 94.1592 41.529 94.2888 41.4062C94.4185 41.2834 94.6231 41.2902 94.7459 41.4198C94.8619 41.5426 94.9779 41.6654 95.0938 41.7882C95.2166 41.9178 95.2166 42.1157 95.0938 42.2453C95.0188 42.3135 94.9165 42.3408 94.8141 42.3272Z" fill="#272727" fill-opacity="0.1"/>
</g>
<path d="M96.4514 37.4562C96.4992 37.538 96.5879 37.579 96.6765 37.5585L99.2485 37.0741C100.081 37.9747 101.063 38.7456 102.168 39.3459L102.332 41.9588C102.339 42.0475 102.4 42.1294 102.489 42.1498L105.518 42.9822C105.607 43.0094 105.702 42.9685 105.75 42.8935L107.23 40.7308C108.486 40.7786 109.727 40.6149 110.901 40.2737L112.866 42.0066C112.934 42.068 113.036 42.0748 113.111 42.0339L115.84 40.4784C115.922 40.4307 115.963 40.342 115.942 40.2533L115.458 37.6813C116.359 36.849 117.129 35.8666 117.73 34.7614L120.343 34.5977C120.431 34.5908 120.513 34.5294 120.534 34.4408L121.366 31.4117C121.393 31.323 121.359 31.2275 121.277 31.1797L119.115 29.6993C119.163 28.444 118.999 27.2024 118.658 26.029L120.391 24.0642C120.452 23.996 120.459 23.8936 120.418 23.8186L118.862 21.0897C118.815 21.0078 118.726 20.9669 118.637 20.9874L116.065 21.4718C115.233 20.5712 114.251 19.8003 113.145 19.2L112.982 16.5871C112.975 16.4984 112.913 16.4165 112.825 16.396L109.796 15.5637C109.707 15.5364 109.611 15.5706 109.564 15.6524L108.083 17.8151C106.828 17.7673 105.586 17.931 104.413 18.2721L102.448 16.5393C102.38 16.4779 102.278 16.4711 102.203 16.512L99.4736 18.0675C99.3918 18.1152 99.3508 18.2039 99.3713 18.2926L99.8557 20.8646C98.9552 21.6969 98.1842 22.6793 97.5839 23.7845L94.971 23.9482C94.8823 23.955 94.8004 24.0164 94.78 24.1051L93.9477 27.1342C93.9204 27.2229 93.9545 27.3184 94.0364 27.3661L96.199 28.8466C96.1512 30.1018 96.315 31.3435 96.6561 32.5169L94.9232 34.4817C94.8618 34.5499 94.855 34.6522 94.896 34.7273L96.4514 37.4562Z" fill="#9FA1A4"/>
<path d="M107.149 32.2713C106.507 32.1621 105.921 31.8551 105.463 31.3775C104.897 30.7908 104.597 30.0199 104.617 29.2013C104.631 28.3894 104.965 27.6322 105.552 27.0659C106.139 26.4997 106.91 26.1995 107.728 26.22C109.407 26.2541 110.744 27.6526 110.71 29.3309C110.676 31.0091 109.277 32.3463 107.599 32.3122C107.449 32.3122 107.299 32.2985 107.149 32.2713ZM108.09 26.7726C107.967 26.7521 107.844 26.7384 107.722 26.7384C107.046 26.7248 106.405 26.9772 105.914 27.4411C105.423 27.9119 105.15 28.5395 105.136 29.2149C105.122 29.8903 105.375 30.5316 105.839 31.0228C106.309 31.514 106.937 31.7869 107.612 31.8005C109.011 31.8278 110.171 30.7158 110.198 29.3241C110.225 28.0551 109.304 26.9772 108.09 26.7726Z" fill="#4B4C4F"/>
<path d="M106.439 36.8353C106.187 36.7944 105.927 36.733 105.675 36.6648C105.3 36.5625 104.925 36.426 104.57 36.2691C104.57 36.2691 104.563 36.2691 104.563 36.2623C104.549 36.2555 104.529 36.2486 104.515 36.2418H104.508H104.502C104.495 36.2418 104.488 36.235 104.481 36.2282C104.481 36.2282 104.481 36.2282 104.474 36.2282C104.474 36.2282 104.467 36.2282 104.467 36.2213C104.447 36.2077 104.42 36.2009 104.399 36.1872C104.392 36.1804 104.386 36.1804 104.379 36.1736C104.331 36.1531 104.283 36.1258 104.235 36.1054C104.208 36.0917 104.181 36.0781 104.154 36.0644C104.106 36.0371 104.079 35.9826 104.085 35.928C104.085 35.9143 104.092 35.9007 104.099 35.8871C104.133 35.8257 104.208 35.7984 104.27 35.8325C104.733 36.0781 105.232 36.2691 105.75 36.4124C107.667 36.9377 109.68 36.6853 111.412 35.7029C113.145 34.7205 114.387 33.1172 114.912 31.2002C114.98 30.9546 115.035 30.709 115.076 30.4566C115.704 26.7385 113.418 23.0613 109.7 22.038C107.783 21.5127 105.77 21.7651 104.038 22.7475C102.305 23.7299 101.063 25.3331 100.538 27.2502C100.47 27.4958 100.415 27.7414 100.374 27.987C100.19 29.0649 100.251 30.1632 100.545 31.2207C100.551 31.2411 100.551 31.2616 100.545 31.2753C100.538 31.323 100.504 31.3639 100.449 31.3776C100.381 31.398 100.313 31.3571 100.292 31.2889C99.9921 30.2042 99.9307 29.058 100.122 27.946C100.163 27.6868 100.224 27.4344 100.292 27.1819C100.838 25.1967 102.127 23.5389 103.915 22.5224C105.702 21.5059 107.783 21.2466 109.768 21.7924C113.609 22.8498 115.976 26.6498 115.328 30.5043C115.287 30.7568 115.226 31.016 115.158 31.2684C114.094 35.1161 110.294 37.4835 106.439 36.8353Z" fill="#4B4C4F"/>
<path d="M63.6117 184.086C63.6117 184.086 63.257 185.982 63.0796 187.858C63.0114 188.588 63.5708 189.236 64.3008 189.27C66.7977 189.4 72.1463 189.652 74.0702 189.584C74.3567 189.577 74.5477 189.277 74.4454 189.011C74.3567 188.786 74.1862 188.602 73.9678 188.5L65.174 184.352L63.6117 184.086Z" fill="#227CF2"/>
<path d="M63.3525 182.967L63.5981 185.239C63.5981 185.239 65.1399 185.975 66.2042 185.17L65.5902 182.632L63.3525 182.967Z" fill="#E2A18D"/>
<path d="M63.9597 140.314C63.8369 140.908 63.0524 169.875 66.0269 182.892C66.0746 183.103 65.9655 183.322 65.7608 183.403C65.2833 183.594 64.3486 183.867 63.2366 183.895C62.8887 183.901 62.5817 183.676 62.4862 183.342C61.6266 180.32 57.5332 165.188 57.1171 150.759C56.6532 134.638 57.1239 150.213 57.1239 150.213L57.581 140.26L63.9597 140.314Z" fill="#185AB0"/>
<path d="M53.4399 184.979C53.4399 184.979 52.8941 185.935 52.3552 188.472C52.2597 188.929 52.5735 189.373 53.0374 189.427C53.8629 189.516 55.1318 189.632 56.1483 189.639C56.619 189.639 56.9874 189.236 56.9329 188.766C56.8305 187.838 56.4894 186.31 55.4183 185.109L53.4399 184.979Z" fill="#227CF2"/>
<path d="M53.0032 182.059L53.5968 185.498C53.5968 185.498 54.2176 185.969 55.4456 185.641L55.1795 181.943L53.0032 182.059Z" fill="#E2A18D"/>
<path d="M51.6934 141.085C49.0123 156.347 51.8844 178.88 52.8805 183.294C52.9419 183.567 53.1602 183.772 53.4331 183.82C53.897 183.901 54.6611 183.97 55.4183 183.758C55.6776 183.683 55.8618 183.451 55.8754 183.185C56.046 179.624 56.005 157.766 58.4474 149.156C58.5702 148.719 58.8431 148.337 59.2115 148.078L63.8233 144.865L64.2258 139.605L51.6934 141.085Z" fill="#185AB0"/>
<path d="M68.1076 112.268C60.5145 112.071 52.1232 114.11 52.1232 114.11C49.7354 127.291 51.4546 142.539 51.4546 142.539C57.3149 144.135 63.9734 141.713 63.9734 141.713C65.0035 136.201 69.7108 120.714 69.7108 120.714C73.4221 120.291 76.4921 119.248 79.0231 117.856C77.1266 115.611 76.2465 112.773 75.8713 111.095C73.1697 111.914 70.4544 112.33 68.1076 112.268Z" fill="#227CF2"/>
<path d="M90.6413 101.305C89.9045 100.398 88.9562 100.814 88.9562 100.814C87.7965 105.521 81.9021 109.294 75.8644 111.109C76.2397 112.787 77.1197 115.625 79.0163 117.869C89.0586 112.343 90.6413 101.305 90.6413 101.305Z" fill="#E2A18D"/>
<path d="M90.4572 101.53C90.5323 101.776 89.6249 102.151 89.1064 101.128C89.0928 100.643 88.8199 98.5557 89.1132 98.16C90.6823 96.0656 93.7046 93.4459 93.7046 93.4459C94.2094 93.9507 93.7864 94.4419 93.7864 94.4419L92.3197 95.9428C92.6198 96.4954 92.9882 96.9661 93.152 97.6279C93.2816 98.1327 93.1929 98.6717 92.9337 99.1288C92.6744 99.5859 92.3197 100.179 91.9854 100.65C91.3509 101.53 90.4572 101.53 90.4572 101.53Z" fill="#E2A18D"/>
<path d="M54.9612 121.492L52.1163 114.11C52.1163 114.11 44.9803 118.859 43.7523 124.958C45.0895 125.067 47.525 125.442 49.8991 126.67C50.4585 123.791 54.9612 121.492 54.9612 121.492Z" fill="#227CF2"/>
<path d="M61.0944 128.464C61.0944 128.464 53.0919 132.885 50.4381 129.017C49.8855 128.212 49.7627 127.42 49.906 126.663C47.5318 125.435 45.0963 125.067 43.7592 124.951C43.3908 126.786 43.5545 128.751 44.6188 130.743C49.2442 139.393 62.1245 130.436 62.1245 130.436L61.0944 128.464Z" fill="#E2A18D"/>
<path d="M60.4804 106.033L57.9971 112.998C57.9562 113.114 58.0039 113.244 58.1063 113.305C58.7612 113.674 61.1217 114.752 64.0006 112.964C64.3008 112.78 64.5055 112.473 64.5532 112.125L65.3924 106.087L60.4804 106.033Z" fill="#E2A18D"/>
<path d="M65.7949 99.6132C65.7949 99.6132 68.401 104.634 68.0394 106.647C67.6778 108.659 64.3963 108.482 61.5378 106.817L59.5867 101.407L65.7949 99.6132Z" fill="#E2A18D"/>
<path d="M61.6948 104.17C61.8108 104.123 61.8585 103.979 61.7903 103.87C61.5788 103.543 61.1899 102.874 61.0671 102.294C61.0671 102.294 60.5964 101.987 62.2883 101.598C63.9802 101.21 66.5113 100.609 67.0502 99.1698C67.5823 97.7712 66.2588 94.2305 64.0621 97.0208C63.9802 97.13 63.8165 97.13 63.7346 97.0208C63.3867 96.5569 62.4589 95.5881 61.1558 96.1544C59.9347 96.6865 59.7914 97.5734 59.805 98.0237C59.8119 98.1533 59.6891 98.2556 59.5594 98.2283C58.9454 98.1055 57.4787 97.9896 56.776 99.4973C56.1961 100.732 56.5577 101.442 56.892 101.79C57.0011 101.899 56.9534 102.083 56.8033 102.131C56.4008 102.253 55.8754 102.588 55.9164 103.529C55.9778 104.832 57.4377 104.737 57.8539 104.675C57.9221 104.668 57.9903 104.689 58.0381 104.744C58.3928 105.139 59.9824 106.831 61.7152 107.049C61.8653 107.07 61.9813 106.92 61.9336 106.777L61.2036 104.587C61.1695 104.484 61.2172 104.375 61.3196 104.334L61.6948 104.17Z" fill="#E51818"/>
<path d="M61.995 104.484C61.995 104.484 60.1188 103.168 59.9688 104.259C59.8187 105.351 61.6538 105.855 62.568 105.46L61.995 104.484Z" fill="#E2A18D"/>
<path d="M59.457 135.457L63.8164 120.23C63.8642 120.059 64.0143 119.93 64.1917 119.909C64.983 119.814 67.2685 119.561 69.9155 119.336C73.1015 119.07 76.7991 118.852 79.0026 119.036C79.3165 119.063 79.5075 119.398 79.3642 119.677C78.1089 122.222 72.9377 132.558 70.3521 135.948C70.2634 136.057 70.1338 136.126 69.9905 136.126L59.8732 136.03C59.5867 136.023 59.3752 135.744 59.457 135.457Z" fill="#272727"/>
<path d="M60.5144 131.78C60.5144 131.78 59.9073 129.283 60.1529 128.396C60.3985 127.509 60.876 126.37 62.4519 126.622C64.0347 126.875 65.904 127.543 65.904 127.543C65.904 127.543 65.8085 128.696 64.6077 128.328L65.3514 128.908C65.3514 128.908 65.2422 129.829 64.2257 129.338L64.9216 130.102C64.9216 130.102 64.485 130.859 63.7413 130.375C62.9909 129.883 62.6293 132.08 60.5144 131.78Z" fill="#E2A18D"/>
<path d="M69.6289 123.88C69.6289 124.589 70.202 125.162 70.9115 125.162C71.621 125.162 72.1941 124.589 72.1941 123.88C72.1941 123.17 71.621 122.597 70.9115 122.597C70.202 122.604 69.6289 123.177 69.6289 123.88Z" fill="#FAFAFA"/>
<path d="M64.3145 124.726L65.2014 121.717C65.3105 121.349 65.6107 121.069 65.9791 120.994C68.7625 120.414 76.3761 120.291 76.4512 120.291L76.4443 119.95C76.1305 119.957 68.7216 120.073 65.904 120.66C65.4128 120.762 65.0172 121.13 64.8739 121.622L63.987 124.63L64.3145 124.726Z" fill="#FAFAFA"/>
</svg>
