<svg width="301" height="200" viewBox="0 0 301 200" fill="none" xmlns="http://www.w3.org/2000/svg">
<g style="mix-blend-mode:multiply" opacity="0.1">
<ellipse cx="150.5" cy="188.704" rx="129.074" ry="4.62963" fill="#272727"/>
</g>
<path d="M153.412 100.381C153.412 100.381 172.804 71.3982 167.789 66.5132C162.773 61.6282 161.727 74.6984 159.702 72.6888C157.676 70.6793 161.989 60.0107 161.564 52.3647C161.156 44.7023 159.8 34.4095 156.369 44.4082C152.938 54.4069 152.546 64.4873 151.761 59.2102C150.961 53.9331 148.886 26.551 143.135 34.2624C137.384 41.9739 135.538 52.4137 140.309 58.9161C145.079 65.4185 151.598 72.7705 143.315 67.6405C135.032 62.4941 129.019 64.0952 137.629 72.9502C137.629 72.9502 150.65 85.4159 144.687 84.4357C138.708 83.4718 128.676 89.1246 138.217 94.418C138.217 94.418 152.088 97.4732 153.412 100.381Z" fill="#00C14D"/>
<path d="M148.412 163.298C148.396 163.314 148.38 163.331 148.363 163.363C148.363 163.363 148.363 163.412 148.363 163.38L148.38 163.282L148.429 162.906L148.51 162.122L148.674 160.553L148.984 157.4L149.556 151.077C149.915 146.846 150.242 142.631 150.536 138.399C151.124 129.936 151.582 121.473 151.859 112.994C151.99 108.762 152.088 104.515 152.121 100.283C152.137 96.0517 152.105 91.8202 151.974 87.5888C151.843 83.3573 151.598 79.1421 151.173 74.9433C150.732 70.7609 150.128 66.5621 148.919 62.592V62.5757C148.804 62.1836 149.017 61.7751 149.409 61.6608C149.801 61.5464 150.209 61.7588 150.324 62.1509C151.647 66.3007 152.301 70.5485 152.807 74.78C153.297 79.0278 153.608 83.2756 153.804 87.5398C153.983 91.8039 154.081 96.0517 154.114 100.316C154.13 104.58 154.098 108.828 154.016 113.076C153.853 121.588 153.51 130.083 153.036 138.579C152.807 142.827 152.529 147.075 152.235 151.306L151.761 157.678L151.5 160.864L151.353 162.465L151.271 163.265L151.222 163.674L151.206 163.772C151.206 163.804 151.19 163.919 151.173 163.984C151.141 164.131 151.108 164.294 151.059 164.442C150.749 165.177 149.915 165.52 149.18 165.209C148.445 164.883 148.102 164.033 148.412 163.298Z" fill="#49E788"/>
<path d="M161.45 127.682C161.45 127.682 195.106 126.081 193.619 118.287C192.132 110.494 181.137 115.706 176.252 116.213C171.367 116.703 174.226 113.37 184.192 106.361C194.142 99.352 199.631 89.0919 189.077 93.8789C178.539 98.6658 174.324 107.652 175.026 101.313C175.745 94.9735 189.289 77.1163 177.837 84.4357C166.367 91.7386 167.152 98.5025 166.809 103.845C166.465 109.187 164.93 93.5194 161.352 95.8557C157.774 98.192 159.8 100.594 161.09 106.786C162.381 112.994 158.787 107.995 157.594 105.952C156.401 103.91 153.493 108.795 156.352 115.543C159.195 122.258 161.45 127.682 161.45 127.682Z" fill="#02983E"/>
<path d="M154.931 164.801C154.947 164.834 154.947 164.883 154.947 164.915C154.947 164.932 154.947 164.981 154.947 164.948L154.964 164.883L154.996 164.638L155.078 164.148L155.241 163.151L155.568 161.141L156.271 157.122C156.744 154.443 157.235 151.763 157.757 149.084C158.787 143.725 159.881 138.399 161.074 133.073C162.267 127.763 163.557 122.47 165.06 117.242C165.812 114.628 166.612 112.046 167.527 109.498C168.442 106.965 169.439 104.433 170.746 102.129L170.762 102.113C170.958 101.754 170.844 101.313 170.484 101.1C170.141 100.904 169.684 101.018 169.488 101.362C168.05 103.78 166.972 106.345 165.992 108.91C165.011 111.491 164.145 114.089 163.329 116.719C161.711 121.963 160.306 127.257 158.983 132.567C157.676 137.876 156.45 143.219 155.307 148.561C154.735 151.241 154.179 153.92 153.64 156.599L152.856 160.635L152.48 162.661L152.301 163.674L152.219 164.197L152.17 164.458L152.154 164.523L152.137 164.687C152.121 164.817 152.121 164.932 152.121 165.062C152.203 165.847 152.905 166.435 153.689 166.353C154.424 166.288 154.996 165.585 154.931 164.801Z" fill="#00C14D"/>
<path d="M141.403 113.795C141.403 113.795 106.898 111.997 109.365 104.466C111.832 96.9177 122.059 103.502 126.846 104.613C131.633 105.724 132.205 104.858 123.219 96.64C114.234 88.4221 112.486 79.0769 122.337 85.1709C132.189 91.2649 129.738 98.1431 129.836 91.7713C129.934 85.3996 115.214 62.6411 125.654 71.3491C136.094 80.0572 138.119 88.2097 137.793 93.5358C137.45 98.8782 140.962 83.5371 144.23 86.2982C147.481 89.0756 145.161 91.1832 143.102 97.1791C141.044 103.175 145.243 98.6659 146.68 96.8034C148.118 94.9409 150.389 100.153 146.697 106.475C143.004 112.765 141.403 113.795 141.403 113.795Z" fill="#02712E"/>
<path d="M150.111 171.091C150.128 170.96 150.144 170.813 150.144 170.666C150.144 170.601 150.144 170.503 150.144 170.487V170.405L150.128 170.094L150.079 169.49L149.964 168.297L149.736 165.912L149.229 161.158C148.886 157.988 148.51 154.835 148.118 151.682C147.318 145.375 146.435 139.069 145.422 132.779C144.393 126.489 143.25 120.232 141.828 114.007C141.109 110.903 140.325 107.799 139.378 104.743C138.43 101.688 137.368 98.6331 135.832 95.7413C135.636 95.3819 135.195 95.2512 134.836 95.4309C134.476 95.627 134.345 96.0517 134.525 96.4112L134.542 96.4275C135.93 99.1722 136.927 102.178 137.793 105.185C138.659 108.207 139.394 111.279 140.031 114.383C141.322 120.575 142.351 126.816 143.266 133.089C144.164 139.363 144.932 145.653 145.602 151.96C145.945 155.113 146.256 158.266 146.55 161.419L146.958 166.157L147.138 168.526L147.22 169.702L147.252 170.29L147.269 170.568V170.634C147.269 170.666 147.269 170.601 147.269 170.601C147.269 170.552 147.285 170.519 147.301 170.487C147.138 171.254 147.628 172.022 148.396 172.202C149.164 172.365 149.932 171.875 150.111 171.091Z" fill="#00C14D"/>
<path d="M138.201 157.498H166.449C168.295 157.498 169.668 159.214 169.259 161.027C167.446 168.853 165.289 176.809 160.845 184.88C160.028 186.367 158.46 187.298 156.761 187.298H147.546C145.88 187.298 144.328 186.383 143.544 184.897C139.998 178.296 136.567 170.421 134.885 161.501C134.509 159.426 136.094 157.498 138.201 157.498Z" fill="#A7C9F5"/>
<path d="M104.499 59.635C104.499 59.635 107.146 53.0509 98.9934 51.9726C90.8409 50.8943 87.704 57.7398 84.4855 66.7419C81.8551 74.1102 72.9511 78.1783 67.1838 82.7039C59.9299 88.4058 56.548 97.1301 59.211 106.345C61.3839 113.876 69.6345 116.409 76.6924 116.115C98.3072 115.232 103.682 115.706 104.989 102.031C106.296 88.3568 104.499 59.635 104.499 59.635Z" fill="#272727"/>
<path d="M128.271 63.066C128.091 62.7229 127.568 62.772 127.47 63.1477C127.078 64.5528 126.13 67.0034 124.154 67.8693C124.056 67.9183 123.958 67.951 123.876 68C123.778 67.7386 123.778 67.4119 124.007 67.0851C124.627 66.1375 123.516 64.8632 123.516 64.8632C123.516 64.8632 123.451 65.9905 122.585 66.7094C121.85 67.3302 121.491 68.6862 121.997 69.8135C123.075 73.9797 124.676 79.4855 118.419 83.5046C112.178 87.5237 103.372 75.9238 103.372 75.9238L107.734 89.7783C107.734 89.7783 114.482 94.7613 122.324 87.7524C130.166 80.7598 124.97 70.5814 124.97 70.5814C124.97 70.5814 130.934 68.1471 128.271 63.066Z" fill="#E2A18D"/>
<path d="M102.767 74.3881C100.905 73.8326 95.4482 72.787 90.2854 77.5739C89.4032 78.3908 89.0438 79.6161 89.3542 80.7761C90.7429 85.8898 94.4189 101.019 91.2003 107.57C91.2003 107.57 96.8695 113.811 103.045 108.779C103.045 108.779 105.823 96.6891 109.45 91.3793C111.966 87.7197 105.447 77.6229 103.797 75.1723C103.568 74.7965 103.192 74.5188 102.767 74.3881Z" fill="#D2D3D6"/>
<path d="M97.6047 64.2259C97.6047 64.2259 94.8436 72.0517 94.6312 75.499C94.6312 75.499 97.6864 76.8877 100.562 74.5514C100.562 74.5514 100.856 66.742 101.297 65.3369L97.6047 64.2259Z" fill="#E2A18D"/>
<path d="M103.911 58.0992C103.911 58.0992 108.747 69.552 103.878 71.4798C99.0098 73.3913 95.5789 65.2551 95.5789 65.2551C95.5789 65.2551 95.1541 59.4879 97.278 58.0338C99.4019 56.5798 103.911 58.0992 103.911 58.0992Z" fill="#E2A18D"/>
<path d="M101.183 54.9951C101.183 54.9951 104.254 56.4982 104.369 58.0666C104.499 59.635 99.1404 59.8637 97.7027 59.6023L95.2357 65.2552C95.2357 65.2552 93.1118 58.9325 95.1704 56.0244C97.2453 53.1162 101.183 54.9951 101.183 54.9951Z" fill="#272727"/>
<path d="M97.1146 64.8305C97.1146 64.8305 95.0888 61.0402 93.5203 62.8537C91.9682 64.6835 95.1704 67.0361 96.6408 66.3009L97.1146 64.8305Z" fill="#E2A18D"/>
<path d="M110.283 134.152C110.267 134.707 111.23 139.053 111.753 141.373C111.966 142.304 111.819 143.284 111.345 144.118L93.1773 174.702C92.9649 175.078 92.8015 175.47 92.7035 175.894C92.3767 177.332 91.6742 180.845 92.0336 184.047L92.9812 185.991L88.9131 185.076L88.0309 174.163L89.1745 173.46C90.1711 172.856 90.939 171.941 91.3801 170.879C93.0302 166.892 97.0983 156.73 98.1603 151.78C99.3529 146.16 105.61 141.585 105.61 141.585L104.516 138.988L110.283 134.152Z" fill="#E2A18D"/>
<path d="M84.3875 181.319C84.3875 181.319 86.5767 177.839 86.8381 176.483C87.0995 175.127 87.8184 172.741 89.1744 173.46C89.1744 173.46 89.8116 180.044 89.5992 182.609C89.3868 185.174 92.5073 185.093 92.5073 185.093C92.5073 185.093 93.3732 185.207 93.994 185.844C94.4352 186.285 94.1248 187.037 93.5039 187.069C92.4746 187.135 90.8572 187.151 89.1417 186.824C88.5372 186.71 88.0961 186.204 88.0634 185.599L87.606 178.018L84.8449 181.515L84.3875 181.319Z" fill="#F86262"/>
<path d="M99.4182 139.036C99.4182 139.036 98.7811 166.386 98.683 170.274C98.6014 174.163 99.3039 182.773 103.192 185.338L101.493 186.596C101.493 186.596 99.3692 184.798 97.3107 181.335C94.9907 177.446 94.2882 176.728 94.2882 176.728L95.0561 175.143C95.3991 174.457 95.4972 173.672 95.3338 172.921C94.5006 168.853 91.6905 155.309 90.9226 152.384C90.024 148.937 89.9587 144.346 93.0955 140.49C96.2487 136.635 99.4182 139.036 99.4182 139.036Z" fill="#E2A18D"/>
<path d="M95.8239 187.821C95.7095 187.821 95.5952 187.739 95.5788 187.609C95.4481 186.694 94.909 183.034 94.4679 182.087C93.9614 181.008 92.3113 176.434 94.4679 176.058C94.4679 176.058 99.8266 183.9 100.856 184.962C101.885 186.024 103.192 185.338 103.192 185.338C103.192 185.338 104.189 185.632 104.957 186.596C105.316 187.053 104.989 187.739 104.401 187.739L100.791 187.772C99.745 187.788 98.7974 187.151 98.4053 186.171C97.7681 184.586 96.6735 182.25 95.3991 181.221L96.069 187.56C96.0853 187.69 95.9709 187.821 95.8239 187.821Z" fill="#F86262"/>
<path d="M103.911 105.822C103.911 105.822 103.094 108.419 104.352 112.7L112.113 139.804C112.227 140.229 111.998 140.67 111.59 140.834C109.27 141.667 101.64 144.019 91.2167 143.301C90.6938 143.268 90.2527 142.892 90.1384 142.386C89.4522 139.298 87.1159 128.76 86.6258 126.587C84.7959 118.336 82.7374 109.432 91.7558 104.041C95.9219 105.805 99.794 106.867 103.911 105.822Z" fill="#F86262"/>
<path d="M89.5503 78.6032C89.5503 78.6032 80.7116 85.9388 78.5223 95.9702C76.3331 106.002 91.4291 107.064 91.4291 107.064C91.4291 107.064 93.4713 104.776 95.9057 105.593C98.34 106.41 96.1017 101.607 93.2426 101.607C90.3999 101.623 91.7069 103.878 87.6878 102.048C83.7667 100.267 81.3324 94.7776 91.3474 86.4453C91.9356 85.9552 92.3931 85.3507 92.6708 84.6482C94.615 79.7468 93.0792 76.5446 89.5503 78.6032Z" fill="#E2A18D"/>
<path d="M70.9415 112.798C69.0137 112.684 66.7427 111.899 65.2887 110.837C63.7039 109.678 62.2662 106.998 61.4493 104.874C59.7175 100.398 60.1749 95.9211 62.789 91.5916C64.7332 88.3567 67.9027 85.1382 72.4773 81.7563C74.4705 80.2859 76.5944 78.8155 78.8163 77.3941C78.8653 77.3614 78.9143 77.3778 78.947 77.4268C78.9797 77.4758 78.9633 77.5248 78.9143 77.5575C76.6924 78.9789 74.5685 80.4329 72.5753 81.9197C68.0334 85.2852 64.8802 88.4874 62.936 91.706C60.3546 95.9865 59.8972 100.398 61.6127 104.825C62.4295 106.933 63.8509 109.579 65.3867 110.707C66.8081 111.752 69.0463 112.52 70.9415 112.635C70.9905 112.635 71.0232 112.684 71.0232 112.733C71.0232 112.765 70.9905 112.798 70.9415 112.798Z" fill="#272727" fill-opacity="0.1"/>
<path d="M103.682 56.8739C103.633 56.8739 103.601 56.8412 103.601 56.7922C103.601 56.7759 103.111 54.505 100.333 53.8841C100.284 53.8678 100.251 53.8188 100.268 53.7698C100.284 53.7207 100.333 53.6881 100.382 53.7044C103.274 54.3579 103.78 56.7432 103.78 56.7596C103.797 56.8086 103.764 56.8576 103.715 56.8739C103.699 56.8739 103.699 56.8739 103.682 56.8739Z" fill="#272727" fill-opacity="0.1"/>
<path d="M181.385 80.1062C181.385 80.1062 184.587 71.9537 175.127 73.1954C165.668 74.437 167.269 80.0082 166.534 82.802C165.782 85.5957 161.812 88.7489 150.768 93.0621C139.723 97.3752 142.991 109.106 147.958 113.01C152.924 116.899 155.62 114.317 156.78 121.049C157.94 127.78 162.531 133.237 168.282 127.535C174.016 121.833 180.551 115.085 178.722 106.247C176.892 97.4079 178.967 99.0744 182.528 95.0226C186.09 90.9708 178.526 87.0498 181.385 80.1062Z" fill="#83524C"/>
<path d="M121.213 156.501H118.484V186.024H121.213V156.501Z" fill="#9FA1A4"/>
<path d="M131.8 186.596H107.881C107.881 185.615 108.682 184.815 109.662 184.815H130.019C131.015 184.815 131.8 185.615 131.8 186.596Z" fill="#9FA1A4"/>
<path d="M135.345 155.472C135.345 157.09 134.022 158.413 132.404 158.413H108.208C106.59 158.413 105.267 157.09 105.267 155.472V152.809C105.267 151.192 106.59 149.868 108.208 149.868H132.404C134.022 149.868 135.345 151.192 135.345 152.809V155.472Z" fill="#185AB0"/>
<path d="M92.1151 131.227C92.2458 131.227 92.3602 131.227 92.4909 131.21L92.3929 129.642C91.2492 129.707 90.318 129.364 89.6645 128.645C88.9456 127.845 88.6515 126.603 88.8802 125.329C88.9456 124.937 89.1253 124.251 89.4847 124.136C90.0566 123.956 91.2329 124.741 91.8864 125.378L92.9974 124.267C92.6216 123.907 90.6937 122.11 89.0109 122.633C88.1287 122.911 87.5569 123.728 87.3282 125.051C87.0177 126.816 87.4425 128.515 88.4881 129.691C89.3704 130.688 90.6447 131.227 92.1151 131.227Z" fill="#6CA7F3"/>
<path d="M92.1642 121.963H102.228C102.408 121.963 102.441 122.143 102.441 122.323V129.953C102.441 131.472 101.33 132.55 99.8103 132.55H94.5985C93.0791 132.55 91.8374 131.456 91.8374 129.953V122.323C91.8211 122.143 91.9845 121.963 92.1642 121.963Z" fill="#6CA7F3"/>
<path d="M34.4102 152.923C33.6914 153.985 30.865 177.855 30.4238 186.677C30.3912 187.282 30.865 187.772 31.4695 187.772C31.9923 187.772 32.417 187.396 32.4987 186.89L37.6778 153.691L34.4102 152.923Z" fill="#9FA1A4"/>
<path d="M57.185 152.923C57.9039 153.985 60.7303 177.855 61.1714 186.677C61.2041 187.282 60.7303 187.772 60.1258 187.772C59.603 187.772 59.1782 187.396 59.0965 186.89L53.9175 153.691L57.185 152.923Z" fill="#9FA1A4"/>
<path d="M30.1298 151.061V151.322C30.1134 153.201 31.7309 154.737 33.7404 154.77L57.6915 155.178C59.6848 155.211 61.3512 153.773 61.4329 151.927L61.4492 151.682C61.5473 149.754 59.9135 148.136 57.8386 148.104L33.8711 147.679C31.8289 147.63 30.1461 149.149 30.1298 151.061Z" fill="#185AB0"/>
<path d="M243.648 152.923C242.929 153.985 240.103 177.855 239.661 186.677C239.629 187.282 240.103 187.772 240.707 187.772C241.23 187.772 241.655 187.396 241.736 186.89L246.915 153.691L243.648 152.923Z" fill="#9FA1A4"/>
<path d="M266.423 152.923C267.141 153.985 269.968 177.855 270.409 186.677C270.442 187.282 269.968 187.772 269.363 187.772C268.841 187.772 268.416 187.396 268.334 186.89L263.155 153.691L266.423 152.923Z" fill="#9FA1A4"/>
<path d="M239.367 151.061V151.322C239.351 153.201 240.968 154.737 242.978 154.77L266.929 155.178C268.922 155.211 270.589 153.773 270.67 151.927L270.687 151.682C270.785 149.754 269.151 148.136 267.076 148.104L243.109 147.679C241.066 147.63 239.384 149.149 239.367 151.061Z" fill="#185AB0"/>
<path d="M89.6155 131.211L91.2983 130.769L96.3956 129.593C97.0165 129.446 97.6537 129.56 98.1928 129.887L102.571 132.648L90.465 132.632L89.6155 131.211Z" fill="#FFC5B8"/>
<path d="M80.5807 185.811C76.3166 185.811 74.4377 185.452 73.6045 185.109C73.7679 185.811 74.3887 186.367 75.1729 186.367H90.2363C90.7428 186.367 91.0696 185.877 90.9389 185.436C89.2234 185.566 85.5801 185.811 80.5807 185.811Z" fill="#272727"/>
<path d="M90.9388 185.436C90.9225 185.354 90.8735 185.256 90.8081 185.174C89.6645 183.704 87.3608 181.416 84.224 181.449C79.6331 181.514 78.032 182.005 74.454 181.482L73.6045 184.276C73.5228 184.553 73.5228 184.847 73.5718 185.109C74.4213 185.436 76.3002 185.811 80.548 185.811C85.58 185.811 89.2233 185.566 90.9388 185.436Z" fill="#4B4C4F"/>
<path d="M75.4997 178.476L74.4705 181.988C74.4705 181.988 76.7578 183.034 78.7673 182.201L79.1594 179.162L75.4997 178.476Z" fill="#FFC5B8"/>
<path d="M106.721 183.59C103.405 186.253 101.705 187.151 100.839 187.429C101.395 187.87 102.228 187.903 102.849 187.413L114.596 177.986C114.988 177.675 114.939 177.087 114.563 176.826C113.305 178.002 110.609 180.469 106.721 183.59Z" fill="#272727"/>
<path d="M114.563 176.826C114.482 176.777 114.4 176.728 114.302 176.711C112.488 176.287 109.27 175.96 106.852 177.953C103.307 180.878 102.375 182.266 99.2548 184.096L100.333 186.792C100.447 187.07 100.627 187.282 100.84 187.462C101.705 187.2 103.405 186.302 106.721 183.622C110.609 180.469 113.305 178.002 114.563 176.826Z" fill="#4B4C4F"/>
<path d="M53.3947 138.432C53.3947 138.432 78.8816 140.507 84.1097 142.974C89.3378 145.441 79.8455 179.93 79.8455 179.93C79.8455 179.93 78.4241 180.616 75.2546 179.636C75.2546 179.636 78.5058 154.182 76.0878 148.659L48.4771 144.15L53.3947 138.432Z" fill="#50657E"/>
<path d="M96.7224 179.227C96.9511 179.44 99.2548 184.08 99.2548 184.08C99.2548 184.08 101.803 183.524 102.326 181.907L100.023 177.724L96.7224 179.227Z" fill="#FFC5B8"/>
<path d="M38.0372 138.219C38.0372 138.219 37.204 140.213 37.2367 142.876C37.2857 146.552 40.2428 149.525 43.9025 149.705L74.0293 151.077C74.6664 151.11 75.2056 151.551 75.369 152.156C76.0715 154.9 79.5351 163.298 96.461 180.093C96.9185 180.534 97.6046 180.616 98.1438 180.273L100.545 178.753C100.791 178.59 100.872 178.263 100.725 178.002L83.1784 148.038C82.2635 146.519 80.7768 145.424 79.0449 144.983L53.362 138.416L38.0372 138.219Z" fill="#50657E"/>
<path d="M67.7392 91.4118C67.7392 91.4118 64.5043 97.1136 61.2205 99.8911L68.017 103.681C68.017 103.681 69.5527 97.6365 73.049 95.872L67.7392 91.4118Z" fill="#FFC5B8"/>
<path d="M37.498 138.432C37.498 138.432 45.6342 140.409 53.3947 138.432C53.3947 138.432 64.2593 123.826 68.4581 119.856C68.4581 119.856 75.1566 130.443 90.0893 131.93L90.9225 130.067C90.9225 130.067 79.0449 124.594 75.3853 116.18C71.7256 107.766 70.2552 104.172 66.9387 101.982C64.8638 100.61 63.6221 99.6788 62.9849 99.1723C62.6418 98.8946 62.1517 98.8619 61.7596 99.0906C58.2307 101.247 41.5988 112.618 37.498 138.432Z" fill="#D2D3D6"/>
<path d="M66.71 117.569C66.5303 117.569 66.3505 117.487 66.2362 117.34C64.3247 114.857 63.2627 112.112 63.23 111.997C63.1157 111.687 63.2627 111.344 63.5731 111.23C63.8835 111.115 64.2266 111.262 64.341 111.573C64.3573 111.605 65.3866 114.268 67.1838 116.621C67.3798 116.882 67.3308 117.258 67.0694 117.454C66.955 117.52 66.8407 117.569 66.71 117.569Z" fill="#9FA1A4"/>
<path d="M72.8529 82.8671C72.8529 82.8671 75.9897 88.0788 76.5289 90.9706C77.068 93.846 77.9503 95.6595 74.6664 96.6888C71.3825 97.7181 68.3437 96.4111 66.4321 93.7317C66.4321 93.7317 63.4423 89.5982 63.7364 87.7031C64.0468 85.7752 72.8529 82.8671 72.8529 82.8671Z" fill="#FFC5B8"/>
<path d="M67.5758 86.8699C67.5758 86.8699 77.4928 83.5696 76.6106 78.9297C75.7284 74.2735 71.3335 74.0121 69.0462 77.9495C66.7589 81.8869 60.2729 82.4914 61.4982 86.1673C62.0047 88.3893 57.6098 90.4805 67.1184 94.7283C66.0074 91.3137 66.857 91.2647 67.2817 91.2647C67.7065 91.2647 67.8372 91.2647 67.8372 91.2647C67.8372 91.2647 64.9618 87.213 67.5758 86.8699Z" fill="#4B4C4F"/>
<path d="M67.4778 91.9999C67.4778 91.9999 66.0891 88.5853 64.6351 89.7943C63.181 90.987 65.9748 93.65 67.2655 93.6173L67.4778 91.9999Z" fill="#FFC5B8"/>
<path d="M73.9312 82.1646C73.8985 82.1646 73.8659 82.1483 73.8495 82.1156C73.8332 82.0666 73.8495 82.0176 73.8985 82.0013C73.9476 81.9849 75.0259 81.5111 75.0259 79.5343C75.0259 77.5411 72.7222 76.4628 72.7059 76.4464C72.6569 76.4301 72.6405 76.3647 72.6569 76.3321C72.6732 76.283 72.7386 76.2667 72.7712 76.2831C72.7876 76.2994 75.2056 77.4267 75.2056 79.5343C75.2056 81.6418 74.0129 82.1483 73.9639 82.181C73.9476 82.1646 73.9476 82.1646 73.9312 82.1646Z" fill="#2F3032"/>
<path d="M188.198 156.501H185.469V186.024H188.198V156.501Z" fill="#9FA1A4"/>
<path d="M198.801 186.596H174.882C174.882 185.615 175.683 184.815 176.663 184.815H197.02C198 184.815 198.801 185.615 198.801 186.596Z" fill="#9FA1A4"/>
<path d="M202.346 155.472C202.346 157.09 201.023 158.413 199.405 158.413H175.209C173.592 158.413 172.268 157.09 172.268 155.472V152.809C172.268 151.192 173.592 149.868 175.209 149.868H199.405C201.023 149.868 202.346 151.192 202.346 152.809V155.472Z" fill="#185AB0"/>
<path d="M166.681 136.798C166.681 136.798 162.629 137.419 158.054 140.474C157.335 140.948 156.943 141.798 157.058 142.647C157.597 146.977 159.851 160.978 167.252 174.653C167.645 175.372 167.759 176.221 167.579 177.022L166.289 183.018L163.903 185.256H170.046L174.131 174.179L172.383 173.624C171.027 173.199 170.095 171.941 170.063 170.519L169.85 158.642C170.03 153.348 166.599 149.705 166.599 149.705L176.418 149.231L166.681 136.798Z" fill="#FFC5B8"/>
<path d="M161.518 186.334C160.962 187.069 167.547 188.033 170.863 186.432C170.863 186.432 175.47 178.41 175.47 174.277C175.47 174.277 175.111 173.427 172.399 173.623C172.399 173.623 170.847 183.116 169.213 184.194C167.579 185.256 164.638 184.308 164.638 184.308C164.638 184.308 162.335 185.256 161.518 186.334Z" fill="#227CF2"/>
<path d="M175.209 149.885C175.16 149.787 164.638 148.627 164.638 148.627C164.638 148.627 164.982 151.829 163.903 156.224C162.825 160.619 147.386 179.701 147.386 179.701L149.003 184.831C144.004 186.579 139.07 186.857 134.234 185.713L144.265 179.685C144.265 179.685 153.659 147.679 159.41 141.977L169.948 138.334L175.209 149.885Z" fill="#FFC5B8"/>
<path d="M198.801 131.26C198.801 131.26 204.862 140.278 205.352 144.379C205.842 148.496 203.686 150.162 197.33 150.44C190.975 150.718 174 150.718 174 150.718L159.508 138.334C159.508 138.334 170.063 134.56 172.807 133.498C175.568 132.436 198.801 131.26 198.801 131.26Z" fill="#0E3D7D"/>
<path d="M148.415 183.083C148.415 183.083 150.163 184.766 148.987 186.645C148.987 186.645 135.182 189.095 131.424 187.984C131.424 187.984 132.208 186.204 136.423 184.178L136.113 184.423C135.721 184.733 135.949 185.354 136.44 185.321C139.217 185.174 144.984 184.668 148.415 183.083Z" fill="#227CF2"/>
<path d="M182.414 130.067C182.414 130.067 175.356 123.352 171.892 118.892C170.014 116.49 169.425 113.321 170.291 110.396C171.876 105.054 174.702 99.5155 174.948 98.6659C175.34 97.3426 183.247 97.4079 183.247 97.4079C183.247 97.4079 198.817 107.505 204.927 124.627L198.065 126.767C198.065 126.767 193.997 119.954 189.978 115.608C189.978 115.608 196.922 124.79 197.167 128.548L182.414 130.067Z" fill="#227CF2"/>
<path d="M173.984 91.2812C174.065 91.5589 176.124 98.4045 176.287 98.5352C176.451 98.6822 180.813 98.9109 182.871 97.5059L177.774 87.5399L173.984 91.2812Z" fill="#FFC5B8"/>
<path d="M177.153 78.8646C177.153 78.8646 180.846 80.531 183.231 85.9878C185.616 91.4446 183.656 93.879 181.27 94.1567C178.885 94.4344 175.34 94.2874 171.664 90.7094C168.004 87.1315 172.366 76.8714 177.153 78.8646Z" fill="#FFC5B8"/>
<path d="M174.278 87.8993C174.278 87.8993 171.68 79.9428 178.656 80.0409L180.274 81.2335C180.274 81.2335 182.953 76.9367 178.803 74.7311C174.653 72.5418 169.687 74.1266 167.743 79.7468C165.798 85.367 165.39 89.1573 168.298 91.9348C171.206 94.7285 172.513 91.6897 172.513 91.6897C172.513 91.6897 170.961 89.1083 171.647 87.7686C172.35 86.4289 173.82 88.1117 173.82 88.1117L174.278 87.8993Z" fill="#83524C"/>
<path d="M173.477 88.7488C173.477 88.7488 172.17 84.648 170.226 86.2165C168.282 87.7849 171.664 90.0068 172.987 90.7257L173.477 88.7488Z" fill="#FFC5B8"/>
<path d="M168.037 130.557L173.216 125.558L180.388 128.58C180.388 128.58 187.528 129.691 191.612 128.58C195.696 127.469 195.696 127.469 195.696 127.469L204.927 124.594L206.381 128.695C206.757 129.74 206.381 130.884 205.483 131.537C204.682 132.109 203.751 132.73 203.146 132.991C201.937 133.531 173.183 132.616 173.183 132.616L168.037 130.557Z" fill="#FFC5B8"/>
<path d="M223.879 179.897C223.879 179.897 224.173 181.531 224.288 183.491C224.337 184.325 223.716 185.044 222.899 185.125C220.023 185.403 213.456 185.926 209.273 185.321C208.685 185.24 208.456 184.521 208.881 184.112C210.613 182.495 214.779 179.374 221.641 178.688L223.879 179.897Z" fill="#227CF2"/>
<path d="M225.3 176.205L223.846 179.783C223.65 180.273 223.144 180.583 222.621 180.518C222.262 180.485 221.837 180.42 221.428 180.289C220.612 180.044 220.138 179.162 220.383 178.345L221.477 174.669L225.3 176.205Z" fill="#B07968"/>
<path d="M250.216 182.74C250.216 182.74 247.291 185.174 246.164 188.311C245.853 189.177 246.507 190.076 247.422 190.076H253.434C254.316 190.076 254.986 189.291 254.839 188.425C254.447 186.269 253.353 182.756 250.216 182.74Z" fill="#227CF2"/>
<path d="M253.843 179.57C253.843 179.57 253.254 182.185 252.797 183.9C252.715 184.21 252.388 184.39 252.078 184.276C251.163 183.949 250.428 183.802 249.889 183.884C249.644 183.916 249.431 183.704 249.415 183.459L249.366 179.129L253.843 179.57Z" fill="#B07968"/>
<path d="M238.322 120.853L220.579 175.012C220.579 175.012 223.977 177.234 225.611 177.152L246.687 133.629C246.687 133.629 250.379 160.439 248.582 179.701L254.627 180.159C254.627 180.159 264.446 130.966 257.012 114.105L238.322 120.853Z" fill="#0E3D7D"/>
<path d="M246.556 133.155H246.572C246.67 133.138 246.736 133.057 246.719 132.959L246.033 127.486C246.017 127.388 245.935 127.322 245.837 127.339C245.739 127.355 245.674 127.437 245.69 127.535L246.376 133.008C246.409 133.089 246.474 133.155 246.556 133.155Z" fill="#185AB0"/>
<path d="M234.989 73.2117C234.989 73.2117 249.366 74.4861 247.34 84.7299C247.34 84.7299 255.297 99.6952 259.005 117.307C259.12 117.879 258.744 118.435 258.172 118.533L234.221 122.633C233.567 122.748 232.93 122.339 232.751 121.686L227.032 99.5645L224.81 109.841L217.72 107.995L223.683 77.7863C223.667 77.8026 224.5 73.3915 234.989 73.2117Z" fill="#227CF2"/>
<path d="M226.902 98.5843C226.918 98.5843 226.934 98.5843 226.934 98.5843C227.032 98.568 227.098 98.4699 227.065 98.3719L225.072 89.2064C225.055 89.1084 224.957 89.0431 224.859 89.0757C224.761 89.0921 224.696 89.1901 224.729 89.2881L226.722 98.4536C226.738 98.5353 226.82 98.5843 226.902 98.5843Z" fill="#6CA7F3"/>
<path d="M228.339 125.868C229.091 125.46 229.973 125.345 230.806 125.542L232.473 125.95C232.832 126.032 233.175 125.787 233.224 125.427L234.956 110.086C237.113 111.115 240.217 110.985 241.246 110.919L237.276 129.021H223.389L228.339 125.868Z" fill="#B07968"/>
<path d="M191.449 92.572L191.874 91.1833C192.119 90.3827 192.707 89.7292 193.491 89.4188L201.088 86.3636C201.088 86.3636 201.202 85.3834 199.487 84.7299C197.771 84.06 198.164 82.1485 198.164 82.1485C198.164 82.1485 200.516 83.2268 203.947 84.9259C205.908 85.8899 207.019 87.6053 207.607 88.896L224.81 109.874L222.785 111.262C220.121 113.092 216.478 112.194 214.959 109.351L205.646 91.4774C200.957 92.8661 196.219 93.1438 191.449 92.572Z" fill="#B07968"/>
<path d="M230.332 63.4256L234.76 75.8096C234.76 75.8096 230.839 78.8648 227.98 77.8355L225.742 70.7286C225.742 70.7286 227.457 62.0532 230.332 63.4256Z" fill="#B07968"/>
<path d="M223.307 54.7668C223.193 54.9301 219.582 68.0003 219.582 68.0003L227.081 69.8955L232.342 58.018C232.342 58.018 225.284 51.9567 223.307 54.7668Z" fill="#B07968"/>
<path d="M229.532 59.8313L227.261 66.3011C227.228 66.3828 227.196 66.4645 227.147 66.5298C226.836 66.9709 225.66 68.4087 224.271 67.118C222.997 65.9417 221.837 64.896 220.742 64.7C220.252 64.6183 219.778 64.9124 219.648 65.3862C219.321 66.5788 218.635 69.2582 218.39 71.6925C218.341 72.1827 218.684 72.6238 219.174 72.7218C220.644 72.9996 223.748 73.4897 226.346 73.31C226.706 73.2773 227 73.0813 227.147 72.7545C227.866 71.1861 230.055 66.4481 230.855 65.2228C231.623 64.0791 233.486 64.0955 234.286 64.1772C234.548 64.1935 234.793 64.1118 234.989 63.9484C235.675 63.3439 236.982 61.8082 235.136 59.962C234.744 59.5699 234.76 58.9491 235.152 58.5733C235.936 57.8218 236.786 56.5148 235.463 54.881C234.123 53.2145 232.358 53.4923 231.28 53.8844C230.839 54.0478 230.365 53.8517 230.12 53.4596C229.989 53.2309 229.744 53.0512 229.336 53.1002C228.78 53.1492 228.323 52.6917 228.323 52.1362C228.339 51.0743 227.964 49.7183 226.117 49.1464C222.834 48.1335 220.791 51.303 220.595 53.6557C220.399 56.0083 224.01 56.9232 226.134 56.7598C227.751 56.6455 228.96 58.2466 229.434 59.0144C229.597 59.2595 229.614 59.5536 229.532 59.8313Z" fill="#5E3833"/>
<path d="M229.99 67.5754C229.99 67.5754 230.512 63.4746 232.228 63.2786C233.927 63.0825 235.593 64.4712 233.894 66.7749C231.787 69.634 229.99 67.5754 229.99 67.5754Z" fill="#B07968"/>
<path d="M223.846 55.2568C223.16 55.2077 222.556 54.881 222.196 54.3745C221.853 53.8844 221.755 53.2309 221.919 52.61C222.229 51.5317 223.03 50.4861 224.059 49.7836C224.108 49.7509 224.157 49.7673 224.19 49.8163C224.222 49.8653 224.206 49.9143 224.157 49.947C223.16 50.6168 222.376 51.6298 222.082 52.6754C221.919 53.2472 222 53.819 222.327 54.2765C222.654 54.7503 223.193 55.0444 223.83 55.0934C223.879 55.0934 223.912 55.1424 223.912 55.1914C223.928 55.2077 223.896 55.2568 223.846 55.2568Z" fill="#272727" fill-opacity="0.1"/>
<path d="M239.857 111.148C240.838 111.148 241.54 111.066 241.622 111.066L241.753 111.05L246.997 86.6414C247.013 86.5434 246.964 86.4453 246.866 86.429C246.768 86.4127 246.67 86.4617 246.654 86.5597L241.475 110.723C240.691 110.789 236.541 111.066 234.335 109.514L238.877 88.3078L237.93 86.527C237.881 86.4453 237.783 86.4127 237.685 86.4453C237.603 86.4944 237.57 86.5924 237.603 86.6904L238.485 88.3569L233.927 109.661L234.025 109.727C235.593 110.936 238.142 111.148 239.857 111.148Z" fill="#6CA7F3"/>
<path d="M71.3662 188.948C71.2355 188.948 71.1048 188.916 70.9741 188.867C70.4839 188.638 70.2552 188.017 70.4676 187.461L90.9061 135.622C91.1185 135.083 91.6903 134.838 92.1805 135.066C92.6706 135.295 92.8993 135.916 92.6869 136.471L72.2484 188.311C72.1014 188.703 71.7419 188.948 71.3662 188.948Z" fill="#9FA1A4"/>
<path d="M94.386 188.948C94.0102 188.948 93.6508 188.703 93.4874 188.311L73.0489 136.471C72.8365 135.932 73.0652 135.311 73.5554 135.066C74.0455 134.838 74.6173 135.083 74.8297 135.622L95.2682 187.461C95.4806 188.001 95.2519 188.621 94.7618 188.867C94.6474 188.916 94.5167 188.948 94.386 188.948Z" fill="#9FA1A4"/>
<path d="M210.041 188.948C209.91 188.948 209.78 188.916 209.649 188.867C209.159 188.638 208.93 188.017 209.142 187.461L229.581 135.622C229.793 135.083 230.365 134.838 230.855 135.066C231.345 135.295 231.574 135.916 231.362 136.471L210.923 188.311C210.776 188.703 210.417 188.948 210.041 188.948Z" fill="#9FA1A4"/>
<path d="M233.061 188.948C232.685 188.948 232.326 188.703 232.162 188.311L211.724 136.471C211.511 135.932 211.74 135.311 212.23 135.066C212.72 134.838 213.292 135.083 213.505 135.622L233.943 187.461C234.155 188.001 233.927 188.621 233.437 188.867C233.322 188.916 233.192 188.948 233.061 188.948Z" fill="#9FA1A4"/>
<path d="M207.084 131.962H236.672V128.907H207.084C207.705 128.907 207.705 131.962 207.084 131.962Z" fill="#FAFAFA"/>
<path d="M236.508 131.962C236.606 131.962 236.672 131.897 236.672 131.799V129.071C236.672 128.973 236.606 128.907 236.508 128.907H206.332C206.234 128.907 206.169 128.825 206.169 128.744V128.384C206.169 128.286 206.234 128.221 206.332 128.221H238.354C239.057 128.221 239.629 128.793 239.629 129.495V131.44C239.629 132.109 239.09 132.649 238.42 132.649H206.316C206.218 132.649 206.153 132.567 206.153 132.485V132.126C206.153 132.028 206.218 131.962 206.316 131.962H236.508Z" fill="#0E3D7D"/>
<path d="M240.968 134.021C241.066 133.678 240.936 133.335 240.593 133.057C240.266 132.795 239.759 132.632 239.237 132.632H61.923C61.2368 132.632 60.5997 132.861 60.2239 133.253C59.8481 133.645 59.7991 134.119 60.0932 134.544L62.021 137.305C62.4622 137.942 63.4098 138.334 64.4717 138.334H238.044C239.024 138.334 239.857 137.876 240.037 137.239L240.968 134.021Z" fill="#185AB0"/>
<path d="M169.654 131.227C169.523 131.227 169.409 131.227 169.278 131.21L169.376 129.642C170.52 129.707 171.451 129.364 172.105 128.645C172.824 127.845 173.118 126.603 172.889 125.329C172.824 124.937 172.644 124.251 172.284 124.136C171.713 123.956 170.536 124.741 169.883 125.378L168.772 124.267C169.148 123.907 171.075 122.11 172.758 122.633C173.64 122.911 174.212 123.728 174.441 125.051C174.751 126.816 174.327 128.515 173.281 129.691C172.382 130.688 171.108 131.227 169.654 131.227Z" fill="#6CA7F3"/>
<path d="M169.605 121.963H159.541C159.361 121.963 159.084 122.143 159.084 122.323V129.953C159.084 131.472 160.456 132.55 161.975 132.55H167.187C168.707 132.55 169.687 131.456 169.687 129.953V122.323C169.67 122.143 169.769 121.963 169.605 121.963Z" fill="#6CA7F3"/>
<path d="M125.362 131.227C125.493 131.227 125.607 131.227 125.738 131.21L125.64 129.642C124.497 129.707 123.565 129.364 122.912 128.645C122.193 127.845 121.899 126.603 122.128 125.329C122.193 124.937 122.373 124.251 122.732 124.136C123.304 123.956 124.48 124.741 125.134 125.378L126.245 124.267C125.869 123.907 123.941 122.11 122.258 122.633C121.376 122.911 120.804 123.728 120.575 125.051C120.265 126.816 120.69 128.515 121.735 129.691C122.634 130.688 123.908 131.227 125.362 131.227Z" fill="#6CA7F3"/>
<path d="M125.428 121.963H135.492C135.671 121.963 135.704 122.143 135.704 122.323V129.953C135.704 131.472 134.593 132.55 133.074 132.55H127.862C126.343 132.55 125.101 131.456 125.101 129.953V122.323C125.085 122.143 125.248 121.963 125.428 121.963Z" fill="#6CA7F3"/>
<path d="M218.259 131.227C218.128 131.227 218.014 131.227 217.883 131.21L217.981 129.642C219.125 129.707 220.056 129.364 220.71 128.645C221.428 127.845 221.723 126.603 221.494 125.329C221.428 124.937 221.249 124.251 220.889 124.136C220.317 123.956 219.141 124.741 218.488 125.378L217.377 124.267C217.752 123.907 219.68 122.11 221.363 122.633C222.245 122.911 222.817 123.728 223.046 125.051C223.356 126.816 222.932 128.515 221.886 129.691C221.004 130.688 219.729 131.227 218.259 131.227Z" fill="#6CA7F3"/>
<path d="M218.21 121.963H208.146C207.966 121.963 207.688 122.143 207.688 122.323V129.953C207.688 131.472 209.061 132.55 210.58 132.55H215.792C217.311 132.55 218.292 131.456 218.292 129.953V122.323C218.292 122.143 218.39 121.963 218.21 121.963Z" fill="#6CA7F3"/>
<g opacity="0.7">
<path d="M162.547 89.4351C162.515 89.4351 162.482 89.4187 162.466 89.3697C162.449 89.3207 162.482 89.2717 162.515 89.2553C166.468 87.883 168.429 85.367 168.02 82.1974C167.596 78.8645 169.687 78.309 169.703 78.309C169.752 78.2927 169.801 78.3254 169.801 78.3744C169.818 78.4234 169.785 78.4724 169.736 78.4724C169.654 78.4888 167.759 78.9952 168.167 82.1811C168.592 85.4486 166.599 88.0137 162.547 89.4187C162.564 89.4351 162.547 89.4351 162.547 89.4351Z" fill="#272727" fill-opacity="0.1"/>
<path d="M154.248 114.334C154.231 114.334 154.215 114.334 154.199 114.317C149.657 111.801 146.994 108.746 146.258 105.266C145.295 100.708 148.072 96.9995 148.105 96.9504C148.137 96.9178 148.186 96.9014 148.219 96.9341C148.252 96.9668 148.268 97.0158 148.235 97.0485C148.203 97.0811 145.474 100.741 146.422 105.217C147.141 108.648 149.787 111.654 154.28 114.154C154.329 114.17 154.329 114.236 154.313 114.268C154.313 114.317 154.28 114.334 154.248 114.334Z" fill="#272727" fill-opacity="0.1"/>
</g>
<path d="M95.3664 121.13C95.3338 121.13 95.2847 121.114 95.2521 121.097C95.1867 121.048 93.7 119.872 93.553 118.5C93.5039 117.961 93.651 117.487 94.0267 117.046C94.2718 116.768 94.5332 116.539 94.7783 116.31C95.4808 115.706 95.9873 115.265 95.5461 114.268C95.3828 113.892 95.1867 113.566 95.007 113.239C94.3698 112.128 93.7653 111.082 95.2357 109.726C95.3174 109.661 95.4318 109.661 95.4971 109.743C95.5625 109.824 95.5625 109.939 95.4808 110.004C94.2228 111.164 94.6803 111.965 95.3174 113.076C95.5135 113.419 95.7095 113.762 95.8729 114.154C96.4121 115.395 95.6932 116.016 95.007 116.621C94.7619 116.833 94.5005 117.062 94.2881 117.307C93.9941 117.65 93.8634 118.042 93.896 118.483C94.0104 119.692 95.4481 120.82 95.4481 120.82C95.5298 120.885 95.5462 120.999 95.4808 121.081C95.4645 121.097 95.4155 121.13 95.3664 121.13Z" fill="#FAFAFA"/>
<path d="M97.9151 121.13C97.8825 121.13 97.8335 121.114 97.8008 121.098C97.7354 121.049 96.2487 119.872 96.1017 118.5C96.0526 117.961 96.1997 117.487 96.5755 117.046C96.8205 116.768 97.0819 116.539 97.327 116.311C98.0295 115.706 98.536 115.265 98.0949 114.268C97.9315 113.893 97.7354 113.566 97.5557 113.239C96.9185 112.128 96.314 111.082 97.7844 109.726C97.8661 109.661 97.9805 109.661 98.0459 109.743C98.1112 109.824 98.1112 109.939 98.0295 110.004C96.7715 111.164 97.229 111.965 97.8661 113.076C98.0622 113.419 98.2582 113.762 98.4216 114.154C98.9608 115.396 98.2419 116.016 97.5557 116.621C97.3107 116.833 97.0492 117.062 96.8369 117.307C96.5428 117.65 96.4121 118.042 96.4447 118.483C96.5591 119.692 97.9968 120.82 97.9968 120.82C98.0785 120.885 98.0949 120.999 98.0295 121.081C98.0295 121.098 97.9805 121.13 97.9151 121.13Z" fill="#FAFAFA"/>
<path d="M100.48 121.13C100.447 121.13 100.398 121.114 100.366 121.098C100.3 121.049 98.8136 119.872 98.6666 118.5C98.6176 117.961 98.7646 117.487 99.1404 117.046C99.3855 116.768 99.6469 116.539 99.8919 116.311C100.594 115.706 101.101 115.265 100.66 114.268C100.496 113.893 100.3 113.566 100.121 113.239C99.4835 112.128 98.879 111.082 100.349 109.726C100.431 109.661 100.545 109.661 100.611 109.743C100.676 109.824 100.676 109.939 100.594 110.004C99.3364 111.164 99.7939 111.965 100.431 113.076C100.627 113.419 100.823 113.762 100.987 114.154C101.526 115.396 100.807 116.016 100.121 116.621C99.8756 116.833 99.6142 117.062 99.4018 117.307C99.1077 117.65 98.977 118.042 99.0097 118.483C99.1241 119.692 100.562 120.82 100.562 120.82C100.643 120.885 100.66 120.999 100.594 121.081C100.594 121.098 100.529 121.13 100.48 121.13Z" fill="#FAFAFA"/>
<path d="M127.895 121.13C127.862 121.13 127.813 121.114 127.781 121.098C127.715 121.049 126.228 119.872 126.081 118.5C126.032 117.961 126.179 117.487 126.555 117.046C126.8 116.768 127.062 116.54 127.307 116.311C128.009 115.706 128.516 115.265 128.075 114.269C127.911 113.893 127.715 113.566 127.535 113.239C126.898 112.128 126.294 111.083 127.764 109.727C127.846 109.661 127.96 109.661 128.026 109.743C128.091 109.825 128.091 109.939 128.009 110.004C126.751 111.164 127.209 111.965 127.846 113.076C128.042 113.419 128.238 113.762 128.401 114.154C128.94 115.396 128.222 116.017 127.535 116.621C127.29 116.834 127.029 117.062 126.817 117.307C126.523 117.651 126.392 118.043 126.424 118.484C126.539 119.693 127.977 120.82 127.977 120.82C128.058 120.885 128.075 121 128.009 121.081C127.993 121.098 127.944 121.13 127.895 121.13Z" fill="#FAFAFA"/>
<path d="M130.444 121.13C130.411 121.13 130.362 121.114 130.329 121.098C130.264 121.049 128.777 119.872 128.63 118.5C128.581 117.961 128.728 117.487 129.104 117.046C129.349 116.768 129.61 116.54 129.855 116.311C130.558 115.706 131.064 115.265 130.623 114.269C130.46 113.893 130.264 113.566 130.084 113.239C129.447 112.128 128.842 111.083 130.313 109.727C130.395 109.661 130.509 109.661 130.574 109.743C130.64 109.825 130.64 109.939 130.558 110.004C129.3 111.164 129.757 111.965 130.395 113.076C130.591 113.419 130.787 113.762 130.95 114.154C131.489 115.396 130.77 116.017 130.084 116.621C129.839 116.834 129.578 117.062 129.365 117.307C129.071 117.651 128.941 118.043 128.973 118.484C129.088 119.693 130.525 120.82 130.525 120.82C130.607 120.885 130.623 121 130.558 121.081C130.558 121.098 130.509 121.13 130.444 121.13Z" fill="#FAFAFA"/>
<path d="M133.009 121.13C132.976 121.13 132.927 121.114 132.894 121.098C132.829 121.049 131.342 119.872 131.195 118.5C131.146 117.961 131.293 117.487 131.669 117.046C131.914 116.768 132.175 116.54 132.42 116.311C133.123 115.706 133.629 115.265 133.188 114.269C133.025 113.893 132.829 113.566 132.649 113.239C132.012 112.128 131.408 111.083 132.878 109.727C132.96 109.661 133.074 109.661 133.139 109.743C133.205 109.825 133.205 109.939 133.123 110.004C131.865 111.164 132.322 111.965 132.96 113.076C133.156 113.419 133.352 113.762 133.515 114.154C134.054 115.396 133.335 116.017 132.649 116.621C132.404 116.834 132.143 117.062 131.93 117.307C131.636 117.651 131.506 118.043 131.538 118.484C131.653 119.693 133.09 120.82 133.09 120.82C133.172 120.885 133.188 121 133.123 121.081C133.123 121.098 133.058 121.13 133.009 121.13Z" fill="#FAFAFA"/>
<path d="M166.632 121.13C166.583 121.13 166.517 121.114 166.485 121.065C166.419 120.983 166.436 120.869 166.517 120.804C166.534 120.787 167.955 119.676 168.069 118.467C168.118 118.043 167.988 117.651 167.677 117.291C167.465 117.03 167.204 116.817 166.958 116.605C166.256 116 165.553 115.38 166.093 114.138C166.256 113.746 166.468 113.403 166.648 113.06C167.285 111.965 167.743 111.164 166.485 110.004C166.403 109.939 166.403 109.825 166.468 109.743C166.534 109.661 166.648 109.661 166.73 109.727C168.2 111.083 167.596 112.128 166.958 113.239C166.779 113.566 166.583 113.909 166.419 114.269C165.978 115.265 166.485 115.706 167.187 116.311C167.449 116.54 167.71 116.768 167.939 117.046C168.298 117.471 168.462 117.961 168.413 118.5C168.282 119.872 166.779 121.049 166.713 121.098C166.713 121.114 166.664 121.13 166.632 121.13Z" fill="#FAFAFA"/>
<path d="M164.067 121.13C164.018 121.13 163.952 121.114 163.92 121.065C163.854 120.983 163.871 120.869 163.952 120.804C163.969 120.787 165.39 119.676 165.504 118.467C165.553 118.043 165.423 117.651 165.112 117.291C164.9 117.03 164.638 116.817 164.393 116.605C163.691 116 162.988 115.38 163.528 114.138C163.691 113.746 163.903 113.403 164.083 113.06C164.72 111.965 165.178 111.164 163.92 110.004C163.838 109.939 163.838 109.825 163.903 109.743C163.969 109.661 164.083 109.661 164.165 109.727C165.635 111.083 165.031 112.128 164.393 113.239C164.214 113.566 164.018 113.909 163.854 114.269C163.413 115.265 163.92 115.706 164.622 116.311C164.884 116.54 165.145 116.768 165.374 117.046C165.733 117.471 165.896 117.961 165.847 118.5C165.717 119.872 164.214 121.049 164.148 121.098C164.148 121.114 164.116 121.13 164.067 121.13Z" fill="#FAFAFA"/>
<path d="M161.518 121.13C161.469 121.13 161.404 121.114 161.371 121.065C161.306 120.983 161.322 120.869 161.404 120.804C161.42 120.787 162.841 119.676 162.956 118.467C163.005 118.043 162.874 117.651 162.564 117.291C162.351 117.03 162.09 116.817 161.845 116.605C161.142 116 160.44 115.38 160.979 114.138C161.142 113.746 161.355 113.403 161.534 113.06C162.171 111.965 162.629 111.164 161.371 110.004C161.289 109.939 161.289 109.825 161.355 109.743C161.42 109.661 161.534 109.661 161.616 109.727C163.086 111.083 162.482 112.128 161.845 113.239C161.665 113.566 161.469 113.909 161.306 114.269C160.864 115.265 161.371 115.706 162.073 116.311C162.335 116.54 162.596 116.768 162.825 117.046C163.184 117.471 163.348 117.961 163.299 118.5C163.168 119.872 161.665 121.049 161.6 121.098C161.6 121.114 161.551 121.13 161.518 121.13Z" fill="#FAFAFA"/>
<path d="M215.236 121.13C215.187 121.13 215.122 121.114 215.089 121.065C215.024 120.983 215.04 120.869 215.122 120.804C215.138 120.787 216.56 119.676 216.674 118.467C216.723 118.043 216.592 117.651 216.282 117.291C216.07 117.03 215.808 116.817 215.563 116.605C214.861 116 214.158 115.38 214.697 114.138C214.861 113.746 215.073 113.403 215.253 113.06C215.89 111.965 216.347 111.164 215.089 110.004C215.008 109.939 215.008 109.825 215.073 109.743C215.138 109.661 215.253 109.661 215.334 109.727C216.805 111.083 216.2 112.128 215.563 113.239C215.383 113.566 215.187 113.909 215.024 114.269C214.583 115.265 215.089 115.706 215.792 116.311C216.053 116.54 216.315 116.768 216.543 117.046C216.903 117.471 217.066 117.961 217.017 118.5C216.887 119.872 215.383 121.049 215.318 121.098C215.318 121.114 215.285 121.13 215.236 121.13Z" fill="#FAFAFA"/>
<path d="M212.688 121.13C212.639 121.13 212.573 121.114 212.541 121.065C212.475 120.983 212.492 120.869 212.573 120.804C212.59 120.787 214.011 119.676 214.125 118.467C214.174 118.043 214.044 117.651 213.733 117.291C213.521 117.03 213.26 116.817 213.014 116.605C212.312 116 211.609 115.38 212.149 114.138C212.312 113.746 212.524 113.403 212.704 113.06C213.341 111.965 213.799 111.164 212.541 110.004C212.459 109.939 212.459 109.825 212.524 109.743C212.59 109.661 212.704 109.661 212.786 109.727C214.256 111.083 213.652 112.128 213.014 113.239C212.835 113.566 212.639 113.909 212.475 114.269C212.034 115.265 212.541 115.706 213.243 116.311C213.505 116.54 213.766 116.768 213.995 117.046C214.354 117.471 214.518 117.961 214.469 118.5C214.338 119.872 212.835 121.049 212.769 121.098C212.753 121.114 212.72 121.13 212.688 121.13Z" fill="#FAFAFA"/>
<path d="M210.123 121.13C210.074 121.13 210.008 121.114 209.976 121.065C209.91 120.983 209.927 120.869 210.008 120.804C210.025 120.787 211.446 119.676 211.56 118.467C211.609 118.043 211.479 117.651 211.168 117.291C210.956 117.03 210.695 116.817 210.449 116.605C209.747 116 209.044 115.38 209.584 114.138C209.747 113.746 209.959 113.403 210.139 113.06C210.776 111.965 211.234 111.164 209.976 110.004C209.894 109.939 209.894 109.825 209.959 109.743C210.025 109.661 210.139 109.661 210.221 109.727C211.691 111.083 211.087 112.128 210.449 113.239C210.27 113.566 210.074 113.909 209.91 114.269C209.469 115.265 209.976 115.706 210.678 116.311C210.94 116.54 211.201 116.768 211.43 117.046C211.789 117.471 211.953 117.961 211.904 118.5C211.773 119.872 210.27 121.049 210.204 121.098C210.204 121.114 210.155 121.13 210.123 121.13Z" fill="#FAFAFA"/>
<path d="M197.15 10.0009C185.943 10.9321 173.559 17.4509 171.794 29.5245C170.308 39.8009 180.943 45.7969 187.593 48.705C189.455 49.5219 190.942 50.9759 191.792 52.8058C193.834 57.2006 198.67 64.912 206.79 62.8045C207.378 62.6574 207.362 61.8079 206.773 61.6608C204.878 61.236 202.281 60.2558 200.941 58.0012C199.111 54.946 201.121 51.0086 204.666 50.5675C211.364 49.7343 224.549 46.0909 227.13 30.5374C230.627 9.52706 197.15 10.0009 197.15 10.0009Z" fill="#D3E4F8"/>
<path d="M220.84 22.4176C220.84 22.8914 220.448 23.2835 219.974 23.2835H185.159C184.685 23.2835 184.293 22.8914 184.293 22.4176V22.3195C184.293 21.8458 184.685 21.4536 185.159 21.4536H219.974C220.448 21.4536 220.84 21.8458 220.84 22.3195V22.4176Z" fill="#A7C9F5"/>
<path d="M218.292 40.4218C218.292 40.8792 218.21 41.1897 217.769 41.1897H185.208C184.767 41.1897 184.293 40.8792 184.293 40.4218V40.3238C184.293 39.8663 184.75 39.3598 185.208 39.3598H217.769C218.21 39.3598 218.292 39.8663 218.292 40.3238V40.4218Z" fill="#A7C9F5"/>
<path d="M221.216 28.8546C221.216 29.3774 220.889 29.4917 220.366 29.4917H182.071C181.548 29.4917 181.025 29.3774 181.025 28.8546V28.7402C181.025 28.2174 181.548 27.6619 182.071 27.6619H220.35C220.873 27.6619 221.2 28.2337 221.2 28.7402V28.8546H221.216Z" fill="#A7C9F5"/>
<path d="M221.216 34.3442C221.216 34.867 220.889 34.9813 220.366 34.9813H182.071C181.548 34.9813 181.025 34.867 181.025 34.3442V34.2298C181.025 33.707 181.548 33.1515 182.071 33.1515H220.35C220.873 33.1515 221.2 33.7233 221.2 34.2298V34.3442H221.216Z" fill="#A7C9F5"/>
</svg>
