<svg width="301" height="200" viewBox="0 0 301 200" fill="none" xmlns="http://www.w3.org/2000/svg">
<rect width="300" height="200" transform="translate(0.5)" fill="#F1F4F8"/>
<path d="M213.453 170.576C213.453 170.576 204.211 122.112 211.358 99.0457C217.747 78.4664 228.678 50.1108 230.956 44.246C231.113 43.8401 231.676 43.8401 231.846 44.2329C234.517 50.7523 247.294 85.9545 229.28 126.236C209.303 170.89 213.453 170.576 213.453 170.576Z" fill="#00C14D"/>
<path d="M231.493 59.628C231.126 63.1103 230.655 66.5664 230.144 70.0225C229.621 73.4785 229.045 76.9215 228.416 80.3645C227.775 83.7944 227.094 87.2243 226.335 90.6411C225.576 94.0579 224.764 97.4485 223.874 100.839C222.984 104.217 222.028 107.581 220.994 110.919C219.946 114.258 218.821 117.57 217.616 120.856C216.386 124.128 215.063 127.375 213.636 130.569C212.183 133.75 210.599 136.879 208.884 139.929C208.819 140.06 208.649 140.1 208.531 140.034C208.4 139.969 208.361 139.799 208.426 139.681C210.141 136.644 211.725 133.541 213.178 130.373C214.618 127.192 215.94 123.971 217.184 120.712C218.402 117.439 219.527 114.14 220.588 110.815C221.622 107.476 222.591 104.125 223.494 100.761C224.384 97.3831 225.209 93.9924 225.981 90.5887C226.754 87.185 227.448 83.7682 228.089 80.3252C228.731 76.8953 229.32 73.4523 229.856 69.9963C230.38 66.5402 230.864 63.0841 231.231 59.6149C231.244 59.5364 231.31 59.484 231.375 59.4971C231.44 59.4971 231.493 59.5626 231.493 59.628Z" fill="#49E788"/>
<path d="M265.216 102.908C256.576 105.29 206.868 121.235 213.453 170.576C213.453 170.576 248.878 168.508 266.159 103.837C266.316 103.261 265.792 102.751 265.216 102.908Z" fill="#00C14D"/>
<path d="M63.9574 165.987C68.0288 161.523 85.7542 145.787 114.11 171.996C114.11 171.996 78.1221 176.185 64.2061 167.82C63.5777 167.427 63.4599 166.537 63.9574 165.987Z" fill="#00C14D"/>
<path d="M64.2771 122.495C64.1648 122.02 64.7639 121.696 65.0885 122.07C68.2464 125.615 76.834 134.665 84.7849 137.798C97.7162 142.915 110.647 155.16 109.05 165.57C109.037 165.557 77.121 174.482 64.2771 122.495Z" fill="#02983E"/>
<path d="M67.9094 127.987C67.9843 128.124 68.0592 128.224 68.1341 128.336L68.3587 128.661L68.8081 129.31C69.1077 129.734 69.4197 130.159 69.7318 130.583C70.3559 131.432 70.9924 132.268 71.6415 133.092C72.9271 134.752 74.2752 136.375 75.6357 137.972C76.9962 139.582 78.4067 141.143 79.8421 142.678C81.29 144.213 82.7504 145.724 84.2607 147.184C87.2813 150.117 90.4767 152.876 93.8593 155.397C95.5693 156.633 97.3043 157.831 99.1017 158.929C100.912 160.003 102.771 161.001 104.706 161.863C104.769 161.888 104.843 161.863 104.868 161.8C104.893 161.738 104.868 161.663 104.806 161.638C101.074 159.728 97.5664 157.419 94.2587 154.873C92.5986 153.6 90.9885 152.264 89.4033 150.904C87.8181 149.531 86.2953 148.095 84.7849 146.66C81.7518 143.764 78.8935 140.706 76.0975 137.585C74.6996 136.025 73.339 134.427 72.0035 132.805C71.3294 131.993 70.6679 131.182 70.0188 130.371L69.0452 129.135L68.5709 128.511L68.3338 128.199L68.1216 127.899L68.0966 127.874C68.0592 127.824 67.9843 127.812 67.9219 127.849C67.8969 127.862 67.8844 127.924 67.9094 127.987Z" fill="#49E788"/>
<path d="M84.3603 110.144C84.3727 109.745 84.9219 109.62 85.0967 109.982C86.8067 113.489 91.5998 122.551 97.1917 126.808C106.291 133.723 113.818 146.292 110.235 154.18C110.248 154.168 82.9997 154.155 84.3603 110.144Z" fill="#00C14D"/>
<path d="M86.0077 115.3C86.0452 115.437 86.0701 115.524 86.1076 115.624L86.2074 115.936L86.4196 116.548C86.5694 116.96 86.7192 117.359 86.869 117.771C87.1685 118.582 87.4931 119.381 87.8051 120.193C88.4542 121.79 89.1532 123.375 89.8771 124.948C90.5886 126.521 91.3625 128.081 92.1613 129.616C92.9602 131.152 93.784 132.674 94.6577 134.172C96.4052 137.168 98.3274 140.064 100.449 142.81C101.523 144.17 102.646 145.493 103.832 146.767C105.03 148.015 106.291 149.213 107.639 150.311C107.689 150.349 107.776 150.349 107.814 150.299C107.851 150.249 107.851 150.174 107.801 150.124C105.28 147.778 103.033 145.169 100.986 142.41C99.9625 141.037 98.9764 139.627 98.0278 138.191C97.0792 136.756 96.2055 135.283 95.3192 133.81C93.5593 130.852 91.9741 127.794 90.4513 124.711C89.6899 123.163 88.9659 121.603 88.267 120.03C87.9175 119.244 87.568 118.458 87.231 117.659L86.7317 116.46L86.482 115.861L86.3697 115.562L86.2698 115.275L86.2574 115.25C86.2324 115.187 86.1575 115.15 86.0951 115.175C86.0202 115.175 85.9952 115.237 86.0077 115.3Z" fill="#49E788"/>
<path d="M259.835 110.186C257.61 111.98 255.411 113.812 253.224 115.658C251.051 117.517 248.891 119.389 246.757 121.301C244.623 123.199 242.503 125.136 240.421 127.087C238.327 129.038 236.271 131.027 234.242 133.043C230.184 137.076 226.243 141.225 222.539 145.585C220.68 147.758 218.899 149.997 217.21 152.287C215.522 154.592 213.925 156.961 212.524 159.448C212.458 159.579 212.288 159.619 212.17 159.553C212.053 159.488 212 159.317 212.066 159.2C213.493 156.699 215.103 154.317 216.805 152.013C218.52 149.709 220.313 147.47 222.185 145.297C225.916 140.951 229.883 136.801 233.967 132.782C236.009 130.779 238.078 128.802 240.186 126.851C242.28 124.901 244.414 122.989 246.548 121.091C248.695 119.193 250.855 117.321 253.054 115.475C255.24 113.629 257.453 111.809 259.691 110.029C259.744 109.99 259.809 110.003 259.849 110.042C259.888 110.081 259.875 110.16 259.835 110.186Z" fill="#49E788"/>
<path d="M154.307 60.0079L165.906 52.0615C167.019 51.3022 168.341 50.8964 169.702 50.9095L172.242 50.9488C172.242 50.9488 184.718 130.19 183.186 163.821C183.055 166.793 182.348 175.76 182.348 175.76C182.348 175.76 180.817 175.944 179.154 176.074C177.452 176.218 175.737 175.839 174.245 175.001L157.672 165.667L154.307 60.0079Z" fill="#2F3032"/>
<path d="M213.479 51.878L170.422 50.9354C168.917 50.8962 167.699 52.1791 167.804 53.6846L176.13 172.553C176.248 174.255 177.465 175.682 179.141 176.061L218.114 174.385C219.226 174.333 220.117 173.456 220.169 172.343C220.824 160.024 223.978 92.3953 216.229 54.1821C215.967 52.873 214.828 51.9173 213.479 51.878Z" fill="#9FA1A4"/>
<path d="M175.619 62.7307L175.672 63.7256C175.711 64.4587 176.3 65.0347 177.033 65.0478L210.416 65.5846C211.188 65.5977 211.83 64.9693 211.83 64.1969V62.351C211.83 61.5787 211.201 60.9634 210.429 60.9634L176.981 61.2514C176.195 61.2776 175.58 61.9452 175.619 62.7307Z" fill="#272727" fill-opacity="0.5"/>
<path d="M176.916 77.6416L177.151 79.7886C177.23 80.4955 177.832 81.0322 178.552 81.0192L210.927 80.4955C211.686 80.4824 212.288 79.8671 212.288 79.1078V77.0656C212.288 76.2932 211.66 75.6648 210.887 75.6779L178.277 76.0969C177.466 76.123 176.837 76.83 176.916 77.6416Z" fill="#272727" fill-opacity="0.5"/>
<path d="M177.492 93.05L177.544 93.4689C177.636 94.1627 178.238 94.6864 178.945 94.6733L210.926 93.914C211.764 93.8878 212.393 93.1285 212.262 92.3038L212.026 90.8769C211.908 90.183 211.293 89.6856 210.586 89.7248L178.788 91.4921C177.976 91.5183 177.387 92.2383 177.492 93.05Z" fill="#272727" fill-opacity="0.5"/>
<path d="M178.84 107.045C178.918 107.738 179.521 108.262 180.215 108.262H212.065C212.825 108.262 213.453 107.647 213.453 106.874V106.22C213.453 105.448 212.812 104.819 212.039 104.832L180.188 105.487C179.377 105.513 178.748 106.233 178.84 107.045Z" fill="#272727" fill-opacity="0.5"/>
<path d="M181.236 121.733L184.679 168.22C184.731 168.979 185.399 169.555 186.158 169.503L212.812 167.604C213.545 167.552 214.108 166.937 214.094 166.204L213.466 121.615C213.453 120.856 212.838 120.253 212.078 120.253H182.61C181.812 120.253 181.17 120.934 181.236 121.733Z" fill="#272727" fill-opacity="0.5"/>
<path d="M209.866 159.514C209.761 159.514 209.67 159.423 209.67 159.318V127.493C209.67 126.695 209.356 125.948 208.793 125.385C208.23 124.823 207.483 124.521 206.698 124.521H206.685C198.032 124.561 187.624 124.587 187.245 124.495C187.14 124.469 187.074 124.364 187.101 124.26C187.127 124.155 187.231 124.089 187.336 124.116C187.703 124.181 194.942 124.181 206.698 124.129H206.711C207.601 124.129 208.452 124.482 209.081 125.111C209.722 125.752 210.076 126.59 210.076 127.493V159.318C210.062 159.423 209.971 159.514 209.866 159.514Z" fill="#272727"/>
<path d="M212.524 116.287H181.589C180.424 116.287 179.429 115.41 179.272 114.258C176.261 91.4658 174.494 73.9367 173.748 59.1175C173.708 58.476 173.957 57.8345 174.402 57.3763C174.86 56.9181 175.476 56.6563 176.13 56.6694L211.424 57.5596C212.668 57.5858 213.676 58.5938 213.702 59.8375L214.867 113.891C214.88 114.519 214.645 115.122 214.2 115.567C213.754 116.038 213.152 116.287 212.524 116.287ZM176.065 57.0622C175.541 57.0622 175.044 57.2716 174.677 57.6513C174.298 58.044 174.101 58.5545 174.127 59.1044C174.887 73.9236 176.641 91.4266 179.652 114.218C179.783 115.174 180.607 115.907 181.576 115.907H212.511C213.034 115.907 213.532 115.698 213.898 115.318C214.265 114.938 214.461 114.441 214.448 113.917L213.283 59.8637C213.257 58.8295 212.432 57.9916 211.398 57.9654L176.104 57.0752C176.104 57.0621 176.091 57.0622 176.065 57.0622Z" fill="#272727"/>
<path d="M211.83 70.651L175.816 70.088C175.711 70.088 175.62 69.9964 175.62 69.8917C175.62 69.787 175.711 69.6953 175.816 69.6953L211.817 70.2582C211.922 70.2582 212.013 70.3499 212.013 70.4546C212.026 70.5593 211.935 70.651 211.83 70.651Z" fill="#272727"/>
<path d="M211.83 86.5568H178.84C178.735 86.5568 178.644 86.4652 178.644 86.3604C178.644 86.2557 178.735 86.1641 178.84 86.1641H211.83C211.934 86.1641 212.026 86.2557 212.026 86.3604C212.026 86.4652 211.934 86.5568 211.83 86.5568Z" fill="#272727"/>
<path d="M188.842 100.787C183.749 100.787 179.848 100.761 179.652 100.709C179.547 100.682 179.495 100.565 179.521 100.46C179.547 100.355 179.652 100.303 179.756 100.329C180.476 100.447 201.331 100.381 212.275 100.329C212.38 100.329 212.471 100.421 212.471 100.525C212.471 100.63 212.38 100.722 212.275 100.722C208.95 100.735 197.272 100.787 188.842 100.787Z" fill="#272727"/>
<path d="M164.25 60.0079L152.651 52.0615C151.538 51.3022 150.216 50.8964 148.854 50.9095L146.315 50.9488C146.315 50.9488 133.839 130.19 135.371 163.821C135.501 166.793 136.208 175.76 136.208 175.76C136.208 175.76 137.74 175.944 139.403 176.074C141.104 176.218 142.819 175.839 144.312 175.001L160.885 165.667L164.25 60.0079Z" fill="#2F3032"/>
<path d="M105.077 51.878L148.134 50.9354C149.64 50.8962 150.857 52.1791 150.753 53.6846L142.427 172.553C142.309 174.255 141.091 175.682 139.416 176.061L100.443 174.385C99.3303 174.333 98.4401 173.456 98.3878 172.343C97.7332 160.024 94.5782 92.3953 102.328 54.1821C102.59 52.873 103.729 51.9173 105.077 51.878Z" fill="#9FA1A4"/>
<path d="M142.937 62.7307L142.885 63.7256C142.846 64.4587 142.257 65.0347 141.523 65.0478L108.141 65.5846C107.369 65.5977 106.727 64.9693 106.727 64.1969V62.351C106.727 61.5787 107.355 60.9634 108.128 60.9634L141.576 61.2514C142.361 61.2776 142.977 61.9452 142.937 62.7307Z" fill="#272727" fill-opacity="0.5"/>
<path d="M141.641 77.6416L141.405 79.7886C141.327 80.4955 140.725 81.0322 140.005 81.0192L107.63 80.4955C106.871 80.4824 106.269 79.8671 106.269 79.1078V77.0656C106.269 76.2932 106.897 75.6648 107.669 75.6779L140.279 76.0969C141.091 76.123 141.72 76.83 141.641 77.6416Z" fill="#272727" fill-opacity="0.5"/>
<path d="M141.065 93.05L141.013 93.4689C140.921 94.1627 140.319 94.6864 139.612 94.6733L107.63 93.914C106.792 93.8878 106.164 93.1285 106.295 92.3038L106.53 90.8769C106.648 90.183 107.263 89.6856 107.97 89.7248L139.769 91.4921C140.581 91.5183 141.17 92.2383 141.065 93.05Z" fill="#272727" fill-opacity="0.5"/>
<path d="M139.716 107.041C139.637 107.735 139.035 108.259 138.341 108.259H106.49C105.731 108.259 105.103 107.643 105.103 106.871V106.216C105.103 105.444 105.744 104.816 106.516 104.829L138.367 105.483C139.179 105.51 139.807 106.23 139.716 107.041Z" fill="#272727" fill-opacity="0.5"/>
<path d="M137.32 121.73L133.877 168.217C133.825 168.976 133.157 169.552 132.398 169.5L105.744 167.601C105.011 167.549 104.448 166.934 104.461 166.201L105.09 121.612C105.103 120.853 105.718 120.25 106.477 120.25H135.946C136.744 120.25 137.386 120.931 137.32 121.73Z" fill="#272727" fill-opacity="0.5"/>
<path opacity="0.82" d="M108.691 159.514C108.586 159.514 108.494 159.422 108.494 159.318V127.493C108.494 126.59 108.848 125.739 109.489 125.11C110.131 124.469 110.968 124.129 111.872 124.129C123.641 124.181 130.867 124.181 131.234 124.115C131.338 124.102 131.443 124.168 131.456 124.273C131.482 124.377 131.417 124.482 131.312 124.495C130.932 124.587 120.525 124.561 111.872 124.521H111.859C111.073 124.521 110.327 124.822 109.764 125.385C109.201 125.948 108.887 126.694 108.887 127.493V159.318C108.887 159.422 108.808 159.514 108.691 159.514Z" fill="#272727"/>
<path opacity="0.82" d="M136.967 116.287H106.033C105.405 116.287 104.802 116.038 104.37 115.58C103.925 115.122 103.69 114.533 103.703 113.904L104.868 59.8507C104.894 58.607 105.889 57.599 107.146 57.5728L142.44 56.6826C143.081 56.6695 143.722 56.9183 144.168 57.3895C144.626 57.8477 144.861 58.4892 144.822 59.1307C144.063 73.9499 142.309 91.479 139.298 114.271C139.127 115.423 138.133 116.287 136.967 116.287ZM142.426 57.0623L107.146 57.9656C106.111 57.9917 105.274 58.8296 105.261 59.8638L104.095 113.917C104.082 114.441 104.279 114.938 104.645 115.318C105.012 115.698 105.509 115.907 106.033 115.907H136.967C137.936 115.907 138.761 115.187 138.892 114.218C141.903 91.4398 143.67 73.9237 144.416 59.1045C144.442 58.5547 144.246 58.0441 143.866 57.6514C143.487 57.2586 142.976 57.0492 142.426 57.0623Z" fill="#272727"/>
<path opacity="0.82" d="M106.727 70.651C106.622 70.651 106.53 70.5593 106.53 70.4546C106.53 70.3499 106.609 70.2582 106.727 70.2582L142.727 69.6953C142.832 69.6953 142.924 69.7739 142.924 69.8917C142.924 69.9964 142.845 70.088 142.727 70.088L106.727 70.651Z" fill="#272727"/>
<path opacity="0.82" d="M139.716 86.5568H106.727C106.622 86.5568 106.53 86.4652 106.53 86.3604C106.53 86.2557 106.622 86.1641 106.727 86.1641H139.716C139.821 86.1641 139.913 86.2557 139.913 86.3604C139.913 86.4652 139.834 86.5568 139.716 86.5568Z" fill="#272727"/>
<path opacity="0.82" d="M129.715 100.787C121.284 100.787 109.607 100.735 106.269 100.722C106.164 100.722 106.072 100.63 106.072 100.525C106.072 100.421 106.164 100.329 106.269 100.329C117.226 100.381 138.133 100.46 138.8 100.329C138.905 100.303 139.01 100.355 139.036 100.46C139.062 100.565 139.01 100.669 138.905 100.709C138.709 100.774 134.794 100.787 129.715 100.787Z" fill="#272727"/>
<path d="M183.723 64.5767C183.749 64.5636 194.785 45.2279 196.278 43.4083C196.526 43.1072 196.919 42.9501 197.312 42.9893L200.388 43.3559L204.014 51.1844L197.979 47.676C198.582 51.7997 190.832 57.9395 188.174 60.1781C187.899 60.4006 187.886 60.8065 188.122 61.0683L189.182 62.181C187.441 63.9484 185.425 65.0742 183.16 65.6109L183.723 64.5767Z" fill="#B07968"/>
<path d="M188.58 61.5918C188.58 61.5918 189.261 61.8143 189.483 62.4165C189.588 62.7045 189.47 63.0318 189.221 63.2151C188.109 64.0137 184.43 66.5926 182.728 67.1032C182.584 67.1425 182.453 67.0246 182.492 66.8806C182.584 66.4879 182.859 65.7024 183.775 64.5504L183.697 64.7206C183.592 64.9301 183.815 65.1526 184.024 65.0348C185.15 64.3671 187.467 62.9664 188.58 61.5918Z" fill="#15C87D"/>
<path d="M188.03 69.329C188.043 69.316 189.705 65.3231 189.719 65.3101C191.237 56.0546 194.942 48.1344 196.042 46.0529C196.225 45.6994 196.578 45.4769 196.971 45.4376L200.061 45.1758L205.192 52.1141L198.568 49.8886C199.982 53.816 193.646 61.3827 191.486 64.1187C191.263 64.3937 191.329 64.7995 191.617 64.9959L192.887 65.873C191.538 67.9545 189.797 69.473 187.689 70.4418L188.03 69.329Z" fill="#E2A18D"/>
<path d="M192.167 65.4146C192.167 65.4146 192.874 65.4931 193.227 66.0298C193.398 66.2917 193.345 66.632 193.136 66.8677C192.206 67.8757 189.13 71.1485 187.559 71.9863C187.428 72.0518 187.271 71.9601 187.284 71.8161C187.284 71.4103 187.402 70.5856 188.056 69.2765L188.004 69.4597C187.952 69.6823 188.213 69.8525 188.384 69.6954C189.379 68.8314 191.355 66.9855 192.167 65.4146Z" fill="#15C87D"/>
<path d="M214.54 43.7222C214.54 43.7222 217.341 47.8852 217.564 49.7834C217.786 51.6816 216.791 52.3362 213.859 52.5849C205.14 53.305 200.846 50.6998 200.846 50.6998C200.244 46.9034 199.825 45.9346 194.851 43.8662C194.851 43.8662 201.147 44.3637 202.417 43.8793C203.687 43.3687 214.54 43.7222 214.54 43.7222Z" fill="#04663D"/>
<path d="M206.973 43.1593C206.973 43.1593 203.713 40.0566 202.116 38.0013C201.252 36.8886 200.977 35.4224 201.383 34.074C202.116 31.6128 203.412 29.0469 203.53 28.6542C203.713 28.0389 207.366 28.0651 207.366 28.0651C207.366 28.0651 214.553 32.7256 217.381 40.6327L214.213 41.6145C214.213 41.6145 212.341 38.4595 210.482 36.4566C210.482 36.4566 213.689 40.6981 213.807 42.4262L206.973 43.1593Z" fill="#15C87D"/>
<path d="M203.085 25.264C203.124 25.395 204.08 28.5499 204.145 28.6154C204.224 28.6808 206.24 28.7856 207.183 28.1441L205.245 23.8633L203.085 25.264Z" fill="#E2A18D"/>
<path d="M200.467 21.7029C200.467 21.7029 199.786 23.2739 200.585 25.6565C201.383 28.0391 202.692 28.2485 203.517 27.6594C204.342 27.0703 205.415 26.023 205.546 23.863C205.664 21.7029 201.396 19.7262 200.467 21.7029Z" fill="#E2A18D"/>
<path d="M203.923 23.7192C203.923 23.7192 202.483 20.4987 200.323 22.5017L200.152 23.3264C200.152 23.3264 198.097 22.7373 198.765 20.8784C199.446 19.0194 201.894 17.7496 204.106 18.954C206.305 20.1584 207.051 21.5853 206.934 23.2872C206.816 24.989 205.546 24.3999 205.546 24.3999C205.546 24.3999 205.297 23.1563 204.708 22.9337C204.119 22.7112 204.119 23.6537 204.119 23.6537L203.923 23.7192Z" fill="#E51818"/>
<path d="M204.42 23.7583C204.42 23.7583 203.674 22.1088 204.721 22.0434C205.769 21.9779 205.35 23.6405 205.14 24.2427L204.42 23.7583Z" fill="#E2A18D"/>
<path d="M200.768 44.3902L203.216 41.7327L206.043 42.4919C206.043 42.4919 209.342 43.0025 211.227 42.4919C213.113 41.9814 213.113 41.9814 213.113 41.9814L217.38 40.6592L218.048 42.5574C218.218 43.0418 218.048 43.5654 217.629 43.8665C217.262 44.1283 216.83 44.4164 216.556 44.5342C215.993 44.7829 203.621 44.6127 203.621 44.6127L200.768 44.3902Z" fill="#E2A18D"/>
<path d="M205.023 20.1582C204.434 20.0928 204.198 19.3597 204.604 18.9276C205.9 17.5138 208.335 15.9429 211.817 18.3516C215.731 21.0615 217.852 22.2921 218.808 22.0303C219.436 21.8601 219.986 22.4885 219.685 23.0645C219.462 23.4965 219.017 23.9416 218.179 24.3474C211.778 27.5024 208.466 20.5771 205.023 20.1582Z" fill="#E51818"/>
<path d="M208.871 45.4503C208.858 45.4503 208.858 45.4503 208.845 45.4503L197.586 45.4373C197.311 45.4373 197.089 45.2147 197.089 44.9267C197.089 44.6518 197.311 44.4161 197.599 44.4292L208.858 44.4423C209.133 44.4423 209.355 44.6649 209.355 44.9529C209.355 45.2147 209.133 45.4373 208.871 45.4503Z" fill="#04663D"/>
<path d="M187.454 35.2261H196.827C197.521 35.2261 198.149 35.6188 198.437 36.2472L202.771 45.4372H191.12C190.674 45.4372 190.269 45.1623 190.111 44.7565L186.747 36.2472C186.564 35.7497 186.93 35.2261 187.454 35.2261Z" fill="#09985C"/>
<path d="M194.065 39.939C194.274 40.5673 194.117 41.1826 193.725 41.3135C193.332 41.4444 192.861 41.0255 192.651 40.3971C192.442 39.7688 192.599 39.1535 192.992 39.0226C193.384 38.8917 193.869 39.2975 194.065 39.939Z" fill="#FAFAFA"/>
<path d="M180.307 126.668C180.216 126.249 179.627 126.223 179.509 126.629C178.344 130.622 174.94 141.003 169.821 146.475C161.495 155.377 155.866 169.935 161.037 177.567C161.037 177.58 189.655 172.658 180.307 126.668Z" fill="#02983E"/>
<path d="M179.443 132.389C179.43 132.52 179.417 132.625 179.391 132.743L179.339 133.083L179.221 133.764C179.142 134.222 179.051 134.667 178.959 135.125C178.776 136.028 178.579 136.932 178.383 137.822C177.977 139.615 177.519 141.396 177.035 143.176C176.55 144.957 176.027 146.724 175.451 148.465C174.888 150.219 174.285 151.96 173.631 153.688C172.335 157.145 170.856 160.522 169.141 163.782C168.931 164.188 168.695 164.593 168.473 164.999L168.133 165.601C168.015 165.798 167.897 165.994 167.779 166.204C167.543 166.596 167.321 167.002 167.072 167.395L166.326 168.56C165.305 170.092 164.218 171.597 163.04 172.998C163.014 173.024 162.975 173.024 162.948 173.011C162.922 172.985 162.922 172.946 162.935 172.919C164.074 171.479 165.122 169.974 166.103 168.416L166.823 167.238C167.059 166.845 167.282 166.439 167.517 166.047C167.635 165.85 167.753 165.654 167.858 165.444L168.185 164.842C168.394 164.436 168.63 164.031 168.826 163.625C169.677 162.001 170.45 160.326 171.196 158.65C171.942 156.974 172.61 155.259 173.264 153.544C174.573 150.115 175.686 146.606 176.72 143.085C177.231 141.317 177.702 139.537 178.134 137.756C178.357 136.866 178.566 135.976 178.776 135.073C178.88 134.628 178.972 134.169 179.064 133.724L179.208 133.044L179.273 132.703C179.299 132.599 179.312 132.468 179.326 132.376V132.363C179.326 132.324 179.365 132.297 179.404 132.311C179.417 132.324 179.443 132.35 179.443 132.389Z" fill="#49E788"/>
<path d="M161.037 177.58C161.037 177.58 154.387 170.746 154.243 157.131C154.112 144.498 154.714 114.362 150.08 102.711C149.871 102.201 150.512 101.769 150.905 102.148C155.186 106.285 165.109 117.478 168.473 135.23C172.793 158.113 161.037 177.58 161.037 177.58Z" fill="#00C14D"/>
<path d="M155.238 112.674C156.05 113.708 156.717 114.847 157.346 116.012C157.961 117.177 158.511 118.382 158.995 119.599C159.964 122.047 160.71 124.6 161.26 127.179C161.404 127.82 161.509 128.475 161.639 129.116C161.744 129.771 161.862 130.412 161.941 131.08C162.124 132.389 162.242 133.698 162.346 135.021L162.399 136.002L162.425 136.5L162.438 136.997L162.464 137.992C162.477 138.319 162.477 138.647 162.477 138.987C162.477 139.314 162.49 139.642 162.477 139.982L162.464 140.964L162.438 142.941C162.373 145.572 162.294 148.203 162.163 150.835C162.111 152.144 162.019 153.466 161.954 154.775L161.692 158.716C161.509 161.334 161.325 163.965 161.234 166.583C161.207 167.238 161.207 167.893 161.194 168.547C161.181 168.874 161.194 169.202 161.207 169.529C161.221 169.856 161.221 170.183 161.234 170.511C161.273 171.165 161.299 171.82 161.391 172.474L161.443 172.959C161.456 173.037 161.456 173.116 161.469 173.208L161.509 173.443L161.692 174.412C161.705 174.451 161.679 174.477 161.639 174.49C161.6 174.49 161.574 174.477 161.561 174.438C161.247 173.155 161.077 171.846 160.998 170.524C160.972 170.197 160.972 169.869 160.959 169.542C160.946 169.215 160.933 168.887 160.933 168.547C160.933 167.893 160.919 167.225 160.933 166.57L160.946 165.588C160.959 165.261 160.972 164.934 160.985 164.607L161.024 163.625L161.077 162.643C161.142 161.334 161.221 160.012 161.286 158.703L161.495 154.762C161.561 153.453 161.639 152.144 161.692 150.822C161.823 148.19 161.888 145.572 161.941 142.941L161.967 140.964C161.98 140.309 161.98 139.655 161.98 139C161.98 138.673 161.98 138.346 161.98 138.018L161.954 137.037L161.941 136.539L161.914 136.055L161.862 135.073C161.77 133.764 161.666 132.455 161.495 131.159C161.417 130.504 161.312 129.863 161.221 129.208C161.103 128.567 160.998 127.912 160.867 127.271C160.37 124.705 159.676 122.165 158.759 119.704C158.524 119.089 158.288 118.486 158.039 117.871C157.778 117.269 157.516 116.667 157.215 116.078C156.927 115.488 156.626 114.912 156.285 114.336C155.958 113.787 155.604 113.224 155.238 112.674C155.225 112.687 155.225 112.687 155.238 112.674Z" fill="#49E788"/>
<path d="M141.727 126.668C141.818 126.249 142.407 126.223 142.525 126.629C143.69 130.622 147.094 141.003 152.213 146.475C160.539 155.377 166.168 169.935 160.997 177.567C160.997 177.58 132.38 172.658 141.727 126.668Z" fill="#02983E"/>
<path d="M142.591 132.389C142.604 132.52 142.617 132.625 142.643 132.743L142.696 133.083L142.813 133.764C142.892 134.222 142.984 134.667 143.075 135.125C143.258 136.028 143.455 136.932 143.651 137.822C144.057 139.615 144.515 141.396 145 143.176C145.484 144.957 146.008 146.724 146.584 148.465C147.147 150.219 147.749 151.96 148.403 153.688C149.699 157.145 151.179 160.522 152.894 163.782C153.103 164.188 153.339 164.593 153.561 164.999L153.902 165.601C154.019 165.798 154.137 165.994 154.255 166.204C154.491 166.596 154.713 167.002 154.962 167.395L155.708 168.56C156.729 170.092 157.816 171.597 158.994 172.998C159.02 173.024 159.06 173.024 159.086 173.011C159.112 172.985 159.112 172.946 159.099 172.919C157.96 171.479 156.913 169.974 155.931 168.416L155.211 167.238C154.975 166.845 154.753 166.439 154.517 166.047C154.399 165.85 154.281 165.654 154.177 165.444L153.849 164.842C153.64 164.436 153.404 164.031 153.208 163.625C152.357 162.001 151.584 160.326 150.838 158.65C150.092 156.974 149.424 155.259 148.77 153.544C147.461 150.115 146.348 146.606 145.314 143.085C144.803 141.317 144.332 139.537 143.9 137.756C143.677 136.866 143.468 135.976 143.258 135.073C143.154 134.628 143.062 134.169 142.97 133.724L142.826 133.044L142.761 132.703C142.735 132.599 142.722 132.468 142.709 132.376V132.363C142.709 132.324 142.669 132.297 142.63 132.311C142.617 132.324 142.591 132.35 142.591 132.389Z" fill="#49E788"/>
<path d="M75.4388 194.502C73.0877 194.706 69.0094 195.032 65.7948 195.177C63.8645 195.264 62.747 195.076 62.1084 194.814C62.1084 194.887 62.1084 194.952 62.1157 195.018C62.1302 195.359 62.4059 195.627 62.747 195.649C68.8208 195.99 73.6537 195.765 75.3735 195.664C75.7291 195.642 75.9395 195.257 75.7581 194.952C75.6638 194.793 75.5549 194.648 75.4388 194.502Z" fill="#09985C"/>
<path d="M65.7949 195.177C69.0096 195.039 73.0878 194.705 75.4389 194.502C73.1313 191.665 65.7949 189.756 65.7949 189.756H63.7195C62.2972 191.81 62.0867 193.762 62.1013 194.814C62.7471 195.068 63.8646 195.257 65.7949 195.177Z" fill="#43E5A1"/>
<path d="M63.3711 186.375L63.567 190.207C63.5888 190.62 63.9008 190.968 64.3145 191.034C64.7281 191.092 65.2796 191.099 65.8674 190.903C66.2302 190.78 66.4987 190.475 66.564 190.105L67.2316 186.375H63.3711Z" fill="#B07968"/>
<path d="M36.4782 195.148C35.4622 195.003 34.9978 194.473 34.8019 193.907C34.8019 193.914 34.8019 193.914 34.7946 193.922C34.6422 194.517 34.9905 195.141 35.6872 195.431C36.529 195.787 37.4433 195.845 38.1544 195.816C38.9164 195.787 39.6203 195.467 40.0049 194.959L40.0121 194.952C39.2574 195.337 38.1762 195.38 36.4782 195.148Z" fill="#09985C"/>
<path d="M41.282 186.353H39.5767C36.9788 186.302 35.3388 191.788 34.8091 193.914C35.005 194.48 35.4622 195.01 36.4854 195.155C38.1834 195.395 39.2646 195.344 40.0266 194.966C41.4344 193.116 42.131 190.409 42.4648 188.827C42.8422 187.021 41.282 186.353 41.282 186.353Z" fill="#43E5A1"/>
<path d="M39.7946 182.79L38.844 186.563C38.7279 187.028 38.9456 187.507 39.3737 187.725C39.9034 188 40.6509 188.283 41.3402 188.203C41.6595 188.167 41.928 187.935 42.0369 187.63L43.4301 183.661L39.7946 182.79Z" fill="#B07968"/>
<path d="M38.6621 183.878C39.8449 184.923 43.6764 185.061 43.6764 185.061C57.5003 151.884 63.1532 147.174 63.1532 147.174C61.1576 159.699 62.8339 187.42 62.8339 187.42C65.1125 188.428 68.0587 187.42 68.0587 187.42C68.2473 166.92 71.3967 149.039 75.1194 134.947C65.7801 134.737 60.8093 131.536 59.1838 130.259C51.3975 142.813 38.6621 183.878 38.6621 183.878Z" fill="#09985C"/>
<path d="M61.5569 92.1041C59.7863 100.928 60.4249 116.711 60.8385 123.917C60.9546 125.942 59.5396 128.75 58.4003 130.659C58.2189 130.956 58.335 131.341 58.6398 131.5C60.5483 132.48 67.0284 135.528 74.539 135.905C75.0397 135.927 75.4896 135.586 75.613 135.107C81.1788 114.317 87.6517 101.03 87.6517 101.03C80.5112 89.6223 61.5569 92.1041 61.5569 92.1041Z" fill="#79F4C1"/>
<path d="M64.097 146.391C64.0172 146.391 63.9374 146.369 63.8648 146.325C63.6544 146.195 63.589 145.926 63.7197 145.716C63.7922 145.593 65.5846 142.704 69.1984 140.956C69.4161 140.847 69.6846 140.941 69.7862 141.159C69.895 141.376 69.8007 141.645 69.583 141.747C66.2087 143.372 64.4889 146.137 64.4744 146.166C64.3945 146.311 64.2494 146.391 64.097 146.391Z" fill="#15C87D"/>
<path d="M50.4619 117.415C51.0279 121.522 52.7115 126.007 56.064 130.767L57.3412 129.73C57.3412 129.73 55.8681 123.75 56.7026 116.965C54.6345 116.566 52.189 116.98 50.4619 117.415Z" fill="#B07968"/>
<path d="M63.5309 102.982L61.5571 92.0967C61.5571 92.0967 48.3573 102.183 50.4617 117.415C52.1888 116.98 54.6342 116.559 56.7024 116.965C57.3119 112.081 59.1116 106.777 63.5309 102.982Z" fill="#79F4C1"/>
<path d="M87.6518 101.03L82.5576 112.002C83.3849 118.627 86.9406 121.486 90.7794 122.589C91.0188 119.57 91.7808 117.132 92.4919 115.441C87.5865 110.376 87.6518 101.03 87.6518 101.03Z" fill="#79F4C1"/>
<path d="M92.4845 115.441C91.7734 117.125 91.0114 119.57 90.772 122.589C101.011 126.559 103.718 118.859 103.718 118.859L101.824 118.525C97.5569 118.968 94.5744 117.589 92.4845 115.441Z" fill="#B07968"/>
<path d="M82.9568 87.4817L80.4968 96.5234C80.2211 97.5393 79.1254 98.0836 78.1457 97.6917C77.0935 97.2709 75.751 96.6976 74.6045 96.0735C73.3781 95.4132 72.9935 93.8312 73.77 92.6702L78.8859 85.0435L82.9568 87.4817Z" fill="#B07968"/>
<path d="M108.413 112.807L45.3965 135.745C42.755 136.71 41.4924 139.715 42.6535 142.276L42.8421 142.697C43.8726 144.961 46.5503 145.955 48.8071 144.91L109.995 116.602L108.413 112.807Z" fill="#9FA1A4"/>
<path opacity="0.23" d="M137.374 129.555C154.555 129.555 168.483 115.877 168.483 99.005C168.483 82.1325 154.555 68.4546 137.374 68.4546C120.193 68.4546 106.265 82.1325 106.265 99.005C106.265 115.877 120.193 129.555 137.374 129.555Z" fill="#FAFAFA"/>
<path d="M137.374 65.0151C118.26 65.0151 102.76 80.2323 102.76 99.0051C102.76 117.778 118.26 132.995 137.374 132.995C156.488 132.995 171.988 117.778 171.988 99.0051C171.988 80.2323 156.496 65.0151 137.374 65.0151ZM137.374 128.003C121.069 128.003 107.847 115.021 107.847 99.0051C107.847 82.9898 121.069 70.0077 137.374 70.0077C153.68 70.0077 166.902 82.9898 166.902 99.0051C166.909 115.021 153.687 128.003 137.374 128.003Z" fill="#D2D3D6"/>
<path d="M105.394 103.221C105.278 103.221 105.176 103.134 105.162 103.018C105.06 102.205 104.988 101.385 104.944 100.58C104.937 100.449 105.039 100.34 105.162 100.333C105.314 100.326 105.401 100.428 105.409 100.551C105.445 101.349 105.517 102.155 105.619 102.953C105.634 103.083 105.547 103.2 105.416 103.214C105.416 103.214 105.401 103.221 105.394 103.221ZM105.634 93.7151C105.619 93.7151 105.605 93.7151 105.59 93.7079C105.467 93.6861 105.38 93.5627 105.401 93.4394C105.793 91.2551 106.425 89.0999 107.266 87.0463C112.259 74.9423 124.073 67.1196 137.374 67.1196C143.578 67.1196 149.601 68.8394 154.804 72.1049C154.913 72.1702 154.942 72.3154 154.877 72.4242C154.812 72.5331 154.667 72.5693 154.558 72.4968C149.427 69.2821 143.484 67.5841 137.374 67.5841C124.261 67.5841 112.614 75.2906 107.694 87.2205C106.86 89.2451 106.243 91.364 105.851 93.5119C105.837 93.6353 105.742 93.7151 105.634 93.7151Z" fill="#9FA1A4"/>
<path d="M88.3416 80.6168C88.3634 80.7692 86.288 90.9357 86.288 90.9357L80.5117 89.6295L81.0487 79.7097C81.0487 79.7024 87.9643 78.0116 88.3416 80.6168Z" fill="#B07968"/>
<path d="M82.3478 81.9083L81.6584 87.1113C81.6511 87.1766 81.6511 87.2419 81.6584 87.3072C81.7164 87.7136 82.0212 89.0996 83.4218 88.7078C84.6917 88.3449 85.86 88.0402 86.6655 88.2869C87.0283 88.3957 87.246 88.7658 87.1662 89.1359C86.9775 90.0575 86.5131 92.1329 85.8382 93.8672C85.7003 94.2228 85.3157 94.4042 84.9529 94.3026C83.8572 93.9833 81.5641 93.2432 79.8588 92.22C79.6265 92.0821 79.4887 91.8281 79.5032 91.5596C79.5612 90.2462 79.7136 86.255 79.583 85.1375C79.4596 84.0853 78.1752 83.4612 77.6092 83.229C77.4278 83.1565 77.2827 83.0113 77.2101 82.8299C76.9489 82.1768 76.5933 80.6747 78.4873 80.0579C78.8864 79.9273 79.0896 79.4991 78.9517 79.1073C78.6687 78.3235 78.5526 77.1335 80.0184 76.4731C81.506 75.8055 82.6235 76.5965 83.2258 77.2423C83.4653 77.5036 83.8572 77.5398 84.1619 77.3512C84.3361 77.2423 84.5538 77.206 84.8223 77.3729C85.1851 77.5979 85.6568 77.4455 85.8455 77.0609C86.201 76.328 86.9267 75.5443 88.3853 75.791C90.9759 76.2336 91.2662 79.1 90.584 80.7835C89.9019 82.4671 87.1226 81.8212 85.7294 80.9795C84.6699 80.3336 83.2911 81.0085 82.6961 81.3713C82.5002 81.4947 82.3768 81.6906 82.3478 81.9083Z" fill="#04663D"/>
<path d="M79.3432 87.0313C79.3432 87.0313 80.41 84.0488 79.3142 83.3232C78.2185 82.5903 76.6002 82.9749 76.9558 85.1301C77.4057 87.815 79.3432 87.0313 79.3432 87.0313Z" fill="#B07968"/>
<path d="M56.8183 129.548L62.776 129.062L65.3593 131.442C65.3593 131.442 64.7498 132.284 62.8413 131.798C60.9328 131.312 58.3204 131.195 58.3204 131.195C58.3204 131.195 55.6863 132.386 55.6572 130.158L56.8183 129.548Z" fill="#B07968"/>
<path d="M102.963 120.26C103.478 120.659 105.242 119.825 106.323 119.244C106.853 118.961 107.107 118.344 106.925 117.778C106.664 116.958 106.229 115.899 105.699 115.768C104.814 115.543 100.837 118.605 102.963 120.26Z" fill="#B07968"/>
<path d="M46.6372 144.025C46.6154 144.025 46.5864 144.018 46.5574 144.011C44.0974 143.162 43.5241 141.703 43.4733 140.636C43.408 139.069 44.3876 137.618 45.9188 137.023L53.4874 134.069C53.6035 134.026 53.7414 134.084 53.7849 134.2C53.8285 134.316 53.7704 134.454 53.6543 134.505L46.0857 137.458C44.7432 137.98 43.8797 139.25 43.9377 140.615C43.9958 141.964 44.9246 142.958 46.7025 143.568C46.8258 143.612 46.8912 143.742 46.8476 143.866C46.8258 143.96 46.7315 144.025 46.6372 144.025Z" fill="#4B4C4F"/>
<path d="M55.9114 133.612C55.817 133.612 55.7299 133.554 55.6937 133.467C55.6501 133.344 55.7082 133.213 55.8243 133.162L56.8039 132.778C56.92 132.734 57.0579 132.792 57.1014 132.908C57.145 133.032 57.0869 133.162 56.9708 133.213L55.9912 133.598C55.9621 133.605 55.9331 133.612 55.9114 133.612Z" fill="#4B4C4F"/>
</svg>
