<svg width="24" height="24" viewBox="0 0 24 24" fill="none" xmlns="http://www.w3.org/2000/svg">
<g id="phone">
<g id="shape">
<path fill-rule="evenodd" clip-rule="evenodd" d="M5.56801 4.00225C5.20809 3.97952 4.85357 4.09893 4.58071 4.33486C4.30709 4.57146 4.13758 4.90623 4.10881 5.26681L4.10811 5.27684C3.99218 7.22216 4.28669 9.17012 4.97253 10.9942C5.65837 12.8183 6.72019 14.4778 8.08906 15.8648C9.45792 17.2519 11.1032 18.3355 12.9181 19.0454C14.733 19.7553 16.6769 20.0755 18.6236 19.9852L18.6345 19.9846C18.8163 19.9722 18.9939 19.9238 19.1569 19.8422C19.32 19.7605 19.4651 19.6474 19.584 19.5092C19.7029 19.371 19.7932 19.2106 19.8496 19.0372C19.9056 18.8648 19.9271 18.6829 19.9127 18.5022L19.6634 15.009C19.6373 14.6446 19.4793 14.3023 19.2188 14.0462C18.9584 13.7901 18.6134 13.6379 18.2487 13.618L15.6524 13.4764C15.5105 13.4687 15.372 13.5217 15.2716 13.6221L13.5869 15.3068C11.4837 14.2974 9.78706 12.6008 8.77775 10.4976L10.5671 8.70813C10.6696 8.60561 10.7226 8.46364 10.7123 8.31903L10.5175 5.58593C10.4915 5.22159 10.3335 4.87924 10.073 4.62313C9.81261 4.36701 9.46768 4.21472 9.10296 4.19482L5.56801 4.00225ZM5.23479 5.09129C5.30967 5.02654 5.40703 4.99386 5.50582 5.00032L9.04849 5.19334C9.17007 5.19997 9.28504 5.25074 9.37185 5.33611C9.45866 5.42148 9.51133 5.5356 9.51999 5.65704L9.69856 8.16244L7.82456 10.0365C7.67878 10.1823 7.63743 10.4026 7.72043 10.5914C8.85452 13.1702 10.9143 15.23 13.4931 16.3641C13.6819 16.4471 13.9022 16.4057 14.048 16.2599L15.8208 14.4871L18.1943 14.6165C18.3159 14.6232 18.4309 14.6739 18.5177 14.7593C18.6045 14.8446 18.6572 14.9588 18.6659 15.0803L18.9154 18.5756L18.9158 18.5808C18.9199 18.6305 18.914 18.6805 18.8986 18.7279C18.8832 18.7753 18.8585 18.8192 18.826 18.8569C18.7935 18.8947 18.7538 18.9257 18.7092 18.948C18.666 18.9697 18.6189 18.9828 18.5707 18.9866C16.7663 19.0693 14.9646 18.7721 13.2824 18.1141C11.5981 17.4553 10.0712 16.4497 8.80082 15.1624C7.53046 13.8752 6.54504 12.3351 5.90855 10.6423C5.27278 8.95133 4.99935 7.14568 5.10598 5.34234C5.11478 5.24518 5.16092 5.15517 5.23479 5.09129Z" fill="#636A74"/>
</g>
</g>
</svg>
