<svg width="24" height="24" viewBox="0 0 24 24" fill="none" xmlns="http://www.w3.org/2000/svg">
<g id="icon left">
<g id="shape">
<path fill-rule="evenodd" clip-rule="evenodd" d="M12 7.88155C10.5768 7.88155 9.4231 9.03526 9.4231 10.4584C9.4231 11.8816 10.5768 13.0353 12 13.0353C13.4232 13.0353 14.5769 11.8816 14.5769 10.4584C14.5769 9.03526 13.4232 7.88155 12 7.88155ZM8.4231 10.4584C8.4231 8.48298 10.0245 6.88155 12 6.88155C13.9755 6.88155 15.5769 8.48298 15.5769 10.4584C15.5769 12.4339 13.9755 14.0353 12 14.0353C10.0245 14.0353 8.4231 12.4339 8.4231 10.4584Z" fill="#323A45"/>
<path fill-rule="evenodd" clip-rule="evenodd" d="M19.9805 7.79825C20.6503 9.083 21.0001 10.5105 21 11.9593C21.0021 14.0929 20.2439 16.158 18.8615 17.7831C18.4015 18.3281 17.8744 18.8127 17.2926 19.2253C15.7581 20.3522 13.9039 20.9598 12 20.9598C10.0961 20.9598 8.24193 20.3522 6.70739 19.2253C6.12557 18.8127 5.59835 18.328 5.13833 17.7829C4.20082 16.6783 3.54382 15.3637 3.22318 13.9508C2.90248 12.5377 2.92774 11.068 3.29681 9.66673C3.66588 8.26545 4.36784 6.97401 5.34303 5.90219C6.31822 4.83037 7.53779 4.00987 8.89806 3.51044C10.2583 3.011 11.7191 2.84741 13.1562 3.03356C14.5932 3.2197 15.9641 3.75009 17.1522 4.57964C18.3403 5.40918 19.3106 6.51334 19.9805 7.79825ZM8.08803 17.0498C7.91235 17.1362 7.76425 17.2699 7.66037 17.4359C7.55624 17.6023 7.5007 17.7944 7.5 17.9907V18.5619C8.03005 18.9264 8.5997 19.2233 9.19564 19.4482C9.28078 19.4804 9.36645 19.511 9.45262 19.5402C9.5511 19.5735 9.65023 19.605 9.74995 19.6344C9.95792 19.6959 10.1685 19.7488 10.3811 19.7931L10.4338 19.8039C10.9467 19.907 11.4712 19.9598 12 19.9598C13.5239 19.9598 15.0119 19.5215 16.2886 18.7024C16.3597 18.6567 16.4302 18.6099 16.5 18.5619V17.9907C16.4993 17.7945 16.4438 17.6023 16.3396 17.4359C16.2357 17.2699 16.0876 17.1362 15.9119 17.0498C14.6906 16.4656 13.3539 16.1624 12 16.1624C10.6461 16.1624 9.30938 16.4656 8.08803 17.0498ZM9.24272 4.44916C10.4519 4.00522 11.7503 3.8598 13.0277 4.02527C14.3051 4.19074 15.5236 4.66219 16.5797 5.39956C17.6358 6.13693 18.4983 7.11841 19.0938 8.26056C19.6892 9.40271 20.0001 10.6723 20 11.9604C20.002 13.8567 19.3281 15.6916 18.0992 17.1358L18.0978 17.1374C17.9074 17.3631 17.704 17.577 17.4886 17.7781C17.4558 17.469 17.3532 17.1704 17.1873 16.9054C16.984 16.5806 16.6939 16.3192 16.3498 16.1508L16.3459 16.1489C14.9891 15.4994 13.5041 15.1624 12 15.1624C10.4959 15.1624 9.01085 15.4994 7.65413 16.1489L7.65016 16.1508C7.30606 16.3192 7.01597 16.5806 6.81271 16.9054C6.64681 17.1704 6.54416 17.469 6.51142 17.7782C6.29604 17.5771 6.09257 17.3631 5.90216 17.1374L5.90118 17.1363C5.0676 16.1543 4.48344 14.9856 4.19838 13.7295C3.91331 12.4734 3.93577 11.167 4.26383 9.92142C4.59189 8.67585 5.21586 7.5279 6.08269 6.57517C6.94953 5.62244 8.03359 4.89311 9.24272 4.44916ZM8.4231 10.4584C8.4231 8.48298 10.0245 6.88155 12 6.88155C13.9755 6.88155 15.5769 8.48298 15.5769 10.4584C15.5769 12.4339 13.9755 14.0353 12 14.0353C10.0245 14.0353 8.4231 12.4339 8.4231 10.4584ZM12 7.88155C10.5768 7.88155 9.4231 9.03526 9.4231 10.4584C9.4231 11.8816 10.5768 13.0353 12 13.0353C13.4232 13.0353 14.5769 11.8816 14.5769 10.4584C14.5769 9.03526 13.4232 7.88155 12 7.88155Z" fill="#323A45"/>
</g>
</g>
</svg>
