<svg width="44" height="44" viewBox="0 0 44 44" fill="none" xmlns="http://www.w3.org/2000/svg">
<g id="relatar symbol">
<g id="secundary">
<path d="M34.2204 28.6738C34.784 28.5211 35.3038 29.0342 35.1665 29.6079L34.6702 31.6812C34.3172 33.1562 33.1958 34.3183 31.7465 34.7111L29.5781 35.2988C28.9976 35.4561 28.4711 34.9091 28.6421 34.3264L29.636 30.9403C29.8388 30.2491 30.3821 29.7141 31.0706 29.5275L34.2204 28.6738Z" fill="#E1E3E6"/>
<path d="M26.3425 11.6812C25.654 11.8678 24.9191 11.6793 24.4017 11.1833L21.5348 8.43483C21.2441 8.15605 21.3678 7.66275 21.7548 7.55786L24.3655 6.85028C25.8147 6.45749 27.3604 6.89679 28.3953 7.99561L30.1477 9.85626C30.416 10.1412 30.285 10.6127 29.9092 10.7145L26.3425 11.6812Z" fill="#E1E3E6"/>
<path d="M11.4052 24.1703C11.9654 24.7073 12.1799 25.517 11.9602 26.2654L10.8584 30.0194C10.7463 30.4014 10.2677 30.5179 9.99601 30.2294L8.12136 28.239C7.15986 27.2181 6.77705 25.773 7.10508 24.4026L7.74464 21.7307C7.83735 21.3434 8.30939 21.2023 8.59531 21.4764L11.4052 24.1703Z" fill="#E1E3E6"/>
</g>
<g id="primary">
<path d="M20.4003 35.7305L23.8971 34.7828C24.6217 34.5864 25.1824 34.0053 25.359 33.2678L26.1774 29.8486C26.3605 29.0837 25.6674 28.3995 24.9159 28.6032L22.1817 29.3442C21.1489 29.6241 20.0465 29.3413 19.2705 28.5973L17.0036 26.4241C16.4318 25.8759 15.4877 26.1581 15.3023 26.9326L14.4708 30.4061C14.3068 31.0913 14.4982 31.8139 14.979 32.3243L17.378 34.8715C18.1541 35.6956 19.3133 36.0251 20.4003 35.7305Z" fill="#9FA1A4"/>
<path d="M17.5325 10.7573L14.0356 11.705C12.9487 11.9996 12.1077 12.8712 11.8429 13.9775L11.0244 17.3966C10.8604 18.0818 11.0518 18.8044 11.5325 19.3148L13.9696 21.9025C14.5131 22.4795 15.4702 22.2464 15.6944 21.4824L16.5833 18.4539C16.8876 17.4171 17.7025 16.6147 18.7353 16.3347L21.4695 15.5937C22.221 15.39 22.483 14.4469 21.9463 13.8771L19.5473 11.33C19.0299 10.7805 18.2571 10.5609 17.5325 10.7573Z" fill="#9FA1A4"/>
<path d="M30.3943 14.2431L26.9034 15.1892C26.1294 15.399 25.882 16.3856 26.4636 16.9432L28.5654 18.9581C29.4056 19.7636 29.7274 20.9782 29.3979 22.1007L28.5737 24.9087C28.3457 25.6857 29.0477 26.415 29.8217 26.2052L33.3125 25.2591C34.0371 25.0627 34.5978 24.4816 34.7744 23.7441L35.6045 20.2764C35.8505 19.2486 35.5634 18.1648 34.8422 17.3991L32.4092 14.8158C31.8918 14.2663 31.1189 14.0467 30.3943 14.2431Z" fill="#9FA1A4"/>
</g>
</g>
</svg>
