<svg width="109" height="44" viewBox="0 0 109 44" fill="none" xmlns="http://www.w3.org/2000/svg">
<g id="relatar name">
<g id="name">
<path d="M22.1852 30.5114C21.9309 30.5114 21.6952 30.3767 21.5641 30.1563L18.6094 25.1922C18.4782 24.9718 18.2425 24.8371 17.9882 24.8371H16.6142V29.7781C16.6142 30.1831 16.2896 30.5114 15.8892 30.5114H13.6526C13.2521 30.5114 12.9276 30.1831 12.9276 29.7781V14.6546C12.9276 14.2496 13.2521 13.9213 13.6526 13.9213H20.0392C23.2976 13.9213 25.7475 16.3016 25.7475 19.4754C25.7475 21.8076 24.3917 23.6349 22.37 24.4284L25.4898 29.3842C25.7971 29.8724 25.4504 30.5114 24.8782 30.5114H22.1852ZM17.3392 17.4316C16.9388 17.4316 16.6142 17.76 16.6142 18.165V21.5912H19.9678C21.1095 21.5912 21.9657 20.7016 21.9657 19.5234C21.9657 18.3213 21.1095 17.4316 19.9678 17.4316H17.3392Z" fill="#9FA1A4"/>
<path d="M39.7096 24.4284C39.7096 24.5713 39.7054 24.7359 39.6968 24.9018C39.6779 25.267 39.3713 25.5344 39.0095 25.5344H30.6001C31.0283 26.9049 32.1937 27.7465 33.7159 27.7465C34.7379 27.7465 35.6032 27.3902 36.2152 26.9123C36.5445 26.6551 37.0221 26.6054 37.3365 26.8811L38.532 27.9293C38.8399 28.1993 38.8731 28.675 38.5704 28.951C37.3068 30.1037 35.5726 30.8 33.6208 30.8C29.7677 30.8 26.866 28.0109 26.866 24.3082C26.866 20.7017 29.6488 17.9607 33.3354 17.9607C36.9744 17.9607 39.7096 20.7017 39.7096 24.4284ZM33.2878 20.9902C31.9797 20.9902 30.9331 21.8558 30.5764 23.2022H36.023C35.6425 21.8317 34.596 20.9902 33.2878 20.9902Z" fill="#9FA1A4"/>
<path d="M42.4344 30.5115C42.0297 30.5115 41.7015 30.1797 41.7015 29.7706V13.9409C41.7015 13.5317 42.0297 13.2 42.4344 13.2H44.4412C44.846 13.2 45.1741 13.5317 45.1741 13.9409V29.7706C45.1741 30.1797 44.846 30.5115 44.4412 30.5115H42.4344Z" fill="#9FA1A4"/>
<path d="M56.7744 18.99C56.7744 18.5808 57.1026 18.2491 57.5073 18.2491H59.5141C59.9188 18.2491 60.247 18.5808 60.247 18.99V29.7705C60.247 30.1797 59.9188 30.5114 59.5141 30.5114H57.5073C57.1026 30.5114 56.7744 30.1797 56.7744 29.7705V29.2852C55.8468 30.2469 54.5862 30.7999 53.1116 30.7999C49.7817 30.7999 47.2606 28.0349 47.2606 24.3803C47.2606 20.7256 49.7817 17.9606 53.1116 17.9606C54.5862 17.9606 55.8468 18.5136 56.7744 19.4754V18.99ZM53.8013 27.4098C55.5138 27.4098 56.7744 26.1114 56.7744 24.3803C56.7744 22.6491 55.5138 21.3508 53.8013 21.3508C52.1126 21.3508 50.8521 22.6491 50.8521 24.3803C50.8521 26.1114 52.1126 27.4098 53.8013 27.4098Z" fill="#9FA1A4"/>
<path d="M70.6594 20.706C70.6594 21.1151 70.3313 21.4469 69.9265 21.4469H67.5436V25.943C67.5436 26.8807 68.0431 27.4097 69.0658 27.4097C69.2223 27.4097 69.3726 27.3974 69.5172 27.3751C70.0624 27.2911 70.6594 27.6465 70.6594 28.2041V29.813C70.6594 30.0936 70.5043 30.3549 70.2464 30.4586C69.6703 30.6903 69.0768 30.7998 68.3285 30.7998C65.3792 30.7998 64.0711 29.0447 64.0711 26.5201V21.4469H62.9726C62.5678 21.4469 62.2397 21.1151 62.2397 20.706V18.9899C62.2397 18.5807 62.5678 18.249 62.9726 18.249H64.0711V15.9604C64.0711 15.5512 64.3992 15.2195 64.804 15.2195H66.8107C67.2155 15.2195 67.5436 15.5512 67.5436 15.9604V18.249H69.9265C70.3313 18.249 70.6594 18.5807 70.6594 18.9899V20.706Z" fill="#9FA1A4"/>
<path d="M81.3485 18.99C81.3485 18.5808 81.6767 18.2491 82.0814 18.2491H84.0882C84.4929 18.2491 84.8211 18.5808 84.8211 18.99V29.7705C84.8211 30.1797 84.4929 30.5114 84.0882 30.5114H82.0814C81.6767 30.5114 81.3485 30.1797 81.3485 29.7705V29.2852C80.4209 30.2469 79.1603 30.7999 77.6857 30.7999C74.3558 30.7999 71.8347 28.0349 71.8347 24.3803C71.8347 20.7256 74.3558 17.9606 77.6857 17.9606C79.1603 17.9606 80.4209 18.5136 81.3485 19.4754V18.99ZM78.3754 27.4098C80.0879 27.4098 81.3485 26.1114 81.3485 24.3803C81.3485 22.6491 80.0879 21.3508 78.3754 21.3508C76.6867 21.3508 75.4262 22.6491 75.4262 24.3803C75.4262 26.1114 76.6867 27.4098 78.3754 27.4098Z" fill="#9FA1A4"/>
<path d="M94.3301 18.0567C94.6191 18.0567 94.8534 18.2936 94.8534 18.5857V21.1343C94.8534 21.4265 94.6191 21.6633 94.3301 21.6633C92.2133 21.6633 91.0478 22.8895 91.0478 24.789V29.7705C91.0478 30.1797 90.7197 30.5114 90.3149 30.5114H88.3082C87.9034 30.5114 87.5753 30.1797 87.5753 29.7705V18.99C87.5753 18.5808 87.9034 18.2491 88.3082 18.2491H90.3149C90.7197 18.2491 91.0478 18.5808 91.0478 18.99V19.6436C91.9041 18.6338 93.022 18.0567 94.3301 18.0567Z" fill="#9FA1A4"/>
</g>
</g>
</svg>
