<svg width="16" height="16" viewBox="0 0 16 16" fill="none" xmlns="http://www.w3.org/2000/svg">
<g id="required field">
<g id="i">
<path fill-rule="evenodd" clip-rule="evenodd" d="M7.27 5.96752C7.432 6.12276 7.65474 6.20038 7.93822 6.20038C8.22171 6.20038 8.44107 6.12276 8.59632 5.96752C8.75831 5.81227 8.83931 5.60303 8.83931 5.3398V5.28917C8.83931 5.02594 8.75831 4.8167 8.59632 4.66145C8.44107 4.50621 8.22171 4.42859 7.93822 4.42859C7.65474 4.42859 7.432 4.50621 7.27 4.66145C7.11476 4.8167 7.03714 5.02594 7.03714 5.28917V5.3398C7.03714 5.60303 7.11476 5.81227 7.27 5.96752Z" fill="#636A74"/>
<path d="M6.68345 11.1484L7.00275 10.9607C7.11187 10.8966 7.17888 10.7794 7.17888 10.6528V8.2096C7.17888 8.0415 7.06166 7.89615 6.89737 7.86056L6.85151 7.85062C6.68805 7.8152 6.57141 7.67059 6.57141 7.50334C6.57141 7.33432 6.69047 7.18869 6.85612 7.15509L8.28967 6.86432C8.51094 6.81944 8.71781 6.98856 8.71781 7.21433V10.6528C8.71781 10.7794 8.78482 10.8966 8.89395 10.9607L9.21324 11.1484C9.28266 11.1892 9.32528 11.2637 9.32528 11.3443C9.32528 11.4697 9.22357 11.5714 9.09811 11.5714H6.79859C6.67312 11.5714 6.57141 11.4697 6.57141 11.3443C6.57141 11.2637 6.61404 11.1892 6.68345 11.1484Z" fill="#636A74"/>
</g>
<path id="shape" d="M13.8214 8C13.8214 11.2151 11.2151 13.8214 8 13.8214C4.78491 13.8214 2.17857 11.2151 2.17857 8C2.17857 4.78491 4.78491 2.17857 8 2.17857C11.2151 2.17857 13.8214 4.78491 13.8214 8Z" stroke="#636A74" stroke-width="0.357143" stroke-linecap="round" stroke-linejoin="round"/>
</g>
</svg>
