<svg width="16" height="16" viewBox="0 0 16 16" fill="none" xmlns="http://www.w3.org/2000/svg">
<g id="required field">
<g id="shape">
<path fill-rule="evenodd" clip-rule="evenodd" d="M8 14C11.3137 14 14 11.3137 14 8C14 4.68629 11.3137 2 8 2C4.68629 2 2 4.68629 2 8C2 11.3137 4.68629 14 8 14Z" fill="#DD3914"/>
</g>
<g id="i">
<path fill-rule="evenodd" clip-rule="evenodd" d="M7.26988 5.9674C7.43187 6.12264 7.65461 6.20026 7.9381 6.20026C8.22159 6.20026 8.44095 6.12264 8.5962 5.9674C8.75819 5.81215 8.83918 5.60291 8.83918 5.33967V5.28905C8.83918 5.02581 8.75819 4.81657 8.5962 4.66133C8.44095 4.50609 8.22159 4.42847 7.9381 4.42847C7.65461 4.42847 7.43187 4.50609 7.26988 4.66133C7.11464 4.81657 7.03702 5.02581 7.03702 5.28905V5.33967C7.03702 5.60291 7.11464 5.81215 7.26988 5.9674Z" fill="#FAFAFA"/>
<path d="M6.68333 11.1483L7.00262 10.9606C7.11175 10.8964 7.17876 10.7793 7.17876 10.6527V8.20948C7.17876 8.04138 7.06153 7.89603 6.89724 7.86044L6.85139 7.8505C6.68792 7.81508 6.57129 7.67047 6.57129 7.50322C6.57129 7.33419 6.69035 7.18856 6.85599 7.15497L8.28955 6.8642C8.51082 6.81932 8.71769 6.98844 8.71769 7.21421V10.6527C8.71769 10.7793 8.7847 10.8964 8.89383 10.9606L9.21312 11.1483C9.28254 11.1891 9.32516 11.2636 9.32516 11.3441C9.32516 11.4696 9.22345 11.5713 9.09799 11.5713H6.79846C6.673 11.5713 6.57129 11.4696 6.57129 11.3441C6.57129 11.2636 6.61391 11.1891 6.68333 11.1483Z" fill="#FAFAFA"/>
</g>
</g>
</svg>
