<svg width="33" height="32" viewBox="0 0 33 32" fill="none" xmlns="http://www.w3.org/2000/svg">
<g id="search">
<g id="shape">
<path fill-rule="evenodd" clip-rule="evenodd" d="M4.25 13.3333C4.25 8.17868 8.42868 4 13.5833 4C18.738 4 22.9167 8.17868 22.9167 13.3333C22.9167 15.6707 22.0575 17.8074 20.6376 19.4448L28.0547 26.8619C28.3151 27.1223 28.3151 27.5444 28.0547 27.8047C27.7944 28.0651 27.3723 28.0651 27.1119 27.8047L19.6948 20.3876C18.0574 21.8075 15.9207 22.6667 13.5833 22.6667C8.42868 22.6667 4.25 18.488 4.25 13.3333ZM5.58333 13.3333C5.58333 8.91506 9.16506 5.33333 13.5833 5.33333C18.0016 5.33333 21.5833 8.91506 21.5833 13.3333C21.5833 17.7516 18.0016 21.3333 13.5833 21.3333C9.16506 21.3333 5.58333 17.7516 5.58333 13.3333Z" fill="#FAFAFA"/>
</g>
</g>
</svg>
