<svg width="33" height="32" viewBox="0 0 33 32" fill="none" xmlns="http://www.w3.org/2000/svg">
<g id="search">
<path id="shape" fill-rule="evenodd" clip-rule="evenodd" d="M13.5835 3.33325C8.06065 3.33325 3.5835 7.8104 3.5835 13.3333C3.5835 18.8561 8.06065 23.3333 13.5835 23.3333C15.8636 23.3333 17.9667 22.5694 19.649 21.2843L26.6407 28.2761C27.1614 28.7968 28.0056 28.7968 28.5263 28.2761C29.047 27.7554 29.047 26.9111 28.5263 26.3904L21.5346 19.3987C22.8197 17.7165 23.5835 15.6134 23.5835 13.3333C23.5835 7.8104 19.1063 3.33325 13.5835 3.33325ZM6.25016 13.3333C6.25016 9.28316 9.53341 5.99992 13.5835 5.99992C17.6336 5.99992 20.9168 9.28316 20.9168 13.3333C20.9168 17.3833 17.6336 20.6666 13.5835 20.6666C9.53341 20.6666 6.25016 17.3833 6.25016 13.3333Z" fill="#FAFAFA"/>
</g>
</svg>
