<svg width="24" height="24" viewBox="0 0 24 24" fill="none" xmlns="http://www.w3.org/2000/svg">
<g id="shield">
<g id="shape">
<path fill-rule="evenodd" clip-rule="evenodd" d="M11.853 3.02211C11.9488 2.99263 12.0512 2.99263 12.147 3.02211L18.647 5.02211C18.8568 5.08666 19 5.2805 19 5.5V10.576C19 12.1844 18.6305 13.7714 17.9199 15.2144C17.2094 16.6574 16.1768 17.9178 14.902 18.8985L12.3049 20.8963C12.1251 21.0346 11.8749 21.0346 11.6951 20.8963L9.09804 18.8985C7.82315 17.9178 6.79061 16.6574 6.08007 15.2144C5.36953 13.7714 5.00001 12.1844 5 10.576V5.5C5 5.2805 5.14316 5.08666 5.35296 5.02211L11.853 3.02211ZM6 10.576V5.86929L12 4.02313L18 5.86929V10.576C18 12.0313 17.6657 13.4671 17.0228 14.7726C16.3799 16.0782 15.4457 17.2186 14.2922 18.1059L12 19.8692L9.70775 18.1059C8.55428 17.2186 7.62007 16.0782 6.97721 14.7726C6.33434 13.4671 6.00001 12.0313 6 10.576Z" fill="#C6C9CE"/>
<path d="M15.3536 9.64645C15.5488 9.84171 15.5488 10.1583 15.3536 10.3536L11.3536 14.3536C11.1583 14.5488 10.8417 14.5488 10.6464 14.3536L8.64645 12.3536C8.45118 12.1583 8.45118 11.8417 8.64645 11.6464C8.84171 11.4512 9.15829 11.4512 9.35355 11.6464L11 13.2929L14.6464 9.64645C14.8417 9.45118 15.1583 9.45118 15.3536 9.64645Z" fill="#C6C9CE"/>
</g>
</g>
</svg>
