<svg width="375" height="812" viewBox="0 0 375 812" fill="none" xmlns="http://www.w3.org/2000/svg">
<g clip-path="url(#clip0_1726_4722)">
<path d="M-137.973 23.4765L538.104 36.4906" stroke="#E0EFE9" stroke-width="63.6607"/>
<path d="M192.807 471.826L329.805 554.631" stroke="#E0EFE9" stroke-width="63.6607"/>
<path d="M-4.79552 533.962L-122.568 605.922L-170.059 631.823" stroke="#D4E5DE" stroke-width="63.6607"/>
<path d="M-5.05007 534.6L-151.342 627.485" stroke="#FAFAFA" stroke-width="21.2202"/>
<path d="M-124.095 824.738L242.209 816.062L282.442 774.34L299.631 682.221L393.085 279.166" stroke="#E0EFE9" stroke-width="63.6607"/>
<path d="M68.4147 -11.6106L-124.095 398.717L26.7806 568.37M286.771 860.718L81.3379 629.718M473.424 693.704L81.4015 905.375M81.3379 629.718L26.7806 568.37M81.3379 629.718L209.901 447.233M338.464 264.748L209.901 447.233M26.7806 568.37L222.092 227.364M42.5685 349.723L209.901 447.233" stroke="#FAFAFA" stroke-width="10.6101"/>
<path d="M85.603 179.901L41.1042 356.23M-4.54057 536.258L41.1042 356.23M-59.4161 272.021L41.1042 356.23" stroke="#FAFAFA" stroke-width="21.2202"/>
<path d="M279.514 797.434L390.156 279.166" stroke="#FAFAFA" stroke-width="21.2202"/>
<path d="M251.63 813L-200.871 825.631" stroke="#FAFAFA" stroke-width="21.2202"/>
<path d="M-88.8277 593.801L-17.082 709.142M54.6637 824.483L-17.082 709.142M-17.082 709.142L124.69 682.986" stroke="#FAFAFA" stroke-width="10.6101"/>
<path d="M194.081 476.291L331.588 550.676" stroke="#FAFAFA" stroke-width="21.2202"/>
<path d="M368.511 33.6836L388.628 291.925" stroke="#FAFAFA" stroke-width="21.2202"/>
<path d="M81.2741 191.257L153.338 24.242" stroke="#FAFAFA" stroke-width="10.6101"/>
<path d="M-148.159 22.9661L505.51 37.2561H548.035" stroke="#FAFAFA" stroke-width="21.2202"/>
<path d="M266.654 -22.7109L236.479 224.813L-142.812 109.727L473.424 296.773" stroke="#FAFAFA" stroke-width="21.2202"/>
<path d="M278 809C291.428 732.626 316.462 657.487 329.89 581.113C340.638 519.98 214.927 506.711 192.743 473.345" stroke="#CFFF91" stroke-width="4.84018" stroke-dasharray="9.68 9.68"/>
</g>
<defs>
<clipPath id="clip0_1726_4722">
<rect width="617" height="813" fill="white" transform="translate(-112)"/>
</clipPath>
</defs>
</svg>
