<svg width="24" height="24" viewBox="0 0 24 24" fill="none" xmlns="http://www.w3.org/2000/svg">
<g id="icon left">
<g id="shape">
<path fill-rule="evenodd" clip-rule="evenodd" d="M8 5.5C8 4.67157 8.67157 4 9.5 4H14.5C15.3284 4 16 4.67157 16 5.5V6H19.5C20.3284 6 21 6.67157 21 7.5V11.5C21 12.1531 20.5826 12.7087 20 12.9146V18.5C20 19.3284 19.3284 20 18.5 20H5.5C4.67157 20 4 19.3284 4 18.5V12.9146C3.4174 12.7087 3 12.1531 3 11.5V7.5C3 6.67157 3.67157 6 4.5 6H8V5.5ZM9 5.5C9 5.22386 9.22386 5 9.5 5H14.5C14.7761 5 15 5.22386 15 5.5V6H9V5.5ZM20 11.5C20 11.7761 19.7761 12 19.5 12H14.9146C14.7087 11.4174 14.1531 11 13.5 11H10.5C9.84689 11 9.29127 11.4174 9.08535 12H4.5C4.22386 12 4 11.7761 4 11.5V7.5C4 7.22386 4.22386 7 4.5 7H19.5C19.7761 7 20 7.22386 20 7.5V11.5ZM5 18.5V13H9.08535C9.09538 13.0284 9.10623 13.0563 9.11788 13.0839C9.34559 13.6222 9.87868 14 10.5 14H13.5C14.1531 14 14.7087 13.5826 14.9146 13H19V18.5C19 18.7761 18.7761 19 18.5 19H5.5C5.22386 19 5 18.7761 5 18.5ZM13.5 12C13.7761 12 14 12.2239 14 12.5C14 12.7761 13.7761 13 13.5 13H10.5C10.2239 13 10 12.7761 10 12.5C10 12.2239 10.2239 12 10.5 12H13.5Z" fill="#323A45"/>
</g>
</g>
</svg>
