<svg width="24" height="24" viewBox="0 0 24 24" fill="none" xmlns="http://www.w3.org/2000/svg">
<g id="field type">
<g id="shape">
<path fill-rule="evenodd" clip-rule="evenodd" d="M12.0972 6.87988L15.3336 14.4999C15.5551 15.0744 15.8278 15.6278 16.1485 16.1534C16.23 16.2693 16.3394 16.3628 16.4665 16.4254C16.5936 16.4879 16.7344 16.5176 16.8759 16.5115H16.9129V16.8799H12.2176V16.5114C12.5321 16.5159 12.8456 16.4755 13.1486 16.3914C13.2976 16.3305 13.3718 16.1743 13.3718 15.9243C13.3589 15.7475 13.3208 15.5734 13.2587 15.4074C13.2113 15.2706 13.1474 15.1052 13.0671 14.9112L12.698 14.0331H9.44212C9.22932 14.6095 9.09208 14.9849 9.03042 15.1593C8.92781 15.4201 8.86347 15.6944 8.83942 15.9736C8.83942 16.1816 8.97868 16.3328 9.25722 16.4272C9.5002 16.4888 9.7504 16.5172 10.001 16.5118V16.8799H7.04102V16.5114C7.20856 16.5026 7.37181 16.4552 7.51802 16.3729C7.66423 16.2906 7.78945 16.1756 7.88392 16.037C8.12077 15.6521 8.3176 15.244 8.47132 14.819L11.6934 6.87988H12.0972ZM12.4852 13.4592H9.65922L10.9682 10.1024H11.0898L12.4852 13.4592Z" fill="#C6C9CE"/>
</g>
</g>
</svg>
