<svg width="24" height="25" viewBox="0 0 24 25" fill="none" xmlns="http://www.w3.org/2000/svg">
<g id="user">
<g id="shape">
<path fill-rule="evenodd" clip-rule="evenodd" d="M12 8.30251C10.5768 8.30251 9.4231 9.45622 9.4231 10.8794C9.4231 12.3026 10.5768 13.4563 12 13.4563C13.4232 13.4563 14.5769 12.3026 14.5769 10.8794C14.5769 9.45622 13.4232 8.30251 12 8.30251ZM8.4231 10.8794C8.4231 8.90394 10.0245 7.30251 12 7.30251C13.9755 7.30251 15.5769 8.90394 15.5769 10.8794C15.5769 12.8549 13.9755 14.4563 12 14.4563C10.0245 14.4563 8.4231 12.8549 8.4231 10.8794Z" fill="#C6C9CE"/>
<path fill-rule="evenodd" clip-rule="evenodd" d="M19.9805 8.21921C20.6503 9.50396 21.0001 10.9314 21 12.3803C21.0021 14.5139 20.2439 16.5789 18.8615 18.204C18.4015 18.7491 17.8744 19.2337 17.2926 19.6463C15.7581 20.7731 13.9039 21.3808 12 21.3808C10.0961 21.3808 8.24193 20.7731 6.70739 19.6463C6.12557 19.2336 5.59835 18.749 5.13833 18.2038C4.20082 17.0992 3.54382 15.7847 3.22318 14.3718C2.90248 12.9586 2.92774 11.489 3.29681 10.0877C3.66588 8.68641 4.36784 7.39497 5.34303 6.32315C6.31822 5.25133 7.53779 4.43083 8.89806 3.9314C10.2583 3.43196 11.7191 3.26837 13.1562 3.45452C14.5932 3.64066 15.9641 4.17105 17.1522 5.0006C18.3403 5.83014 19.3106 6.9343 19.9805 8.21921ZM8.08803 17.4708C7.91235 17.5572 7.76425 17.6909 7.66037 17.8569C7.55624 18.0232 7.5007 18.2154 7.5 18.4116V18.9829C8.03005 19.3474 8.5997 19.6443 9.19564 19.8692C9.28078 19.9013 9.36645 19.932 9.45262 19.9612C9.5511 19.9945 9.65023 20.0259 9.74995 20.0554C9.95792 20.1168 10.1685 20.1698 10.3811 20.214L10.4338 20.2248C10.9467 20.328 11.4712 20.3808 12 20.3808C13.5239 20.3808 15.0119 19.9425 16.2886 19.1233C16.3597 19.0777 16.4302 19.0309 16.5 18.9829V18.4117C16.4993 18.2154 16.4438 18.0232 16.3396 17.8569C16.2357 17.6909 16.0876 17.5572 15.9119 17.4708C14.6906 16.8866 13.3539 16.5833 12 16.5833C10.6461 16.5833 9.30938 16.8866 8.08803 17.4708ZM9.24272 4.87012C10.4519 4.42618 11.7503 4.28076 13.0277 4.44623C14.3051 4.6117 15.5236 5.08315 16.5797 5.82052C17.6358 6.55789 18.4983 7.53937 19.0938 8.68152C19.6892 9.82367 20.0001 11.0933 20 12.3813C20.002 14.2776 19.3281 16.1126 18.0992 17.5568L18.0978 17.5584C17.9074 17.7841 17.704 17.998 17.4886 18.1991C17.4558 17.89 17.3532 17.5914 17.1873 17.3263C16.984 17.0016 16.6939 16.7402 16.3498 16.5717L16.3459 16.5698C14.9891 15.9204 13.5041 15.5833 12 15.5833C10.4959 15.5833 9.01085 15.9204 7.65413 16.5698L7.65016 16.5717C7.30606 16.7402 7.01597 17.0016 6.81271 17.3263C6.64681 17.5914 6.54416 17.89 6.51142 18.1991C6.29604 17.998 6.09257 17.7841 5.90216 17.5584L5.90118 17.5572C5.0676 16.5753 4.48344 15.4066 4.19838 14.1505C3.91331 12.8943 3.93577 11.588 4.26383 10.3424C4.59189 9.09681 5.21586 7.94886 6.08269 6.99613C6.94953 6.0434 8.03359 5.31407 9.24272 4.87012ZM8.4231 10.8794C8.4231 8.90394 10.0245 7.30251 12 7.30251C13.9755 7.30251 15.5769 8.90394 15.5769 10.8794C15.5769 12.8549 13.9755 14.4563 12 14.4563C10.0245 14.4563 8.4231 12.8549 8.4231 10.8794ZM12 8.30251C10.5768 8.30251 9.4231 9.45622 9.4231 10.8794C9.4231 12.3026 10.5768 13.4563 12 13.4563C13.4232 13.4563 14.5769 12.3026 14.5769 10.8794C14.5769 9.45622 13.4232 8.30251 12 8.30251Z" fill="#C6C9CE"/>
</g>
</g>
</svg>
