<svg width="24" height="24" viewBox="0 0 24 24" fill="none" xmlns="http://www.w3.org/2000/svg">
<g id="user">
<g id="shape">
<path fill-rule="evenodd" clip-rule="evenodd" d="M16 9C16 11.2091 14.2091 13 12 13C9.79086 13 8 11.2091 8 9C8 6.79086 9.79086 5 12 5C14.2091 5 16 6.79086 16 9ZM15 9C15 10.6569 13.6569 12 12 12C10.3431 12 9 10.6569 9 9C9 7.34315 10.3431 6 12 6C13.6569 6 15 7.34315 15 9Z" fill="#16C8D3"/>
<path d="M5.88024 15.7941C11.3691 13.3777 16.1814 14.9195 18.2091 15.819C19.0513 16.1927 19.5 17.0341 19.5 17.8954V19.7778C19.5 20.0539 19.2761 20.2778 19 20.2778C18.7239 20.2778 18.5 20.0539 18.5 19.7778V17.8954C18.5 17.3676 18.231 16.9227 17.8036 16.7331C15.9018 15.8894 11.4071 14.4536 6.28316 16.7093C5.80727 16.9188 5.5 17.4161 5.5 17.9778V19.7778C5.5 20.0539 5.27614 20.2778 5 20.2778C4.72386 20.2778 4.5 20.0539 4.5 19.7778V17.9778C4.5 17.0622 5.0041 16.1798 5.88024 15.7941Z" fill="#16C8D3"/>
</g>
</g>
</svg>
