<svg width="40" height="40" viewBox="0 0 40 40" fill="none" xmlns="http://www.w3.org/2000/svg">
<path d="M13.3333 17.5C13.3333 17.0398 13.7063 16.6667 14.1666 16.6667H25.8333C26.2935 16.6667 26.6666 17.0398 26.6666 17.5C26.6666 17.9602 26.2935 18.3333 25.8333 18.3333H14.1666C13.7063 18.3333 13.3333 17.9602 13.3333 17.5Z" fill="#16C8D3"/>
<path d="M13.3333 22.5C13.3333 22.0398 13.7063 21.6667 14.1666 21.6667H20.8333C21.2935 21.6667 21.6666 22.0398 21.6666 22.5C21.6666 22.9602 21.2935 23.3333 20.8333 23.3333H14.1666C13.7063 23.3333 13.3333 22.9602 13.3333 22.5Z" fill="#16C8D3"/>
<path d="M13.3333 27.5C13.3333 27.0398 13.7063 26.6667 14.1666 26.6667H20.8333C21.2935 26.6667 21.6666 27.0398 21.6666 27.5C21.6666 27.9602 21.2935 28.3333 20.8333 28.3333H14.1666C13.7063 28.3333 13.3333 27.9602 13.3333 27.5Z" fill="#16C8D3"/>
<path fill-rule="evenodd" clip-rule="evenodd" d="M30.4606 21.7546C30.6952 21.6373 30.9713 21.6373 31.2059 21.7546L36.2059 24.2546C36.4883 24.3958 36.6666 24.6844 36.6666 25V28.1995C36.6666 29.5055 36.3665 30.794 35.7896 31.9657C35.2127 33.1373 34.3743 34.1608 33.3391 34.9571L31.3414 36.4938C31.0418 36.7243 30.6247 36.7243 30.3252 36.4938L28.3274 34.9571C27.2922 34.1608 26.4538 33.1373 25.8769 31.9657C25.3 30.794 24.9999 29.5055 24.9999 28.1995V25C24.9999 24.6844 25.1783 24.3958 25.4606 24.2546L30.4606 21.7546ZM26.6666 28.1995V25.515L30.8333 23.4317L34.9999 25.515V28.1995C34.9999 29.2502 34.7585 30.2868 34.2944 31.2294C33.8302 32.172 33.1557 32.9954 32.3229 33.636L30.8333 34.782L29.3436 33.636C28.5108 32.9954 27.8363 32.172 27.3721 31.2294C26.908 30.2868 26.6666 29.2502 26.6666 28.1995Z" fill="#16C8D3"/>
<path fill-rule="evenodd" clip-rule="evenodd" d="M9.06549 5.73223C9.53433 5.26339 10.1702 5 10.8333 5H25.8333C26.0543 5 26.2662 5.0878 26.4225 5.24408L31.4225 10.2441C31.5788 10.4004 31.6666 10.6123 31.6666 10.8333V18.3333C31.6666 18.7936 31.2935 19.1667 30.8333 19.1667C30.373 19.1667 29.9999 18.7936 29.9999 18.3333V11.6667H25.8333C25.373 11.6667 24.9999 11.2936 24.9999 10.8333V6.66667H10.8333C10.6122 6.66667 10.4003 6.75446 10.244 6.91074C10.0877 7.06702 9.99992 7.27899 9.99992 7.5V32.5C9.99992 32.721 10.0877 32.933 10.244 33.0893C10.4003 33.2455 10.6122 33.3333 10.8333 33.3333H23.3333C23.7935 33.3333 24.1666 33.7064 24.1666 34.1667C24.1666 34.6269 23.7935 35 23.3333 35H10.8333C10.1702 35 9.53433 34.7366 9.06549 34.2678C8.59664 33.7989 8.33325 33.163 8.33325 32.5V7.5C8.33325 6.83696 8.59664 6.20107 9.06549 5.73223ZM28.8214 10H26.6666V7.84518L28.8214 10Z" fill="#16C8D3"/>
</svg>
