<svg width="24" height="24" viewBox="0 0 24 24" fill="none" xmlns="http://www.w3.org/2000/svg">
<g id="field type">
<g id="shape">
<path fill-rule="evenodd" clip-rule="evenodd" d="M3 12C3 7.02944 7.02944 3 12 3C16.9706 3 21 7.02944 21 12C21 16.9706 16.9706 21 12 21C7.02944 21 3 16.9706 3 12ZM8.73644 16.8596C8.51307 16.36 8.32496 15.8468 8.17292 15.3239H4.72107C5.80922 17.703 8.02943 19.4559 10.6926 19.8937C9.89189 18.9896 9.23157 17.9669 8.73644 16.8596ZM7.69951 12C7.69951 11.0968 7.80227 10.1991 8.00417 9.3239H4.45856C4.16162 10.1606 4 11.0614 4 12C4 12.8082 4.11985 13.5885 4.34276 14.3239H7.92852C7.77663 13.5607 7.69951 12.7824 7.69951 12ZM9.03295 9.3239C8.8121 10.1964 8.69951 11.0952 8.69951 12C8.69951 12.7835 8.78394 13.5626 8.94999 14.3239H15.05C15.2161 13.5626 15.3005 12.7835 15.3005 12C15.3005 11.0952 15.1879 10.1964 14.9671 9.3239H9.03295ZM12 19.8163C12.9885 18.8545 13.7866 17.7129 14.3507 16.4514C14.5154 16.083 14.6591 15.7066 14.7816 15.3239H9.2184C9.34086 15.7066 9.48464 16.083 9.64934 16.4514C10.2134 17.7129 11.0115 18.8545 12 19.8163ZM15.2636 16.8596C15.4869 16.36 15.675 15.8468 15.8271 15.3239H19.2789C18.1908 17.703 15.9706 19.4559 13.3074 19.8937C14.1081 18.9896 14.7684 17.9669 15.2636 16.8596ZM15.9958 9.3239C16.1977 10.1991 16.3005 11.0968 16.3005 12C16.3005 12.7824 16.2234 13.5607 16.0715 14.3239H19.6572C19.8801 13.5885 20 12.8082 20 12C20 11.1309 19.8614 10.2942 19.6051 9.51069C19.5846 9.44808 19.5634 9.38582 19.5414 9.3239H15.9958ZM15.2636 7.14044C14.7684 6.03306 14.1081 5.01037 13.3074 4.1063C15.8374 4.52219 17.9676 6.12497 19.1072 8.3239H15.7187C15.5884 7.92245 15.4366 7.52738 15.2636 7.14044ZM14.3507 7.54861C13.7866 6.28705 12.9885 5.14548 12 4.18371C11.0115 5.14548 10.2134 6.28705 9.64934 7.54861C9.53543 7.80339 9.43153 8.06202 9.33776 8.3239H14.6622C14.5685 8.06202 14.4646 7.80339 14.3507 7.54861ZM10.6926 4.10631C9.89188 5.01037 9.23157 6.03306 8.73644 7.14044C8.56344 7.52738 8.41158 7.92245 8.28126 8.3239H4.89276C6.03243 6.12497 8.16263 4.52219 10.6926 4.10631Z" fill="#C6C9CE"/>
</g>
</g>
</svg>
