<svg width="24" height="24" viewBox="0 0 24 24" fill="none" xmlns="http://www.w3.org/2000/svg">
<path id="icon" d="M12.1076 0C5.55284 0 0.217424 5.33472 0.214643 11.8916C0.213948 13.9875 0.761741 16.0334 1.80241 17.8366L0.115234 24L6.41972 22.3462C8.15694 23.2937 10.1125 23.7928 12.1027 23.7935H12.1076C18.6616 23.7935 23.9971 18.4581 23.9998 11.9013C24.0012 8.72367 22.7652 5.73584 20.5198 3.48836C18.2744 1.24018 15.2887 0.00139034 12.1076 0ZM12.1076 21.7852H12.1034C10.33 21.7852 8.59003 21.3076 7.07248 20.4074L6.71169 20.1933L2.97099 21.1748L3.96925 17.5273L3.73428 17.1533C2.74506 15.5794 2.22229 13.7602 2.22299 11.8929C2.22507 6.44282 6.65955 2.00904 12.1118 2.00904C14.752 2.00973 17.2338 3.03928 19.0996 4.90789C20.9661 6.77581 21.9929 9.25965 21.9922 11.9006C21.9901 17.3507 17.5556 21.7852 12.1076 21.7852ZM17.5292 14.3823C17.2324 14.2336 15.7711 13.5148 15.4986 13.4154C15.2261 13.316 15.028 13.2666 14.8299 13.5641C14.6317 13.8617 14.0624 14.5311 13.8893 14.7292C13.7162 14.9281 13.5424 14.9524 13.2456 14.8036C12.9487 14.6548 11.9908 14.3406 10.8563 13.3285C9.97272 12.5408 9.37627 11.5676 9.20317 11.2701C9.03008 10.9725 9.1844 10.812 9.33386 10.6639C9.46734 10.5311 9.6307 10.317 9.77947 10.1432C9.92823 9.96941 9.97759 9.84567 10.0763 9.64685C10.175 9.44873 10.1257 9.27494 10.0513 9.12617C9.97689 8.97741 9.38253 7.51477 9.13505 6.91971C8.89382 6.34063 8.64912 6.41849 8.46629 6.40945C8.2932 6.40042 8.09507 6.39903 7.89695 6.39903C7.69883 6.39903 7.37696 6.47341 7.10446 6.77094C6.83195 7.06847 6.06449 7.78728 6.06449 9.24991C6.06449 10.7125 7.12948 12.1258 7.27756 12.3239C7.42632 12.5221 9.37279 15.5238 12.3537 16.8106C13.0627 17.1164 13.6161 17.2993 14.0478 17.4362C14.7597 17.6621 15.4076 17.6302 15.9192 17.5537C16.4899 17.4682 17.6773 16.8349 17.9248 16.1404C18.1722 15.4466 18.1722 14.8516 18.0979 14.7271C18.0235 14.6034 17.8253 14.529 17.5285 14.3803L17.5292 14.3823Z" fill="#16C8D3"/>
</svg>
